G75*
%MOIN*%
%OFA0B0*%
%FSLAX25Y25*%
%IPPOS*%
%LPD*%
%AMOC8*
5,1,8,0,0,1.08239X$1,22.5*
%
%ADD10C,0.00000*%
%ADD11C,0.00800*%
%ADD12C,0.00300*%
D10*
X0016811Y0005000D02*
X0249094Y0005000D01*
X0249379Y0005003D01*
X0249665Y0005014D01*
X0249950Y0005031D01*
X0250234Y0005055D01*
X0250518Y0005086D01*
X0250801Y0005124D01*
X0251082Y0005169D01*
X0251363Y0005220D01*
X0251643Y0005278D01*
X0251921Y0005343D01*
X0252197Y0005415D01*
X0252471Y0005493D01*
X0252744Y0005578D01*
X0253014Y0005670D01*
X0253282Y0005768D01*
X0253548Y0005872D01*
X0253811Y0005983D01*
X0254071Y0006100D01*
X0254329Y0006223D01*
X0254583Y0006353D01*
X0254834Y0006489D01*
X0255082Y0006630D01*
X0255326Y0006778D01*
X0255567Y0006931D01*
X0255803Y0007091D01*
X0256036Y0007256D01*
X0256265Y0007426D01*
X0256490Y0007602D01*
X0256710Y0007784D01*
X0256926Y0007970D01*
X0257137Y0008162D01*
X0257344Y0008359D01*
X0257546Y0008561D01*
X0257743Y0008768D01*
X0257935Y0008979D01*
X0258121Y0009195D01*
X0258303Y0009415D01*
X0258479Y0009640D01*
X0258649Y0009869D01*
X0258814Y0010102D01*
X0258974Y0010338D01*
X0259127Y0010579D01*
X0259275Y0010823D01*
X0259416Y0011071D01*
X0259552Y0011322D01*
X0259682Y0011576D01*
X0259805Y0011834D01*
X0259922Y0012094D01*
X0260033Y0012357D01*
X0260137Y0012623D01*
X0260235Y0012891D01*
X0260327Y0013161D01*
X0260412Y0013434D01*
X0260490Y0013708D01*
X0260562Y0013984D01*
X0260627Y0014262D01*
X0260685Y0014542D01*
X0260736Y0014823D01*
X0260781Y0015104D01*
X0260819Y0015387D01*
X0260850Y0015671D01*
X0260874Y0015955D01*
X0260891Y0016240D01*
X0260902Y0016526D01*
X0260905Y0016811D01*
X0260906Y0016811D02*
X0260906Y0213661D01*
X0260905Y0213661D02*
X0260902Y0213946D01*
X0260891Y0214232D01*
X0260874Y0214517D01*
X0260850Y0214801D01*
X0260819Y0215085D01*
X0260781Y0215368D01*
X0260736Y0215649D01*
X0260685Y0215930D01*
X0260627Y0216210D01*
X0260562Y0216488D01*
X0260490Y0216764D01*
X0260412Y0217038D01*
X0260327Y0217311D01*
X0260235Y0217581D01*
X0260137Y0217849D01*
X0260033Y0218115D01*
X0259922Y0218378D01*
X0259805Y0218638D01*
X0259682Y0218896D01*
X0259552Y0219150D01*
X0259416Y0219401D01*
X0259275Y0219649D01*
X0259127Y0219893D01*
X0258974Y0220134D01*
X0258814Y0220370D01*
X0258649Y0220603D01*
X0258479Y0220832D01*
X0258303Y0221057D01*
X0258121Y0221277D01*
X0257935Y0221493D01*
X0257743Y0221704D01*
X0257546Y0221911D01*
X0257344Y0222113D01*
X0257137Y0222310D01*
X0256926Y0222502D01*
X0256710Y0222688D01*
X0256490Y0222870D01*
X0256265Y0223046D01*
X0256036Y0223216D01*
X0255803Y0223381D01*
X0255567Y0223541D01*
X0255326Y0223694D01*
X0255082Y0223842D01*
X0254834Y0223983D01*
X0254583Y0224119D01*
X0254329Y0224249D01*
X0254071Y0224372D01*
X0253811Y0224489D01*
X0253548Y0224600D01*
X0253282Y0224704D01*
X0253014Y0224802D01*
X0252744Y0224894D01*
X0252471Y0224979D01*
X0252197Y0225057D01*
X0251921Y0225129D01*
X0251643Y0225194D01*
X0251363Y0225252D01*
X0251082Y0225303D01*
X0250801Y0225348D01*
X0250518Y0225386D01*
X0250234Y0225417D01*
X0249950Y0225441D01*
X0249665Y0225458D01*
X0249379Y0225469D01*
X0249094Y0225472D01*
X0016811Y0225472D01*
X0016526Y0225469D01*
X0016240Y0225458D01*
X0015955Y0225441D01*
X0015671Y0225417D01*
X0015387Y0225386D01*
X0015104Y0225348D01*
X0014823Y0225303D01*
X0014542Y0225252D01*
X0014262Y0225194D01*
X0013984Y0225129D01*
X0013708Y0225057D01*
X0013434Y0224979D01*
X0013161Y0224894D01*
X0012891Y0224802D01*
X0012623Y0224704D01*
X0012357Y0224600D01*
X0012094Y0224489D01*
X0011834Y0224372D01*
X0011576Y0224249D01*
X0011322Y0224119D01*
X0011071Y0223983D01*
X0010823Y0223842D01*
X0010579Y0223694D01*
X0010338Y0223541D01*
X0010102Y0223381D01*
X0009869Y0223216D01*
X0009640Y0223046D01*
X0009415Y0222870D01*
X0009195Y0222688D01*
X0008979Y0222502D01*
X0008768Y0222310D01*
X0008561Y0222113D01*
X0008359Y0221911D01*
X0008162Y0221704D01*
X0007970Y0221493D01*
X0007784Y0221277D01*
X0007602Y0221057D01*
X0007426Y0220832D01*
X0007256Y0220603D01*
X0007091Y0220370D01*
X0006931Y0220134D01*
X0006778Y0219893D01*
X0006630Y0219649D01*
X0006489Y0219401D01*
X0006353Y0219150D01*
X0006223Y0218896D01*
X0006100Y0218638D01*
X0005983Y0218378D01*
X0005872Y0218115D01*
X0005768Y0217849D01*
X0005670Y0217581D01*
X0005578Y0217311D01*
X0005493Y0217038D01*
X0005415Y0216764D01*
X0005343Y0216488D01*
X0005278Y0216210D01*
X0005220Y0215930D01*
X0005169Y0215649D01*
X0005124Y0215368D01*
X0005086Y0215085D01*
X0005055Y0214801D01*
X0005031Y0214517D01*
X0005014Y0214232D01*
X0005003Y0213946D01*
X0005000Y0213661D01*
X0005000Y0152638D01*
X0005002Y0152514D01*
X0005008Y0152391D01*
X0005017Y0152267D01*
X0005031Y0152145D01*
X0005048Y0152022D01*
X0005070Y0151900D01*
X0005095Y0151779D01*
X0005124Y0151659D01*
X0005156Y0151540D01*
X0005193Y0151421D01*
X0005233Y0151304D01*
X0005276Y0151189D01*
X0005324Y0151074D01*
X0005375Y0150962D01*
X0005429Y0150851D01*
X0005487Y0150741D01*
X0005548Y0150634D01*
X0005613Y0150528D01*
X0005681Y0150425D01*
X0005752Y0150324D01*
X0005826Y0150225D01*
X0005903Y0150128D01*
X0005984Y0150034D01*
X0006067Y0149943D01*
X0006153Y0149854D01*
X0006242Y0149768D01*
X0006333Y0149685D01*
X0006427Y0149604D01*
X0006524Y0149527D01*
X0006623Y0149453D01*
X0006724Y0149382D01*
X0006827Y0149314D01*
X0006933Y0149249D01*
X0007040Y0149188D01*
X0007150Y0149130D01*
X0007261Y0149076D01*
X0007373Y0149025D01*
X0007488Y0148977D01*
X0007603Y0148934D01*
X0007720Y0148894D01*
X0007839Y0148857D01*
X0007958Y0148825D01*
X0008078Y0148796D01*
X0008199Y0148771D01*
X0008321Y0148749D01*
X0008444Y0148732D01*
X0008566Y0148718D01*
X0008690Y0148709D01*
X0008813Y0148703D01*
X0008937Y0148701D01*
X0020748Y0148701D01*
X0020872Y0148699D01*
X0020995Y0148693D01*
X0021119Y0148684D01*
X0021241Y0148670D01*
X0021364Y0148653D01*
X0021486Y0148631D01*
X0021607Y0148606D01*
X0021727Y0148577D01*
X0021846Y0148545D01*
X0021965Y0148508D01*
X0022082Y0148468D01*
X0022197Y0148425D01*
X0022312Y0148377D01*
X0022424Y0148326D01*
X0022535Y0148272D01*
X0022645Y0148214D01*
X0022752Y0148153D01*
X0022858Y0148088D01*
X0022961Y0148020D01*
X0023062Y0147949D01*
X0023161Y0147875D01*
X0023258Y0147798D01*
X0023352Y0147717D01*
X0023443Y0147634D01*
X0023532Y0147548D01*
X0023618Y0147459D01*
X0023701Y0147368D01*
X0023782Y0147274D01*
X0023859Y0147177D01*
X0023933Y0147078D01*
X0024004Y0146977D01*
X0024072Y0146874D01*
X0024137Y0146768D01*
X0024198Y0146661D01*
X0024256Y0146551D01*
X0024310Y0146440D01*
X0024361Y0146328D01*
X0024409Y0146213D01*
X0024452Y0146098D01*
X0024492Y0145981D01*
X0024529Y0145862D01*
X0024561Y0145743D01*
X0024590Y0145623D01*
X0024615Y0145502D01*
X0024637Y0145380D01*
X0024654Y0145257D01*
X0024668Y0145135D01*
X0024677Y0145011D01*
X0024683Y0144888D01*
X0024685Y0144764D01*
X0024685Y0085709D01*
X0024683Y0085585D01*
X0024677Y0085462D01*
X0024668Y0085338D01*
X0024654Y0085216D01*
X0024637Y0085093D01*
X0024615Y0084971D01*
X0024590Y0084850D01*
X0024561Y0084730D01*
X0024529Y0084611D01*
X0024492Y0084492D01*
X0024452Y0084375D01*
X0024409Y0084260D01*
X0024361Y0084145D01*
X0024310Y0084033D01*
X0024256Y0083922D01*
X0024198Y0083812D01*
X0024137Y0083705D01*
X0024072Y0083599D01*
X0024004Y0083496D01*
X0023933Y0083395D01*
X0023859Y0083296D01*
X0023782Y0083199D01*
X0023701Y0083105D01*
X0023618Y0083014D01*
X0023532Y0082925D01*
X0023443Y0082839D01*
X0023352Y0082756D01*
X0023258Y0082675D01*
X0023161Y0082598D01*
X0023062Y0082524D01*
X0022961Y0082453D01*
X0022858Y0082385D01*
X0022752Y0082320D01*
X0022645Y0082259D01*
X0022535Y0082201D01*
X0022424Y0082147D01*
X0022312Y0082096D01*
X0022197Y0082048D01*
X0022082Y0082005D01*
X0021965Y0081965D01*
X0021846Y0081928D01*
X0021727Y0081896D01*
X0021607Y0081867D01*
X0021486Y0081842D01*
X0021364Y0081820D01*
X0021241Y0081803D01*
X0021119Y0081789D01*
X0020995Y0081780D01*
X0020872Y0081774D01*
X0020748Y0081772D01*
X0008937Y0081772D01*
X0008813Y0081770D01*
X0008690Y0081764D01*
X0008566Y0081755D01*
X0008444Y0081741D01*
X0008321Y0081724D01*
X0008199Y0081702D01*
X0008078Y0081677D01*
X0007958Y0081648D01*
X0007839Y0081616D01*
X0007720Y0081579D01*
X0007603Y0081539D01*
X0007488Y0081496D01*
X0007373Y0081448D01*
X0007261Y0081397D01*
X0007150Y0081343D01*
X0007040Y0081285D01*
X0006933Y0081224D01*
X0006827Y0081159D01*
X0006724Y0081091D01*
X0006623Y0081020D01*
X0006524Y0080946D01*
X0006427Y0080869D01*
X0006333Y0080788D01*
X0006242Y0080705D01*
X0006153Y0080619D01*
X0006067Y0080530D01*
X0005984Y0080439D01*
X0005903Y0080345D01*
X0005826Y0080248D01*
X0005752Y0080149D01*
X0005681Y0080048D01*
X0005613Y0079945D01*
X0005548Y0079839D01*
X0005487Y0079732D01*
X0005429Y0079622D01*
X0005375Y0079511D01*
X0005324Y0079399D01*
X0005276Y0079284D01*
X0005233Y0079169D01*
X0005193Y0079052D01*
X0005156Y0078933D01*
X0005124Y0078814D01*
X0005095Y0078694D01*
X0005070Y0078573D01*
X0005048Y0078451D01*
X0005031Y0078328D01*
X0005017Y0078206D01*
X0005008Y0078082D01*
X0005002Y0077959D01*
X0005000Y0077835D01*
X0005000Y0016811D01*
X0005003Y0016526D01*
X0005014Y0016240D01*
X0005031Y0015955D01*
X0005055Y0015671D01*
X0005086Y0015387D01*
X0005124Y0015104D01*
X0005169Y0014823D01*
X0005220Y0014542D01*
X0005278Y0014262D01*
X0005343Y0013984D01*
X0005415Y0013708D01*
X0005493Y0013434D01*
X0005578Y0013161D01*
X0005670Y0012891D01*
X0005768Y0012623D01*
X0005872Y0012357D01*
X0005983Y0012094D01*
X0006100Y0011834D01*
X0006223Y0011576D01*
X0006353Y0011322D01*
X0006489Y0011071D01*
X0006630Y0010823D01*
X0006778Y0010579D01*
X0006931Y0010338D01*
X0007091Y0010102D01*
X0007256Y0009869D01*
X0007426Y0009640D01*
X0007602Y0009415D01*
X0007784Y0009195D01*
X0007970Y0008979D01*
X0008162Y0008768D01*
X0008359Y0008561D01*
X0008561Y0008359D01*
X0008768Y0008162D01*
X0008979Y0007970D01*
X0009195Y0007784D01*
X0009415Y0007602D01*
X0009640Y0007426D01*
X0009869Y0007256D01*
X0010102Y0007091D01*
X0010338Y0006931D01*
X0010579Y0006778D01*
X0010823Y0006630D01*
X0011071Y0006489D01*
X0011322Y0006353D01*
X0011576Y0006223D01*
X0011834Y0006100D01*
X0012094Y0005983D01*
X0012357Y0005872D01*
X0012623Y0005768D01*
X0012891Y0005670D01*
X0013161Y0005578D01*
X0013434Y0005493D01*
X0013708Y0005415D01*
X0013984Y0005343D01*
X0014262Y0005278D01*
X0014542Y0005220D01*
X0014823Y0005169D01*
X0015104Y0005124D01*
X0015387Y0005086D01*
X0015671Y0005055D01*
X0015955Y0005031D01*
X0016240Y0005014D01*
X0016526Y0005003D01*
X0016811Y0005000D01*
X0013367Y0018780D02*
X0013369Y0018927D01*
X0013375Y0019073D01*
X0013385Y0019219D01*
X0013399Y0019365D01*
X0013417Y0019511D01*
X0013438Y0019656D01*
X0013464Y0019800D01*
X0013494Y0019944D01*
X0013527Y0020086D01*
X0013564Y0020228D01*
X0013605Y0020369D01*
X0013650Y0020508D01*
X0013699Y0020647D01*
X0013751Y0020784D01*
X0013808Y0020919D01*
X0013867Y0021053D01*
X0013931Y0021185D01*
X0013998Y0021315D01*
X0014068Y0021444D01*
X0014142Y0021571D01*
X0014219Y0021695D01*
X0014300Y0021818D01*
X0014384Y0021938D01*
X0014471Y0022056D01*
X0014561Y0022171D01*
X0014654Y0022284D01*
X0014751Y0022395D01*
X0014850Y0022503D01*
X0014952Y0022608D01*
X0015057Y0022710D01*
X0015165Y0022809D01*
X0015276Y0022906D01*
X0015389Y0022999D01*
X0015504Y0023089D01*
X0015622Y0023176D01*
X0015742Y0023260D01*
X0015865Y0023341D01*
X0015989Y0023418D01*
X0016116Y0023492D01*
X0016245Y0023562D01*
X0016375Y0023629D01*
X0016507Y0023693D01*
X0016641Y0023752D01*
X0016776Y0023809D01*
X0016913Y0023861D01*
X0017052Y0023910D01*
X0017191Y0023955D01*
X0017332Y0023996D01*
X0017474Y0024033D01*
X0017616Y0024066D01*
X0017760Y0024096D01*
X0017904Y0024122D01*
X0018049Y0024143D01*
X0018195Y0024161D01*
X0018341Y0024175D01*
X0018487Y0024185D01*
X0018633Y0024191D01*
X0018780Y0024193D01*
X0018927Y0024191D01*
X0019073Y0024185D01*
X0019219Y0024175D01*
X0019365Y0024161D01*
X0019511Y0024143D01*
X0019656Y0024122D01*
X0019800Y0024096D01*
X0019944Y0024066D01*
X0020086Y0024033D01*
X0020228Y0023996D01*
X0020369Y0023955D01*
X0020508Y0023910D01*
X0020647Y0023861D01*
X0020784Y0023809D01*
X0020919Y0023752D01*
X0021053Y0023693D01*
X0021185Y0023629D01*
X0021315Y0023562D01*
X0021444Y0023492D01*
X0021571Y0023418D01*
X0021695Y0023341D01*
X0021818Y0023260D01*
X0021938Y0023176D01*
X0022056Y0023089D01*
X0022171Y0022999D01*
X0022284Y0022906D01*
X0022395Y0022809D01*
X0022503Y0022710D01*
X0022608Y0022608D01*
X0022710Y0022503D01*
X0022809Y0022395D01*
X0022906Y0022284D01*
X0022999Y0022171D01*
X0023089Y0022056D01*
X0023176Y0021938D01*
X0023260Y0021818D01*
X0023341Y0021695D01*
X0023418Y0021571D01*
X0023492Y0021444D01*
X0023562Y0021315D01*
X0023629Y0021185D01*
X0023693Y0021053D01*
X0023752Y0020919D01*
X0023809Y0020784D01*
X0023861Y0020647D01*
X0023910Y0020508D01*
X0023955Y0020369D01*
X0023996Y0020228D01*
X0024033Y0020086D01*
X0024066Y0019944D01*
X0024096Y0019800D01*
X0024122Y0019656D01*
X0024143Y0019511D01*
X0024161Y0019365D01*
X0024175Y0019219D01*
X0024185Y0019073D01*
X0024191Y0018927D01*
X0024193Y0018780D01*
X0024191Y0018633D01*
X0024185Y0018487D01*
X0024175Y0018341D01*
X0024161Y0018195D01*
X0024143Y0018049D01*
X0024122Y0017904D01*
X0024096Y0017760D01*
X0024066Y0017616D01*
X0024033Y0017474D01*
X0023996Y0017332D01*
X0023955Y0017191D01*
X0023910Y0017052D01*
X0023861Y0016913D01*
X0023809Y0016776D01*
X0023752Y0016641D01*
X0023693Y0016507D01*
X0023629Y0016375D01*
X0023562Y0016245D01*
X0023492Y0016116D01*
X0023418Y0015989D01*
X0023341Y0015865D01*
X0023260Y0015742D01*
X0023176Y0015622D01*
X0023089Y0015504D01*
X0022999Y0015389D01*
X0022906Y0015276D01*
X0022809Y0015165D01*
X0022710Y0015057D01*
X0022608Y0014952D01*
X0022503Y0014850D01*
X0022395Y0014751D01*
X0022284Y0014654D01*
X0022171Y0014561D01*
X0022056Y0014471D01*
X0021938Y0014384D01*
X0021818Y0014300D01*
X0021695Y0014219D01*
X0021571Y0014142D01*
X0021444Y0014068D01*
X0021315Y0013998D01*
X0021185Y0013931D01*
X0021053Y0013867D01*
X0020919Y0013808D01*
X0020784Y0013751D01*
X0020647Y0013699D01*
X0020508Y0013650D01*
X0020369Y0013605D01*
X0020228Y0013564D01*
X0020086Y0013527D01*
X0019944Y0013494D01*
X0019800Y0013464D01*
X0019656Y0013438D01*
X0019511Y0013417D01*
X0019365Y0013399D01*
X0019219Y0013385D01*
X0019073Y0013375D01*
X0018927Y0013369D01*
X0018780Y0013367D01*
X0018633Y0013369D01*
X0018487Y0013375D01*
X0018341Y0013385D01*
X0018195Y0013399D01*
X0018049Y0013417D01*
X0017904Y0013438D01*
X0017760Y0013464D01*
X0017616Y0013494D01*
X0017474Y0013527D01*
X0017332Y0013564D01*
X0017191Y0013605D01*
X0017052Y0013650D01*
X0016913Y0013699D01*
X0016776Y0013751D01*
X0016641Y0013808D01*
X0016507Y0013867D01*
X0016375Y0013931D01*
X0016245Y0013998D01*
X0016116Y0014068D01*
X0015989Y0014142D01*
X0015865Y0014219D01*
X0015742Y0014300D01*
X0015622Y0014384D01*
X0015504Y0014471D01*
X0015389Y0014561D01*
X0015276Y0014654D01*
X0015165Y0014751D01*
X0015057Y0014850D01*
X0014952Y0014952D01*
X0014850Y0015057D01*
X0014751Y0015165D01*
X0014654Y0015276D01*
X0014561Y0015389D01*
X0014471Y0015504D01*
X0014384Y0015622D01*
X0014300Y0015742D01*
X0014219Y0015865D01*
X0014142Y0015989D01*
X0014068Y0016116D01*
X0013998Y0016245D01*
X0013931Y0016375D01*
X0013867Y0016507D01*
X0013808Y0016641D01*
X0013751Y0016776D01*
X0013699Y0016913D01*
X0013650Y0017052D01*
X0013605Y0017191D01*
X0013564Y0017332D01*
X0013527Y0017474D01*
X0013494Y0017616D01*
X0013464Y0017760D01*
X0013438Y0017904D01*
X0013417Y0018049D01*
X0013399Y0018195D01*
X0013385Y0018341D01*
X0013375Y0018487D01*
X0013369Y0018633D01*
X0013367Y0018780D01*
X0178228Y0020748D02*
X0178228Y0079803D01*
X0178230Y0079927D01*
X0178236Y0080050D01*
X0178245Y0080174D01*
X0178259Y0080296D01*
X0178276Y0080419D01*
X0178298Y0080541D01*
X0178323Y0080662D01*
X0178352Y0080782D01*
X0178384Y0080901D01*
X0178421Y0081020D01*
X0178461Y0081137D01*
X0178504Y0081252D01*
X0178552Y0081367D01*
X0178603Y0081479D01*
X0178657Y0081590D01*
X0178715Y0081700D01*
X0178776Y0081807D01*
X0178841Y0081913D01*
X0178909Y0082016D01*
X0178980Y0082117D01*
X0179054Y0082216D01*
X0179131Y0082313D01*
X0179212Y0082407D01*
X0179295Y0082498D01*
X0179381Y0082587D01*
X0179470Y0082673D01*
X0179561Y0082756D01*
X0179655Y0082837D01*
X0179752Y0082914D01*
X0179851Y0082988D01*
X0179952Y0083059D01*
X0180055Y0083127D01*
X0180161Y0083192D01*
X0180268Y0083253D01*
X0180378Y0083311D01*
X0180489Y0083365D01*
X0180601Y0083416D01*
X0180716Y0083464D01*
X0180831Y0083507D01*
X0180948Y0083547D01*
X0181067Y0083584D01*
X0181186Y0083616D01*
X0181306Y0083645D01*
X0181427Y0083670D01*
X0181549Y0083692D01*
X0181672Y0083709D01*
X0181794Y0083723D01*
X0181918Y0083732D01*
X0182041Y0083738D01*
X0182165Y0083740D01*
X0182289Y0083738D01*
X0182412Y0083732D01*
X0182536Y0083723D01*
X0182658Y0083709D01*
X0182781Y0083692D01*
X0182903Y0083670D01*
X0183024Y0083645D01*
X0183144Y0083616D01*
X0183263Y0083584D01*
X0183382Y0083547D01*
X0183499Y0083507D01*
X0183614Y0083464D01*
X0183729Y0083416D01*
X0183841Y0083365D01*
X0183952Y0083311D01*
X0184062Y0083253D01*
X0184169Y0083192D01*
X0184275Y0083127D01*
X0184378Y0083059D01*
X0184479Y0082988D01*
X0184578Y0082914D01*
X0184675Y0082837D01*
X0184769Y0082756D01*
X0184860Y0082673D01*
X0184949Y0082587D01*
X0185035Y0082498D01*
X0185118Y0082407D01*
X0185199Y0082313D01*
X0185276Y0082216D01*
X0185350Y0082117D01*
X0185421Y0082016D01*
X0185489Y0081913D01*
X0185554Y0081807D01*
X0185615Y0081700D01*
X0185673Y0081590D01*
X0185727Y0081479D01*
X0185778Y0081367D01*
X0185826Y0081252D01*
X0185869Y0081137D01*
X0185909Y0081020D01*
X0185946Y0080901D01*
X0185978Y0080782D01*
X0186007Y0080662D01*
X0186032Y0080541D01*
X0186054Y0080419D01*
X0186071Y0080296D01*
X0186085Y0080174D01*
X0186094Y0080050D01*
X0186100Y0079927D01*
X0186102Y0079803D01*
X0186102Y0020748D01*
X0182165Y0016811D02*
X0182041Y0016813D01*
X0181918Y0016819D01*
X0181794Y0016828D01*
X0181672Y0016842D01*
X0181549Y0016859D01*
X0181427Y0016881D01*
X0181306Y0016906D01*
X0181186Y0016935D01*
X0181067Y0016967D01*
X0180948Y0017004D01*
X0180831Y0017044D01*
X0180716Y0017087D01*
X0180601Y0017135D01*
X0180489Y0017186D01*
X0180378Y0017240D01*
X0180268Y0017298D01*
X0180161Y0017359D01*
X0180055Y0017424D01*
X0179952Y0017492D01*
X0179851Y0017563D01*
X0179752Y0017637D01*
X0179655Y0017714D01*
X0179561Y0017795D01*
X0179470Y0017878D01*
X0179381Y0017964D01*
X0179295Y0018053D01*
X0179212Y0018144D01*
X0179131Y0018238D01*
X0179054Y0018335D01*
X0178980Y0018434D01*
X0178909Y0018535D01*
X0178841Y0018638D01*
X0178776Y0018744D01*
X0178715Y0018851D01*
X0178657Y0018961D01*
X0178603Y0019072D01*
X0178552Y0019184D01*
X0178504Y0019299D01*
X0178461Y0019414D01*
X0178421Y0019531D01*
X0178384Y0019650D01*
X0178352Y0019769D01*
X0178323Y0019889D01*
X0178298Y0020010D01*
X0178276Y0020132D01*
X0178259Y0020255D01*
X0178245Y0020377D01*
X0178236Y0020501D01*
X0178230Y0020624D01*
X0178228Y0020748D01*
X0182165Y0016811D02*
X0182289Y0016813D01*
X0182412Y0016819D01*
X0182536Y0016828D01*
X0182658Y0016842D01*
X0182781Y0016859D01*
X0182903Y0016881D01*
X0183024Y0016906D01*
X0183144Y0016935D01*
X0183263Y0016967D01*
X0183382Y0017004D01*
X0183499Y0017044D01*
X0183614Y0017087D01*
X0183729Y0017135D01*
X0183841Y0017186D01*
X0183952Y0017240D01*
X0184062Y0017298D01*
X0184169Y0017359D01*
X0184275Y0017424D01*
X0184378Y0017492D01*
X0184479Y0017563D01*
X0184578Y0017637D01*
X0184675Y0017714D01*
X0184769Y0017795D01*
X0184860Y0017878D01*
X0184949Y0017964D01*
X0185035Y0018053D01*
X0185118Y0018144D01*
X0185199Y0018238D01*
X0185276Y0018335D01*
X0185350Y0018434D01*
X0185421Y0018535D01*
X0185489Y0018638D01*
X0185554Y0018744D01*
X0185615Y0018851D01*
X0185673Y0018961D01*
X0185727Y0019072D01*
X0185778Y0019184D01*
X0185826Y0019299D01*
X0185869Y0019414D01*
X0185909Y0019531D01*
X0185946Y0019650D01*
X0185978Y0019769D01*
X0186007Y0019889D01*
X0186032Y0020010D01*
X0186054Y0020132D01*
X0186071Y0020255D01*
X0186085Y0020377D01*
X0186094Y0020501D01*
X0186100Y0020624D01*
X0186102Y0020748D01*
X0241713Y0018780D02*
X0241715Y0018927D01*
X0241721Y0019073D01*
X0241731Y0019219D01*
X0241745Y0019365D01*
X0241763Y0019511D01*
X0241784Y0019656D01*
X0241810Y0019800D01*
X0241840Y0019944D01*
X0241873Y0020086D01*
X0241910Y0020228D01*
X0241951Y0020369D01*
X0241996Y0020508D01*
X0242045Y0020647D01*
X0242097Y0020784D01*
X0242154Y0020919D01*
X0242213Y0021053D01*
X0242277Y0021185D01*
X0242344Y0021315D01*
X0242414Y0021444D01*
X0242488Y0021571D01*
X0242565Y0021695D01*
X0242646Y0021818D01*
X0242730Y0021938D01*
X0242817Y0022056D01*
X0242907Y0022171D01*
X0243000Y0022284D01*
X0243097Y0022395D01*
X0243196Y0022503D01*
X0243298Y0022608D01*
X0243403Y0022710D01*
X0243511Y0022809D01*
X0243622Y0022906D01*
X0243735Y0022999D01*
X0243850Y0023089D01*
X0243968Y0023176D01*
X0244088Y0023260D01*
X0244211Y0023341D01*
X0244335Y0023418D01*
X0244462Y0023492D01*
X0244591Y0023562D01*
X0244721Y0023629D01*
X0244853Y0023693D01*
X0244987Y0023752D01*
X0245122Y0023809D01*
X0245259Y0023861D01*
X0245398Y0023910D01*
X0245537Y0023955D01*
X0245678Y0023996D01*
X0245820Y0024033D01*
X0245962Y0024066D01*
X0246106Y0024096D01*
X0246250Y0024122D01*
X0246395Y0024143D01*
X0246541Y0024161D01*
X0246687Y0024175D01*
X0246833Y0024185D01*
X0246979Y0024191D01*
X0247126Y0024193D01*
X0247273Y0024191D01*
X0247419Y0024185D01*
X0247565Y0024175D01*
X0247711Y0024161D01*
X0247857Y0024143D01*
X0248002Y0024122D01*
X0248146Y0024096D01*
X0248290Y0024066D01*
X0248432Y0024033D01*
X0248574Y0023996D01*
X0248715Y0023955D01*
X0248854Y0023910D01*
X0248993Y0023861D01*
X0249130Y0023809D01*
X0249265Y0023752D01*
X0249399Y0023693D01*
X0249531Y0023629D01*
X0249661Y0023562D01*
X0249790Y0023492D01*
X0249917Y0023418D01*
X0250041Y0023341D01*
X0250164Y0023260D01*
X0250284Y0023176D01*
X0250402Y0023089D01*
X0250517Y0022999D01*
X0250630Y0022906D01*
X0250741Y0022809D01*
X0250849Y0022710D01*
X0250954Y0022608D01*
X0251056Y0022503D01*
X0251155Y0022395D01*
X0251252Y0022284D01*
X0251345Y0022171D01*
X0251435Y0022056D01*
X0251522Y0021938D01*
X0251606Y0021818D01*
X0251687Y0021695D01*
X0251764Y0021571D01*
X0251838Y0021444D01*
X0251908Y0021315D01*
X0251975Y0021185D01*
X0252039Y0021053D01*
X0252098Y0020919D01*
X0252155Y0020784D01*
X0252207Y0020647D01*
X0252256Y0020508D01*
X0252301Y0020369D01*
X0252342Y0020228D01*
X0252379Y0020086D01*
X0252412Y0019944D01*
X0252442Y0019800D01*
X0252468Y0019656D01*
X0252489Y0019511D01*
X0252507Y0019365D01*
X0252521Y0019219D01*
X0252531Y0019073D01*
X0252537Y0018927D01*
X0252539Y0018780D01*
X0252537Y0018633D01*
X0252531Y0018487D01*
X0252521Y0018341D01*
X0252507Y0018195D01*
X0252489Y0018049D01*
X0252468Y0017904D01*
X0252442Y0017760D01*
X0252412Y0017616D01*
X0252379Y0017474D01*
X0252342Y0017332D01*
X0252301Y0017191D01*
X0252256Y0017052D01*
X0252207Y0016913D01*
X0252155Y0016776D01*
X0252098Y0016641D01*
X0252039Y0016507D01*
X0251975Y0016375D01*
X0251908Y0016245D01*
X0251838Y0016116D01*
X0251764Y0015989D01*
X0251687Y0015865D01*
X0251606Y0015742D01*
X0251522Y0015622D01*
X0251435Y0015504D01*
X0251345Y0015389D01*
X0251252Y0015276D01*
X0251155Y0015165D01*
X0251056Y0015057D01*
X0250954Y0014952D01*
X0250849Y0014850D01*
X0250741Y0014751D01*
X0250630Y0014654D01*
X0250517Y0014561D01*
X0250402Y0014471D01*
X0250284Y0014384D01*
X0250164Y0014300D01*
X0250041Y0014219D01*
X0249917Y0014142D01*
X0249790Y0014068D01*
X0249661Y0013998D01*
X0249531Y0013931D01*
X0249399Y0013867D01*
X0249265Y0013808D01*
X0249130Y0013751D01*
X0248993Y0013699D01*
X0248854Y0013650D01*
X0248715Y0013605D01*
X0248574Y0013564D01*
X0248432Y0013527D01*
X0248290Y0013494D01*
X0248146Y0013464D01*
X0248002Y0013438D01*
X0247857Y0013417D01*
X0247711Y0013399D01*
X0247565Y0013385D01*
X0247419Y0013375D01*
X0247273Y0013369D01*
X0247126Y0013367D01*
X0246979Y0013369D01*
X0246833Y0013375D01*
X0246687Y0013385D01*
X0246541Y0013399D01*
X0246395Y0013417D01*
X0246250Y0013438D01*
X0246106Y0013464D01*
X0245962Y0013494D01*
X0245820Y0013527D01*
X0245678Y0013564D01*
X0245537Y0013605D01*
X0245398Y0013650D01*
X0245259Y0013699D01*
X0245122Y0013751D01*
X0244987Y0013808D01*
X0244853Y0013867D01*
X0244721Y0013931D01*
X0244591Y0013998D01*
X0244462Y0014068D01*
X0244335Y0014142D01*
X0244211Y0014219D01*
X0244088Y0014300D01*
X0243968Y0014384D01*
X0243850Y0014471D01*
X0243735Y0014561D01*
X0243622Y0014654D01*
X0243511Y0014751D01*
X0243403Y0014850D01*
X0243298Y0014952D01*
X0243196Y0015057D01*
X0243097Y0015165D01*
X0243000Y0015276D01*
X0242907Y0015389D01*
X0242817Y0015504D01*
X0242730Y0015622D01*
X0242646Y0015742D01*
X0242565Y0015865D01*
X0242488Y0015989D01*
X0242414Y0016116D01*
X0242344Y0016245D01*
X0242277Y0016375D01*
X0242213Y0016507D01*
X0242154Y0016641D01*
X0242097Y0016776D01*
X0242045Y0016913D01*
X0241996Y0017052D01*
X0241951Y0017191D01*
X0241910Y0017332D01*
X0241873Y0017474D01*
X0241840Y0017616D01*
X0241810Y0017760D01*
X0241784Y0017904D01*
X0241763Y0018049D01*
X0241745Y0018195D01*
X0241731Y0018341D01*
X0241721Y0018487D01*
X0241715Y0018633D01*
X0241713Y0018780D01*
X0241713Y0211693D02*
X0241715Y0211840D01*
X0241721Y0211986D01*
X0241731Y0212132D01*
X0241745Y0212278D01*
X0241763Y0212424D01*
X0241784Y0212569D01*
X0241810Y0212713D01*
X0241840Y0212857D01*
X0241873Y0212999D01*
X0241910Y0213141D01*
X0241951Y0213282D01*
X0241996Y0213421D01*
X0242045Y0213560D01*
X0242097Y0213697D01*
X0242154Y0213832D01*
X0242213Y0213966D01*
X0242277Y0214098D01*
X0242344Y0214228D01*
X0242414Y0214357D01*
X0242488Y0214484D01*
X0242565Y0214608D01*
X0242646Y0214731D01*
X0242730Y0214851D01*
X0242817Y0214969D01*
X0242907Y0215084D01*
X0243000Y0215197D01*
X0243097Y0215308D01*
X0243196Y0215416D01*
X0243298Y0215521D01*
X0243403Y0215623D01*
X0243511Y0215722D01*
X0243622Y0215819D01*
X0243735Y0215912D01*
X0243850Y0216002D01*
X0243968Y0216089D01*
X0244088Y0216173D01*
X0244211Y0216254D01*
X0244335Y0216331D01*
X0244462Y0216405D01*
X0244591Y0216475D01*
X0244721Y0216542D01*
X0244853Y0216606D01*
X0244987Y0216665D01*
X0245122Y0216722D01*
X0245259Y0216774D01*
X0245398Y0216823D01*
X0245537Y0216868D01*
X0245678Y0216909D01*
X0245820Y0216946D01*
X0245962Y0216979D01*
X0246106Y0217009D01*
X0246250Y0217035D01*
X0246395Y0217056D01*
X0246541Y0217074D01*
X0246687Y0217088D01*
X0246833Y0217098D01*
X0246979Y0217104D01*
X0247126Y0217106D01*
X0247273Y0217104D01*
X0247419Y0217098D01*
X0247565Y0217088D01*
X0247711Y0217074D01*
X0247857Y0217056D01*
X0248002Y0217035D01*
X0248146Y0217009D01*
X0248290Y0216979D01*
X0248432Y0216946D01*
X0248574Y0216909D01*
X0248715Y0216868D01*
X0248854Y0216823D01*
X0248993Y0216774D01*
X0249130Y0216722D01*
X0249265Y0216665D01*
X0249399Y0216606D01*
X0249531Y0216542D01*
X0249661Y0216475D01*
X0249790Y0216405D01*
X0249917Y0216331D01*
X0250041Y0216254D01*
X0250164Y0216173D01*
X0250284Y0216089D01*
X0250402Y0216002D01*
X0250517Y0215912D01*
X0250630Y0215819D01*
X0250741Y0215722D01*
X0250849Y0215623D01*
X0250954Y0215521D01*
X0251056Y0215416D01*
X0251155Y0215308D01*
X0251252Y0215197D01*
X0251345Y0215084D01*
X0251435Y0214969D01*
X0251522Y0214851D01*
X0251606Y0214731D01*
X0251687Y0214608D01*
X0251764Y0214484D01*
X0251838Y0214357D01*
X0251908Y0214228D01*
X0251975Y0214098D01*
X0252039Y0213966D01*
X0252098Y0213832D01*
X0252155Y0213697D01*
X0252207Y0213560D01*
X0252256Y0213421D01*
X0252301Y0213282D01*
X0252342Y0213141D01*
X0252379Y0212999D01*
X0252412Y0212857D01*
X0252442Y0212713D01*
X0252468Y0212569D01*
X0252489Y0212424D01*
X0252507Y0212278D01*
X0252521Y0212132D01*
X0252531Y0211986D01*
X0252537Y0211840D01*
X0252539Y0211693D01*
X0252537Y0211546D01*
X0252531Y0211400D01*
X0252521Y0211254D01*
X0252507Y0211108D01*
X0252489Y0210962D01*
X0252468Y0210817D01*
X0252442Y0210673D01*
X0252412Y0210529D01*
X0252379Y0210387D01*
X0252342Y0210245D01*
X0252301Y0210104D01*
X0252256Y0209965D01*
X0252207Y0209826D01*
X0252155Y0209689D01*
X0252098Y0209554D01*
X0252039Y0209420D01*
X0251975Y0209288D01*
X0251908Y0209158D01*
X0251838Y0209029D01*
X0251764Y0208902D01*
X0251687Y0208778D01*
X0251606Y0208655D01*
X0251522Y0208535D01*
X0251435Y0208417D01*
X0251345Y0208302D01*
X0251252Y0208189D01*
X0251155Y0208078D01*
X0251056Y0207970D01*
X0250954Y0207865D01*
X0250849Y0207763D01*
X0250741Y0207664D01*
X0250630Y0207567D01*
X0250517Y0207474D01*
X0250402Y0207384D01*
X0250284Y0207297D01*
X0250164Y0207213D01*
X0250041Y0207132D01*
X0249917Y0207055D01*
X0249790Y0206981D01*
X0249661Y0206911D01*
X0249531Y0206844D01*
X0249399Y0206780D01*
X0249265Y0206721D01*
X0249130Y0206664D01*
X0248993Y0206612D01*
X0248854Y0206563D01*
X0248715Y0206518D01*
X0248574Y0206477D01*
X0248432Y0206440D01*
X0248290Y0206407D01*
X0248146Y0206377D01*
X0248002Y0206351D01*
X0247857Y0206330D01*
X0247711Y0206312D01*
X0247565Y0206298D01*
X0247419Y0206288D01*
X0247273Y0206282D01*
X0247126Y0206280D01*
X0246979Y0206282D01*
X0246833Y0206288D01*
X0246687Y0206298D01*
X0246541Y0206312D01*
X0246395Y0206330D01*
X0246250Y0206351D01*
X0246106Y0206377D01*
X0245962Y0206407D01*
X0245820Y0206440D01*
X0245678Y0206477D01*
X0245537Y0206518D01*
X0245398Y0206563D01*
X0245259Y0206612D01*
X0245122Y0206664D01*
X0244987Y0206721D01*
X0244853Y0206780D01*
X0244721Y0206844D01*
X0244591Y0206911D01*
X0244462Y0206981D01*
X0244335Y0207055D01*
X0244211Y0207132D01*
X0244088Y0207213D01*
X0243968Y0207297D01*
X0243850Y0207384D01*
X0243735Y0207474D01*
X0243622Y0207567D01*
X0243511Y0207664D01*
X0243403Y0207763D01*
X0243298Y0207865D01*
X0243196Y0207970D01*
X0243097Y0208078D01*
X0243000Y0208189D01*
X0242907Y0208302D01*
X0242817Y0208417D01*
X0242730Y0208535D01*
X0242646Y0208655D01*
X0242565Y0208778D01*
X0242488Y0208902D01*
X0242414Y0209029D01*
X0242344Y0209158D01*
X0242277Y0209288D01*
X0242213Y0209420D01*
X0242154Y0209554D01*
X0242097Y0209689D01*
X0242045Y0209826D01*
X0241996Y0209965D01*
X0241951Y0210104D01*
X0241910Y0210245D01*
X0241873Y0210387D01*
X0241840Y0210529D01*
X0241810Y0210673D01*
X0241784Y0210817D01*
X0241763Y0210962D01*
X0241745Y0211108D01*
X0241731Y0211254D01*
X0241721Y0211400D01*
X0241715Y0211546D01*
X0241713Y0211693D01*
X0013367Y0211693D02*
X0013369Y0211840D01*
X0013375Y0211986D01*
X0013385Y0212132D01*
X0013399Y0212278D01*
X0013417Y0212424D01*
X0013438Y0212569D01*
X0013464Y0212713D01*
X0013494Y0212857D01*
X0013527Y0212999D01*
X0013564Y0213141D01*
X0013605Y0213282D01*
X0013650Y0213421D01*
X0013699Y0213560D01*
X0013751Y0213697D01*
X0013808Y0213832D01*
X0013867Y0213966D01*
X0013931Y0214098D01*
X0013998Y0214228D01*
X0014068Y0214357D01*
X0014142Y0214484D01*
X0014219Y0214608D01*
X0014300Y0214731D01*
X0014384Y0214851D01*
X0014471Y0214969D01*
X0014561Y0215084D01*
X0014654Y0215197D01*
X0014751Y0215308D01*
X0014850Y0215416D01*
X0014952Y0215521D01*
X0015057Y0215623D01*
X0015165Y0215722D01*
X0015276Y0215819D01*
X0015389Y0215912D01*
X0015504Y0216002D01*
X0015622Y0216089D01*
X0015742Y0216173D01*
X0015865Y0216254D01*
X0015989Y0216331D01*
X0016116Y0216405D01*
X0016245Y0216475D01*
X0016375Y0216542D01*
X0016507Y0216606D01*
X0016641Y0216665D01*
X0016776Y0216722D01*
X0016913Y0216774D01*
X0017052Y0216823D01*
X0017191Y0216868D01*
X0017332Y0216909D01*
X0017474Y0216946D01*
X0017616Y0216979D01*
X0017760Y0217009D01*
X0017904Y0217035D01*
X0018049Y0217056D01*
X0018195Y0217074D01*
X0018341Y0217088D01*
X0018487Y0217098D01*
X0018633Y0217104D01*
X0018780Y0217106D01*
X0018927Y0217104D01*
X0019073Y0217098D01*
X0019219Y0217088D01*
X0019365Y0217074D01*
X0019511Y0217056D01*
X0019656Y0217035D01*
X0019800Y0217009D01*
X0019944Y0216979D01*
X0020086Y0216946D01*
X0020228Y0216909D01*
X0020369Y0216868D01*
X0020508Y0216823D01*
X0020647Y0216774D01*
X0020784Y0216722D01*
X0020919Y0216665D01*
X0021053Y0216606D01*
X0021185Y0216542D01*
X0021315Y0216475D01*
X0021444Y0216405D01*
X0021571Y0216331D01*
X0021695Y0216254D01*
X0021818Y0216173D01*
X0021938Y0216089D01*
X0022056Y0216002D01*
X0022171Y0215912D01*
X0022284Y0215819D01*
X0022395Y0215722D01*
X0022503Y0215623D01*
X0022608Y0215521D01*
X0022710Y0215416D01*
X0022809Y0215308D01*
X0022906Y0215197D01*
X0022999Y0215084D01*
X0023089Y0214969D01*
X0023176Y0214851D01*
X0023260Y0214731D01*
X0023341Y0214608D01*
X0023418Y0214484D01*
X0023492Y0214357D01*
X0023562Y0214228D01*
X0023629Y0214098D01*
X0023693Y0213966D01*
X0023752Y0213832D01*
X0023809Y0213697D01*
X0023861Y0213560D01*
X0023910Y0213421D01*
X0023955Y0213282D01*
X0023996Y0213141D01*
X0024033Y0212999D01*
X0024066Y0212857D01*
X0024096Y0212713D01*
X0024122Y0212569D01*
X0024143Y0212424D01*
X0024161Y0212278D01*
X0024175Y0212132D01*
X0024185Y0211986D01*
X0024191Y0211840D01*
X0024193Y0211693D01*
X0024191Y0211546D01*
X0024185Y0211400D01*
X0024175Y0211254D01*
X0024161Y0211108D01*
X0024143Y0210962D01*
X0024122Y0210817D01*
X0024096Y0210673D01*
X0024066Y0210529D01*
X0024033Y0210387D01*
X0023996Y0210245D01*
X0023955Y0210104D01*
X0023910Y0209965D01*
X0023861Y0209826D01*
X0023809Y0209689D01*
X0023752Y0209554D01*
X0023693Y0209420D01*
X0023629Y0209288D01*
X0023562Y0209158D01*
X0023492Y0209029D01*
X0023418Y0208902D01*
X0023341Y0208778D01*
X0023260Y0208655D01*
X0023176Y0208535D01*
X0023089Y0208417D01*
X0022999Y0208302D01*
X0022906Y0208189D01*
X0022809Y0208078D01*
X0022710Y0207970D01*
X0022608Y0207865D01*
X0022503Y0207763D01*
X0022395Y0207664D01*
X0022284Y0207567D01*
X0022171Y0207474D01*
X0022056Y0207384D01*
X0021938Y0207297D01*
X0021818Y0207213D01*
X0021695Y0207132D01*
X0021571Y0207055D01*
X0021444Y0206981D01*
X0021315Y0206911D01*
X0021185Y0206844D01*
X0021053Y0206780D01*
X0020919Y0206721D01*
X0020784Y0206664D01*
X0020647Y0206612D01*
X0020508Y0206563D01*
X0020369Y0206518D01*
X0020228Y0206477D01*
X0020086Y0206440D01*
X0019944Y0206407D01*
X0019800Y0206377D01*
X0019656Y0206351D01*
X0019511Y0206330D01*
X0019365Y0206312D01*
X0019219Y0206298D01*
X0019073Y0206288D01*
X0018927Y0206282D01*
X0018780Y0206280D01*
X0018633Y0206282D01*
X0018487Y0206288D01*
X0018341Y0206298D01*
X0018195Y0206312D01*
X0018049Y0206330D01*
X0017904Y0206351D01*
X0017760Y0206377D01*
X0017616Y0206407D01*
X0017474Y0206440D01*
X0017332Y0206477D01*
X0017191Y0206518D01*
X0017052Y0206563D01*
X0016913Y0206612D01*
X0016776Y0206664D01*
X0016641Y0206721D01*
X0016507Y0206780D01*
X0016375Y0206844D01*
X0016245Y0206911D01*
X0016116Y0206981D01*
X0015989Y0207055D01*
X0015865Y0207132D01*
X0015742Y0207213D01*
X0015622Y0207297D01*
X0015504Y0207384D01*
X0015389Y0207474D01*
X0015276Y0207567D01*
X0015165Y0207664D01*
X0015057Y0207763D01*
X0014952Y0207865D01*
X0014850Y0207970D01*
X0014751Y0208078D01*
X0014654Y0208189D01*
X0014561Y0208302D01*
X0014471Y0208417D01*
X0014384Y0208535D01*
X0014300Y0208655D01*
X0014219Y0208778D01*
X0014142Y0208902D01*
X0014068Y0209029D01*
X0013998Y0209158D01*
X0013931Y0209288D01*
X0013867Y0209420D01*
X0013808Y0209554D01*
X0013751Y0209689D01*
X0013699Y0209826D01*
X0013650Y0209965D01*
X0013605Y0210104D01*
X0013564Y0210245D01*
X0013527Y0210387D01*
X0013494Y0210529D01*
X0013464Y0210673D01*
X0013438Y0210817D01*
X0013417Y0210962D01*
X0013399Y0211108D01*
X0013385Y0211254D01*
X0013375Y0211400D01*
X0013369Y0211546D01*
X0013367Y0211693D01*
D11*
X0032907Y0209419D02*
X0032907Y0204419D01*
X0035407Y0201919D01*
X0040407Y0201919D01*
X0042907Y0204419D01*
X0045407Y0201919D01*
X0050407Y0201919D01*
X0052907Y0204419D01*
X0055407Y0201919D01*
X0060407Y0201919D01*
X0062907Y0204419D01*
X0065407Y0201919D01*
X0070407Y0201919D01*
X0072907Y0204419D01*
X0075407Y0201919D01*
X0080407Y0201919D01*
X0082907Y0204419D01*
X0085407Y0201919D01*
X0090407Y0201919D01*
X0092907Y0204419D01*
X0095407Y0201919D01*
X0100407Y0201919D01*
X0102907Y0204419D01*
X0105407Y0201919D01*
X0110407Y0201919D01*
X0112907Y0204419D01*
X0115407Y0201919D01*
X0120407Y0201919D01*
X0122907Y0204419D01*
X0125407Y0201919D01*
X0130407Y0201919D01*
X0132907Y0204419D01*
X0135407Y0201919D01*
X0140407Y0201919D01*
X0142907Y0204419D01*
X0145407Y0201919D01*
X0150407Y0201919D01*
X0152907Y0204419D01*
X0155407Y0201919D01*
X0160407Y0201919D01*
X0162907Y0204419D01*
X0165407Y0201919D01*
X0170407Y0201919D01*
X0172907Y0204419D01*
X0175407Y0201919D01*
X0180407Y0201919D01*
X0182907Y0204419D01*
X0185407Y0201919D01*
X0190407Y0201919D01*
X0192907Y0204419D01*
X0195407Y0201919D01*
X0200407Y0201919D01*
X0202907Y0204419D01*
X0205407Y0201919D01*
X0210407Y0201919D01*
X0212907Y0204419D01*
X0215407Y0201919D01*
X0220407Y0201919D01*
X0222907Y0204419D01*
X0225407Y0201919D01*
X0230407Y0201919D01*
X0232907Y0204419D01*
X0232907Y0209419D01*
X0230407Y0211919D01*
X0232907Y0214419D01*
X0232907Y0219419D01*
X0230407Y0221919D01*
X0225407Y0221919D01*
X0222907Y0219419D01*
X0220407Y0221919D01*
X0215407Y0221919D01*
X0212907Y0219419D01*
X0210407Y0221919D01*
X0205407Y0221919D01*
X0202907Y0219419D01*
X0200407Y0221919D01*
X0195407Y0221919D01*
X0192907Y0219419D01*
X0190407Y0221919D01*
X0185407Y0221919D01*
X0182907Y0219419D01*
X0180407Y0221919D01*
X0175407Y0221919D01*
X0172907Y0219419D01*
X0170407Y0221919D01*
X0165407Y0221919D01*
X0162907Y0219419D01*
X0160407Y0221919D01*
X0155407Y0221919D01*
X0152907Y0219419D01*
X0150407Y0221919D01*
X0145407Y0221919D01*
X0142907Y0219419D01*
X0140407Y0221919D01*
X0135407Y0221919D01*
X0132907Y0219419D01*
X0130407Y0221919D01*
X0125407Y0221919D01*
X0122907Y0219419D01*
X0120407Y0221919D01*
X0115407Y0221919D01*
X0112907Y0219419D01*
X0110407Y0221919D01*
X0105407Y0221919D01*
X0102907Y0219419D01*
X0100407Y0221919D01*
X0095407Y0221919D01*
X0092907Y0219419D01*
X0090407Y0221919D01*
X0085407Y0221919D01*
X0082907Y0219419D01*
X0080407Y0221919D01*
X0075407Y0221919D01*
X0072907Y0219419D01*
X0070407Y0221919D01*
X0065407Y0221919D01*
X0062907Y0219419D01*
X0060407Y0221919D01*
X0055407Y0221919D01*
X0052907Y0219419D01*
X0050407Y0221919D01*
X0045407Y0221919D01*
X0042907Y0219419D01*
X0040407Y0221919D01*
X0035407Y0221919D01*
X0032907Y0219419D01*
X0032907Y0214419D01*
X0035407Y0211919D01*
X0032907Y0209419D01*
D12*
X0036805Y0191058D02*
X0038740Y0191058D01*
X0039707Y0190090D01*
X0038740Y0189123D01*
X0036805Y0189123D01*
X0037288Y0188111D02*
X0037772Y0188111D01*
X0038256Y0187627D01*
X0038740Y0188111D01*
X0039223Y0188111D01*
X0039707Y0187627D01*
X0039707Y0186660D01*
X0039223Y0186176D01*
X0039223Y0185187D02*
X0039707Y0185187D01*
X0039707Y0184703D01*
X0039223Y0184703D01*
X0039223Y0185187D01*
X0039223Y0183691D02*
X0039707Y0183208D01*
X0039707Y0182240D01*
X0039223Y0181756D01*
X0038256Y0182724D02*
X0038256Y0183208D01*
X0038740Y0183691D01*
X0039223Y0183691D01*
X0038256Y0183208D02*
X0037772Y0183691D01*
X0037288Y0183691D01*
X0036805Y0183208D01*
X0036805Y0182240D01*
X0037288Y0181756D01*
X0037288Y0186176D02*
X0036805Y0186660D01*
X0036805Y0187627D01*
X0037288Y0188111D01*
X0038256Y0187627D02*
X0038256Y0187144D01*
X0041805Y0188111D02*
X0041805Y0186176D01*
X0043256Y0186176D01*
X0042772Y0187144D01*
X0042772Y0187627D01*
X0043256Y0188111D01*
X0044223Y0188111D01*
X0044707Y0187627D01*
X0044707Y0186660D01*
X0044223Y0186176D01*
X0043740Y0189123D02*
X0041805Y0189123D01*
X0043740Y0189123D02*
X0044707Y0190090D01*
X0043740Y0191058D01*
X0041805Y0191058D01*
X0046105Y0190574D02*
X0046105Y0189607D01*
X0046588Y0189123D01*
X0046105Y0190574D02*
X0046588Y0191058D01*
X0047072Y0191058D01*
X0049007Y0189123D01*
X0049007Y0191058D01*
X0051805Y0191058D02*
X0053740Y0191058D01*
X0054707Y0190090D01*
X0053740Y0189123D01*
X0051805Y0189123D01*
X0051805Y0188111D02*
X0051805Y0186176D01*
X0053256Y0186176D01*
X0052772Y0187144D01*
X0052772Y0187627D01*
X0053256Y0188111D01*
X0054223Y0188111D01*
X0054707Y0187627D01*
X0054707Y0186660D01*
X0054223Y0186176D01*
X0057288Y0189123D02*
X0056805Y0189607D01*
X0056805Y0190574D01*
X0057288Y0191058D01*
X0057772Y0191058D01*
X0058256Y0190574D01*
X0058740Y0191058D01*
X0059223Y0191058D01*
X0059707Y0190574D01*
X0059707Y0189607D01*
X0059223Y0189123D01*
X0058256Y0190090D02*
X0058256Y0190574D01*
X0061805Y0190574D02*
X0061805Y0189123D01*
X0064707Y0189123D01*
X0064707Y0190574D01*
X0064223Y0191058D01*
X0062288Y0191058D01*
X0061805Y0190574D01*
X0061805Y0188111D02*
X0064707Y0188111D01*
X0061805Y0186176D01*
X0064707Y0186176D01*
X0064223Y0185165D02*
X0063256Y0185165D01*
X0063256Y0184197D01*
X0064223Y0183230D02*
X0064707Y0183713D01*
X0064707Y0184681D01*
X0064223Y0185165D01*
X0062288Y0185165D02*
X0061805Y0184681D01*
X0061805Y0183713D01*
X0062288Y0183230D01*
X0064223Y0183230D01*
X0068256Y0189123D02*
X0068256Y0191058D01*
X0069707Y0190574D02*
X0066805Y0190574D01*
X0068256Y0189123D01*
X0071805Y0190574D02*
X0073256Y0189123D01*
X0073256Y0191058D01*
X0074707Y0190574D02*
X0071805Y0190574D01*
X0074707Y0188111D02*
X0074707Y0186176D01*
X0074707Y0187144D02*
X0071805Y0187144D01*
X0072772Y0186176D01*
X0076805Y0186176D02*
X0079707Y0188111D01*
X0076805Y0188111D01*
X0076805Y0189123D02*
X0076805Y0190574D01*
X0077288Y0191058D01*
X0079223Y0191058D01*
X0079707Y0190574D01*
X0079707Y0189123D01*
X0076805Y0189123D01*
X0076805Y0186176D02*
X0079707Y0186176D01*
X0079223Y0185165D02*
X0078256Y0185165D01*
X0078256Y0184197D01*
X0079223Y0183230D02*
X0077288Y0183230D01*
X0076805Y0183713D01*
X0076805Y0184681D01*
X0077288Y0185165D01*
X0079223Y0185165D02*
X0079707Y0184681D01*
X0079707Y0183713D01*
X0079223Y0183230D01*
X0082772Y0186176D02*
X0081805Y0187144D01*
X0084707Y0187144D01*
X0084707Y0188111D02*
X0084707Y0186176D01*
X0086805Y0187144D02*
X0089707Y0187144D01*
X0089707Y0188111D02*
X0089707Y0186176D01*
X0087772Y0186176D02*
X0086805Y0187144D01*
X0086805Y0189123D02*
X0086805Y0191058D01*
X0087288Y0191058D01*
X0089223Y0189123D01*
X0089707Y0189123D01*
X0091805Y0189607D02*
X0091805Y0190574D01*
X0092288Y0191058D01*
X0092772Y0191058D01*
X0093256Y0190574D01*
X0093256Y0189607D01*
X0092772Y0189123D01*
X0092288Y0189123D01*
X0091805Y0189607D01*
X0093256Y0189607D02*
X0093740Y0189123D01*
X0094223Y0189123D01*
X0094707Y0189607D01*
X0094707Y0190574D01*
X0094223Y0191058D01*
X0093740Y0191058D01*
X0093256Y0190574D01*
X0094707Y0188111D02*
X0094707Y0186176D01*
X0094707Y0187144D02*
X0091805Y0187144D01*
X0092772Y0186176D01*
X0096805Y0186660D02*
X0097288Y0186176D01*
X0096805Y0186660D02*
X0096805Y0187627D01*
X0097288Y0188111D01*
X0097772Y0188111D01*
X0099707Y0186176D01*
X0099707Y0188111D01*
X0099707Y0189123D02*
X0099223Y0189123D01*
X0097288Y0191058D01*
X0096805Y0191058D01*
X0096805Y0189123D01*
X0101805Y0189123D02*
X0101805Y0190574D01*
X0102288Y0191058D01*
X0104223Y0191058D01*
X0104707Y0190574D01*
X0104707Y0189123D01*
X0101805Y0189123D01*
X0101805Y0188111D02*
X0104707Y0188111D01*
X0101805Y0186176D01*
X0104707Y0186176D01*
X0104223Y0185165D02*
X0103256Y0185165D01*
X0103256Y0184197D01*
X0104223Y0183230D02*
X0104707Y0183713D01*
X0104707Y0184681D01*
X0104223Y0185165D01*
X0102288Y0185165D02*
X0101805Y0184681D01*
X0101805Y0183713D01*
X0102288Y0183230D01*
X0104223Y0183230D01*
X0107288Y0186176D02*
X0106805Y0186660D01*
X0106805Y0187627D01*
X0107288Y0188111D01*
X0107772Y0188111D01*
X0109707Y0186176D01*
X0109707Y0188111D01*
X0109707Y0189123D02*
X0107772Y0191058D01*
X0107288Y0191058D01*
X0106805Y0190574D01*
X0106805Y0189607D01*
X0107288Y0189123D01*
X0109707Y0189123D02*
X0109707Y0191058D01*
X0111805Y0190574D02*
X0111805Y0189607D01*
X0112288Y0189123D01*
X0112288Y0188111D02*
X0111805Y0187627D01*
X0111805Y0186660D01*
X0112288Y0186176D01*
X0112288Y0188111D02*
X0112772Y0188111D01*
X0114707Y0186176D01*
X0114707Y0188111D01*
X0114223Y0189123D02*
X0114707Y0189607D01*
X0114707Y0190574D01*
X0114223Y0191058D01*
X0113740Y0191058D01*
X0113256Y0190574D01*
X0113256Y0190090D01*
X0113256Y0190574D02*
X0112772Y0191058D01*
X0112288Y0191058D01*
X0111805Y0190574D01*
X0116805Y0191058D02*
X0118740Y0191058D01*
X0119707Y0190090D01*
X0118740Y0189123D01*
X0116805Y0189123D01*
X0117288Y0188111D02*
X0117772Y0188111D01*
X0118256Y0187627D01*
X0118740Y0188111D01*
X0119223Y0188111D01*
X0119707Y0187627D01*
X0119707Y0186660D01*
X0119223Y0186176D01*
X0119223Y0185187D02*
X0119707Y0185187D01*
X0119707Y0184703D01*
X0119223Y0184703D01*
X0119223Y0185187D01*
X0119223Y0183691D02*
X0119707Y0183208D01*
X0119707Y0182240D01*
X0119223Y0181756D01*
X0118256Y0182724D02*
X0118256Y0183208D01*
X0118740Y0183691D01*
X0119223Y0183691D01*
X0118256Y0183208D02*
X0117772Y0183691D01*
X0117288Y0183691D01*
X0116805Y0183208D01*
X0116805Y0182240D01*
X0117288Y0181756D01*
X0117288Y0186176D02*
X0116805Y0186660D01*
X0116805Y0187627D01*
X0117288Y0188111D01*
X0118256Y0187627D02*
X0118256Y0187144D01*
X0121805Y0187627D02*
X0122288Y0188111D01*
X0122772Y0188111D01*
X0124707Y0186176D01*
X0124707Y0188111D01*
X0123256Y0189123D02*
X0123256Y0191058D01*
X0124707Y0190574D02*
X0121805Y0190574D01*
X0123256Y0189123D01*
X0121805Y0187627D02*
X0121805Y0186660D01*
X0122288Y0186176D01*
X0126805Y0187144D02*
X0129707Y0187144D01*
X0129707Y0188111D02*
X0129707Y0186176D01*
X0127772Y0186176D02*
X0126805Y0187144D01*
X0127288Y0189123D02*
X0126805Y0189607D01*
X0126805Y0190574D01*
X0127288Y0191058D01*
X0129223Y0189123D01*
X0129707Y0189607D01*
X0129707Y0190574D01*
X0129223Y0191058D01*
X0127288Y0191058D01*
X0127288Y0189123D02*
X0129223Y0189123D01*
X0131805Y0189123D02*
X0131805Y0190574D01*
X0132288Y0191058D01*
X0134223Y0191058D01*
X0134707Y0190574D01*
X0134707Y0189123D01*
X0131805Y0189123D01*
X0131805Y0188111D02*
X0134707Y0188111D01*
X0131805Y0186176D01*
X0134707Y0186176D01*
X0134223Y0185165D02*
X0133256Y0185165D01*
X0133256Y0184197D01*
X0134223Y0183230D02*
X0132288Y0183230D01*
X0131805Y0183713D01*
X0131805Y0184681D01*
X0132288Y0185165D01*
X0134223Y0185165D02*
X0134707Y0184681D01*
X0134707Y0183713D01*
X0134223Y0183230D01*
X0137288Y0189123D02*
X0137772Y0189123D01*
X0138256Y0189607D01*
X0138256Y0191058D01*
X0139223Y0191058D02*
X0137288Y0191058D01*
X0136805Y0190574D01*
X0136805Y0189607D01*
X0137288Y0189123D01*
X0139223Y0189123D02*
X0139707Y0189607D01*
X0139707Y0190574D01*
X0139223Y0191058D01*
X0141805Y0191058D02*
X0141805Y0189123D01*
X0143256Y0189123D01*
X0142772Y0190090D01*
X0142772Y0190574D01*
X0143256Y0191058D01*
X0144223Y0191058D01*
X0144707Y0190574D01*
X0144707Y0189607D01*
X0144223Y0189123D01*
X0144707Y0188111D02*
X0144707Y0186176D01*
X0142772Y0188111D01*
X0142288Y0188111D01*
X0141805Y0187627D01*
X0141805Y0186660D01*
X0142288Y0186176D01*
X0146805Y0187144D02*
X0149707Y0187144D01*
X0149707Y0188111D02*
X0149707Y0186176D01*
X0147772Y0186176D02*
X0146805Y0187144D01*
X0147772Y0189123D02*
X0146805Y0190090D01*
X0149707Y0190090D01*
X0149707Y0189123D02*
X0149707Y0191058D01*
X0151805Y0190574D02*
X0152288Y0191058D01*
X0152772Y0191058D01*
X0153256Y0190574D01*
X0153256Y0189607D01*
X0152772Y0189123D01*
X0152288Y0189123D01*
X0151805Y0189607D01*
X0151805Y0190574D01*
X0153256Y0190574D02*
X0153740Y0191058D01*
X0154223Y0191058D01*
X0154707Y0190574D01*
X0154707Y0189607D01*
X0154223Y0189123D01*
X0153740Y0189123D01*
X0153256Y0189607D01*
X0156805Y0189123D02*
X0156805Y0190574D01*
X0157288Y0191058D01*
X0159223Y0191058D01*
X0159707Y0190574D01*
X0159707Y0189123D01*
X0156805Y0189123D01*
X0156805Y0188111D02*
X0159707Y0188111D01*
X0156805Y0186176D01*
X0159707Y0186176D01*
X0159223Y0185165D02*
X0158256Y0185165D01*
X0158256Y0184197D01*
X0159223Y0183230D02*
X0159707Y0183713D01*
X0159707Y0184681D01*
X0159223Y0185165D01*
X0157288Y0185165D02*
X0156805Y0184681D01*
X0156805Y0183713D01*
X0157288Y0183230D01*
X0159223Y0183230D01*
X0161805Y0189123D02*
X0161805Y0191058D01*
X0162288Y0191058D01*
X0164223Y0189123D01*
X0164707Y0189123D01*
X0166805Y0189607D02*
X0166805Y0190574D01*
X0167288Y0191058D01*
X0169223Y0189123D01*
X0169707Y0189607D01*
X0169707Y0190574D01*
X0169223Y0191058D01*
X0167288Y0191058D01*
X0166805Y0189607D02*
X0167288Y0189123D01*
X0169223Y0189123D01*
X0171805Y0190090D02*
X0174707Y0190090D01*
X0174707Y0189123D02*
X0174707Y0191058D01*
X0176805Y0191058D02*
X0176805Y0189123D01*
X0178256Y0189123D01*
X0177772Y0190090D01*
X0177772Y0190574D01*
X0178256Y0191058D01*
X0179223Y0191058D01*
X0179707Y0190574D01*
X0179707Y0189607D01*
X0179223Y0189123D01*
X0181805Y0189123D02*
X0181805Y0190574D01*
X0182288Y0191058D01*
X0184223Y0191058D01*
X0184707Y0190574D01*
X0184707Y0189123D01*
X0181805Y0189123D01*
X0181805Y0188111D02*
X0184707Y0188111D01*
X0181805Y0186176D01*
X0184707Y0186176D01*
X0184223Y0185165D02*
X0183256Y0185165D01*
X0183256Y0184197D01*
X0184223Y0183230D02*
X0182288Y0183230D01*
X0181805Y0183713D01*
X0181805Y0184681D01*
X0182288Y0185165D01*
X0184223Y0185165D02*
X0184707Y0184681D01*
X0184707Y0183713D01*
X0184223Y0183230D01*
X0188256Y0189123D02*
X0188256Y0190574D01*
X0188740Y0191058D01*
X0189223Y0191058D01*
X0189707Y0190574D01*
X0189707Y0189607D01*
X0189223Y0189123D01*
X0188256Y0189123D01*
X0187288Y0190090D01*
X0186805Y0191058D01*
X0191805Y0190574D02*
X0191805Y0189607D01*
X0192288Y0189123D01*
X0191805Y0190574D02*
X0192288Y0191058D01*
X0192772Y0191058D01*
X0194707Y0189123D01*
X0194707Y0191058D01*
X0196805Y0190574D02*
X0196805Y0189607D01*
X0197288Y0189123D01*
X0198256Y0190090D02*
X0198256Y0190574D01*
X0198740Y0191058D01*
X0199223Y0191058D01*
X0199707Y0190574D01*
X0199707Y0189607D01*
X0199223Y0189123D01*
X0199707Y0188111D02*
X0199707Y0186176D01*
X0199707Y0187144D02*
X0196805Y0187144D01*
X0197772Y0186176D01*
X0194707Y0186176D02*
X0194707Y0188111D01*
X0194707Y0187144D02*
X0191805Y0187144D01*
X0192772Y0186176D01*
X0196805Y0190574D02*
X0197288Y0191058D01*
X0197772Y0191058D01*
X0198256Y0190574D01*
X0201805Y0190574D02*
X0201805Y0189123D01*
X0204707Y0189123D01*
X0204707Y0190574D01*
X0204223Y0191058D01*
X0202288Y0191058D01*
X0201805Y0190574D01*
X0201805Y0188111D02*
X0204707Y0188111D01*
X0201805Y0186176D01*
X0204707Y0186176D01*
X0204223Y0185165D02*
X0203256Y0185165D01*
X0203256Y0184197D01*
X0204223Y0183230D02*
X0204707Y0183713D01*
X0204707Y0184681D01*
X0204223Y0185165D01*
X0202288Y0185165D02*
X0201805Y0184681D01*
X0201805Y0183713D01*
X0202288Y0183230D01*
X0204223Y0183230D01*
X0207772Y0186176D02*
X0206805Y0187144D01*
X0209707Y0187144D01*
X0209707Y0188111D02*
X0209707Y0186176D01*
X0211805Y0187144D02*
X0214707Y0187144D01*
X0214707Y0188111D02*
X0214707Y0186176D01*
X0212772Y0186176D02*
X0211805Y0187144D01*
X0213256Y0189123D02*
X0213256Y0190574D01*
X0213740Y0191058D01*
X0214223Y0191058D01*
X0214707Y0190574D01*
X0214707Y0189607D01*
X0214223Y0189123D01*
X0213256Y0189123D01*
X0212288Y0190090D01*
X0211805Y0191058D01*
X0209707Y0190574D02*
X0209223Y0191058D01*
X0207288Y0191058D01*
X0206805Y0190574D01*
X0206805Y0189607D01*
X0207288Y0189123D01*
X0207772Y0189123D01*
X0208256Y0189607D01*
X0208256Y0191058D01*
X0209707Y0190574D02*
X0209707Y0189607D01*
X0209223Y0189123D01*
X0216805Y0187627D02*
X0216805Y0186660D01*
X0217288Y0186176D01*
X0216805Y0187627D02*
X0217288Y0188111D01*
X0217772Y0188111D01*
X0219707Y0186176D01*
X0219707Y0188111D01*
X0219223Y0189123D02*
X0219707Y0189607D01*
X0219707Y0190574D01*
X0219223Y0191058D01*
X0218740Y0191058D01*
X0218256Y0190574D01*
X0218256Y0189123D01*
X0219223Y0189123D01*
X0218256Y0189123D02*
X0217288Y0190090D01*
X0216805Y0191058D01*
X0221805Y0190574D02*
X0221805Y0189607D01*
X0222288Y0189123D01*
X0224223Y0189123D01*
X0222288Y0191058D01*
X0224223Y0191058D01*
X0224707Y0190574D01*
X0224707Y0189607D01*
X0224223Y0189123D01*
X0224707Y0188111D02*
X0224707Y0186176D01*
X0222772Y0188111D01*
X0222288Y0188111D01*
X0221805Y0187627D01*
X0221805Y0186660D01*
X0222288Y0186176D01*
X0221805Y0190574D02*
X0222288Y0191058D01*
X0226805Y0190574D02*
X0226805Y0189123D01*
X0229707Y0189123D01*
X0229707Y0190574D01*
X0229223Y0191058D01*
X0227288Y0191058D01*
X0226805Y0190574D01*
X0226805Y0188111D02*
X0229707Y0188111D01*
X0226805Y0186176D01*
X0229707Y0186176D01*
X0229223Y0185165D02*
X0228256Y0185165D01*
X0228256Y0184197D01*
X0229223Y0183230D02*
X0229707Y0183713D01*
X0229707Y0184681D01*
X0229223Y0185165D01*
X0227288Y0185165D02*
X0226805Y0184681D01*
X0226805Y0183713D01*
X0227288Y0183230D01*
X0229223Y0183230D01*
X0232288Y0186176D02*
X0231805Y0186660D01*
X0231805Y0187627D01*
X0232288Y0188111D01*
X0232772Y0188111D01*
X0234707Y0186176D01*
X0234707Y0188111D01*
X0234707Y0189123D02*
X0234707Y0191058D01*
X0234707Y0190090D02*
X0231805Y0190090D01*
X0232772Y0189123D01*
X0172772Y0189123D02*
X0171805Y0190090D01*
X0084707Y0189607D02*
X0084223Y0189123D01*
X0084707Y0189607D02*
X0084707Y0190574D01*
X0084223Y0191058D01*
X0083256Y0191058D01*
X0082772Y0190574D01*
X0082772Y0190090D01*
X0083256Y0189123D01*
X0081805Y0189123D01*
X0081805Y0191058D01*
X0215621Y0024087D02*
X0215828Y0024246D01*
X0216070Y0024346D01*
X0216328Y0024380D01*
X0219328Y0024380D01*
X0219587Y0024346D01*
X0219828Y0024246D01*
X0220035Y0024087D01*
X0220194Y0023880D01*
X0220294Y0023639D01*
X0220328Y0023380D01*
X0220328Y0020380D01*
X0220294Y0020121D01*
X0220194Y0019880D01*
X0220035Y0019673D01*
X0219828Y0019514D01*
X0219587Y0019414D01*
X0219328Y0019380D01*
X0216328Y0019380D01*
X0216070Y0019414D01*
X0215828Y0019514D01*
X0215621Y0019673D01*
X0215462Y0019880D01*
X0215362Y0020121D01*
X0215328Y0020380D01*
X0215328Y0023380D01*
X0215362Y0023639D01*
X0215462Y0023880D01*
X0215621Y0024087D01*
X0215644Y0024105D02*
X0220012Y0024105D01*
X0220225Y0023806D02*
X0215432Y0023806D01*
X0215345Y0023508D02*
X0220312Y0023508D01*
X0220328Y0023209D02*
X0215328Y0023209D01*
X0215328Y0022911D02*
X0220328Y0022911D01*
X0220328Y0022612D02*
X0215328Y0022612D01*
X0215328Y0022314D02*
X0220328Y0022314D01*
X0220328Y0022015D02*
X0215328Y0022015D01*
X0215328Y0021717D02*
X0220328Y0021717D01*
X0220328Y0021418D02*
X0215328Y0021418D01*
X0215328Y0021120D02*
X0220328Y0021120D01*
X0220328Y0020821D02*
X0215328Y0020821D01*
X0215328Y0020523D02*
X0220328Y0020523D01*
X0220308Y0020224D02*
X0215349Y0020224D01*
X0215443Y0019926D02*
X0220213Y0019926D01*
X0219976Y0019627D02*
X0215681Y0019627D01*
X0220862Y0018139D02*
X0220828Y0017880D01*
X0220828Y0014880D01*
X0220862Y0014621D01*
X0220962Y0014380D01*
X0221121Y0014173D01*
X0221328Y0014014D01*
X0221570Y0013914D01*
X0221828Y0013880D01*
X0224828Y0013880D01*
X0225087Y0013914D01*
X0225328Y0014014D01*
X0225535Y0014173D01*
X0225694Y0014380D01*
X0225794Y0014621D01*
X0225828Y0014880D01*
X0225828Y0016880D01*
X0225876Y0017368D01*
X0226019Y0017837D01*
X0226250Y0018269D01*
X0226561Y0018648D01*
X0226939Y0018959D01*
X0227372Y0019190D01*
X0227841Y0019332D01*
X0228328Y0019380D01*
X0230328Y0019380D01*
X0230587Y0019414D01*
X0230828Y0019514D01*
X0231035Y0019673D01*
X0231194Y0019880D01*
X0231294Y0020121D01*
X0231328Y0020380D01*
X0231328Y0023380D01*
X0231294Y0023639D01*
X0231194Y0023880D01*
X0231035Y0024087D01*
X0230828Y0024246D01*
X0230587Y0024346D01*
X0230328Y0024380D01*
X0227328Y0024380D01*
X0227070Y0024346D01*
X0226828Y0024246D01*
X0226621Y0024087D01*
X0226462Y0023880D01*
X0226362Y0023639D01*
X0226328Y0023380D01*
X0226328Y0021380D01*
X0226280Y0020892D01*
X0226138Y0020423D01*
X0225907Y0019991D01*
X0225596Y0019612D01*
X0225217Y0019301D01*
X0224785Y0019070D01*
X0224316Y0018928D01*
X0223828Y0018880D01*
X0221828Y0018880D01*
X0221570Y0018846D01*
X0221328Y0018746D01*
X0221121Y0018587D01*
X0220962Y0018380D01*
X0220862Y0018139D01*
X0220862Y0018134D02*
X0226178Y0018134D01*
X0226018Y0017836D02*
X0220828Y0017836D01*
X0220828Y0017537D02*
X0225928Y0017537D01*
X0225864Y0017239D02*
X0220828Y0017239D01*
X0220828Y0016940D02*
X0225834Y0016940D01*
X0225828Y0016642D02*
X0220828Y0016642D01*
X0220828Y0016343D02*
X0225828Y0016343D01*
X0225828Y0016045D02*
X0220828Y0016045D01*
X0220828Y0015746D02*
X0225828Y0015746D01*
X0225828Y0015448D02*
X0220828Y0015448D01*
X0220828Y0015149D02*
X0225828Y0015149D01*
X0225825Y0014851D02*
X0220832Y0014851D01*
X0220891Y0014552D02*
X0225766Y0014552D01*
X0225598Y0014254D02*
X0221059Y0014254D01*
X0221470Y0013955D02*
X0225187Y0013955D01*
X0226384Y0018433D02*
X0221003Y0018433D01*
X0221310Y0018732D02*
X0226663Y0018732D01*
X0227073Y0019030D02*
X0224653Y0019030D01*
X0225251Y0019329D02*
X0227830Y0019329D01*
X0226032Y0020224D02*
X0231308Y0020224D01*
X0231328Y0020523D02*
X0226168Y0020523D01*
X0226259Y0020821D02*
X0231328Y0020821D01*
X0231328Y0021120D02*
X0226303Y0021120D01*
X0226328Y0021418D02*
X0231328Y0021418D01*
X0231328Y0021717D02*
X0226328Y0021717D01*
X0226328Y0022015D02*
X0231328Y0022015D01*
X0231328Y0022314D02*
X0226328Y0022314D01*
X0226328Y0022612D02*
X0231328Y0022612D01*
X0231328Y0022911D02*
X0226328Y0022911D01*
X0226328Y0023209D02*
X0231328Y0023209D01*
X0231312Y0023508D02*
X0226345Y0023508D01*
X0226432Y0023806D02*
X0231225Y0023806D01*
X0231012Y0024105D02*
X0226644Y0024105D01*
X0225853Y0019926D02*
X0231213Y0019926D01*
X0230976Y0019627D02*
X0225608Y0019627D01*
M02*
