G75*
%MOIN*%
%OFA0B0*%
%FSLAX25Y25*%
%IPPOS*%
%LPD*%
%AMOC8*
5,1,8,0,0,1.08239X$1,22.5*
%
%ADD10C,0.00500*%
%ADD11C,0.04737*%
D10*
X0015000Y0005000D02*
X0526496Y0005000D01*
X0526738Y0005003D01*
X0526979Y0005012D01*
X0527220Y0005026D01*
X0527461Y0005047D01*
X0527701Y0005073D01*
X0527941Y0005105D01*
X0528180Y0005143D01*
X0528417Y0005186D01*
X0528654Y0005236D01*
X0528889Y0005291D01*
X0529123Y0005351D01*
X0529355Y0005418D01*
X0529586Y0005489D01*
X0529815Y0005567D01*
X0530042Y0005650D01*
X0530267Y0005738D01*
X0530490Y0005832D01*
X0530710Y0005931D01*
X0530928Y0006036D01*
X0531143Y0006145D01*
X0531356Y0006260D01*
X0531566Y0006380D01*
X0531772Y0006505D01*
X0531976Y0006635D01*
X0532177Y0006770D01*
X0532374Y0006910D01*
X0532568Y0007054D01*
X0532758Y0007203D01*
X0532944Y0007357D01*
X0533127Y0007515D01*
X0533306Y0007677D01*
X0533481Y0007844D01*
X0533652Y0008015D01*
X0533819Y0008190D01*
X0533981Y0008369D01*
X0534139Y0008552D01*
X0534293Y0008738D01*
X0534442Y0008928D01*
X0534586Y0009122D01*
X0534726Y0009319D01*
X0534861Y0009520D01*
X0534991Y0009724D01*
X0535116Y0009930D01*
X0535236Y0010140D01*
X0535351Y0010353D01*
X0535460Y0010568D01*
X0535565Y0010786D01*
X0535664Y0011006D01*
X0535758Y0011229D01*
X0535846Y0011454D01*
X0535929Y0011681D01*
X0536007Y0011910D01*
X0536078Y0012141D01*
X0536145Y0012373D01*
X0536205Y0012607D01*
X0536260Y0012842D01*
X0536310Y0013079D01*
X0536353Y0013316D01*
X0536391Y0013555D01*
X0536423Y0013795D01*
X0536449Y0014035D01*
X0536470Y0014276D01*
X0536484Y0014517D01*
X0536493Y0014758D01*
X0536496Y0015000D01*
X0536496Y0395000D01*
X0536493Y0395242D01*
X0536484Y0395483D01*
X0536470Y0395724D01*
X0536449Y0395965D01*
X0536423Y0396205D01*
X0536391Y0396445D01*
X0536353Y0396684D01*
X0536310Y0396921D01*
X0536260Y0397158D01*
X0536205Y0397393D01*
X0536145Y0397627D01*
X0536078Y0397859D01*
X0536007Y0398090D01*
X0535929Y0398319D01*
X0535846Y0398546D01*
X0535758Y0398771D01*
X0535664Y0398994D01*
X0535565Y0399214D01*
X0535460Y0399432D01*
X0535351Y0399647D01*
X0535236Y0399860D01*
X0535116Y0400070D01*
X0534991Y0400276D01*
X0534861Y0400480D01*
X0534726Y0400681D01*
X0534586Y0400878D01*
X0534442Y0401072D01*
X0534293Y0401262D01*
X0534139Y0401448D01*
X0533981Y0401631D01*
X0533819Y0401810D01*
X0533652Y0401985D01*
X0533481Y0402156D01*
X0533306Y0402323D01*
X0533127Y0402485D01*
X0532944Y0402643D01*
X0532758Y0402797D01*
X0532568Y0402946D01*
X0532374Y0403090D01*
X0532177Y0403230D01*
X0531976Y0403365D01*
X0531772Y0403495D01*
X0531566Y0403620D01*
X0531356Y0403740D01*
X0531143Y0403855D01*
X0530928Y0403964D01*
X0530710Y0404069D01*
X0530490Y0404168D01*
X0530267Y0404262D01*
X0530042Y0404350D01*
X0529815Y0404433D01*
X0529586Y0404511D01*
X0529355Y0404582D01*
X0529123Y0404649D01*
X0528889Y0404709D01*
X0528654Y0404764D01*
X0528417Y0404814D01*
X0528180Y0404857D01*
X0527941Y0404895D01*
X0527701Y0404927D01*
X0527461Y0404953D01*
X0527220Y0404974D01*
X0526979Y0404988D01*
X0526738Y0404997D01*
X0526496Y0405000D01*
X0015000Y0405000D01*
X0014758Y0404997D01*
X0014517Y0404988D01*
X0014276Y0404974D01*
X0014035Y0404953D01*
X0013795Y0404927D01*
X0013555Y0404895D01*
X0013316Y0404857D01*
X0013079Y0404814D01*
X0012842Y0404764D01*
X0012607Y0404709D01*
X0012373Y0404649D01*
X0012141Y0404582D01*
X0011910Y0404511D01*
X0011681Y0404433D01*
X0011454Y0404350D01*
X0011229Y0404262D01*
X0011006Y0404168D01*
X0010786Y0404069D01*
X0010568Y0403964D01*
X0010353Y0403855D01*
X0010140Y0403740D01*
X0009930Y0403620D01*
X0009724Y0403495D01*
X0009520Y0403365D01*
X0009319Y0403230D01*
X0009122Y0403090D01*
X0008928Y0402946D01*
X0008738Y0402797D01*
X0008552Y0402643D01*
X0008369Y0402485D01*
X0008190Y0402323D01*
X0008015Y0402156D01*
X0007844Y0401985D01*
X0007677Y0401810D01*
X0007515Y0401631D01*
X0007357Y0401448D01*
X0007203Y0401262D01*
X0007054Y0401072D01*
X0006910Y0400878D01*
X0006770Y0400681D01*
X0006635Y0400480D01*
X0006505Y0400276D01*
X0006380Y0400070D01*
X0006260Y0399860D01*
X0006145Y0399647D01*
X0006036Y0399432D01*
X0005931Y0399214D01*
X0005832Y0398994D01*
X0005738Y0398771D01*
X0005650Y0398546D01*
X0005567Y0398319D01*
X0005489Y0398090D01*
X0005418Y0397859D01*
X0005351Y0397627D01*
X0005291Y0397393D01*
X0005236Y0397158D01*
X0005186Y0396921D01*
X0005143Y0396684D01*
X0005105Y0396445D01*
X0005073Y0396205D01*
X0005047Y0395965D01*
X0005026Y0395724D01*
X0005012Y0395483D01*
X0005003Y0395242D01*
X0005000Y0395000D01*
X0005000Y0015000D01*
X0005003Y0014758D01*
X0005012Y0014517D01*
X0005026Y0014276D01*
X0005047Y0014035D01*
X0005073Y0013795D01*
X0005105Y0013555D01*
X0005143Y0013316D01*
X0005186Y0013079D01*
X0005236Y0012842D01*
X0005291Y0012607D01*
X0005351Y0012373D01*
X0005418Y0012141D01*
X0005489Y0011910D01*
X0005567Y0011681D01*
X0005650Y0011454D01*
X0005738Y0011229D01*
X0005832Y0011006D01*
X0005931Y0010786D01*
X0006036Y0010568D01*
X0006145Y0010353D01*
X0006260Y0010140D01*
X0006380Y0009930D01*
X0006505Y0009724D01*
X0006635Y0009520D01*
X0006770Y0009319D01*
X0006910Y0009122D01*
X0007054Y0008928D01*
X0007203Y0008738D01*
X0007357Y0008552D01*
X0007515Y0008369D01*
X0007677Y0008190D01*
X0007844Y0008015D01*
X0008015Y0007844D01*
X0008190Y0007677D01*
X0008369Y0007515D01*
X0008552Y0007357D01*
X0008738Y0007203D01*
X0008928Y0007054D01*
X0009122Y0006910D01*
X0009319Y0006770D01*
X0009520Y0006635D01*
X0009724Y0006505D01*
X0009930Y0006380D01*
X0010140Y0006260D01*
X0010353Y0006145D01*
X0010568Y0006036D01*
X0010786Y0005931D01*
X0011006Y0005832D01*
X0011229Y0005738D01*
X0011454Y0005650D01*
X0011681Y0005567D01*
X0011910Y0005489D01*
X0012141Y0005418D01*
X0012373Y0005351D01*
X0012607Y0005291D01*
X0012842Y0005236D01*
X0013079Y0005186D01*
X0013316Y0005143D01*
X0013555Y0005105D01*
X0013795Y0005073D01*
X0014035Y0005047D01*
X0014276Y0005026D01*
X0014517Y0005012D01*
X0014758Y0005003D01*
X0015000Y0005000D01*
D11*
X0018780Y0018819D03*
X0522717Y0391220D03*
M02*
