G75*
%MOIN*%
%OFA0B0*%
%FSLAX24Y24*%
%IPPOS*%
%LPD*%
%AMOC8*
5,1,8,0,0,1.08239X$1,22.5*
%
%ADD10C,0.0080*%
%ADD11R,0.0472X0.0551*%
%ADD12R,0.0551X0.0472*%
%ADD13R,0.0709X0.0630*%
%ADD14R,0.0630X0.0709*%
%ADD15C,0.1969*%
%ADD16R,0.0591X0.0236*%
%ADD17C,0.0140*%
D10*
X009710Y014710D02*
X009710Y015631D01*
X009710Y015170D02*
X010324Y015170D01*
X010631Y015170D02*
X010938Y015170D01*
X010631Y014710D02*
X011245Y014710D01*
X011552Y014710D02*
X012165Y014710D01*
X012472Y014710D02*
X013086Y014710D01*
X013393Y014863D02*
X013547Y014710D01*
X013854Y014710D01*
X014007Y014863D01*
X014007Y015477D01*
X013854Y015631D01*
X013547Y015631D01*
X013393Y015477D01*
X013393Y014863D01*
X012472Y014710D02*
X012472Y015631D01*
X011552Y015631D02*
X011552Y014710D01*
X010631Y014710D02*
X010631Y015631D01*
X011245Y015631D01*
X010324Y015631D02*
X010324Y014710D01*
X015235Y014710D02*
X015542Y015017D01*
X015849Y014710D01*
X015849Y015631D01*
X016156Y015477D02*
X016156Y014863D01*
X016309Y014710D01*
X016616Y014710D01*
X016769Y014863D01*
X016769Y015477D01*
X016616Y015631D01*
X016309Y015631D01*
X016156Y015477D01*
X017076Y015631D02*
X017537Y015631D01*
X017690Y015477D01*
X017690Y015170D01*
X017537Y015017D01*
X017076Y015017D01*
X017076Y014710D02*
X017076Y015631D01*
X017383Y015017D02*
X017690Y014710D01*
X017997Y014710D02*
X018611Y014710D01*
X018918Y014710D02*
X019378Y014710D01*
X019532Y014863D01*
X019532Y015477D01*
X019378Y015631D01*
X018918Y015631D01*
X018918Y014710D01*
X017997Y014710D02*
X017997Y015631D01*
X015235Y015631D02*
X015235Y014710D01*
D11*
X021079Y009670D03*
X022261Y009670D03*
X024079Y009670D03*
X025261Y009670D03*
D12*
X023170Y008761D03*
X023170Y007579D03*
D13*
X018420Y008619D03*
X018420Y009721D03*
X011920Y009721D03*
X011920Y008619D03*
D14*
X014619Y006170D03*
X015721Y006170D03*
X015721Y012170D03*
X014619Y012170D03*
D15*
X006670Y011670D03*
X006654Y006670D03*
D16*
X013713Y008420D03*
X013713Y008920D03*
X013713Y009420D03*
X013713Y009920D03*
X016621Y009920D03*
X016621Y009420D03*
X016621Y008920D03*
X016621Y008420D03*
D17*
X004170Y006670D02*
X002170Y006670D01*
X006654Y006670D02*
X010670Y006670D01*
X012170Y005170D01*
X015170Y005170D01*
X015670Y005670D01*
X015670Y006119D01*
X015721Y006170D01*
X016621Y007070D01*
X016621Y007670D01*
X016711Y007579D01*
X023170Y007579D01*
X023579Y007579D01*
X025261Y009261D01*
X025261Y009670D01*
X025261Y010079D01*
X024670Y010670D01*
X021670Y010670D01*
X021079Y010079D01*
X021079Y009670D01*
X021249Y008619D02*
X022261Y009670D01*
X022920Y009670D01*
X023170Y009420D01*
X023170Y008761D01*
X023170Y009420D02*
X023420Y009670D01*
X024079Y009670D01*
X021249Y008619D02*
X018420Y008619D01*
X017420Y009420D02*
X016621Y009420D01*
X016621Y009920D02*
X015420Y009920D01*
X015170Y009670D01*
X015170Y008670D01*
X014920Y008420D01*
X013713Y008420D01*
X013713Y008920D02*
X012920Y008920D01*
X012670Y008670D01*
X011971Y008670D01*
X011920Y008619D01*
X011170Y007670D02*
X010920Y007920D01*
X010920Y009420D01*
X011221Y009721D01*
X011920Y009721D01*
X011971Y009670D01*
X012670Y009670D01*
X012920Y009420D01*
X013713Y009420D01*
X013713Y008920D02*
X014420Y008920D01*
X014619Y009119D01*
X014619Y012170D01*
X015670Y012221D02*
X015670Y012670D01*
X015170Y013170D01*
X012170Y013170D01*
X010670Y011670D01*
X006670Y011670D01*
X004170Y011670D02*
X003170Y011670D01*
X003170Y010670D01*
X003170Y011670D02*
X002170Y011670D01*
X003170Y011670D02*
X003170Y012670D01*
X011170Y007670D02*
X014670Y007670D01*
X015170Y007670D01*
X015670Y008170D01*
X015670Y008670D01*
X015920Y008920D01*
X016621Y008920D01*
X016621Y008420D02*
X016621Y007670D01*
X014670Y007670D02*
X014670Y006221D01*
X014619Y006170D01*
X017420Y009420D02*
X017721Y009721D01*
X018420Y009721D01*
X016621Y009920D02*
X016621Y011270D01*
X015721Y012170D01*
X015670Y012221D01*
M02*
