%
M48
M72
T01C0.01181
%
T01
X50000Y15000
X100000Y15000
X150000Y15000
X200000Y15000
X250000Y15000
X300000Y15000
X350000Y15000
X197500Y77500
X197500Y85000
X190000Y85000
X182500Y85000
X182500Y77500
X190000Y77500
X190000Y92500
X182500Y92500
X197500Y92500
X175000Y155000
X125000Y155000
X75000Y155000
X182500Y217500
X190000Y217500
X190000Y225000
X182500Y225000
X182500Y232500
X190000Y232500
X197500Y232500
X197500Y225000
X197500Y217500
X225000Y155000
X275000Y155000
X325000Y155000
X375000Y155000
X300000Y295000
X250000Y295000
X200000Y295000
X150000Y295000
X100000Y295000
X50000Y295000
M30
