%
M48
M72
T01C0.01181
%
T01
X55000Y15000
X80000Y50000
X80000Y85000
X80000Y120000
X80000Y155000
X80000Y190000
X80000Y225000
X80000Y260000
X55000Y295000
X105000Y295000
X130000Y260000
X130000Y225000
X130000Y190000
X130000Y155000
X130000Y120000
X130000Y85000
X130000Y50000
X105000Y15000
X155000Y15000
X180000Y50000
X180000Y85000
X180000Y120000
X180000Y155000
X180000Y190000
X180000Y225000
X180000Y260000
X155000Y295000
X205000Y295000
X230000Y260000
X230000Y225000
X230000Y190000
X230000Y155000
X230000Y120000
X230000Y85000
X230000Y50000
X205000Y15000
X255000Y15000
X280000Y50000
X280000Y85000
X280000Y120000
X280000Y155000
X280000Y190000
X280000Y225000
X280000Y260000
X255000Y295000
X305000Y295000
X330000Y260000
X330000Y225000
X330000Y190000
X330000Y155000
X330000Y120000
X330000Y85000
X330000Y50000
X305000Y15000
X355000Y15000
X355000Y295000
M30
