G75*
%MOIN*%
%OFA0B0*%
%FSLAX25Y25*%
%IPPOS*%
%LPD*%
%AMOC8*
5,1,8,0,0,1.08239X$1,22.5*
%
%ADD10C,0.00500*%
%ADD11C,0.00400*%
%ADD12C,0.00300*%
D10*
X0015000Y0005000D02*
X0395000Y0005000D01*
X0395242Y0005003D01*
X0395483Y0005012D01*
X0395724Y0005026D01*
X0395965Y0005047D01*
X0396205Y0005073D01*
X0396445Y0005105D01*
X0396684Y0005143D01*
X0396921Y0005186D01*
X0397158Y0005236D01*
X0397393Y0005291D01*
X0397627Y0005351D01*
X0397859Y0005418D01*
X0398090Y0005489D01*
X0398319Y0005567D01*
X0398546Y0005650D01*
X0398771Y0005738D01*
X0398994Y0005832D01*
X0399214Y0005931D01*
X0399432Y0006036D01*
X0399647Y0006145D01*
X0399860Y0006260D01*
X0400070Y0006380D01*
X0400276Y0006505D01*
X0400480Y0006635D01*
X0400681Y0006770D01*
X0400878Y0006910D01*
X0401072Y0007054D01*
X0401262Y0007203D01*
X0401448Y0007357D01*
X0401631Y0007515D01*
X0401810Y0007677D01*
X0401985Y0007844D01*
X0402156Y0008015D01*
X0402323Y0008190D01*
X0402485Y0008369D01*
X0402643Y0008552D01*
X0402797Y0008738D01*
X0402946Y0008928D01*
X0403090Y0009122D01*
X0403230Y0009319D01*
X0403365Y0009520D01*
X0403495Y0009724D01*
X0403620Y0009930D01*
X0403740Y0010140D01*
X0403855Y0010353D01*
X0403964Y0010568D01*
X0404069Y0010786D01*
X0404168Y0011006D01*
X0404262Y0011229D01*
X0404350Y0011454D01*
X0404433Y0011681D01*
X0404511Y0011910D01*
X0404582Y0012141D01*
X0404649Y0012373D01*
X0404709Y0012607D01*
X0404764Y0012842D01*
X0404814Y0013079D01*
X0404857Y0013316D01*
X0404895Y0013555D01*
X0404927Y0013795D01*
X0404953Y0014035D01*
X0404974Y0014276D01*
X0404988Y0014517D01*
X0404997Y0014758D01*
X0405000Y0015000D01*
X0405000Y0295000D01*
X0404997Y0295242D01*
X0404988Y0295483D01*
X0404974Y0295724D01*
X0404953Y0295965D01*
X0404927Y0296205D01*
X0404895Y0296445D01*
X0404857Y0296684D01*
X0404814Y0296921D01*
X0404764Y0297158D01*
X0404709Y0297393D01*
X0404649Y0297627D01*
X0404582Y0297859D01*
X0404511Y0298090D01*
X0404433Y0298319D01*
X0404350Y0298546D01*
X0404262Y0298771D01*
X0404168Y0298994D01*
X0404069Y0299214D01*
X0403964Y0299432D01*
X0403855Y0299647D01*
X0403740Y0299860D01*
X0403620Y0300070D01*
X0403495Y0300276D01*
X0403365Y0300480D01*
X0403230Y0300681D01*
X0403090Y0300878D01*
X0402946Y0301072D01*
X0402797Y0301262D01*
X0402643Y0301448D01*
X0402485Y0301631D01*
X0402323Y0301810D01*
X0402156Y0301985D01*
X0401985Y0302156D01*
X0401810Y0302323D01*
X0401631Y0302485D01*
X0401448Y0302643D01*
X0401262Y0302797D01*
X0401072Y0302946D01*
X0400878Y0303090D01*
X0400681Y0303230D01*
X0400480Y0303365D01*
X0400276Y0303495D01*
X0400070Y0303620D01*
X0399860Y0303740D01*
X0399647Y0303855D01*
X0399432Y0303964D01*
X0399214Y0304069D01*
X0398994Y0304168D01*
X0398771Y0304262D01*
X0398546Y0304350D01*
X0398319Y0304433D01*
X0398090Y0304511D01*
X0397859Y0304582D01*
X0397627Y0304649D01*
X0397393Y0304709D01*
X0397158Y0304764D01*
X0396921Y0304814D01*
X0396684Y0304857D01*
X0396445Y0304895D01*
X0396205Y0304927D01*
X0395965Y0304953D01*
X0395724Y0304974D01*
X0395483Y0304988D01*
X0395242Y0304997D01*
X0395000Y0305000D01*
X0015000Y0305000D01*
X0014758Y0304997D01*
X0014517Y0304988D01*
X0014276Y0304974D01*
X0014035Y0304953D01*
X0013795Y0304927D01*
X0013555Y0304895D01*
X0013316Y0304857D01*
X0013079Y0304814D01*
X0012842Y0304764D01*
X0012607Y0304709D01*
X0012373Y0304649D01*
X0012141Y0304582D01*
X0011910Y0304511D01*
X0011681Y0304433D01*
X0011454Y0304350D01*
X0011229Y0304262D01*
X0011006Y0304168D01*
X0010786Y0304069D01*
X0010568Y0303964D01*
X0010353Y0303855D01*
X0010140Y0303740D01*
X0009930Y0303620D01*
X0009724Y0303495D01*
X0009520Y0303365D01*
X0009319Y0303230D01*
X0009122Y0303090D01*
X0008928Y0302946D01*
X0008738Y0302797D01*
X0008552Y0302643D01*
X0008369Y0302485D01*
X0008190Y0302323D01*
X0008015Y0302156D01*
X0007844Y0301985D01*
X0007677Y0301810D01*
X0007515Y0301631D01*
X0007357Y0301448D01*
X0007203Y0301262D01*
X0007054Y0301072D01*
X0006910Y0300878D01*
X0006770Y0300681D01*
X0006635Y0300480D01*
X0006505Y0300276D01*
X0006380Y0300070D01*
X0006260Y0299860D01*
X0006145Y0299647D01*
X0006036Y0299432D01*
X0005931Y0299214D01*
X0005832Y0298994D01*
X0005738Y0298771D01*
X0005650Y0298546D01*
X0005567Y0298319D01*
X0005489Y0298090D01*
X0005418Y0297859D01*
X0005351Y0297627D01*
X0005291Y0297393D01*
X0005236Y0297158D01*
X0005186Y0296921D01*
X0005143Y0296684D01*
X0005105Y0296445D01*
X0005073Y0296205D01*
X0005047Y0295965D01*
X0005026Y0295724D01*
X0005012Y0295483D01*
X0005003Y0295242D01*
X0005000Y0295000D01*
X0005000Y0015000D01*
X0005003Y0014758D01*
X0005012Y0014517D01*
X0005026Y0014276D01*
X0005047Y0014035D01*
X0005073Y0013795D01*
X0005105Y0013555D01*
X0005143Y0013316D01*
X0005186Y0013079D01*
X0005236Y0012842D01*
X0005291Y0012607D01*
X0005351Y0012373D01*
X0005418Y0012141D01*
X0005489Y0011910D01*
X0005567Y0011681D01*
X0005650Y0011454D01*
X0005738Y0011229D01*
X0005832Y0011006D01*
X0005931Y0010786D01*
X0006036Y0010568D01*
X0006145Y0010353D01*
X0006260Y0010140D01*
X0006380Y0009930D01*
X0006505Y0009724D01*
X0006635Y0009520D01*
X0006770Y0009319D01*
X0006910Y0009122D01*
X0007054Y0008928D01*
X0007203Y0008738D01*
X0007357Y0008552D01*
X0007515Y0008369D01*
X0007677Y0008190D01*
X0007844Y0008015D01*
X0008015Y0007844D01*
X0008190Y0007677D01*
X0008369Y0007515D01*
X0008552Y0007357D01*
X0008738Y0007203D01*
X0008928Y0007054D01*
X0009122Y0006910D01*
X0009319Y0006770D01*
X0009520Y0006635D01*
X0009724Y0006505D01*
X0009930Y0006380D01*
X0010140Y0006260D01*
X0010353Y0006145D01*
X0010568Y0006036D01*
X0010786Y0005931D01*
X0011006Y0005832D01*
X0011229Y0005738D01*
X0011454Y0005650D01*
X0011681Y0005567D01*
X0011910Y0005489D01*
X0012141Y0005418D01*
X0012373Y0005351D01*
X0012607Y0005291D01*
X0012842Y0005236D01*
X0013079Y0005186D01*
X0013316Y0005143D01*
X0013555Y0005105D01*
X0013795Y0005073D01*
X0014035Y0005047D01*
X0014276Y0005026D01*
X0014517Y0005012D01*
X0014758Y0005003D01*
X0015000Y0005000D01*
X0128000Y0115000D02*
X0128000Y0140000D01*
X0121000Y0140000D01*
X0121000Y0170000D01*
X0128000Y0170000D01*
X0128000Y0195000D01*
X0140000Y0195000D01*
X0140000Y0185000D01*
X0260000Y0185000D01*
X0260000Y0195000D01*
X0272000Y0189000D01*
X0272000Y0121000D01*
X0267969Y0121000D01*
X0264031Y0121000D02*
X0260000Y0121000D01*
X0260000Y0125000D01*
X0250000Y0125000D01*
X0140000Y0125000D01*
X0140000Y0115000D01*
X0128000Y0115000D01*
X0140000Y0115000D02*
X0260000Y0115000D01*
X0260000Y0121000D01*
X0260000Y0125000D02*
X0256969Y0125000D01*
X0253031Y0125000D02*
X0250000Y0125000D01*
X0250000Y0129055D01*
X0250000Y0132992D02*
X0250000Y0137047D01*
X0250000Y0140984D02*
X0250000Y0145039D01*
X0250000Y0148976D02*
X0250000Y0153031D01*
X0250000Y0156969D02*
X0250000Y0161024D01*
X0250000Y0164961D02*
X0250000Y0169016D01*
X0250000Y0172953D02*
X0250000Y0177008D01*
X0250000Y0180945D02*
X0250000Y0185000D01*
X0253031Y0185000D01*
X0256969Y0185000D02*
X0260000Y0185000D01*
X0260000Y0189000D01*
X0266042Y0189000D01*
X0269979Y0189000D02*
X0276021Y0189000D01*
X0279958Y0189000D02*
X0286000Y0189000D01*
X0286000Y0184944D01*
X0286000Y0181007D02*
X0286000Y0176951D01*
X0286000Y0173014D02*
X0286000Y0168958D01*
X0286000Y0165021D02*
X0286000Y0160965D01*
X0286000Y0157028D02*
X0286000Y0152972D01*
X0286000Y0149035D02*
X0286000Y0144979D01*
X0286000Y0141042D02*
X0286000Y0136986D01*
X0286000Y0133049D02*
X0286000Y0128993D01*
X0286000Y0125056D02*
X0286000Y0121000D01*
X0280969Y0121000D01*
X0277031Y0121000D02*
X0272000Y0121000D01*
X0260000Y0115000D01*
X0260000Y0195000D02*
X0140000Y0195000D01*
D11*
X0143463Y0205200D02*
X0142696Y0205967D01*
X0142696Y0207502D01*
X0143463Y0208269D01*
X0144231Y0208269D01*
X0144998Y0207502D01*
X0145765Y0208269D01*
X0146533Y0208269D01*
X0147300Y0207502D01*
X0147300Y0205967D01*
X0146533Y0205200D01*
X0144998Y0206735D02*
X0144998Y0207502D01*
X0145765Y0209804D02*
X0147300Y0211339D01*
X0145765Y0212873D01*
X0142696Y0212873D01*
X0143463Y0214408D02*
X0142696Y0215175D01*
X0142696Y0216710D01*
X0143463Y0217477D01*
X0144231Y0217477D01*
X0144998Y0216710D01*
X0145765Y0217477D01*
X0146533Y0217477D01*
X0147300Y0216710D01*
X0147300Y0215175D01*
X0146533Y0214408D01*
X0144998Y0215942D02*
X0144998Y0216710D01*
X0145765Y0209804D02*
X0142696Y0209804D01*
X0152696Y0210571D02*
X0153463Y0209804D01*
X0154231Y0209804D01*
X0154998Y0210571D01*
X0154998Y0212106D01*
X0155765Y0212873D01*
X0156533Y0212873D01*
X0157300Y0212106D01*
X0157300Y0210571D01*
X0156533Y0209804D01*
X0157300Y0208269D02*
X0155765Y0206735D01*
X0155765Y0207502D02*
X0155765Y0205200D01*
X0157300Y0205200D02*
X0152696Y0205200D01*
X0152696Y0207502D01*
X0153463Y0208269D01*
X0154998Y0208269D01*
X0155765Y0207502D01*
X0152696Y0210571D02*
X0152696Y0212106D01*
X0153463Y0212873D01*
X0152696Y0214408D02*
X0152696Y0217477D01*
X0152696Y0215942D02*
X0157300Y0215942D01*
X0162696Y0215942D02*
X0164231Y0217477D01*
X0167300Y0217477D01*
X0164998Y0217477D02*
X0164998Y0214408D01*
X0164231Y0214408D02*
X0162696Y0215942D01*
X0164231Y0214408D02*
X0167300Y0214408D01*
X0166533Y0212873D02*
X0167300Y0212106D01*
X0167300Y0209804D01*
X0162696Y0209804D01*
X0162696Y0212106D01*
X0163463Y0212873D01*
X0164231Y0212873D01*
X0164998Y0212106D01*
X0164998Y0209804D01*
X0165765Y0208269D02*
X0162696Y0208269D01*
X0162696Y0205200D02*
X0165765Y0205200D01*
X0167300Y0206735D01*
X0165765Y0208269D01*
X0164998Y0212106D02*
X0165765Y0212873D01*
X0166533Y0212873D01*
X0172696Y0212873D02*
X0177300Y0212873D01*
X0172696Y0209804D01*
X0177300Y0209804D01*
X0176533Y0208269D02*
X0174998Y0208269D01*
X0174998Y0206735D01*
X0173463Y0208269D02*
X0172696Y0207502D01*
X0172696Y0205967D01*
X0173463Y0205200D01*
X0176533Y0205200D01*
X0177300Y0205967D01*
X0177300Y0207502D01*
X0176533Y0208269D01*
X0182696Y0207502D02*
X0182696Y0205200D01*
X0187300Y0205200D01*
X0187300Y0207502D01*
X0186533Y0208269D01*
X0183463Y0208269D01*
X0182696Y0207502D01*
X0182696Y0209804D02*
X0182696Y0212873D01*
X0183463Y0212873D01*
X0186533Y0209804D01*
X0187300Y0209804D01*
X0192696Y0207502D02*
X0192696Y0205200D01*
X0197300Y0205200D01*
X0197300Y0207502D01*
X0196533Y0208269D01*
X0193463Y0208269D01*
X0192696Y0207502D01*
X0194998Y0209804D02*
X0194998Y0212106D01*
X0195765Y0212873D01*
X0196533Y0212873D01*
X0197300Y0212106D01*
X0197300Y0210571D01*
X0196533Y0209804D01*
X0194998Y0209804D01*
X0193463Y0211339D01*
X0192696Y0212873D01*
X0202696Y0212873D02*
X0202696Y0209804D01*
X0204998Y0209804D01*
X0204231Y0211339D01*
X0204231Y0212106D01*
X0204998Y0212873D01*
X0206533Y0212873D01*
X0207300Y0212106D01*
X0207300Y0210571D01*
X0206533Y0209804D01*
X0206533Y0208269D02*
X0203463Y0208269D01*
X0202696Y0207502D01*
X0202696Y0205200D01*
X0207300Y0205200D01*
X0207300Y0207502D01*
X0206533Y0208269D01*
X0212696Y0207502D02*
X0212696Y0205200D01*
X0217300Y0205200D01*
X0217300Y0207502D01*
X0216533Y0208269D01*
X0213463Y0208269D01*
X0212696Y0207502D01*
X0214998Y0209804D02*
X0214998Y0212873D01*
X0212696Y0212106D02*
X0214998Y0209804D01*
X0217300Y0212106D02*
X0212696Y0212106D01*
X0222696Y0212106D02*
X0222696Y0210571D01*
X0223463Y0209804D01*
X0223463Y0208269D02*
X0222696Y0207502D01*
X0222696Y0205200D01*
X0227300Y0205200D01*
X0227300Y0207502D01*
X0226533Y0208269D01*
X0223463Y0208269D01*
X0224998Y0211339D02*
X0224998Y0212106D01*
X0225765Y0212873D01*
X0226533Y0212873D01*
X0227300Y0212106D01*
X0227300Y0210571D01*
X0226533Y0209804D01*
X0224998Y0212106D02*
X0224231Y0212873D01*
X0223463Y0212873D01*
X0222696Y0212106D01*
X0232696Y0212106D02*
X0232696Y0210571D01*
X0233463Y0209804D01*
X0233463Y0208269D02*
X0232696Y0207502D01*
X0232696Y0205200D01*
X0237300Y0205200D01*
X0237300Y0207502D01*
X0236533Y0208269D01*
X0233463Y0208269D01*
X0232696Y0212106D02*
X0233463Y0212873D01*
X0234231Y0212873D01*
X0237300Y0209804D01*
X0237300Y0212873D01*
X0242696Y0211339D02*
X0247300Y0211339D01*
X0247300Y0212873D02*
X0247300Y0209804D01*
X0246533Y0208269D02*
X0243463Y0208269D01*
X0242696Y0207502D01*
X0242696Y0205200D01*
X0247300Y0205200D01*
X0247300Y0207502D01*
X0246533Y0208269D01*
X0244231Y0209804D02*
X0242696Y0211339D01*
X0252696Y0210571D02*
X0252696Y0212106D01*
X0253463Y0212873D01*
X0256533Y0209804D01*
X0257300Y0210571D01*
X0257300Y0212106D01*
X0256533Y0212873D01*
X0253463Y0212873D01*
X0252696Y0210571D02*
X0253463Y0209804D01*
X0256533Y0209804D01*
X0256533Y0208269D02*
X0253463Y0208269D01*
X0252696Y0207502D01*
X0252696Y0205200D01*
X0257300Y0205200D01*
X0257300Y0207502D01*
X0256533Y0208269D01*
X0264196Y0170665D02*
X0264196Y0167596D01*
X0264196Y0166061D02*
X0268033Y0166061D01*
X0268800Y0165294D01*
X0268800Y0163759D01*
X0268033Y0162992D01*
X0264196Y0162992D01*
X0264963Y0161457D02*
X0264196Y0160690D01*
X0264196Y0159155D01*
X0264963Y0158388D01*
X0268033Y0158388D01*
X0268800Y0159155D01*
X0268800Y0160690D01*
X0268033Y0161457D01*
X0264963Y0161457D01*
X0264963Y0156854D02*
X0266498Y0156854D01*
X0267265Y0156086D01*
X0267265Y0153784D01*
X0268800Y0153784D02*
X0264196Y0153784D01*
X0264196Y0156086D01*
X0264963Y0156854D01*
X0264196Y0152250D02*
X0264196Y0149180D01*
X0268800Y0149180D01*
X0268800Y0152250D01*
X0266498Y0150715D02*
X0266498Y0149180D01*
X0264196Y0147646D02*
X0264196Y0144576D01*
X0268800Y0144576D01*
X0268800Y0147646D01*
X0266498Y0146111D02*
X0266498Y0144576D01*
X0264196Y0143042D02*
X0267265Y0139972D01*
X0266498Y0140740D02*
X0268800Y0143042D01*
X0268800Y0139972D02*
X0264196Y0139972D01*
X0264196Y0169131D02*
X0268800Y0169131D01*
X0256533Y0103665D02*
X0253463Y0103665D01*
X0256533Y0100596D01*
X0257300Y0101363D01*
X0257300Y0102898D01*
X0256533Y0103665D01*
X0256533Y0100596D02*
X0253463Y0100596D01*
X0252696Y0101363D01*
X0252696Y0102898D01*
X0253463Y0103665D01*
X0254231Y0099061D02*
X0257300Y0099061D01*
X0254998Y0099061D02*
X0254998Y0095992D01*
X0254231Y0095992D02*
X0252696Y0097527D01*
X0254231Y0099061D01*
X0254231Y0095992D02*
X0257300Y0095992D01*
X0247300Y0095992D02*
X0244231Y0095992D01*
X0242696Y0097527D01*
X0244231Y0099061D01*
X0247300Y0099061D01*
X0247300Y0100596D02*
X0247300Y0103665D01*
X0247300Y0102131D02*
X0242696Y0102131D01*
X0244231Y0100596D01*
X0244998Y0099061D02*
X0244998Y0095992D01*
X0237300Y0095992D02*
X0234231Y0095992D01*
X0232696Y0097527D01*
X0234231Y0099061D01*
X0237300Y0099061D01*
X0237300Y0100596D02*
X0234231Y0103665D01*
X0233463Y0103665D01*
X0232696Y0102898D01*
X0232696Y0101363D01*
X0233463Y0100596D01*
X0234998Y0099061D02*
X0234998Y0095992D01*
X0237300Y0100596D02*
X0237300Y0103665D01*
X0227300Y0102898D02*
X0227300Y0101363D01*
X0226533Y0100596D01*
X0227300Y0099061D02*
X0224231Y0099061D01*
X0222696Y0097527D01*
X0224231Y0095992D01*
X0227300Y0095992D01*
X0224998Y0095992D02*
X0224998Y0099061D01*
X0223463Y0100596D02*
X0222696Y0101363D01*
X0222696Y0102898D01*
X0223463Y0103665D01*
X0224231Y0103665D01*
X0224998Y0102898D01*
X0225765Y0103665D01*
X0226533Y0103665D01*
X0227300Y0102898D01*
X0224998Y0102898D02*
X0224998Y0102131D01*
X0217300Y0102898D02*
X0212696Y0102898D01*
X0214998Y0100596D01*
X0214998Y0103665D01*
X0214998Y0099061D02*
X0214998Y0095992D01*
X0214231Y0095992D02*
X0212696Y0097527D01*
X0214231Y0099061D01*
X0217300Y0099061D01*
X0217300Y0095992D02*
X0214231Y0095992D01*
X0207300Y0095992D02*
X0204231Y0095992D01*
X0202696Y0097527D01*
X0204231Y0099061D01*
X0207300Y0099061D01*
X0206533Y0100596D02*
X0207300Y0101363D01*
X0207300Y0102898D01*
X0206533Y0103665D01*
X0204998Y0103665D01*
X0204231Y0102898D01*
X0204231Y0102131D01*
X0204998Y0100596D01*
X0202696Y0100596D01*
X0202696Y0103665D01*
X0204998Y0099061D02*
X0204998Y0095992D01*
X0197300Y0095992D02*
X0194231Y0095992D01*
X0192696Y0097527D01*
X0194231Y0099061D01*
X0197300Y0099061D01*
X0196533Y0100596D02*
X0197300Y0101363D01*
X0197300Y0102898D01*
X0196533Y0103665D01*
X0196533Y0100596D02*
X0193463Y0100596D01*
X0192696Y0101363D01*
X0192696Y0102898D01*
X0193463Y0103665D01*
X0194998Y0099061D02*
X0194998Y0095992D01*
X0193463Y0094457D02*
X0192696Y0093690D01*
X0192696Y0091388D01*
X0197300Y0091388D01*
X0197300Y0093690D01*
X0196533Y0094457D01*
X0193463Y0094457D01*
X0187300Y0094457D02*
X0182696Y0094457D01*
X0182696Y0095992D02*
X0187300Y0095992D01*
X0187300Y0094457D02*
X0185765Y0092923D01*
X0187300Y0091388D01*
X0182696Y0091388D01*
X0185765Y0095992D02*
X0182696Y0099061D01*
X0182696Y0100596D02*
X0182696Y0102898D01*
X0183463Y0103665D01*
X0184998Y0103665D01*
X0185765Y0102898D01*
X0185765Y0100596D01*
X0187300Y0100596D02*
X0182696Y0100596D01*
X0184998Y0096759D02*
X0187300Y0099061D01*
X0177300Y0099061D02*
X0175765Y0097527D01*
X0175765Y0098294D02*
X0175765Y0095992D01*
X0177300Y0095992D02*
X0172696Y0095992D01*
X0172696Y0098294D01*
X0173463Y0099061D01*
X0174998Y0099061D01*
X0175765Y0098294D01*
X0177300Y0100596D02*
X0172696Y0103665D01*
X0172696Y0100596D02*
X0177300Y0103665D01*
X0167300Y0103665D02*
X0162696Y0100596D01*
X0162696Y0099061D02*
X0162696Y0095992D01*
X0162696Y0097527D02*
X0167300Y0097527D01*
X0167300Y0100596D02*
X0162696Y0103665D01*
X0157300Y0102898D02*
X0157300Y0100596D01*
X0152696Y0100596D01*
X0152696Y0102898D01*
X0153463Y0103665D01*
X0156533Y0103665D01*
X0157300Y0102898D01*
X0157300Y0099061D02*
X0152696Y0099061D01*
X0152696Y0095992D02*
X0157300Y0099061D01*
X0157300Y0095992D02*
X0152696Y0095992D01*
X0153463Y0094457D02*
X0152696Y0093690D01*
X0152696Y0092156D01*
X0153463Y0091388D01*
X0156533Y0091388D01*
X0157300Y0092156D01*
X0157300Y0093690D01*
X0156533Y0094457D01*
X0154998Y0094457D01*
X0154998Y0092923D01*
X0147300Y0094457D02*
X0145765Y0095992D01*
X0142696Y0095992D01*
X0142696Y0097527D02*
X0142696Y0099061D01*
X0142696Y0098294D02*
X0147300Y0098294D01*
X0147300Y0097527D02*
X0147300Y0099061D01*
X0147300Y0100596D02*
X0142696Y0100596D01*
X0147300Y0103665D01*
X0142696Y0103665D01*
X0147300Y0094457D02*
X0145765Y0092923D01*
X0142696Y0092923D01*
X0172696Y0214408D02*
X0172696Y0216710D01*
X0173463Y0217477D01*
X0176533Y0217477D01*
X0177300Y0216710D01*
X0177300Y0214408D01*
X0172696Y0214408D01*
X0167300Y0220546D02*
X0162696Y0220546D01*
X0162696Y0219012D02*
X0162696Y0222081D01*
D12*
X0384269Y0018408D02*
X0384476Y0018567D01*
X0384718Y0018667D01*
X0384976Y0018701D01*
X0387976Y0018701D01*
X0388235Y0018667D01*
X0388476Y0018567D01*
X0388683Y0018408D01*
X0388842Y0018201D01*
X0388942Y0017960D01*
X0388976Y0017701D01*
X0388976Y0014701D01*
X0388942Y0014442D01*
X0388842Y0014201D01*
X0388683Y0013994D01*
X0388476Y0013835D01*
X0388235Y0013735D01*
X0387976Y0013701D01*
X0384976Y0013701D01*
X0384718Y0013735D01*
X0384476Y0013835D01*
X0384269Y0013994D01*
X0384110Y0014201D01*
X0384010Y0014442D01*
X0383976Y0014701D01*
X0383976Y0017701D01*
X0384010Y0017960D01*
X0384110Y0018201D01*
X0384269Y0018408D01*
X0384302Y0018433D02*
X0388651Y0018433D01*
X0388870Y0018134D02*
X0384083Y0018134D01*
X0383994Y0017836D02*
X0388959Y0017836D01*
X0388976Y0017537D02*
X0383976Y0017537D01*
X0383976Y0017239D02*
X0388976Y0017239D01*
X0388976Y0016940D02*
X0383976Y0016940D01*
X0383976Y0016642D02*
X0388976Y0016642D01*
X0388976Y0016343D02*
X0383976Y0016343D01*
X0383976Y0016045D02*
X0388976Y0016045D01*
X0388976Y0015746D02*
X0383976Y0015746D01*
X0383976Y0015448D02*
X0388976Y0015448D01*
X0388976Y0015149D02*
X0383976Y0015149D01*
X0383976Y0014851D02*
X0388976Y0014851D01*
X0388957Y0014552D02*
X0383996Y0014552D01*
X0384088Y0014254D02*
X0388864Y0014254D01*
X0388634Y0013955D02*
X0384319Y0013955D01*
X0389510Y0012460D02*
X0389476Y0012201D01*
X0389476Y0009201D01*
X0389510Y0008942D01*
X0389610Y0008701D01*
X0389769Y0008494D01*
X0389976Y0008335D01*
X0390218Y0008235D01*
X0390476Y0008201D01*
X0393476Y0008201D01*
X0393735Y0008235D01*
X0393976Y0008335D01*
X0394183Y0008494D01*
X0394342Y0008701D01*
X0394442Y0008942D01*
X0394476Y0009201D01*
X0394476Y0011201D01*
X0394524Y0011689D01*
X0394667Y0012157D01*
X0394898Y0012590D01*
X0395209Y0012969D01*
X0395587Y0013279D01*
X0396020Y0013510D01*
X0396489Y0013653D01*
X0396976Y0013701D01*
X0398976Y0013701D01*
X0399235Y0013735D01*
X0399476Y0013835D01*
X0399683Y0013994D01*
X0399842Y0014201D01*
X0399942Y0014442D01*
X0399976Y0014701D01*
X0399976Y0017701D01*
X0399942Y0017960D01*
X0399842Y0018201D01*
X0399683Y0018408D01*
X0399476Y0018567D01*
X0399235Y0018667D01*
X0398976Y0018701D01*
X0395976Y0018701D01*
X0395718Y0018667D01*
X0395476Y0018567D01*
X0395269Y0018408D01*
X0395110Y0018201D01*
X0395010Y0017960D01*
X0394976Y0017701D01*
X0394976Y0015701D01*
X0394928Y0015213D01*
X0394786Y0014744D01*
X0394555Y0014312D01*
X0394244Y0013933D01*
X0393865Y0013622D01*
X0393433Y0013391D01*
X0392964Y0013249D01*
X0392476Y0013201D01*
X0390476Y0013201D01*
X0390218Y0013167D01*
X0389976Y0013067D01*
X0389769Y0012908D01*
X0389610Y0012701D01*
X0389510Y0012460D01*
X0389512Y0012463D02*
X0394830Y0012463D01*
X0394670Y0012164D02*
X0389476Y0012164D01*
X0389476Y0011866D02*
X0394578Y0011866D01*
X0394512Y0011567D02*
X0389476Y0011567D01*
X0389476Y0011269D02*
X0394483Y0011269D01*
X0394476Y0010970D02*
X0389476Y0010970D01*
X0389476Y0010672D02*
X0394476Y0010672D01*
X0394476Y0010373D02*
X0389476Y0010373D01*
X0389476Y0010075D02*
X0394476Y0010075D01*
X0394476Y0009776D02*
X0389476Y0009776D01*
X0389476Y0009478D02*
X0394476Y0009478D01*
X0394474Y0009179D02*
X0389479Y0009179D01*
X0389536Y0008881D02*
X0394417Y0008881D01*
X0394251Y0008582D02*
X0389701Y0008582D01*
X0390100Y0008284D02*
X0393853Y0008284D01*
X0395039Y0012761D02*
X0389657Y0012761D01*
X0389967Y0013060D02*
X0395320Y0013060D01*
X0395735Y0013358D02*
X0393325Y0013358D01*
X0393908Y0013657D02*
X0396530Y0013657D01*
X0394684Y0014552D02*
X0399957Y0014552D01*
X0399976Y0014851D02*
X0394818Y0014851D01*
X0394909Y0015149D02*
X0399976Y0015149D01*
X0399976Y0015448D02*
X0394951Y0015448D01*
X0394976Y0015746D02*
X0399976Y0015746D01*
X0399976Y0016045D02*
X0394976Y0016045D01*
X0394976Y0016343D02*
X0399976Y0016343D01*
X0399976Y0016642D02*
X0394976Y0016642D01*
X0394976Y0016940D02*
X0399976Y0016940D01*
X0399976Y0017239D02*
X0394976Y0017239D01*
X0394976Y0017537D02*
X0399976Y0017537D01*
X0399959Y0017836D02*
X0394994Y0017836D01*
X0395083Y0018134D02*
X0399870Y0018134D01*
X0399651Y0018433D02*
X0395302Y0018433D01*
X0394507Y0014254D02*
X0399864Y0014254D01*
X0399634Y0013955D02*
X0394262Y0013955D01*
M02*
