G75*
%MOIN*%
%OFA0B0*%
%FSLAX25Y25*%
%IPPOS*%
%LPD*%
%AMOC8*
5,1,8,0,0,1.08239X$1,22.5*
%
%ADD10C,0.00500*%
%ADD11C,0.00300*%
D10*
X0015000Y0005000D02*
X0295000Y0005000D01*
X0295242Y0005003D01*
X0295483Y0005012D01*
X0295724Y0005026D01*
X0295965Y0005047D01*
X0296205Y0005073D01*
X0296445Y0005105D01*
X0296684Y0005143D01*
X0296921Y0005186D01*
X0297158Y0005236D01*
X0297393Y0005291D01*
X0297627Y0005351D01*
X0297859Y0005418D01*
X0298090Y0005489D01*
X0298319Y0005567D01*
X0298546Y0005650D01*
X0298771Y0005738D01*
X0298994Y0005832D01*
X0299214Y0005931D01*
X0299432Y0006036D01*
X0299647Y0006145D01*
X0299860Y0006260D01*
X0300070Y0006380D01*
X0300276Y0006505D01*
X0300480Y0006635D01*
X0300681Y0006770D01*
X0300878Y0006910D01*
X0301072Y0007054D01*
X0301262Y0007203D01*
X0301448Y0007357D01*
X0301631Y0007515D01*
X0301810Y0007677D01*
X0301985Y0007844D01*
X0302156Y0008015D01*
X0302323Y0008190D01*
X0302485Y0008369D01*
X0302643Y0008552D01*
X0302797Y0008738D01*
X0302946Y0008928D01*
X0303090Y0009122D01*
X0303230Y0009319D01*
X0303365Y0009520D01*
X0303495Y0009724D01*
X0303620Y0009930D01*
X0303740Y0010140D01*
X0303855Y0010353D01*
X0303964Y0010568D01*
X0304069Y0010786D01*
X0304168Y0011006D01*
X0304262Y0011229D01*
X0304350Y0011454D01*
X0304433Y0011681D01*
X0304511Y0011910D01*
X0304582Y0012141D01*
X0304649Y0012373D01*
X0304709Y0012607D01*
X0304764Y0012842D01*
X0304814Y0013079D01*
X0304857Y0013316D01*
X0304895Y0013555D01*
X0304927Y0013795D01*
X0304953Y0014035D01*
X0304974Y0014276D01*
X0304988Y0014517D01*
X0304997Y0014758D01*
X0305000Y0015000D01*
X0305000Y0195000D01*
X0304997Y0195242D01*
X0304988Y0195483D01*
X0304974Y0195724D01*
X0304953Y0195965D01*
X0304927Y0196205D01*
X0304895Y0196445D01*
X0304857Y0196684D01*
X0304814Y0196921D01*
X0304764Y0197158D01*
X0304709Y0197393D01*
X0304649Y0197627D01*
X0304582Y0197859D01*
X0304511Y0198090D01*
X0304433Y0198319D01*
X0304350Y0198546D01*
X0304262Y0198771D01*
X0304168Y0198994D01*
X0304069Y0199214D01*
X0303964Y0199432D01*
X0303855Y0199647D01*
X0303740Y0199860D01*
X0303620Y0200070D01*
X0303495Y0200276D01*
X0303365Y0200480D01*
X0303230Y0200681D01*
X0303090Y0200878D01*
X0302946Y0201072D01*
X0302797Y0201262D01*
X0302643Y0201448D01*
X0302485Y0201631D01*
X0302323Y0201810D01*
X0302156Y0201985D01*
X0301985Y0202156D01*
X0301810Y0202323D01*
X0301631Y0202485D01*
X0301448Y0202643D01*
X0301262Y0202797D01*
X0301072Y0202946D01*
X0300878Y0203090D01*
X0300681Y0203230D01*
X0300480Y0203365D01*
X0300276Y0203495D01*
X0300070Y0203620D01*
X0299860Y0203740D01*
X0299647Y0203855D01*
X0299432Y0203964D01*
X0299214Y0204069D01*
X0298994Y0204168D01*
X0298771Y0204262D01*
X0298546Y0204350D01*
X0298319Y0204433D01*
X0298090Y0204511D01*
X0297859Y0204582D01*
X0297627Y0204649D01*
X0297393Y0204709D01*
X0297158Y0204764D01*
X0296921Y0204814D01*
X0296684Y0204857D01*
X0296445Y0204895D01*
X0296205Y0204927D01*
X0295965Y0204953D01*
X0295724Y0204974D01*
X0295483Y0204988D01*
X0295242Y0204997D01*
X0295000Y0205000D01*
X0015000Y0205000D01*
X0014758Y0204997D01*
X0014517Y0204988D01*
X0014276Y0204974D01*
X0014035Y0204953D01*
X0013795Y0204927D01*
X0013555Y0204895D01*
X0013316Y0204857D01*
X0013079Y0204814D01*
X0012842Y0204764D01*
X0012607Y0204709D01*
X0012373Y0204649D01*
X0012141Y0204582D01*
X0011910Y0204511D01*
X0011681Y0204433D01*
X0011454Y0204350D01*
X0011229Y0204262D01*
X0011006Y0204168D01*
X0010786Y0204069D01*
X0010568Y0203964D01*
X0010353Y0203855D01*
X0010140Y0203740D01*
X0009930Y0203620D01*
X0009724Y0203495D01*
X0009520Y0203365D01*
X0009319Y0203230D01*
X0009122Y0203090D01*
X0008928Y0202946D01*
X0008738Y0202797D01*
X0008552Y0202643D01*
X0008369Y0202485D01*
X0008190Y0202323D01*
X0008015Y0202156D01*
X0007844Y0201985D01*
X0007677Y0201810D01*
X0007515Y0201631D01*
X0007357Y0201448D01*
X0007203Y0201262D01*
X0007054Y0201072D01*
X0006910Y0200878D01*
X0006770Y0200681D01*
X0006635Y0200480D01*
X0006505Y0200276D01*
X0006380Y0200070D01*
X0006260Y0199860D01*
X0006145Y0199647D01*
X0006036Y0199432D01*
X0005931Y0199214D01*
X0005832Y0198994D01*
X0005738Y0198771D01*
X0005650Y0198546D01*
X0005567Y0198319D01*
X0005489Y0198090D01*
X0005418Y0197859D01*
X0005351Y0197627D01*
X0005291Y0197393D01*
X0005236Y0197158D01*
X0005186Y0196921D01*
X0005143Y0196684D01*
X0005105Y0196445D01*
X0005073Y0196205D01*
X0005047Y0195965D01*
X0005026Y0195724D01*
X0005012Y0195483D01*
X0005003Y0195242D01*
X0005000Y0195000D01*
X0005000Y0015000D01*
X0005003Y0014758D01*
X0005012Y0014517D01*
X0005026Y0014276D01*
X0005047Y0014035D01*
X0005073Y0013795D01*
X0005105Y0013555D01*
X0005143Y0013316D01*
X0005186Y0013079D01*
X0005236Y0012842D01*
X0005291Y0012607D01*
X0005351Y0012373D01*
X0005418Y0012141D01*
X0005489Y0011910D01*
X0005567Y0011681D01*
X0005650Y0011454D01*
X0005738Y0011229D01*
X0005832Y0011006D01*
X0005931Y0010786D01*
X0006036Y0010568D01*
X0006145Y0010353D01*
X0006260Y0010140D01*
X0006380Y0009930D01*
X0006505Y0009724D01*
X0006635Y0009520D01*
X0006770Y0009319D01*
X0006910Y0009122D01*
X0007054Y0008928D01*
X0007203Y0008738D01*
X0007357Y0008552D01*
X0007515Y0008369D01*
X0007677Y0008190D01*
X0007844Y0008015D01*
X0008015Y0007844D01*
X0008190Y0007677D01*
X0008369Y0007515D01*
X0008552Y0007357D01*
X0008738Y0007203D01*
X0008928Y0007054D01*
X0009122Y0006910D01*
X0009319Y0006770D01*
X0009520Y0006635D01*
X0009724Y0006505D01*
X0009930Y0006380D01*
X0010140Y0006260D01*
X0010353Y0006145D01*
X0010568Y0006036D01*
X0010786Y0005931D01*
X0011006Y0005832D01*
X0011229Y0005738D01*
X0011454Y0005650D01*
X0011681Y0005567D01*
X0011910Y0005489D01*
X0012141Y0005418D01*
X0012373Y0005351D01*
X0012607Y0005291D01*
X0012842Y0005236D01*
X0013079Y0005186D01*
X0013316Y0005143D01*
X0013555Y0005105D01*
X0013795Y0005073D01*
X0014035Y0005047D01*
X0014276Y0005026D01*
X0014517Y0005012D01*
X0014758Y0005003D01*
X0015000Y0005000D01*
D11*
X0014276Y0188425D02*
X0011276Y0188425D01*
X0011017Y0188459D01*
X0010776Y0188559D01*
X0010568Y0188718D01*
X0010410Y0188925D01*
X0010310Y0189166D01*
X0010276Y0189425D01*
X0010276Y0192425D01*
X0010310Y0192684D01*
X0010410Y0192925D01*
X0010568Y0193132D01*
X0010776Y0193291D01*
X0011017Y0193391D01*
X0011276Y0193425D01*
X0014276Y0193425D01*
X0014534Y0193391D01*
X0014776Y0193291D01*
X0014983Y0193132D01*
X0015142Y0192925D01*
X0015242Y0192684D01*
X0015276Y0192425D01*
X0015276Y0189425D01*
X0015242Y0189166D01*
X0015142Y0188925D01*
X0014983Y0188718D01*
X0014776Y0188559D01*
X0014534Y0188459D01*
X0014276Y0188425D01*
X0014809Y0188584D02*
X0010743Y0188584D01*
X0010442Y0188883D02*
X0015109Y0188883D01*
X0015243Y0189181D02*
X0010308Y0189181D01*
X0010276Y0189480D02*
X0015276Y0189480D01*
X0015276Y0189779D02*
X0010276Y0189779D01*
X0010276Y0190077D02*
X0015276Y0190077D01*
X0015276Y0190376D02*
X0010276Y0190376D01*
X0010276Y0190674D02*
X0015276Y0190674D01*
X0015276Y0190973D02*
X0010276Y0190973D01*
X0010276Y0191271D02*
X0015276Y0191271D01*
X0015276Y0191570D02*
X0010276Y0191570D01*
X0010276Y0191868D02*
X0015276Y0191868D01*
X0015276Y0192167D02*
X0010276Y0192167D01*
X0010281Y0192465D02*
X0015270Y0192465D01*
X0015209Y0192764D02*
X0010343Y0192764D01*
X0010515Y0193062D02*
X0015037Y0193062D01*
X0014608Y0193361D02*
X0010943Y0193361D01*
X0015810Y0194666D02*
X0015776Y0194925D01*
X0015776Y0197925D01*
X0015810Y0198184D01*
X0015910Y0198425D01*
X0016068Y0198632D01*
X0016276Y0198791D01*
X0016517Y0198891D01*
X0016776Y0198925D01*
X0019776Y0198925D01*
X0020034Y0198891D01*
X0020276Y0198791D01*
X0020483Y0198632D01*
X0020642Y0198425D01*
X0020742Y0198184D01*
X0020776Y0197925D01*
X0020776Y0195925D01*
X0020824Y0195437D01*
X0020966Y0194968D01*
X0021197Y0194536D01*
X0021508Y0194157D01*
X0021887Y0193847D01*
X0022319Y0193616D01*
X0022788Y0193473D01*
X0023276Y0193425D01*
X0025276Y0193425D01*
X0025534Y0193391D01*
X0025776Y0193291D01*
X0025983Y0193132D01*
X0026142Y0192925D01*
X0026242Y0192684D01*
X0026276Y0192425D01*
X0026276Y0189425D01*
X0026242Y0189166D01*
X0026142Y0188925D01*
X0025983Y0188718D01*
X0025776Y0188559D01*
X0025534Y0188459D01*
X0025276Y0188425D01*
X0022276Y0188425D01*
X0022017Y0188459D01*
X0021776Y0188559D01*
X0021568Y0188718D01*
X0021410Y0188925D01*
X0021310Y0189166D01*
X0021276Y0189425D01*
X0021276Y0191425D01*
X0021228Y0191913D01*
X0021085Y0192382D01*
X0020854Y0192814D01*
X0020543Y0193193D01*
X0020165Y0193504D01*
X0019732Y0193735D01*
X0019263Y0193877D01*
X0018776Y0193925D01*
X0016776Y0193925D01*
X0016517Y0193959D01*
X0016276Y0194059D01*
X0016068Y0194218D01*
X0015910Y0194425D01*
X0015810Y0194666D01*
X0015856Y0194555D02*
X0021187Y0194555D01*
X0021028Y0194853D02*
X0015785Y0194853D01*
X0015776Y0195152D02*
X0020910Y0195152D01*
X0020822Y0195450D02*
X0015776Y0195450D01*
X0015776Y0195749D02*
X0020793Y0195749D01*
X0020776Y0196047D02*
X0015776Y0196047D01*
X0015776Y0196346D02*
X0020776Y0196346D01*
X0020776Y0196644D02*
X0015776Y0196644D01*
X0015776Y0196943D02*
X0020776Y0196943D01*
X0020776Y0197241D02*
X0015776Y0197241D01*
X0015776Y0197540D02*
X0020776Y0197540D01*
X0020776Y0197838D02*
X0015776Y0197838D01*
X0015803Y0198137D02*
X0020748Y0198137D01*
X0020634Y0198435D02*
X0015917Y0198435D01*
X0016201Y0198734D02*
X0020350Y0198734D01*
X0021427Y0194256D02*
X0016039Y0194256D01*
X0016529Y0193958D02*
X0021751Y0193958D01*
X0022237Y0193659D02*
X0019874Y0193659D01*
X0020339Y0193361D02*
X0025608Y0193361D01*
X0026037Y0193062D02*
X0020651Y0193062D01*
X0020881Y0192764D02*
X0026209Y0192764D01*
X0026270Y0192465D02*
X0021041Y0192465D01*
X0021151Y0192167D02*
X0026276Y0192167D01*
X0026276Y0191868D02*
X0021232Y0191868D01*
X0021261Y0191570D02*
X0026276Y0191570D01*
X0026276Y0191271D02*
X0021276Y0191271D01*
X0021276Y0190973D02*
X0026276Y0190973D01*
X0026276Y0190674D02*
X0021276Y0190674D01*
X0021276Y0190376D02*
X0026276Y0190376D01*
X0026276Y0190077D02*
X0021276Y0190077D01*
X0021276Y0189779D02*
X0026276Y0189779D01*
X0026276Y0189480D02*
X0021276Y0189480D01*
X0021308Y0189181D02*
X0026244Y0189181D01*
X0026109Y0188883D02*
X0021442Y0188883D01*
X0021743Y0188584D02*
X0025809Y0188584D01*
M02*
