G75*
%MOIN*%
%OFA0B0*%
%FSLAX25Y25*%
%IPPOS*%
%LPD*%
%AMOC8*
5,1,8,0,0,1.08239X$1,22.5*
%
%ADD10C,0.00500*%
%ADD11C,0.04737*%
D10*
X0015000Y0005000D02*
X0295000Y0005000D01*
X0295242Y0005003D01*
X0295483Y0005012D01*
X0295724Y0005026D01*
X0295965Y0005047D01*
X0296205Y0005073D01*
X0296445Y0005105D01*
X0296684Y0005143D01*
X0296921Y0005186D01*
X0297158Y0005236D01*
X0297393Y0005291D01*
X0297627Y0005351D01*
X0297859Y0005418D01*
X0298090Y0005489D01*
X0298319Y0005567D01*
X0298546Y0005650D01*
X0298771Y0005738D01*
X0298994Y0005832D01*
X0299214Y0005931D01*
X0299432Y0006036D01*
X0299647Y0006145D01*
X0299860Y0006260D01*
X0300070Y0006380D01*
X0300276Y0006505D01*
X0300480Y0006635D01*
X0300681Y0006770D01*
X0300878Y0006910D01*
X0301072Y0007054D01*
X0301262Y0007203D01*
X0301448Y0007357D01*
X0301631Y0007515D01*
X0301810Y0007677D01*
X0301985Y0007844D01*
X0302156Y0008015D01*
X0302323Y0008190D01*
X0302485Y0008369D01*
X0302643Y0008552D01*
X0302797Y0008738D01*
X0302946Y0008928D01*
X0303090Y0009122D01*
X0303230Y0009319D01*
X0303365Y0009520D01*
X0303495Y0009724D01*
X0303620Y0009930D01*
X0303740Y0010140D01*
X0303855Y0010353D01*
X0303964Y0010568D01*
X0304069Y0010786D01*
X0304168Y0011006D01*
X0304262Y0011229D01*
X0304350Y0011454D01*
X0304433Y0011681D01*
X0304511Y0011910D01*
X0304582Y0012141D01*
X0304649Y0012373D01*
X0304709Y0012607D01*
X0304764Y0012842D01*
X0304814Y0013079D01*
X0304857Y0013316D01*
X0304895Y0013555D01*
X0304927Y0013795D01*
X0304953Y0014035D01*
X0304974Y0014276D01*
X0304988Y0014517D01*
X0304997Y0014758D01*
X0305000Y0015000D01*
X0305000Y0195000D01*
X0304997Y0195242D01*
X0304988Y0195483D01*
X0304974Y0195724D01*
X0304953Y0195965D01*
X0304927Y0196205D01*
X0304895Y0196445D01*
X0304857Y0196684D01*
X0304814Y0196921D01*
X0304764Y0197158D01*
X0304709Y0197393D01*
X0304649Y0197627D01*
X0304582Y0197859D01*
X0304511Y0198090D01*
X0304433Y0198319D01*
X0304350Y0198546D01*
X0304262Y0198771D01*
X0304168Y0198994D01*
X0304069Y0199214D01*
X0303964Y0199432D01*
X0303855Y0199647D01*
X0303740Y0199860D01*
X0303620Y0200070D01*
X0303495Y0200276D01*
X0303365Y0200480D01*
X0303230Y0200681D01*
X0303090Y0200878D01*
X0302946Y0201072D01*
X0302797Y0201262D01*
X0302643Y0201448D01*
X0302485Y0201631D01*
X0302323Y0201810D01*
X0302156Y0201985D01*
X0301985Y0202156D01*
X0301810Y0202323D01*
X0301631Y0202485D01*
X0301448Y0202643D01*
X0301262Y0202797D01*
X0301072Y0202946D01*
X0300878Y0203090D01*
X0300681Y0203230D01*
X0300480Y0203365D01*
X0300276Y0203495D01*
X0300070Y0203620D01*
X0299860Y0203740D01*
X0299647Y0203855D01*
X0299432Y0203964D01*
X0299214Y0204069D01*
X0298994Y0204168D01*
X0298771Y0204262D01*
X0298546Y0204350D01*
X0298319Y0204433D01*
X0298090Y0204511D01*
X0297859Y0204582D01*
X0297627Y0204649D01*
X0297393Y0204709D01*
X0297158Y0204764D01*
X0296921Y0204814D01*
X0296684Y0204857D01*
X0296445Y0204895D01*
X0296205Y0204927D01*
X0295965Y0204953D01*
X0295724Y0204974D01*
X0295483Y0204988D01*
X0295242Y0204997D01*
X0295000Y0205000D01*
X0015000Y0205000D01*
X0014758Y0204997D01*
X0014517Y0204988D01*
X0014276Y0204974D01*
X0014035Y0204953D01*
X0013795Y0204927D01*
X0013555Y0204895D01*
X0013316Y0204857D01*
X0013079Y0204814D01*
X0012842Y0204764D01*
X0012607Y0204709D01*
X0012373Y0204649D01*
X0012141Y0204582D01*
X0011910Y0204511D01*
X0011681Y0204433D01*
X0011454Y0204350D01*
X0011229Y0204262D01*
X0011006Y0204168D01*
X0010786Y0204069D01*
X0010568Y0203964D01*
X0010353Y0203855D01*
X0010140Y0203740D01*
X0009930Y0203620D01*
X0009724Y0203495D01*
X0009520Y0203365D01*
X0009319Y0203230D01*
X0009122Y0203090D01*
X0008928Y0202946D01*
X0008738Y0202797D01*
X0008552Y0202643D01*
X0008369Y0202485D01*
X0008190Y0202323D01*
X0008015Y0202156D01*
X0007844Y0201985D01*
X0007677Y0201810D01*
X0007515Y0201631D01*
X0007357Y0201448D01*
X0007203Y0201262D01*
X0007054Y0201072D01*
X0006910Y0200878D01*
X0006770Y0200681D01*
X0006635Y0200480D01*
X0006505Y0200276D01*
X0006380Y0200070D01*
X0006260Y0199860D01*
X0006145Y0199647D01*
X0006036Y0199432D01*
X0005931Y0199214D01*
X0005832Y0198994D01*
X0005738Y0198771D01*
X0005650Y0198546D01*
X0005567Y0198319D01*
X0005489Y0198090D01*
X0005418Y0197859D01*
X0005351Y0197627D01*
X0005291Y0197393D01*
X0005236Y0197158D01*
X0005186Y0196921D01*
X0005143Y0196684D01*
X0005105Y0196445D01*
X0005073Y0196205D01*
X0005047Y0195965D01*
X0005026Y0195724D01*
X0005012Y0195483D01*
X0005003Y0195242D01*
X0005000Y0195000D01*
X0005000Y0015000D01*
X0005003Y0014758D01*
X0005012Y0014517D01*
X0005026Y0014276D01*
X0005047Y0014035D01*
X0005073Y0013795D01*
X0005105Y0013555D01*
X0005143Y0013316D01*
X0005186Y0013079D01*
X0005236Y0012842D01*
X0005291Y0012607D01*
X0005351Y0012373D01*
X0005418Y0012141D01*
X0005489Y0011910D01*
X0005567Y0011681D01*
X0005650Y0011454D01*
X0005738Y0011229D01*
X0005832Y0011006D01*
X0005931Y0010786D01*
X0006036Y0010568D01*
X0006145Y0010353D01*
X0006260Y0010140D01*
X0006380Y0009930D01*
X0006505Y0009724D01*
X0006635Y0009520D01*
X0006770Y0009319D01*
X0006910Y0009122D01*
X0007054Y0008928D01*
X0007203Y0008738D01*
X0007357Y0008552D01*
X0007515Y0008369D01*
X0007677Y0008190D01*
X0007844Y0008015D01*
X0008015Y0007844D01*
X0008190Y0007677D01*
X0008369Y0007515D01*
X0008552Y0007357D01*
X0008738Y0007203D01*
X0008928Y0007054D01*
X0009122Y0006910D01*
X0009319Y0006770D01*
X0009520Y0006635D01*
X0009724Y0006505D01*
X0009930Y0006380D01*
X0010140Y0006260D01*
X0010353Y0006145D01*
X0010568Y0006036D01*
X0010786Y0005931D01*
X0011006Y0005832D01*
X0011229Y0005738D01*
X0011454Y0005650D01*
X0011681Y0005567D01*
X0011910Y0005489D01*
X0012141Y0005418D01*
X0012373Y0005351D01*
X0012607Y0005291D01*
X0012842Y0005236D01*
X0013079Y0005186D01*
X0013316Y0005143D01*
X0013555Y0005105D01*
X0013795Y0005073D01*
X0014035Y0005047D01*
X0014276Y0005026D01*
X0014517Y0005012D01*
X0014758Y0005003D01*
X0015000Y0005000D01*
D11*
X0018780Y0018819D03*
X0291220Y0191220D03*
M02*
