G75*
%MOIN*%
%OFA0B0*%
%FSLAX25Y25*%
%IPPOS*%
%LPD*%
%AMOC8*
5,1,8,0,0,1.08239X$1,22.5*
%
%ADD10C,0.00800*%
%ADD11C,0.00600*%
%ADD12C,0.01200*%
%ADD13C,0.00500*%
%ADD14C,0.00000*%
%ADD15C,0.00300*%
D10*
X0005000Y0005000D02*
X0005000Y0215000D01*
X0385000Y0215000D01*
X0395000Y0205000D01*
X0395000Y0165000D01*
X0405000Y0155000D01*
X0405000Y0020000D01*
X0395000Y0010000D01*
X0395000Y0005000D01*
X0005000Y0005000D01*
X0110000Y0012500D02*
X0112500Y0010000D01*
X0117500Y0010000D01*
X0120000Y0012500D01*
X0122500Y0010000D01*
X0127500Y0010000D01*
X0130000Y0012500D01*
X0132500Y0010000D01*
X0137500Y0010000D01*
X0140000Y0012500D01*
X0142500Y0010000D01*
X0147500Y0010000D01*
X0150000Y0012500D01*
X0152500Y0010000D01*
X0157500Y0010000D01*
X0160000Y0012500D01*
X0162500Y0010000D01*
X0167500Y0010000D01*
X0170000Y0012500D01*
X0172500Y0010000D01*
X0177500Y0010000D01*
X0180000Y0012500D01*
X0182500Y0010000D01*
X0187500Y0010000D01*
X0190000Y0012500D01*
X0190000Y0017500D01*
X0187500Y0020000D01*
X0182500Y0020000D01*
X0180000Y0017500D01*
X0177500Y0020000D01*
X0172500Y0020000D01*
X0170000Y0017500D01*
X0167500Y0020000D01*
X0162500Y0020000D01*
X0160000Y0017500D01*
X0157500Y0020000D01*
X0152500Y0020000D01*
X0150000Y0017500D01*
X0147500Y0020000D01*
X0142500Y0020000D01*
X0140000Y0017500D01*
X0137500Y0020000D01*
X0132500Y0020000D01*
X0130000Y0017500D01*
X0127500Y0020000D01*
X0122500Y0020000D01*
X0120000Y0017500D01*
X0117500Y0020000D01*
X0112500Y0020000D01*
X0110000Y0017500D01*
X0110000Y0012500D01*
X0200000Y0012500D02*
X0202500Y0010000D01*
X0207500Y0010000D01*
X0210000Y0012500D01*
X0212500Y0010000D01*
X0217500Y0010000D01*
X0220000Y0012500D01*
X0222500Y0010000D01*
X0227500Y0010000D01*
X0230000Y0012500D01*
X0232500Y0010000D01*
X0237500Y0010000D01*
X0240000Y0012500D01*
X0242500Y0010000D01*
X0247500Y0010000D01*
X0250000Y0012500D01*
X0252500Y0010000D01*
X0257500Y0010000D01*
X0260000Y0012500D01*
X0262500Y0010000D01*
X0267500Y0010000D01*
X0270000Y0012500D01*
X0272500Y0010000D01*
X0277500Y0010000D01*
X0280000Y0012500D01*
X0280000Y0017500D01*
X0277500Y0020000D01*
X0272500Y0020000D01*
X0270000Y0017500D01*
X0267500Y0020000D01*
X0262500Y0020000D01*
X0260000Y0017500D01*
X0257500Y0020000D01*
X0252500Y0020000D01*
X0250000Y0017500D01*
X0247500Y0020000D01*
X0242500Y0020000D01*
X0240000Y0017500D01*
X0237500Y0020000D01*
X0232500Y0020000D01*
X0230000Y0017500D01*
X0227500Y0020000D01*
X0222500Y0020000D01*
X0220000Y0017500D01*
X0217500Y0020000D01*
X0212500Y0020000D01*
X0210000Y0017500D01*
X0207500Y0020000D01*
X0202500Y0020000D01*
X0200000Y0017500D01*
X0200000Y0012500D01*
X0290000Y0012500D02*
X0292500Y0010000D01*
X0297500Y0010000D01*
X0300000Y0012500D01*
X0302500Y0010000D01*
X0307500Y0010000D01*
X0310000Y0012500D01*
X0312500Y0010000D01*
X0317500Y0010000D01*
X0320000Y0012500D01*
X0322500Y0010000D01*
X0327500Y0010000D01*
X0330000Y0012500D01*
X0332500Y0010000D01*
X0337500Y0010000D01*
X0340000Y0012500D01*
X0342500Y0010000D01*
X0347500Y0010000D01*
X0350000Y0012500D01*
X0352500Y0010000D01*
X0357500Y0010000D01*
X0360000Y0012500D01*
X0362500Y0010000D01*
X0367500Y0010000D01*
X0370000Y0012500D01*
X0370000Y0017500D01*
X0367500Y0020000D01*
X0362500Y0020000D01*
X0360000Y0017500D01*
X0357500Y0020000D01*
X0352500Y0020000D01*
X0350000Y0017500D01*
X0347500Y0020000D01*
X0342500Y0020000D01*
X0340000Y0017500D01*
X0337500Y0020000D01*
X0332500Y0020000D01*
X0330000Y0017500D01*
X0327500Y0020000D01*
X0322500Y0020000D01*
X0320000Y0017500D01*
X0317500Y0020000D01*
X0312500Y0020000D01*
X0310000Y0017500D01*
X0307500Y0020000D01*
X0302500Y0020000D01*
X0300000Y0017500D01*
X0297500Y0020000D01*
X0292500Y0020000D01*
X0290000Y0017500D01*
X0290000Y0012500D01*
X0370000Y0035000D02*
X0372500Y0030000D01*
X0387500Y0030000D01*
X0390000Y0032500D01*
X0390000Y0037500D01*
X0387500Y0040000D01*
X0372500Y0040000D01*
X0370000Y0037500D01*
X0370000Y0035000D01*
X0372500Y0200000D02*
X0387500Y0200000D01*
X0390000Y0202500D01*
X0390000Y0207500D01*
X0387500Y0210000D01*
X0372500Y0210000D01*
X0370000Y0207500D01*
X0370000Y0202500D01*
X0372500Y0200000D01*
X0350000Y0202500D02*
X0347500Y0200000D01*
X0342500Y0200000D01*
X0340000Y0202500D01*
X0337500Y0200000D01*
X0332500Y0200000D01*
X0330000Y0202500D01*
X0327500Y0200000D01*
X0322500Y0200000D01*
X0320000Y0202500D01*
X0317500Y0200000D01*
X0312500Y0200000D01*
X0310000Y0202500D01*
X0307500Y0200000D01*
X0302500Y0200000D01*
X0300000Y0202500D01*
X0297500Y0200000D01*
X0292500Y0200000D01*
X0290000Y0202500D01*
X0287500Y0200000D01*
X0282500Y0200000D01*
X0280000Y0202500D01*
X0277500Y0200000D01*
X0272500Y0200000D01*
X0270000Y0202500D01*
X0270000Y0207500D01*
X0272500Y0210000D01*
X0277500Y0210000D01*
X0280000Y0207500D01*
X0282500Y0210000D01*
X0287500Y0210000D01*
X0290000Y0207500D01*
X0292500Y0210000D01*
X0297500Y0210000D01*
X0300000Y0207500D01*
X0302500Y0210000D01*
X0307500Y0210000D01*
X0310000Y0207500D01*
X0312500Y0210000D01*
X0317500Y0210000D01*
X0320000Y0207500D01*
X0322500Y0210000D01*
X0327500Y0210000D01*
X0330000Y0207500D01*
X0332500Y0210000D01*
X0337500Y0210000D01*
X0340000Y0207500D01*
X0342500Y0210000D01*
X0347500Y0210000D01*
X0350000Y0207500D01*
X0350000Y0202500D01*
X0260000Y0202500D02*
X0257500Y0200000D01*
X0252500Y0200000D01*
X0250000Y0202500D01*
X0247500Y0200000D01*
X0242500Y0200000D01*
X0240000Y0202500D01*
X0237500Y0200000D01*
X0232500Y0200000D01*
X0230000Y0202500D01*
X0227500Y0200000D01*
X0222500Y0200000D01*
X0220000Y0202500D01*
X0217500Y0200000D01*
X0212500Y0200000D01*
X0210000Y0202500D01*
X0207500Y0200000D01*
X0202500Y0200000D01*
X0200000Y0202500D01*
X0197500Y0200000D01*
X0192500Y0200000D01*
X0190000Y0202500D01*
X0187500Y0200000D01*
X0182500Y0200000D01*
X0180000Y0202500D01*
X0180000Y0207500D01*
X0182500Y0210000D01*
X0187500Y0210000D01*
X0190000Y0207500D01*
X0192500Y0210000D01*
X0197500Y0210000D01*
X0200000Y0207500D01*
X0202500Y0210000D01*
X0207500Y0210000D01*
X0210000Y0207500D01*
X0212500Y0210000D01*
X0217500Y0210000D01*
X0220000Y0207500D01*
X0222500Y0210000D01*
X0227500Y0210000D01*
X0230000Y0207500D01*
X0232500Y0210000D01*
X0237500Y0210000D01*
X0240000Y0207500D01*
X0242500Y0210000D01*
X0247500Y0210000D01*
X0250000Y0207500D01*
X0252500Y0210000D01*
X0257500Y0210000D01*
X0260000Y0207500D01*
X0260000Y0202500D01*
X0174000Y0202500D02*
X0171500Y0200000D01*
X0166500Y0200000D01*
X0164000Y0202500D01*
X0161500Y0200000D01*
X0156500Y0200000D01*
X0154000Y0202500D01*
X0151500Y0200000D01*
X0146500Y0200000D01*
X0144000Y0202500D01*
X0141500Y0200000D01*
X0136500Y0200000D01*
X0134000Y0202500D01*
X0131500Y0200000D01*
X0126500Y0200000D01*
X0124000Y0202500D01*
X0121500Y0200000D01*
X0116500Y0200000D01*
X0114000Y0202500D01*
X0111500Y0200000D01*
X0106500Y0200000D01*
X0104000Y0202500D01*
X0101500Y0200000D01*
X0096500Y0200000D01*
X0094000Y0202500D01*
X0091500Y0200000D01*
X0086500Y0200000D01*
X0084000Y0202500D01*
X0081500Y0200000D01*
X0076500Y0200000D01*
X0074000Y0202500D01*
X0074000Y0207500D01*
X0076500Y0210000D01*
X0081500Y0210000D01*
X0084000Y0207500D01*
X0086500Y0210000D01*
X0091500Y0210000D01*
X0094000Y0207500D01*
X0096500Y0210000D01*
X0101500Y0210000D01*
X0104000Y0207500D01*
X0106500Y0210000D01*
X0111500Y0210000D01*
X0114000Y0207500D01*
X0116500Y0210000D01*
X0121500Y0210000D01*
X0124000Y0207500D01*
X0126500Y0210000D01*
X0131500Y0210000D01*
X0134000Y0207500D01*
X0136500Y0210000D01*
X0141500Y0210000D01*
X0144000Y0207500D01*
X0146500Y0210000D01*
X0151500Y0210000D01*
X0154000Y0207500D01*
X0156500Y0210000D01*
X0161500Y0210000D01*
X0164000Y0207500D01*
X0166500Y0210000D01*
X0171500Y0210000D01*
X0174000Y0207500D01*
X0174000Y0202500D01*
D11*
X0169633Y0189385D02*
X0170200Y0188818D01*
X0170200Y0187684D01*
X0169633Y0187117D01*
X0169066Y0187117D01*
X0168499Y0187684D01*
X0168499Y0188818D01*
X0169066Y0189385D01*
X0169633Y0189385D01*
X0168499Y0188818D02*
X0167931Y0189385D01*
X0167364Y0189385D01*
X0166797Y0188818D01*
X0166797Y0187684D01*
X0167364Y0187117D01*
X0167931Y0187117D01*
X0168499Y0187684D01*
X0159700Y0187684D02*
X0159700Y0188818D01*
X0159133Y0189385D01*
X0156864Y0189385D01*
X0156297Y0188818D01*
X0156297Y0187684D01*
X0156864Y0187117D01*
X0157431Y0187117D01*
X0157999Y0187684D01*
X0157999Y0189385D01*
X0159700Y0187684D02*
X0159133Y0187117D01*
X0150200Y0187684D02*
X0149633Y0187117D01*
X0147364Y0189385D01*
X0149633Y0189385D01*
X0150200Y0188818D01*
X0150200Y0187684D01*
X0149633Y0187117D02*
X0147364Y0187117D01*
X0146797Y0187684D01*
X0146797Y0188818D01*
X0147364Y0189385D01*
X0150200Y0185702D02*
X0150200Y0183434D01*
X0150200Y0184568D02*
X0146797Y0184568D01*
X0147931Y0183434D01*
X0139700Y0183434D02*
X0139700Y0185702D01*
X0139700Y0184568D02*
X0136297Y0184568D01*
X0137431Y0183434D01*
X0137431Y0187117D02*
X0136297Y0188251D01*
X0139700Y0188251D01*
X0139700Y0187117D02*
X0139700Y0189385D01*
X0129700Y0189385D02*
X0129700Y0187117D01*
X0127431Y0189385D01*
X0126864Y0189385D01*
X0126297Y0188818D01*
X0126297Y0187684D01*
X0126864Y0187117D01*
X0126297Y0184568D02*
X0129700Y0184568D01*
X0129700Y0183434D02*
X0129700Y0185702D01*
X0127431Y0183434D02*
X0126297Y0184568D01*
X0119700Y0184568D02*
X0116297Y0184568D01*
X0117431Y0183434D01*
X0119700Y0183434D02*
X0119700Y0185702D01*
X0119133Y0187117D02*
X0119700Y0187684D01*
X0119700Y0188818D01*
X0119133Y0189385D01*
X0118566Y0189385D01*
X0117999Y0188818D01*
X0117999Y0188251D01*
X0117999Y0188818D02*
X0117431Y0189385D01*
X0116864Y0189385D01*
X0116297Y0188818D01*
X0116297Y0187684D01*
X0116864Y0187117D01*
X0109700Y0187117D02*
X0109700Y0188818D01*
X0109133Y0189385D01*
X0106864Y0189385D01*
X0106297Y0188818D01*
X0106297Y0187117D01*
X0109700Y0187117D01*
X0109700Y0185702D02*
X0106297Y0185702D01*
X0106297Y0183434D02*
X0109700Y0185702D01*
X0109700Y0183434D02*
X0106297Y0183434D01*
X0106864Y0182019D02*
X0106297Y0181452D01*
X0106297Y0180318D01*
X0106864Y0179751D01*
X0109133Y0179751D01*
X0109700Y0180318D01*
X0109700Y0181452D01*
X0109133Y0182019D01*
X0107999Y0182019D01*
X0107999Y0180885D01*
X0100200Y0182019D02*
X0099066Y0180885D01*
X0099066Y0181452D02*
X0099066Y0179751D01*
X0100200Y0179751D02*
X0096797Y0179751D01*
X0096797Y0181452D01*
X0097364Y0182019D01*
X0098499Y0182019D01*
X0099066Y0181452D01*
X0098499Y0183434D02*
X0098499Y0184568D01*
X0100200Y0183434D02*
X0100200Y0185702D01*
X0100200Y0187117D02*
X0096797Y0187117D01*
X0096797Y0189385D01*
X0098499Y0188251D02*
X0098499Y0187117D01*
X0096797Y0185702D02*
X0096797Y0183434D01*
X0100200Y0183434D01*
X0100200Y0178336D02*
X0097931Y0178336D01*
X0096797Y0177202D01*
X0097931Y0176067D01*
X0100200Y0176067D01*
X0098499Y0176067D02*
X0098499Y0178336D01*
X0182797Y0187117D02*
X0182797Y0189385D01*
X0183364Y0189385D01*
X0185633Y0187117D01*
X0186200Y0187117D01*
X0192797Y0189385D02*
X0193364Y0188251D01*
X0194499Y0187117D01*
X0194499Y0188818D01*
X0195066Y0189385D01*
X0195633Y0189385D01*
X0196200Y0188818D01*
X0196200Y0187684D01*
X0195633Y0187117D01*
X0194499Y0187117D01*
X0202797Y0187117D02*
X0204499Y0187117D01*
X0203931Y0188251D01*
X0203931Y0188818D01*
X0204499Y0189385D01*
X0205633Y0189385D01*
X0206200Y0188818D01*
X0206200Y0187684D01*
X0205633Y0187117D01*
X0202797Y0187117D02*
X0202797Y0189385D01*
X0212797Y0188818D02*
X0214499Y0187117D01*
X0214499Y0189385D01*
X0216200Y0188818D02*
X0212797Y0188818D01*
X0222797Y0188818D02*
X0222797Y0187684D01*
X0223364Y0187117D01*
X0224499Y0188251D02*
X0224499Y0188818D01*
X0225066Y0189385D01*
X0225633Y0189385D01*
X0226200Y0188818D01*
X0226200Y0187684D01*
X0225633Y0187117D01*
X0224499Y0188818D02*
X0223931Y0189385D01*
X0223364Y0189385D01*
X0222797Y0188818D01*
X0232797Y0188818D02*
X0232797Y0187684D01*
X0233364Y0187117D01*
X0232797Y0188818D02*
X0233364Y0189385D01*
X0233931Y0189385D01*
X0236200Y0187117D01*
X0236200Y0189385D01*
X0242797Y0188251D02*
X0246200Y0188251D01*
X0246200Y0187117D02*
X0246200Y0189385D01*
X0243931Y0187117D02*
X0242797Y0188251D01*
X0252797Y0187684D02*
X0252797Y0188818D01*
X0253364Y0189385D01*
X0255633Y0187117D01*
X0256200Y0187684D01*
X0256200Y0188818D01*
X0255633Y0189385D01*
X0253364Y0189385D01*
X0252797Y0187684D02*
X0253364Y0187117D01*
X0255633Y0187117D01*
X0272797Y0188818D02*
X0274499Y0187117D01*
X0274499Y0189385D01*
X0276200Y0188818D02*
X0272797Y0188818D01*
X0272797Y0184568D02*
X0276200Y0184568D01*
X0276200Y0183434D02*
X0276200Y0185702D01*
X0273931Y0183434D02*
X0272797Y0184568D01*
X0282297Y0184568D02*
X0283431Y0183434D01*
X0282297Y0184568D02*
X0285700Y0184568D01*
X0285700Y0183434D02*
X0285700Y0185702D01*
X0285133Y0187117D02*
X0285700Y0187684D01*
X0285700Y0188818D01*
X0285133Y0189385D01*
X0283999Y0189385D01*
X0283431Y0188818D01*
X0283431Y0188251D01*
X0283999Y0187117D01*
X0282297Y0187117D01*
X0282297Y0189385D01*
X0292797Y0189385D02*
X0293364Y0188251D01*
X0294499Y0187117D01*
X0294499Y0188818D01*
X0295066Y0189385D01*
X0295633Y0189385D01*
X0296200Y0188818D01*
X0296200Y0187684D01*
X0295633Y0187117D01*
X0294499Y0187117D01*
X0296200Y0185702D02*
X0296200Y0183434D01*
X0296200Y0184568D02*
X0292797Y0184568D01*
X0293931Y0183434D01*
X0302297Y0184568D02*
X0303431Y0183434D01*
X0302297Y0184568D02*
X0305700Y0184568D01*
X0305700Y0183434D02*
X0305700Y0185702D01*
X0305700Y0187117D02*
X0305133Y0187117D01*
X0302864Y0189385D01*
X0302297Y0189385D01*
X0302297Y0187117D01*
X0312797Y0187684D02*
X0312797Y0188818D01*
X0313364Y0189385D01*
X0313931Y0189385D01*
X0314499Y0188818D01*
X0314499Y0187684D01*
X0313931Y0187117D01*
X0313364Y0187117D01*
X0312797Y0187684D01*
X0314499Y0187684D02*
X0315066Y0187117D01*
X0315633Y0187117D01*
X0316200Y0187684D01*
X0316200Y0188818D01*
X0315633Y0189385D01*
X0315066Y0189385D01*
X0314499Y0188818D01*
X0316200Y0185702D02*
X0316200Y0183434D01*
X0316200Y0184568D02*
X0312797Y0184568D01*
X0313931Y0183434D01*
X0322297Y0184568D02*
X0323431Y0183434D01*
X0322297Y0184568D02*
X0325700Y0184568D01*
X0325700Y0183434D02*
X0325700Y0185702D01*
X0325133Y0187117D02*
X0325700Y0187684D01*
X0325700Y0188818D01*
X0325133Y0189385D01*
X0322864Y0189385D01*
X0322297Y0188818D01*
X0322297Y0187684D01*
X0322864Y0187117D01*
X0323431Y0187117D01*
X0323999Y0187684D01*
X0323999Y0189385D01*
X0332297Y0188318D02*
X0332297Y0187184D01*
X0332864Y0186617D01*
X0335133Y0186617D01*
X0332864Y0188885D01*
X0335133Y0188885D01*
X0335700Y0188318D01*
X0335700Y0187184D01*
X0335133Y0186617D01*
X0335700Y0185202D02*
X0335700Y0182934D01*
X0333431Y0185202D01*
X0332864Y0185202D01*
X0332297Y0184635D01*
X0332297Y0183501D01*
X0332864Y0182934D01*
X0332297Y0188318D02*
X0332864Y0188885D01*
X0342797Y0187751D02*
X0346200Y0187751D01*
X0346200Y0186617D02*
X0346200Y0188885D01*
X0343931Y0186617D02*
X0342797Y0187751D01*
X0343364Y0185202D02*
X0342797Y0184635D01*
X0342797Y0183501D01*
X0343364Y0182934D01*
X0343364Y0185202D02*
X0343931Y0185202D01*
X0346200Y0182934D01*
X0346200Y0185202D01*
X0355400Y0183136D02*
X0355967Y0183703D01*
X0357101Y0183703D01*
X0357669Y0183136D01*
X0357669Y0182569D01*
X0355400Y0180300D01*
X0357669Y0180300D01*
X0359083Y0182001D02*
X0361352Y0182001D01*
X0360785Y0180300D02*
X0360785Y0183703D01*
X0359083Y0182001D01*
X0359083Y0190300D02*
X0361352Y0192569D01*
X0361352Y0193136D01*
X0360785Y0193703D01*
X0359650Y0193703D01*
X0359083Y0193136D01*
X0357669Y0193136D02*
X0357101Y0193703D01*
X0355967Y0193703D01*
X0355400Y0193136D01*
X0357669Y0193136D02*
X0357669Y0192569D01*
X0355400Y0190300D01*
X0357669Y0190300D01*
X0359083Y0190300D02*
X0361352Y0190300D01*
X0370000Y0192500D02*
X0372500Y0190000D01*
X0387500Y0190000D01*
X0390000Y0187500D01*
X0390000Y0182500D01*
X0387500Y0180000D01*
X0372500Y0180000D01*
X0370000Y0182500D01*
X0370000Y0187500D01*
X0372500Y0190000D01*
X0370000Y0192500D02*
X0370000Y0197500D01*
X0372500Y0200000D01*
X0387500Y0200000D02*
X0390000Y0197500D01*
X0390000Y0192500D01*
X0387500Y0190000D01*
X0387500Y0180000D02*
X0390000Y0177500D01*
X0390000Y0172500D01*
X0387500Y0170000D01*
X0372500Y0170000D01*
X0370000Y0172500D01*
X0370000Y0177500D01*
X0372500Y0180000D01*
X0361352Y0173703D02*
X0360217Y0173136D01*
X0359083Y0172001D01*
X0360785Y0172001D01*
X0361352Y0171434D01*
X0361352Y0170867D01*
X0360785Y0170300D01*
X0359650Y0170300D01*
X0359083Y0170867D01*
X0359083Y0172001D01*
X0357669Y0172569D02*
X0357669Y0173136D01*
X0357101Y0173703D01*
X0355967Y0173703D01*
X0355400Y0173136D01*
X0357669Y0172569D02*
X0355400Y0170300D01*
X0357669Y0170300D01*
X0357101Y0163703D02*
X0355967Y0163703D01*
X0355400Y0163136D01*
X0357101Y0163703D02*
X0357669Y0163136D01*
X0357669Y0162569D01*
X0355400Y0160300D01*
X0357669Y0160300D01*
X0359083Y0160867D02*
X0359083Y0161434D01*
X0359650Y0162001D01*
X0360785Y0162001D01*
X0361352Y0161434D01*
X0361352Y0160867D01*
X0360785Y0160300D01*
X0359650Y0160300D01*
X0359083Y0160867D01*
X0359650Y0162001D02*
X0359083Y0162569D01*
X0359083Y0163136D01*
X0359650Y0163703D01*
X0360785Y0163703D01*
X0361352Y0163136D01*
X0361352Y0162569D01*
X0360785Y0162001D01*
X0360785Y0153703D02*
X0361352Y0153136D01*
X0359083Y0150867D01*
X0359650Y0150300D01*
X0360785Y0150300D01*
X0361352Y0150867D01*
X0361352Y0153136D01*
X0360785Y0153703D02*
X0359650Y0153703D01*
X0359083Y0153136D01*
X0359083Y0150867D01*
X0357669Y0150867D02*
X0357101Y0150300D01*
X0355967Y0150300D01*
X0355400Y0150867D01*
X0356534Y0152001D02*
X0357101Y0152001D01*
X0357669Y0151434D01*
X0357669Y0150867D01*
X0357101Y0152001D02*
X0357669Y0152569D01*
X0357669Y0153136D01*
X0357101Y0153703D01*
X0355967Y0153703D01*
X0355400Y0153136D01*
X0355967Y0143703D02*
X0357101Y0143703D01*
X0357669Y0143136D01*
X0357669Y0142569D01*
X0357101Y0142001D01*
X0357669Y0141434D01*
X0357669Y0140867D01*
X0357101Y0140300D01*
X0355967Y0140300D01*
X0355400Y0140867D01*
X0356534Y0142001D02*
X0357101Y0142001D01*
X0355400Y0143136D02*
X0355967Y0143703D01*
X0359083Y0143136D02*
X0359650Y0143703D01*
X0360785Y0143703D01*
X0361352Y0143136D01*
X0361352Y0142569D01*
X0359083Y0140300D01*
X0361352Y0140300D01*
X0360785Y0133703D02*
X0359083Y0132001D01*
X0361352Y0132001D01*
X0360785Y0130300D02*
X0360785Y0133703D01*
X0357669Y0133136D02*
X0357669Y0132569D01*
X0357101Y0132001D01*
X0357669Y0131434D01*
X0357669Y0130867D01*
X0357101Y0130300D01*
X0355967Y0130300D01*
X0355400Y0130867D01*
X0356534Y0132001D02*
X0357101Y0132001D01*
X0357669Y0133136D02*
X0357101Y0133703D01*
X0355967Y0133703D01*
X0355400Y0133136D01*
X0355967Y0123703D02*
X0357101Y0123703D01*
X0357669Y0123136D01*
X0357669Y0122569D01*
X0357101Y0122001D01*
X0357669Y0121434D01*
X0357669Y0120867D01*
X0357101Y0120300D01*
X0355967Y0120300D01*
X0355400Y0120867D01*
X0356534Y0122001D02*
X0357101Y0122001D01*
X0359083Y0122001D02*
X0359083Y0120867D01*
X0359650Y0120300D01*
X0360785Y0120300D01*
X0361352Y0120867D01*
X0361352Y0121434D01*
X0360785Y0122001D01*
X0359083Y0122001D01*
X0360217Y0123136D01*
X0361352Y0123703D01*
X0355967Y0123703D02*
X0355400Y0123136D01*
X0355967Y0113703D02*
X0357101Y0113703D01*
X0357669Y0113136D01*
X0357669Y0112569D01*
X0357101Y0112001D01*
X0357669Y0111434D01*
X0357669Y0110867D01*
X0357101Y0110300D01*
X0355967Y0110300D01*
X0355400Y0110867D01*
X0356534Y0112001D02*
X0357101Y0112001D01*
X0355400Y0113136D02*
X0355967Y0113703D01*
X0359083Y0113136D02*
X0359083Y0112569D01*
X0359650Y0112001D01*
X0360785Y0112001D01*
X0361352Y0111434D01*
X0361352Y0110867D01*
X0360785Y0110300D01*
X0359650Y0110300D01*
X0359083Y0110867D01*
X0359083Y0111434D01*
X0359650Y0112001D01*
X0360785Y0112001D02*
X0361352Y0112569D01*
X0361352Y0113136D01*
X0360785Y0113703D01*
X0359650Y0113703D01*
X0359083Y0113136D01*
X0370000Y0112500D02*
X0372500Y0110000D01*
X0387500Y0110000D01*
X0390000Y0107500D01*
X0390000Y0102500D01*
X0387500Y0100000D01*
X0372500Y0100000D01*
X0370000Y0102500D01*
X0370000Y0107500D01*
X0372500Y0110000D01*
X0370000Y0112500D02*
X0370000Y0117500D01*
X0372500Y0120000D01*
X0387500Y0120000D01*
X0390000Y0117500D01*
X0390000Y0112500D01*
X0387500Y0110000D01*
X0392800Y0112967D02*
X0393367Y0112400D01*
X0394501Y0112400D01*
X0395069Y0112967D01*
X0395069Y0113534D01*
X0394501Y0114101D01*
X0393934Y0114101D01*
X0394501Y0114101D02*
X0395069Y0114669D01*
X0395069Y0115236D01*
X0394501Y0115803D01*
X0393367Y0115803D01*
X0392800Y0115236D01*
X0396483Y0115236D02*
X0396483Y0114669D01*
X0397050Y0114101D01*
X0398752Y0114101D01*
X0398752Y0112967D02*
X0398752Y0115236D01*
X0398185Y0115803D01*
X0397050Y0115803D01*
X0396483Y0115236D01*
X0396483Y0112967D02*
X0397050Y0112400D01*
X0398185Y0112400D01*
X0398752Y0112967D01*
X0390000Y0122500D02*
X0387500Y0120000D01*
X0390000Y0122500D02*
X0390000Y0127500D01*
X0387500Y0130000D01*
X0372500Y0130000D01*
X0370000Y0132500D01*
X0370000Y0137500D01*
X0372500Y0140000D01*
X0387500Y0140000D01*
X0390000Y0142500D01*
X0390000Y0147500D01*
X0387500Y0150000D01*
X0372500Y0150000D01*
X0370000Y0152500D01*
X0370000Y0157500D01*
X0372500Y0160000D01*
X0387500Y0160000D01*
X0390000Y0162500D01*
X0390000Y0167500D01*
X0387500Y0170000D01*
X0372500Y0170000D02*
X0370000Y0167500D01*
X0370000Y0162500D01*
X0372500Y0160000D01*
X0372500Y0150000D02*
X0370000Y0147500D01*
X0370000Y0142500D01*
X0372500Y0140000D01*
X0372500Y0130000D02*
X0370000Y0127500D01*
X0370000Y0122500D01*
X0372500Y0120000D01*
X0387500Y0130000D02*
X0390000Y0132500D01*
X0390000Y0137500D01*
X0387500Y0140000D01*
X0392800Y0142967D02*
X0393367Y0142400D01*
X0394501Y0142400D01*
X0395069Y0142967D01*
X0395069Y0143534D01*
X0394501Y0144101D01*
X0393934Y0144101D01*
X0394501Y0144101D02*
X0395069Y0144669D01*
X0395069Y0145236D01*
X0394501Y0145803D01*
X0393367Y0145803D01*
X0392800Y0145236D01*
X0396483Y0145236D02*
X0397050Y0145803D01*
X0398185Y0145803D01*
X0398752Y0145236D01*
X0398752Y0144669D01*
X0398185Y0144101D01*
X0398752Y0143534D01*
X0398752Y0142967D01*
X0398185Y0142400D01*
X0397050Y0142400D01*
X0396483Y0142967D01*
X0397617Y0144101D02*
X0398185Y0144101D01*
X0390000Y0152500D02*
X0387500Y0150000D01*
X0390000Y0152500D02*
X0390000Y0157500D01*
X0387500Y0160000D01*
X0392800Y0155236D02*
X0393367Y0155803D01*
X0394501Y0155803D01*
X0395069Y0155236D01*
X0395069Y0154669D01*
X0394501Y0154101D01*
X0395069Y0153534D01*
X0395069Y0152967D01*
X0394501Y0152400D01*
X0393367Y0152400D01*
X0392800Y0152967D01*
X0393934Y0154101D02*
X0394501Y0154101D01*
X0396483Y0154669D02*
X0397617Y0155803D01*
X0397617Y0152400D01*
X0396483Y0152400D02*
X0398752Y0152400D01*
X0398752Y0135803D02*
X0396483Y0135803D01*
X0396483Y0134101D01*
X0397617Y0134669D01*
X0398185Y0134669D01*
X0398752Y0134101D01*
X0398752Y0132967D01*
X0398185Y0132400D01*
X0397050Y0132400D01*
X0396483Y0132967D01*
X0395069Y0132967D02*
X0394501Y0132400D01*
X0393367Y0132400D01*
X0392800Y0132967D01*
X0393934Y0134101D02*
X0394501Y0134101D01*
X0395069Y0133534D01*
X0395069Y0132967D01*
X0394501Y0134101D02*
X0395069Y0134669D01*
X0395069Y0135236D01*
X0394501Y0135803D01*
X0393367Y0135803D01*
X0392800Y0135236D01*
X0393367Y0125803D02*
X0394501Y0125803D01*
X0395069Y0125236D01*
X0395069Y0124669D01*
X0394501Y0124101D01*
X0395069Y0123534D01*
X0395069Y0122967D01*
X0394501Y0122400D01*
X0393367Y0122400D01*
X0392800Y0122967D01*
X0393934Y0124101D02*
X0394501Y0124101D01*
X0392800Y0125236D02*
X0393367Y0125803D01*
X0396483Y0125803D02*
X0398752Y0125803D01*
X0398752Y0125236D01*
X0396483Y0122967D01*
X0396483Y0122400D01*
X0397617Y0105803D02*
X0397617Y0102400D01*
X0396483Y0102400D02*
X0398752Y0102400D01*
X0396483Y0104669D02*
X0397617Y0105803D01*
X0395069Y0104101D02*
X0392800Y0104101D01*
X0394501Y0105803D01*
X0394501Y0102400D01*
X0390000Y0097500D02*
X0390000Y0092500D01*
X0387500Y0090000D01*
X0372500Y0090000D01*
X0370000Y0092500D01*
X0370000Y0097500D01*
X0372500Y0100000D01*
X0361352Y0100867D02*
X0360785Y0100300D01*
X0359650Y0100300D01*
X0359083Y0100867D01*
X0361352Y0103136D01*
X0361352Y0100867D01*
X0361352Y0103136D02*
X0360785Y0103703D01*
X0359650Y0103703D01*
X0359083Y0103136D01*
X0359083Y0100867D01*
X0357669Y0102001D02*
X0355400Y0102001D01*
X0357101Y0103703D01*
X0357101Y0100300D01*
X0357101Y0093703D02*
X0355400Y0092001D01*
X0357669Y0092001D01*
X0357101Y0090300D02*
X0357101Y0093703D01*
X0359083Y0093136D02*
X0359650Y0093703D01*
X0360785Y0093703D01*
X0361352Y0093136D01*
X0361352Y0092569D01*
X0359083Y0090300D01*
X0361352Y0090300D01*
X0360785Y0083703D02*
X0359083Y0082001D01*
X0361352Y0082001D01*
X0360785Y0080300D02*
X0360785Y0083703D01*
X0357669Y0082001D02*
X0355400Y0082001D01*
X0357101Y0083703D01*
X0357101Y0080300D01*
X0357101Y0073703D02*
X0355400Y0072001D01*
X0357669Y0072001D01*
X0359083Y0072001D02*
X0360785Y0072001D01*
X0361352Y0071434D01*
X0361352Y0070867D01*
X0360785Y0070300D01*
X0359650Y0070300D01*
X0359083Y0070867D01*
X0359083Y0072001D01*
X0360217Y0073136D01*
X0361352Y0073703D01*
X0357101Y0073703D02*
X0357101Y0070300D01*
X0357101Y0063703D02*
X0355400Y0062001D01*
X0357669Y0062001D01*
X0359083Y0061434D02*
X0359650Y0062001D01*
X0360785Y0062001D01*
X0361352Y0061434D01*
X0361352Y0060867D01*
X0360785Y0060300D01*
X0359650Y0060300D01*
X0359083Y0060867D01*
X0359083Y0061434D01*
X0359650Y0062001D02*
X0359083Y0062569D01*
X0359083Y0063136D01*
X0359650Y0063703D01*
X0360785Y0063703D01*
X0361352Y0063136D01*
X0361352Y0062569D01*
X0360785Y0062001D01*
X0357101Y0060300D02*
X0357101Y0063703D01*
X0370000Y0062500D02*
X0372500Y0060000D01*
X0387500Y0060000D01*
X0390000Y0062500D01*
X0390000Y0067500D01*
X0387500Y0070000D01*
X0372500Y0070000D01*
X0370000Y0072500D01*
X0370000Y0077500D01*
X0372500Y0080000D01*
X0387500Y0080000D01*
X0390000Y0082500D01*
X0390000Y0087500D01*
X0387500Y0090000D01*
X0392800Y0094101D02*
X0395069Y0094101D01*
X0394501Y0092400D02*
X0394501Y0095803D01*
X0392800Y0094101D01*
X0396483Y0092967D02*
X0397050Y0092400D01*
X0398185Y0092400D01*
X0398752Y0092967D01*
X0398752Y0093534D01*
X0398185Y0094101D01*
X0397617Y0094101D01*
X0398185Y0094101D02*
X0398752Y0094669D01*
X0398752Y0095236D01*
X0398185Y0095803D01*
X0397050Y0095803D01*
X0396483Y0095236D01*
X0390000Y0097500D02*
X0387500Y0100000D01*
X0372500Y0090000D02*
X0370000Y0087500D01*
X0370000Y0082500D01*
X0372500Y0080000D01*
X0372500Y0070000D02*
X0370000Y0067500D01*
X0370000Y0062500D01*
X0372500Y0060000D02*
X0370000Y0057500D01*
X0370000Y0052500D01*
X0372500Y0050000D01*
X0387500Y0050000D01*
X0390000Y0052500D01*
X0390000Y0057500D01*
X0387500Y0060000D01*
X0392800Y0064101D02*
X0395069Y0064101D01*
X0396483Y0064669D02*
X0397050Y0064101D01*
X0398752Y0064101D01*
X0398752Y0062967D02*
X0398752Y0065236D01*
X0398185Y0065803D01*
X0397050Y0065803D01*
X0396483Y0065236D01*
X0396483Y0064669D01*
X0396483Y0062967D02*
X0397050Y0062400D01*
X0398185Y0062400D01*
X0398752Y0062967D01*
X0394501Y0062400D02*
X0394501Y0065803D01*
X0392800Y0064101D01*
X0387500Y0070000D02*
X0390000Y0072500D01*
X0390000Y0077500D01*
X0387500Y0080000D01*
X0392800Y0084101D02*
X0395069Y0084101D01*
X0396483Y0084101D02*
X0397617Y0084669D01*
X0398185Y0084669D01*
X0398752Y0084101D01*
X0398752Y0082967D01*
X0398185Y0082400D01*
X0397050Y0082400D01*
X0396483Y0082967D01*
X0396483Y0084101D02*
X0396483Y0085803D01*
X0398752Y0085803D01*
X0394501Y0085803D02*
X0394501Y0082400D01*
X0392800Y0084101D02*
X0394501Y0085803D01*
X0394501Y0075803D02*
X0392800Y0074101D01*
X0395069Y0074101D01*
X0394501Y0072400D02*
X0394501Y0075803D01*
X0396483Y0075803D02*
X0398752Y0075803D01*
X0398752Y0075236D01*
X0396483Y0072967D01*
X0396483Y0072400D01*
X0397617Y0055803D02*
X0397617Y0052400D01*
X0396483Y0052400D02*
X0398752Y0052400D01*
X0396483Y0054669D02*
X0397617Y0055803D01*
X0395069Y0055803D02*
X0392800Y0055803D01*
X0392800Y0054101D01*
X0393934Y0054669D01*
X0394501Y0054669D01*
X0395069Y0054101D01*
X0395069Y0052967D01*
X0394501Y0052400D01*
X0393367Y0052400D01*
X0392800Y0052967D01*
X0387500Y0050000D02*
X0390000Y0047500D01*
X0390000Y0042500D01*
X0387500Y0040000D01*
X0392800Y0042967D02*
X0393367Y0042400D01*
X0394501Y0042400D01*
X0395069Y0042967D01*
X0395069Y0044101D01*
X0394501Y0044669D01*
X0393934Y0044669D01*
X0392800Y0044101D01*
X0392800Y0045803D01*
X0395069Y0045803D01*
X0396483Y0045236D02*
X0397050Y0045803D01*
X0398185Y0045803D01*
X0398752Y0045236D01*
X0398752Y0044669D01*
X0398185Y0044101D01*
X0398752Y0043534D01*
X0398752Y0042967D01*
X0398185Y0042400D01*
X0397050Y0042400D01*
X0396483Y0042967D01*
X0397617Y0044101D02*
X0398185Y0044101D01*
X0398752Y0035803D02*
X0398752Y0032400D01*
X0396483Y0035803D01*
X0396483Y0032400D01*
X0395069Y0032967D02*
X0394501Y0032400D01*
X0393367Y0032400D01*
X0392800Y0032967D01*
X0392800Y0035236D01*
X0393367Y0035803D01*
X0394501Y0035803D01*
X0395069Y0035236D01*
X0395069Y0034101D02*
X0393934Y0034101D01*
X0395069Y0034101D02*
X0395069Y0032967D01*
X0400166Y0032400D02*
X0401868Y0032400D01*
X0402435Y0032967D01*
X0402435Y0035236D01*
X0401868Y0035803D01*
X0400166Y0035803D01*
X0400166Y0032400D01*
X0379035Y0025203D02*
X0376766Y0025203D01*
X0376766Y0023501D01*
X0377901Y0024069D01*
X0378468Y0024069D01*
X0379035Y0023501D01*
X0379035Y0022367D01*
X0378468Y0021800D01*
X0377333Y0021800D01*
X0376766Y0022367D01*
X0375352Y0021800D02*
X0373083Y0021800D01*
X0374217Y0021800D02*
X0374217Y0025203D01*
X0373083Y0024069D01*
X0371669Y0024069D02*
X0371669Y0021800D01*
X0371669Y0023501D02*
X0369400Y0023501D01*
X0369400Y0024069D02*
X0369400Y0021800D01*
X0369400Y0024069D02*
X0370534Y0025203D01*
X0371669Y0024069D01*
X0356450Y0028400D02*
X0354181Y0028400D01*
X0353047Y0029534D01*
X0354181Y0030669D01*
X0356450Y0030669D01*
X0356450Y0032083D02*
X0356450Y0034352D01*
X0356450Y0033217D02*
X0353047Y0033217D01*
X0354181Y0032083D01*
X0354749Y0030669D02*
X0354749Y0028400D01*
X0346450Y0028400D02*
X0344181Y0028400D01*
X0343047Y0029534D01*
X0344181Y0030669D01*
X0346450Y0030669D01*
X0346450Y0032083D02*
X0346450Y0034352D01*
X0346450Y0033217D02*
X0343047Y0033217D01*
X0344181Y0032083D01*
X0344749Y0030669D02*
X0344749Y0028400D01*
X0336450Y0028400D02*
X0334181Y0028400D01*
X0333047Y0029534D01*
X0334181Y0030669D01*
X0336450Y0030669D01*
X0336450Y0032083D02*
X0336450Y0034352D01*
X0336450Y0033217D02*
X0333047Y0033217D01*
X0334181Y0032083D01*
X0334749Y0030669D02*
X0334749Y0028400D01*
X0326450Y0028400D02*
X0324181Y0028400D01*
X0323047Y0029534D01*
X0324181Y0030669D01*
X0326450Y0030669D01*
X0326450Y0032083D02*
X0326450Y0034352D01*
X0326450Y0033217D02*
X0323047Y0033217D01*
X0324181Y0032083D01*
X0324749Y0030669D02*
X0324749Y0028400D01*
X0316450Y0028400D02*
X0314181Y0028400D01*
X0313047Y0029534D01*
X0314181Y0030669D01*
X0316450Y0030669D01*
X0316450Y0032083D02*
X0316450Y0034352D01*
X0316450Y0033217D02*
X0313047Y0033217D01*
X0314181Y0032083D01*
X0314749Y0030669D02*
X0314749Y0028400D01*
X0306450Y0028400D02*
X0304181Y0028400D01*
X0303047Y0029534D01*
X0304181Y0030669D01*
X0306450Y0030669D01*
X0305883Y0032083D02*
X0306450Y0032650D01*
X0306450Y0033785D01*
X0305883Y0034352D01*
X0303614Y0034352D01*
X0303047Y0033785D01*
X0303047Y0032650D01*
X0303614Y0032083D01*
X0304181Y0032083D01*
X0304749Y0032650D01*
X0304749Y0034352D01*
X0304749Y0030669D02*
X0304749Y0028400D01*
X0296450Y0028400D02*
X0294181Y0028400D01*
X0293047Y0029534D01*
X0294181Y0030669D01*
X0296450Y0030669D01*
X0295883Y0032083D02*
X0295316Y0032083D01*
X0294749Y0032650D01*
X0294749Y0033785D01*
X0295316Y0034352D01*
X0295883Y0034352D01*
X0296450Y0033785D01*
X0296450Y0032650D01*
X0295883Y0032083D01*
X0294749Y0032650D02*
X0294181Y0032083D01*
X0293614Y0032083D01*
X0293047Y0032650D01*
X0293047Y0033785D01*
X0293614Y0034352D01*
X0294181Y0034352D01*
X0294749Y0033785D01*
X0294749Y0030669D02*
X0294749Y0028400D01*
X0276450Y0028400D02*
X0274181Y0028400D01*
X0273047Y0029534D01*
X0274181Y0030669D01*
X0276450Y0030669D01*
X0276450Y0032083D02*
X0275883Y0032083D01*
X0273614Y0034352D01*
X0273047Y0034352D01*
X0273047Y0032083D01*
X0274749Y0030669D02*
X0274749Y0028400D01*
X0265950Y0028400D02*
X0263681Y0028400D01*
X0262547Y0029534D01*
X0263681Y0030669D01*
X0265950Y0030669D01*
X0265383Y0032083D02*
X0265950Y0032650D01*
X0265950Y0033785D01*
X0265383Y0034352D01*
X0264816Y0034352D01*
X0264249Y0033785D01*
X0264249Y0032083D01*
X0265383Y0032083D01*
X0264249Y0032083D02*
X0263114Y0033217D01*
X0262547Y0034352D01*
X0264249Y0030669D02*
X0264249Y0028400D01*
X0255950Y0028400D02*
X0253681Y0028400D01*
X0252547Y0029534D01*
X0253681Y0030669D01*
X0255950Y0030669D01*
X0255383Y0032083D02*
X0255950Y0032650D01*
X0255950Y0033785D01*
X0255383Y0034352D01*
X0254249Y0034352D01*
X0253681Y0033785D01*
X0253681Y0033217D01*
X0254249Y0032083D01*
X0252547Y0032083D01*
X0252547Y0034352D01*
X0254249Y0030669D02*
X0254249Y0028400D01*
X0246450Y0028400D02*
X0244181Y0028400D01*
X0243047Y0029534D01*
X0244181Y0030669D01*
X0246450Y0030669D01*
X0244749Y0030669D02*
X0244749Y0028400D01*
X0244749Y0032083D02*
X0244749Y0034352D01*
X0246450Y0033785D02*
X0243047Y0033785D01*
X0244749Y0032083D01*
X0236450Y0032650D02*
X0235883Y0032083D01*
X0236450Y0032650D02*
X0236450Y0033785D01*
X0235883Y0034352D01*
X0235316Y0034352D01*
X0234749Y0033785D01*
X0234749Y0033217D01*
X0234749Y0033785D02*
X0234181Y0034352D01*
X0233614Y0034352D01*
X0233047Y0033785D01*
X0233047Y0032650D01*
X0233614Y0032083D01*
X0234181Y0030669D02*
X0236450Y0030669D01*
X0234749Y0030669D02*
X0234749Y0028400D01*
X0234181Y0028400D02*
X0233047Y0029534D01*
X0234181Y0030669D01*
X0234181Y0028400D02*
X0236450Y0028400D01*
X0226450Y0028400D02*
X0224181Y0028400D01*
X0223047Y0029534D01*
X0224181Y0030669D01*
X0226450Y0030669D01*
X0226450Y0032083D02*
X0224181Y0034352D01*
X0223614Y0034352D01*
X0223047Y0033785D01*
X0223047Y0032650D01*
X0223614Y0032083D01*
X0224749Y0030669D02*
X0224749Y0028400D01*
X0226450Y0032083D02*
X0226450Y0034352D01*
X0215450Y0034352D02*
X0215450Y0032083D01*
X0215450Y0033217D02*
X0212047Y0033217D01*
X0213181Y0032083D01*
X0213181Y0030669D02*
X0215450Y0030669D01*
X0213749Y0030669D02*
X0213749Y0028400D01*
X0213181Y0028400D02*
X0212047Y0029534D01*
X0213181Y0030669D01*
X0213181Y0028400D02*
X0215450Y0028400D01*
X0206450Y0028400D02*
X0204181Y0028400D01*
X0203047Y0029534D01*
X0204181Y0030669D01*
X0206450Y0030669D01*
X0205883Y0032083D02*
X0203614Y0034352D01*
X0205883Y0034352D01*
X0206450Y0033785D01*
X0206450Y0032650D01*
X0205883Y0032083D01*
X0203614Y0032083D01*
X0203047Y0032650D01*
X0203047Y0033785D01*
X0203614Y0034352D01*
X0204749Y0030669D02*
X0204749Y0028400D01*
X0186700Y0029534D02*
X0185566Y0030669D01*
X0183297Y0030669D01*
X0184431Y0032083D02*
X0184431Y0032650D01*
X0186700Y0032650D01*
X0186700Y0032083D02*
X0186700Y0033217D01*
X0186700Y0034539D02*
X0184431Y0034539D01*
X0184431Y0036240D01*
X0184999Y0036807D01*
X0186700Y0036807D01*
X0183297Y0032650D02*
X0182730Y0032650D01*
X0176700Y0032083D02*
X0173297Y0032083D01*
X0176700Y0034352D01*
X0173297Y0034352D01*
X0173297Y0035766D02*
X0173297Y0037468D01*
X0173864Y0038035D01*
X0176133Y0038035D01*
X0176700Y0037468D01*
X0176700Y0035766D01*
X0173297Y0035766D01*
X0166700Y0035766D02*
X0166700Y0037468D01*
X0166133Y0038035D01*
X0163864Y0038035D01*
X0163297Y0037468D01*
X0163297Y0035766D01*
X0166700Y0035766D01*
X0166700Y0034352D02*
X0163297Y0034352D01*
X0163297Y0032083D02*
X0166700Y0034352D01*
X0166700Y0032083D02*
X0163297Y0032083D01*
X0163864Y0030669D02*
X0163297Y0030101D01*
X0163297Y0028967D01*
X0163864Y0028400D01*
X0166133Y0028400D01*
X0166700Y0028967D01*
X0166700Y0030101D01*
X0166133Y0030669D01*
X0164999Y0030669D01*
X0164999Y0029534D01*
X0173297Y0028967D02*
X0173864Y0028400D01*
X0176133Y0028400D01*
X0176700Y0028967D01*
X0176700Y0030101D01*
X0176133Y0030669D01*
X0174999Y0030669D01*
X0174999Y0029534D01*
X0173864Y0030669D02*
X0173297Y0030101D01*
X0173297Y0028967D01*
X0183297Y0028400D02*
X0185566Y0028400D01*
X0186700Y0029534D01*
X0156700Y0028967D02*
X0156133Y0028400D01*
X0156700Y0028967D02*
X0156700Y0030101D01*
X0156133Y0030669D01*
X0154999Y0030669D01*
X0154431Y0030101D01*
X0154431Y0029534D01*
X0154999Y0028400D01*
X0153297Y0028400D01*
X0153297Y0030669D01*
X0153297Y0032083D02*
X0155566Y0032083D01*
X0156700Y0033217D01*
X0155566Y0034352D01*
X0153297Y0034352D01*
X0146700Y0034492D02*
X0146700Y0035626D01*
X0146133Y0036193D01*
X0145566Y0036193D01*
X0144999Y0035626D01*
X0144999Y0035059D01*
X0144999Y0035626D02*
X0144431Y0036193D01*
X0143864Y0036193D01*
X0143297Y0035626D01*
X0143297Y0034492D01*
X0143864Y0033925D01*
X0146133Y0033925D02*
X0146700Y0034492D01*
X0146700Y0032650D02*
X0146700Y0032083D01*
X0146133Y0032083D01*
X0146133Y0032650D01*
X0146700Y0032650D01*
X0146133Y0030669D02*
X0146700Y0030101D01*
X0146700Y0028967D01*
X0146133Y0028400D01*
X0144999Y0029534D02*
X0144999Y0030101D01*
X0145566Y0030669D01*
X0146133Y0030669D01*
X0144999Y0030101D02*
X0144431Y0030669D01*
X0143864Y0030669D01*
X0143297Y0030101D01*
X0143297Y0028967D01*
X0143864Y0028400D01*
X0136700Y0028400D02*
X0133297Y0028400D01*
X0133297Y0030101D01*
X0133864Y0030669D01*
X0134999Y0030669D01*
X0135566Y0030101D01*
X0135566Y0028400D01*
X0135566Y0029534D02*
X0136700Y0030669D01*
X0136700Y0032083D02*
X0136700Y0034352D01*
X0136133Y0035766D02*
X0136700Y0036333D01*
X0136700Y0037468D01*
X0136133Y0038035D01*
X0135566Y0038035D01*
X0134999Y0037468D01*
X0134999Y0036333D01*
X0134431Y0035766D01*
X0133864Y0035766D01*
X0133297Y0036333D01*
X0133297Y0037468D01*
X0133864Y0038035D01*
X0133297Y0039449D02*
X0136700Y0039449D01*
X0136700Y0041718D01*
X0134999Y0040584D02*
X0134999Y0039449D01*
X0133297Y0039449D02*
X0133297Y0041718D01*
X0133297Y0043133D02*
X0133297Y0045401D01*
X0133297Y0044267D02*
X0136700Y0044267D01*
X0143297Y0039876D02*
X0145566Y0039876D01*
X0146700Y0038742D01*
X0145566Y0037608D01*
X0143297Y0037608D01*
X0134999Y0033217D02*
X0134999Y0032083D01*
X0136700Y0032083D02*
X0133297Y0032083D01*
X0133297Y0034352D01*
X0126700Y0034539D02*
X0123297Y0034539D01*
X0123297Y0036240D01*
X0123864Y0036807D01*
X0124999Y0036807D01*
X0125566Y0036240D01*
X0125566Y0034539D01*
X0125566Y0035673D02*
X0126700Y0036807D01*
X0126700Y0038222D02*
X0126700Y0040490D01*
X0126700Y0041905D02*
X0123297Y0041905D01*
X0123297Y0044173D01*
X0124999Y0043039D02*
X0124999Y0041905D01*
X0123297Y0040490D02*
X0123297Y0038222D01*
X0126700Y0038222D01*
X0124999Y0038222D02*
X0124999Y0039356D01*
X0126133Y0033124D02*
X0123864Y0033124D01*
X0123297Y0032557D01*
X0123297Y0031423D01*
X0123864Y0030855D01*
X0126133Y0030855D01*
X0126700Y0031423D01*
X0126700Y0032557D01*
X0126133Y0033124D01*
X0126700Y0029534D02*
X0126700Y0028400D01*
X0126700Y0028967D02*
X0123297Y0028967D01*
X0123297Y0028400D02*
X0123297Y0029534D01*
X0313047Y0036333D02*
X0313047Y0037468D01*
X0313614Y0038035D01*
X0315883Y0035766D01*
X0316450Y0036333D01*
X0316450Y0037468D01*
X0315883Y0038035D01*
X0313614Y0038035D01*
X0313047Y0036333D02*
X0313614Y0035766D01*
X0315883Y0035766D01*
X0323047Y0036901D02*
X0324181Y0035766D01*
X0323047Y0036901D02*
X0326450Y0036901D01*
X0326450Y0038035D02*
X0326450Y0035766D01*
X0333047Y0036333D02*
X0333047Y0037468D01*
X0333614Y0038035D01*
X0334181Y0038035D01*
X0336450Y0035766D01*
X0336450Y0038035D01*
X0333614Y0035766D02*
X0333047Y0036333D01*
X0343047Y0036333D02*
X0343047Y0037468D01*
X0343614Y0038035D01*
X0344181Y0038035D01*
X0344749Y0037468D01*
X0345316Y0038035D01*
X0345883Y0038035D01*
X0346450Y0037468D01*
X0346450Y0036333D01*
X0345883Y0035766D01*
X0344749Y0036901D02*
X0344749Y0037468D01*
X0343614Y0035766D02*
X0343047Y0036333D01*
X0353047Y0037468D02*
X0354749Y0035766D01*
X0354749Y0038035D01*
X0356450Y0037468D02*
X0353047Y0037468D01*
X0355967Y0040300D02*
X0355400Y0040867D01*
X0355967Y0040300D02*
X0357101Y0040300D01*
X0357669Y0040867D01*
X0357669Y0042001D01*
X0357101Y0042569D01*
X0356534Y0042569D01*
X0355400Y0042001D01*
X0355400Y0043703D01*
X0357669Y0043703D01*
X0359083Y0043136D02*
X0359650Y0043703D01*
X0360785Y0043703D01*
X0361352Y0043136D01*
X0361352Y0042569D01*
X0359083Y0040300D01*
X0361352Y0040300D01*
X0370000Y0042500D02*
X0370000Y0047500D01*
X0372500Y0050000D01*
X0361352Y0050867D02*
X0360785Y0050300D01*
X0359650Y0050300D01*
X0359083Y0050867D01*
X0361352Y0053136D01*
X0361352Y0050867D01*
X0361352Y0053136D02*
X0360785Y0053703D01*
X0359650Y0053703D01*
X0359083Y0053136D01*
X0359083Y0050867D01*
X0357669Y0050867D02*
X0357101Y0050300D01*
X0355967Y0050300D01*
X0355400Y0050867D01*
X0355400Y0052001D02*
X0356534Y0052569D01*
X0357101Y0052569D01*
X0357669Y0052001D01*
X0357669Y0050867D01*
X0355400Y0052001D02*
X0355400Y0053703D01*
X0357669Y0053703D01*
X0370000Y0042500D02*
X0372500Y0040000D01*
D12*
X0375000Y0029700D02*
X0375000Y0026800D01*
X0385000Y0026800D01*
X0385000Y0029800D01*
X0390000Y0030000D02*
X0401800Y0030000D01*
X0385000Y0210200D02*
X0385000Y0212800D01*
X0375000Y0212800D01*
X0372000Y0212800D01*
X0375000Y0212800D02*
X0375000Y0210300D01*
D13*
X0370474Y0211251D02*
X0370474Y0213253D01*
X0368473Y0213253D02*
X0368473Y0211251D01*
X0369474Y0210250D01*
X0370474Y0211251D01*
X0367252Y0211751D02*
X0366751Y0212252D01*
X0366251Y0212252D01*
X0365250Y0211751D01*
X0365250Y0213253D01*
X0367252Y0213253D01*
X0367252Y0211751D02*
X0367252Y0210750D01*
X0366751Y0210250D01*
X0365750Y0210250D01*
X0365250Y0210750D01*
D14*
X0353701Y0205000D02*
X0353703Y0205158D01*
X0353709Y0205316D01*
X0353719Y0205474D01*
X0353733Y0205632D01*
X0353751Y0205789D01*
X0353772Y0205946D01*
X0353798Y0206102D01*
X0353828Y0206258D01*
X0353861Y0206413D01*
X0353899Y0206566D01*
X0353940Y0206719D01*
X0353985Y0206871D01*
X0354034Y0207022D01*
X0354087Y0207171D01*
X0354143Y0207319D01*
X0354203Y0207465D01*
X0354267Y0207610D01*
X0354335Y0207753D01*
X0354406Y0207895D01*
X0354480Y0208035D01*
X0354558Y0208172D01*
X0354640Y0208308D01*
X0354724Y0208442D01*
X0354813Y0208573D01*
X0354904Y0208702D01*
X0354999Y0208829D01*
X0355096Y0208954D01*
X0355197Y0209076D01*
X0355301Y0209195D01*
X0355408Y0209312D01*
X0355518Y0209426D01*
X0355631Y0209537D01*
X0355746Y0209646D01*
X0355864Y0209751D01*
X0355985Y0209853D01*
X0356108Y0209953D01*
X0356234Y0210049D01*
X0356362Y0210142D01*
X0356492Y0210232D01*
X0356625Y0210318D01*
X0356760Y0210402D01*
X0356896Y0210481D01*
X0357035Y0210558D01*
X0357176Y0210630D01*
X0357318Y0210700D01*
X0357462Y0210765D01*
X0357608Y0210827D01*
X0357755Y0210885D01*
X0357904Y0210940D01*
X0358054Y0210991D01*
X0358205Y0211038D01*
X0358357Y0211081D01*
X0358510Y0211120D01*
X0358665Y0211156D01*
X0358820Y0211187D01*
X0358976Y0211215D01*
X0359132Y0211239D01*
X0359289Y0211259D01*
X0359447Y0211275D01*
X0359604Y0211287D01*
X0359763Y0211295D01*
X0359921Y0211299D01*
X0360079Y0211299D01*
X0360237Y0211295D01*
X0360396Y0211287D01*
X0360553Y0211275D01*
X0360711Y0211259D01*
X0360868Y0211239D01*
X0361024Y0211215D01*
X0361180Y0211187D01*
X0361335Y0211156D01*
X0361490Y0211120D01*
X0361643Y0211081D01*
X0361795Y0211038D01*
X0361946Y0210991D01*
X0362096Y0210940D01*
X0362245Y0210885D01*
X0362392Y0210827D01*
X0362538Y0210765D01*
X0362682Y0210700D01*
X0362824Y0210630D01*
X0362965Y0210558D01*
X0363104Y0210481D01*
X0363240Y0210402D01*
X0363375Y0210318D01*
X0363508Y0210232D01*
X0363638Y0210142D01*
X0363766Y0210049D01*
X0363892Y0209953D01*
X0364015Y0209853D01*
X0364136Y0209751D01*
X0364254Y0209646D01*
X0364369Y0209537D01*
X0364482Y0209426D01*
X0364592Y0209312D01*
X0364699Y0209195D01*
X0364803Y0209076D01*
X0364904Y0208954D01*
X0365001Y0208829D01*
X0365096Y0208702D01*
X0365187Y0208573D01*
X0365276Y0208442D01*
X0365360Y0208308D01*
X0365442Y0208172D01*
X0365520Y0208035D01*
X0365594Y0207895D01*
X0365665Y0207753D01*
X0365733Y0207610D01*
X0365797Y0207465D01*
X0365857Y0207319D01*
X0365913Y0207171D01*
X0365966Y0207022D01*
X0366015Y0206871D01*
X0366060Y0206719D01*
X0366101Y0206566D01*
X0366139Y0206413D01*
X0366172Y0206258D01*
X0366202Y0206102D01*
X0366228Y0205946D01*
X0366249Y0205789D01*
X0366267Y0205632D01*
X0366281Y0205474D01*
X0366291Y0205316D01*
X0366297Y0205158D01*
X0366299Y0205000D01*
X0366297Y0204842D01*
X0366291Y0204684D01*
X0366281Y0204526D01*
X0366267Y0204368D01*
X0366249Y0204211D01*
X0366228Y0204054D01*
X0366202Y0203898D01*
X0366172Y0203742D01*
X0366139Y0203587D01*
X0366101Y0203434D01*
X0366060Y0203281D01*
X0366015Y0203129D01*
X0365966Y0202978D01*
X0365913Y0202829D01*
X0365857Y0202681D01*
X0365797Y0202535D01*
X0365733Y0202390D01*
X0365665Y0202247D01*
X0365594Y0202105D01*
X0365520Y0201965D01*
X0365442Y0201828D01*
X0365360Y0201692D01*
X0365276Y0201558D01*
X0365187Y0201427D01*
X0365096Y0201298D01*
X0365001Y0201171D01*
X0364904Y0201046D01*
X0364803Y0200924D01*
X0364699Y0200805D01*
X0364592Y0200688D01*
X0364482Y0200574D01*
X0364369Y0200463D01*
X0364254Y0200354D01*
X0364136Y0200249D01*
X0364015Y0200147D01*
X0363892Y0200047D01*
X0363766Y0199951D01*
X0363638Y0199858D01*
X0363508Y0199768D01*
X0363375Y0199682D01*
X0363240Y0199598D01*
X0363104Y0199519D01*
X0362965Y0199442D01*
X0362824Y0199370D01*
X0362682Y0199300D01*
X0362538Y0199235D01*
X0362392Y0199173D01*
X0362245Y0199115D01*
X0362096Y0199060D01*
X0361946Y0199009D01*
X0361795Y0198962D01*
X0361643Y0198919D01*
X0361490Y0198880D01*
X0361335Y0198844D01*
X0361180Y0198813D01*
X0361024Y0198785D01*
X0360868Y0198761D01*
X0360711Y0198741D01*
X0360553Y0198725D01*
X0360396Y0198713D01*
X0360237Y0198705D01*
X0360079Y0198701D01*
X0359921Y0198701D01*
X0359763Y0198705D01*
X0359604Y0198713D01*
X0359447Y0198725D01*
X0359289Y0198741D01*
X0359132Y0198761D01*
X0358976Y0198785D01*
X0358820Y0198813D01*
X0358665Y0198844D01*
X0358510Y0198880D01*
X0358357Y0198919D01*
X0358205Y0198962D01*
X0358054Y0199009D01*
X0357904Y0199060D01*
X0357755Y0199115D01*
X0357608Y0199173D01*
X0357462Y0199235D01*
X0357318Y0199300D01*
X0357176Y0199370D01*
X0357035Y0199442D01*
X0356896Y0199519D01*
X0356760Y0199598D01*
X0356625Y0199682D01*
X0356492Y0199768D01*
X0356362Y0199858D01*
X0356234Y0199951D01*
X0356108Y0200047D01*
X0355985Y0200147D01*
X0355864Y0200249D01*
X0355746Y0200354D01*
X0355631Y0200463D01*
X0355518Y0200574D01*
X0355408Y0200688D01*
X0355301Y0200805D01*
X0355197Y0200924D01*
X0355096Y0201046D01*
X0354999Y0201171D01*
X0354904Y0201298D01*
X0354813Y0201427D01*
X0354724Y0201558D01*
X0354640Y0201692D01*
X0354558Y0201828D01*
X0354480Y0201965D01*
X0354406Y0202105D01*
X0354335Y0202247D01*
X0354267Y0202390D01*
X0354203Y0202535D01*
X0354143Y0202681D01*
X0354087Y0202829D01*
X0354034Y0202978D01*
X0353985Y0203129D01*
X0353940Y0203281D01*
X0353899Y0203434D01*
X0353861Y0203587D01*
X0353828Y0203742D01*
X0353798Y0203898D01*
X0353772Y0204054D01*
X0353751Y0204211D01*
X0353733Y0204368D01*
X0353719Y0204526D01*
X0353709Y0204684D01*
X0353703Y0204842D01*
X0353701Y0205000D01*
X0058701Y0205000D02*
X0058703Y0205158D01*
X0058709Y0205316D01*
X0058719Y0205474D01*
X0058733Y0205632D01*
X0058751Y0205789D01*
X0058772Y0205946D01*
X0058798Y0206102D01*
X0058828Y0206258D01*
X0058861Y0206413D01*
X0058899Y0206566D01*
X0058940Y0206719D01*
X0058985Y0206871D01*
X0059034Y0207022D01*
X0059087Y0207171D01*
X0059143Y0207319D01*
X0059203Y0207465D01*
X0059267Y0207610D01*
X0059335Y0207753D01*
X0059406Y0207895D01*
X0059480Y0208035D01*
X0059558Y0208172D01*
X0059640Y0208308D01*
X0059724Y0208442D01*
X0059813Y0208573D01*
X0059904Y0208702D01*
X0059999Y0208829D01*
X0060096Y0208954D01*
X0060197Y0209076D01*
X0060301Y0209195D01*
X0060408Y0209312D01*
X0060518Y0209426D01*
X0060631Y0209537D01*
X0060746Y0209646D01*
X0060864Y0209751D01*
X0060985Y0209853D01*
X0061108Y0209953D01*
X0061234Y0210049D01*
X0061362Y0210142D01*
X0061492Y0210232D01*
X0061625Y0210318D01*
X0061760Y0210402D01*
X0061896Y0210481D01*
X0062035Y0210558D01*
X0062176Y0210630D01*
X0062318Y0210700D01*
X0062462Y0210765D01*
X0062608Y0210827D01*
X0062755Y0210885D01*
X0062904Y0210940D01*
X0063054Y0210991D01*
X0063205Y0211038D01*
X0063357Y0211081D01*
X0063510Y0211120D01*
X0063665Y0211156D01*
X0063820Y0211187D01*
X0063976Y0211215D01*
X0064132Y0211239D01*
X0064289Y0211259D01*
X0064447Y0211275D01*
X0064604Y0211287D01*
X0064763Y0211295D01*
X0064921Y0211299D01*
X0065079Y0211299D01*
X0065237Y0211295D01*
X0065396Y0211287D01*
X0065553Y0211275D01*
X0065711Y0211259D01*
X0065868Y0211239D01*
X0066024Y0211215D01*
X0066180Y0211187D01*
X0066335Y0211156D01*
X0066490Y0211120D01*
X0066643Y0211081D01*
X0066795Y0211038D01*
X0066946Y0210991D01*
X0067096Y0210940D01*
X0067245Y0210885D01*
X0067392Y0210827D01*
X0067538Y0210765D01*
X0067682Y0210700D01*
X0067824Y0210630D01*
X0067965Y0210558D01*
X0068104Y0210481D01*
X0068240Y0210402D01*
X0068375Y0210318D01*
X0068508Y0210232D01*
X0068638Y0210142D01*
X0068766Y0210049D01*
X0068892Y0209953D01*
X0069015Y0209853D01*
X0069136Y0209751D01*
X0069254Y0209646D01*
X0069369Y0209537D01*
X0069482Y0209426D01*
X0069592Y0209312D01*
X0069699Y0209195D01*
X0069803Y0209076D01*
X0069904Y0208954D01*
X0070001Y0208829D01*
X0070096Y0208702D01*
X0070187Y0208573D01*
X0070276Y0208442D01*
X0070360Y0208308D01*
X0070442Y0208172D01*
X0070520Y0208035D01*
X0070594Y0207895D01*
X0070665Y0207753D01*
X0070733Y0207610D01*
X0070797Y0207465D01*
X0070857Y0207319D01*
X0070913Y0207171D01*
X0070966Y0207022D01*
X0071015Y0206871D01*
X0071060Y0206719D01*
X0071101Y0206566D01*
X0071139Y0206413D01*
X0071172Y0206258D01*
X0071202Y0206102D01*
X0071228Y0205946D01*
X0071249Y0205789D01*
X0071267Y0205632D01*
X0071281Y0205474D01*
X0071291Y0205316D01*
X0071297Y0205158D01*
X0071299Y0205000D01*
X0071297Y0204842D01*
X0071291Y0204684D01*
X0071281Y0204526D01*
X0071267Y0204368D01*
X0071249Y0204211D01*
X0071228Y0204054D01*
X0071202Y0203898D01*
X0071172Y0203742D01*
X0071139Y0203587D01*
X0071101Y0203434D01*
X0071060Y0203281D01*
X0071015Y0203129D01*
X0070966Y0202978D01*
X0070913Y0202829D01*
X0070857Y0202681D01*
X0070797Y0202535D01*
X0070733Y0202390D01*
X0070665Y0202247D01*
X0070594Y0202105D01*
X0070520Y0201965D01*
X0070442Y0201828D01*
X0070360Y0201692D01*
X0070276Y0201558D01*
X0070187Y0201427D01*
X0070096Y0201298D01*
X0070001Y0201171D01*
X0069904Y0201046D01*
X0069803Y0200924D01*
X0069699Y0200805D01*
X0069592Y0200688D01*
X0069482Y0200574D01*
X0069369Y0200463D01*
X0069254Y0200354D01*
X0069136Y0200249D01*
X0069015Y0200147D01*
X0068892Y0200047D01*
X0068766Y0199951D01*
X0068638Y0199858D01*
X0068508Y0199768D01*
X0068375Y0199682D01*
X0068240Y0199598D01*
X0068104Y0199519D01*
X0067965Y0199442D01*
X0067824Y0199370D01*
X0067682Y0199300D01*
X0067538Y0199235D01*
X0067392Y0199173D01*
X0067245Y0199115D01*
X0067096Y0199060D01*
X0066946Y0199009D01*
X0066795Y0198962D01*
X0066643Y0198919D01*
X0066490Y0198880D01*
X0066335Y0198844D01*
X0066180Y0198813D01*
X0066024Y0198785D01*
X0065868Y0198761D01*
X0065711Y0198741D01*
X0065553Y0198725D01*
X0065396Y0198713D01*
X0065237Y0198705D01*
X0065079Y0198701D01*
X0064921Y0198701D01*
X0064763Y0198705D01*
X0064604Y0198713D01*
X0064447Y0198725D01*
X0064289Y0198741D01*
X0064132Y0198761D01*
X0063976Y0198785D01*
X0063820Y0198813D01*
X0063665Y0198844D01*
X0063510Y0198880D01*
X0063357Y0198919D01*
X0063205Y0198962D01*
X0063054Y0199009D01*
X0062904Y0199060D01*
X0062755Y0199115D01*
X0062608Y0199173D01*
X0062462Y0199235D01*
X0062318Y0199300D01*
X0062176Y0199370D01*
X0062035Y0199442D01*
X0061896Y0199519D01*
X0061760Y0199598D01*
X0061625Y0199682D01*
X0061492Y0199768D01*
X0061362Y0199858D01*
X0061234Y0199951D01*
X0061108Y0200047D01*
X0060985Y0200147D01*
X0060864Y0200249D01*
X0060746Y0200354D01*
X0060631Y0200463D01*
X0060518Y0200574D01*
X0060408Y0200688D01*
X0060301Y0200805D01*
X0060197Y0200924D01*
X0060096Y0201046D01*
X0059999Y0201171D01*
X0059904Y0201298D01*
X0059813Y0201427D01*
X0059724Y0201558D01*
X0059640Y0201692D01*
X0059558Y0201828D01*
X0059480Y0201965D01*
X0059406Y0202105D01*
X0059335Y0202247D01*
X0059267Y0202390D01*
X0059203Y0202535D01*
X0059143Y0202681D01*
X0059087Y0202829D01*
X0059034Y0202978D01*
X0058985Y0203129D01*
X0058940Y0203281D01*
X0058899Y0203434D01*
X0058861Y0203587D01*
X0058828Y0203742D01*
X0058798Y0203898D01*
X0058772Y0204054D01*
X0058751Y0204211D01*
X0058733Y0204368D01*
X0058719Y0204526D01*
X0058709Y0204684D01*
X0058703Y0204842D01*
X0058701Y0205000D01*
X0053701Y0015000D02*
X0053703Y0015158D01*
X0053709Y0015316D01*
X0053719Y0015474D01*
X0053733Y0015632D01*
X0053751Y0015789D01*
X0053772Y0015946D01*
X0053798Y0016102D01*
X0053828Y0016258D01*
X0053861Y0016413D01*
X0053899Y0016566D01*
X0053940Y0016719D01*
X0053985Y0016871D01*
X0054034Y0017022D01*
X0054087Y0017171D01*
X0054143Y0017319D01*
X0054203Y0017465D01*
X0054267Y0017610D01*
X0054335Y0017753D01*
X0054406Y0017895D01*
X0054480Y0018035D01*
X0054558Y0018172D01*
X0054640Y0018308D01*
X0054724Y0018442D01*
X0054813Y0018573D01*
X0054904Y0018702D01*
X0054999Y0018829D01*
X0055096Y0018954D01*
X0055197Y0019076D01*
X0055301Y0019195D01*
X0055408Y0019312D01*
X0055518Y0019426D01*
X0055631Y0019537D01*
X0055746Y0019646D01*
X0055864Y0019751D01*
X0055985Y0019853D01*
X0056108Y0019953D01*
X0056234Y0020049D01*
X0056362Y0020142D01*
X0056492Y0020232D01*
X0056625Y0020318D01*
X0056760Y0020402D01*
X0056896Y0020481D01*
X0057035Y0020558D01*
X0057176Y0020630D01*
X0057318Y0020700D01*
X0057462Y0020765D01*
X0057608Y0020827D01*
X0057755Y0020885D01*
X0057904Y0020940D01*
X0058054Y0020991D01*
X0058205Y0021038D01*
X0058357Y0021081D01*
X0058510Y0021120D01*
X0058665Y0021156D01*
X0058820Y0021187D01*
X0058976Y0021215D01*
X0059132Y0021239D01*
X0059289Y0021259D01*
X0059447Y0021275D01*
X0059604Y0021287D01*
X0059763Y0021295D01*
X0059921Y0021299D01*
X0060079Y0021299D01*
X0060237Y0021295D01*
X0060396Y0021287D01*
X0060553Y0021275D01*
X0060711Y0021259D01*
X0060868Y0021239D01*
X0061024Y0021215D01*
X0061180Y0021187D01*
X0061335Y0021156D01*
X0061490Y0021120D01*
X0061643Y0021081D01*
X0061795Y0021038D01*
X0061946Y0020991D01*
X0062096Y0020940D01*
X0062245Y0020885D01*
X0062392Y0020827D01*
X0062538Y0020765D01*
X0062682Y0020700D01*
X0062824Y0020630D01*
X0062965Y0020558D01*
X0063104Y0020481D01*
X0063240Y0020402D01*
X0063375Y0020318D01*
X0063508Y0020232D01*
X0063638Y0020142D01*
X0063766Y0020049D01*
X0063892Y0019953D01*
X0064015Y0019853D01*
X0064136Y0019751D01*
X0064254Y0019646D01*
X0064369Y0019537D01*
X0064482Y0019426D01*
X0064592Y0019312D01*
X0064699Y0019195D01*
X0064803Y0019076D01*
X0064904Y0018954D01*
X0065001Y0018829D01*
X0065096Y0018702D01*
X0065187Y0018573D01*
X0065276Y0018442D01*
X0065360Y0018308D01*
X0065442Y0018172D01*
X0065520Y0018035D01*
X0065594Y0017895D01*
X0065665Y0017753D01*
X0065733Y0017610D01*
X0065797Y0017465D01*
X0065857Y0017319D01*
X0065913Y0017171D01*
X0065966Y0017022D01*
X0066015Y0016871D01*
X0066060Y0016719D01*
X0066101Y0016566D01*
X0066139Y0016413D01*
X0066172Y0016258D01*
X0066202Y0016102D01*
X0066228Y0015946D01*
X0066249Y0015789D01*
X0066267Y0015632D01*
X0066281Y0015474D01*
X0066291Y0015316D01*
X0066297Y0015158D01*
X0066299Y0015000D01*
X0066297Y0014842D01*
X0066291Y0014684D01*
X0066281Y0014526D01*
X0066267Y0014368D01*
X0066249Y0014211D01*
X0066228Y0014054D01*
X0066202Y0013898D01*
X0066172Y0013742D01*
X0066139Y0013587D01*
X0066101Y0013434D01*
X0066060Y0013281D01*
X0066015Y0013129D01*
X0065966Y0012978D01*
X0065913Y0012829D01*
X0065857Y0012681D01*
X0065797Y0012535D01*
X0065733Y0012390D01*
X0065665Y0012247D01*
X0065594Y0012105D01*
X0065520Y0011965D01*
X0065442Y0011828D01*
X0065360Y0011692D01*
X0065276Y0011558D01*
X0065187Y0011427D01*
X0065096Y0011298D01*
X0065001Y0011171D01*
X0064904Y0011046D01*
X0064803Y0010924D01*
X0064699Y0010805D01*
X0064592Y0010688D01*
X0064482Y0010574D01*
X0064369Y0010463D01*
X0064254Y0010354D01*
X0064136Y0010249D01*
X0064015Y0010147D01*
X0063892Y0010047D01*
X0063766Y0009951D01*
X0063638Y0009858D01*
X0063508Y0009768D01*
X0063375Y0009682D01*
X0063240Y0009598D01*
X0063104Y0009519D01*
X0062965Y0009442D01*
X0062824Y0009370D01*
X0062682Y0009300D01*
X0062538Y0009235D01*
X0062392Y0009173D01*
X0062245Y0009115D01*
X0062096Y0009060D01*
X0061946Y0009009D01*
X0061795Y0008962D01*
X0061643Y0008919D01*
X0061490Y0008880D01*
X0061335Y0008844D01*
X0061180Y0008813D01*
X0061024Y0008785D01*
X0060868Y0008761D01*
X0060711Y0008741D01*
X0060553Y0008725D01*
X0060396Y0008713D01*
X0060237Y0008705D01*
X0060079Y0008701D01*
X0059921Y0008701D01*
X0059763Y0008705D01*
X0059604Y0008713D01*
X0059447Y0008725D01*
X0059289Y0008741D01*
X0059132Y0008761D01*
X0058976Y0008785D01*
X0058820Y0008813D01*
X0058665Y0008844D01*
X0058510Y0008880D01*
X0058357Y0008919D01*
X0058205Y0008962D01*
X0058054Y0009009D01*
X0057904Y0009060D01*
X0057755Y0009115D01*
X0057608Y0009173D01*
X0057462Y0009235D01*
X0057318Y0009300D01*
X0057176Y0009370D01*
X0057035Y0009442D01*
X0056896Y0009519D01*
X0056760Y0009598D01*
X0056625Y0009682D01*
X0056492Y0009768D01*
X0056362Y0009858D01*
X0056234Y0009951D01*
X0056108Y0010047D01*
X0055985Y0010147D01*
X0055864Y0010249D01*
X0055746Y0010354D01*
X0055631Y0010463D01*
X0055518Y0010574D01*
X0055408Y0010688D01*
X0055301Y0010805D01*
X0055197Y0010924D01*
X0055096Y0011046D01*
X0054999Y0011171D01*
X0054904Y0011298D01*
X0054813Y0011427D01*
X0054724Y0011558D01*
X0054640Y0011692D01*
X0054558Y0011828D01*
X0054480Y0011965D01*
X0054406Y0012105D01*
X0054335Y0012247D01*
X0054267Y0012390D01*
X0054203Y0012535D01*
X0054143Y0012681D01*
X0054087Y0012829D01*
X0054034Y0012978D01*
X0053985Y0013129D01*
X0053940Y0013281D01*
X0053899Y0013434D01*
X0053861Y0013587D01*
X0053828Y0013742D01*
X0053798Y0013898D01*
X0053772Y0014054D01*
X0053751Y0014211D01*
X0053733Y0014368D01*
X0053719Y0014526D01*
X0053709Y0014684D01*
X0053703Y0014842D01*
X0053701Y0015000D01*
X0378701Y0015000D02*
X0378703Y0015158D01*
X0378709Y0015316D01*
X0378719Y0015474D01*
X0378733Y0015632D01*
X0378751Y0015789D01*
X0378772Y0015946D01*
X0378798Y0016102D01*
X0378828Y0016258D01*
X0378861Y0016413D01*
X0378899Y0016566D01*
X0378940Y0016719D01*
X0378985Y0016871D01*
X0379034Y0017022D01*
X0379087Y0017171D01*
X0379143Y0017319D01*
X0379203Y0017465D01*
X0379267Y0017610D01*
X0379335Y0017753D01*
X0379406Y0017895D01*
X0379480Y0018035D01*
X0379558Y0018172D01*
X0379640Y0018308D01*
X0379724Y0018442D01*
X0379813Y0018573D01*
X0379904Y0018702D01*
X0379999Y0018829D01*
X0380096Y0018954D01*
X0380197Y0019076D01*
X0380301Y0019195D01*
X0380408Y0019312D01*
X0380518Y0019426D01*
X0380631Y0019537D01*
X0380746Y0019646D01*
X0380864Y0019751D01*
X0380985Y0019853D01*
X0381108Y0019953D01*
X0381234Y0020049D01*
X0381362Y0020142D01*
X0381492Y0020232D01*
X0381625Y0020318D01*
X0381760Y0020402D01*
X0381896Y0020481D01*
X0382035Y0020558D01*
X0382176Y0020630D01*
X0382318Y0020700D01*
X0382462Y0020765D01*
X0382608Y0020827D01*
X0382755Y0020885D01*
X0382904Y0020940D01*
X0383054Y0020991D01*
X0383205Y0021038D01*
X0383357Y0021081D01*
X0383510Y0021120D01*
X0383665Y0021156D01*
X0383820Y0021187D01*
X0383976Y0021215D01*
X0384132Y0021239D01*
X0384289Y0021259D01*
X0384447Y0021275D01*
X0384604Y0021287D01*
X0384763Y0021295D01*
X0384921Y0021299D01*
X0385079Y0021299D01*
X0385237Y0021295D01*
X0385396Y0021287D01*
X0385553Y0021275D01*
X0385711Y0021259D01*
X0385868Y0021239D01*
X0386024Y0021215D01*
X0386180Y0021187D01*
X0386335Y0021156D01*
X0386490Y0021120D01*
X0386643Y0021081D01*
X0386795Y0021038D01*
X0386946Y0020991D01*
X0387096Y0020940D01*
X0387245Y0020885D01*
X0387392Y0020827D01*
X0387538Y0020765D01*
X0387682Y0020700D01*
X0387824Y0020630D01*
X0387965Y0020558D01*
X0388104Y0020481D01*
X0388240Y0020402D01*
X0388375Y0020318D01*
X0388508Y0020232D01*
X0388638Y0020142D01*
X0388766Y0020049D01*
X0388892Y0019953D01*
X0389015Y0019853D01*
X0389136Y0019751D01*
X0389254Y0019646D01*
X0389369Y0019537D01*
X0389482Y0019426D01*
X0389592Y0019312D01*
X0389699Y0019195D01*
X0389803Y0019076D01*
X0389904Y0018954D01*
X0390001Y0018829D01*
X0390096Y0018702D01*
X0390187Y0018573D01*
X0390276Y0018442D01*
X0390360Y0018308D01*
X0390442Y0018172D01*
X0390520Y0018035D01*
X0390594Y0017895D01*
X0390665Y0017753D01*
X0390733Y0017610D01*
X0390797Y0017465D01*
X0390857Y0017319D01*
X0390913Y0017171D01*
X0390966Y0017022D01*
X0391015Y0016871D01*
X0391060Y0016719D01*
X0391101Y0016566D01*
X0391139Y0016413D01*
X0391172Y0016258D01*
X0391202Y0016102D01*
X0391228Y0015946D01*
X0391249Y0015789D01*
X0391267Y0015632D01*
X0391281Y0015474D01*
X0391291Y0015316D01*
X0391297Y0015158D01*
X0391299Y0015000D01*
X0391297Y0014842D01*
X0391291Y0014684D01*
X0391281Y0014526D01*
X0391267Y0014368D01*
X0391249Y0014211D01*
X0391228Y0014054D01*
X0391202Y0013898D01*
X0391172Y0013742D01*
X0391139Y0013587D01*
X0391101Y0013434D01*
X0391060Y0013281D01*
X0391015Y0013129D01*
X0390966Y0012978D01*
X0390913Y0012829D01*
X0390857Y0012681D01*
X0390797Y0012535D01*
X0390733Y0012390D01*
X0390665Y0012247D01*
X0390594Y0012105D01*
X0390520Y0011965D01*
X0390442Y0011828D01*
X0390360Y0011692D01*
X0390276Y0011558D01*
X0390187Y0011427D01*
X0390096Y0011298D01*
X0390001Y0011171D01*
X0389904Y0011046D01*
X0389803Y0010924D01*
X0389699Y0010805D01*
X0389592Y0010688D01*
X0389482Y0010574D01*
X0389369Y0010463D01*
X0389254Y0010354D01*
X0389136Y0010249D01*
X0389015Y0010147D01*
X0388892Y0010047D01*
X0388766Y0009951D01*
X0388638Y0009858D01*
X0388508Y0009768D01*
X0388375Y0009682D01*
X0388240Y0009598D01*
X0388104Y0009519D01*
X0387965Y0009442D01*
X0387824Y0009370D01*
X0387682Y0009300D01*
X0387538Y0009235D01*
X0387392Y0009173D01*
X0387245Y0009115D01*
X0387096Y0009060D01*
X0386946Y0009009D01*
X0386795Y0008962D01*
X0386643Y0008919D01*
X0386490Y0008880D01*
X0386335Y0008844D01*
X0386180Y0008813D01*
X0386024Y0008785D01*
X0385868Y0008761D01*
X0385711Y0008741D01*
X0385553Y0008725D01*
X0385396Y0008713D01*
X0385237Y0008705D01*
X0385079Y0008701D01*
X0384921Y0008701D01*
X0384763Y0008705D01*
X0384604Y0008713D01*
X0384447Y0008725D01*
X0384289Y0008741D01*
X0384132Y0008761D01*
X0383976Y0008785D01*
X0383820Y0008813D01*
X0383665Y0008844D01*
X0383510Y0008880D01*
X0383357Y0008919D01*
X0383205Y0008962D01*
X0383054Y0009009D01*
X0382904Y0009060D01*
X0382755Y0009115D01*
X0382608Y0009173D01*
X0382462Y0009235D01*
X0382318Y0009300D01*
X0382176Y0009370D01*
X0382035Y0009442D01*
X0381896Y0009519D01*
X0381760Y0009598D01*
X0381625Y0009682D01*
X0381492Y0009768D01*
X0381362Y0009858D01*
X0381234Y0009951D01*
X0381108Y0010047D01*
X0380985Y0010147D01*
X0380864Y0010249D01*
X0380746Y0010354D01*
X0380631Y0010463D01*
X0380518Y0010574D01*
X0380408Y0010688D01*
X0380301Y0010805D01*
X0380197Y0010924D01*
X0380096Y0011046D01*
X0379999Y0011171D01*
X0379904Y0011298D01*
X0379813Y0011427D01*
X0379724Y0011558D01*
X0379640Y0011692D01*
X0379558Y0011828D01*
X0379480Y0011965D01*
X0379406Y0012105D01*
X0379335Y0012247D01*
X0379267Y0012390D01*
X0379203Y0012535D01*
X0379143Y0012681D01*
X0379087Y0012829D01*
X0379034Y0012978D01*
X0378985Y0013129D01*
X0378940Y0013281D01*
X0378899Y0013434D01*
X0378861Y0013587D01*
X0378828Y0013742D01*
X0378798Y0013898D01*
X0378772Y0014054D01*
X0378751Y0014211D01*
X0378733Y0014368D01*
X0378719Y0014526D01*
X0378709Y0014684D01*
X0378703Y0014842D01*
X0378701Y0015000D01*
D15*
X0025866Y0205500D02*
X0025966Y0205741D01*
X0026000Y0206000D01*
X0026000Y0209000D01*
X0025966Y0209259D01*
X0025866Y0209500D01*
X0025707Y0209707D01*
X0025500Y0209866D01*
X0025259Y0209966D01*
X0025000Y0210000D01*
X0022000Y0210000D01*
X0021741Y0209966D01*
X0021500Y0209866D01*
X0021293Y0209707D01*
X0021134Y0209500D01*
X0021034Y0209259D01*
X0021000Y0209000D01*
X0021000Y0207000D01*
X0020952Y0206512D01*
X0020810Y0206043D01*
X0020579Y0205611D01*
X0020268Y0205232D01*
X0019889Y0204921D01*
X0019457Y0204690D01*
X0018988Y0204548D01*
X0018500Y0204500D01*
X0016500Y0204500D01*
X0016241Y0204466D01*
X0016000Y0204366D01*
X0015793Y0204207D01*
X0015634Y0204000D01*
X0015534Y0203759D01*
X0015500Y0203500D01*
X0015500Y0202000D01*
X0015500Y0200500D01*
X0015534Y0200241D01*
X0015634Y0200000D01*
X0015793Y0199793D01*
X0016000Y0199634D01*
X0016241Y0199534D01*
X0016500Y0199500D01*
X0019500Y0199500D01*
X0019759Y0199534D01*
X0020000Y0199634D01*
X0020207Y0199793D01*
X0020366Y0200000D01*
X0020466Y0200241D01*
X0020500Y0200500D01*
X0020500Y0202500D01*
X0020548Y0202988D01*
X0020690Y0203457D01*
X0020921Y0203889D01*
X0021232Y0204268D01*
X0021611Y0204579D01*
X0022043Y0204810D01*
X0022512Y0204952D01*
X0023000Y0205000D01*
X0025000Y0205000D01*
X0025259Y0205034D01*
X0025500Y0205134D01*
X0025707Y0205293D01*
X0025866Y0205500D01*
X0025907Y0205600D02*
X0020569Y0205600D01*
X0020732Y0205898D02*
X0025987Y0205898D01*
X0026000Y0206197D02*
X0020856Y0206197D01*
X0020947Y0206495D02*
X0026000Y0206495D01*
X0026000Y0206794D02*
X0020980Y0206794D01*
X0021000Y0207092D02*
X0026000Y0207092D01*
X0026000Y0207391D02*
X0021000Y0207391D01*
X0021000Y0207689D02*
X0026000Y0207689D01*
X0026000Y0207988D02*
X0021000Y0207988D01*
X0021000Y0208286D02*
X0026000Y0208286D01*
X0026000Y0208585D02*
X0021000Y0208585D01*
X0021000Y0208883D02*
X0026000Y0208883D01*
X0025976Y0209182D02*
X0021024Y0209182D01*
X0021126Y0209480D02*
X0025874Y0209480D01*
X0025614Y0209779D02*
X0021386Y0209779D01*
X0020324Y0205301D02*
X0025713Y0205301D01*
X0025020Y0205003D02*
X0019988Y0205003D01*
X0019482Y0204704D02*
X0021846Y0204704D01*
X0021400Y0204406D02*
X0016095Y0204406D01*
X0015716Y0204107D02*
X0021100Y0204107D01*
X0020878Y0203809D02*
X0015555Y0203809D01*
X0015501Y0203510D02*
X0020719Y0203510D01*
X0020616Y0203212D02*
X0015500Y0203212D01*
X0015500Y0202913D02*
X0020541Y0202913D01*
X0020511Y0202614D02*
X0015500Y0202614D01*
X0015500Y0202316D02*
X0020500Y0202316D01*
X0020500Y0202017D02*
X0015500Y0202017D01*
X0015500Y0201719D02*
X0020500Y0201719D01*
X0020500Y0201420D02*
X0015500Y0201420D01*
X0015500Y0201122D02*
X0020500Y0201122D01*
X0020500Y0200823D02*
X0015500Y0200823D01*
X0015500Y0200525D02*
X0020500Y0200525D01*
X0020460Y0200226D02*
X0015540Y0200226D01*
X0015689Y0199928D02*
X0020311Y0199928D01*
X0019989Y0199629D02*
X0016011Y0199629D01*
X0014259Y0205034D02*
X0014000Y0205000D01*
X0011000Y0205000D01*
X0010741Y0205034D01*
X0010500Y0205134D01*
X0010293Y0205293D01*
X0010134Y0205500D01*
X0010034Y0205741D01*
X0010000Y0206000D01*
X0010000Y0208000D01*
X0010000Y0209000D01*
X0010034Y0209259D01*
X0010134Y0209500D01*
X0010293Y0209707D01*
X0010500Y0209866D01*
X0010741Y0209966D01*
X0011000Y0210000D01*
X0014000Y0210000D01*
X0014259Y0209966D01*
X0014500Y0209866D01*
X0014707Y0209707D01*
X0014866Y0209500D01*
X0014966Y0209259D01*
X0015000Y0209000D01*
X0015000Y0206000D01*
X0014966Y0205741D01*
X0014866Y0205500D01*
X0014707Y0205293D01*
X0014500Y0205134D01*
X0014259Y0205034D01*
X0014020Y0205003D02*
X0010980Y0205003D01*
X0010287Y0205301D02*
X0014713Y0205301D01*
X0014907Y0205600D02*
X0010093Y0205600D01*
X0010013Y0205898D02*
X0014987Y0205898D01*
X0015000Y0206197D02*
X0010000Y0206197D01*
X0010000Y0206495D02*
X0015000Y0206495D01*
X0015000Y0206794D02*
X0010000Y0206794D01*
X0010000Y0207092D02*
X0015000Y0207092D01*
X0015000Y0207391D02*
X0010000Y0207391D01*
X0010000Y0207689D02*
X0015000Y0207689D01*
X0015000Y0207988D02*
X0010000Y0207988D01*
X0010000Y0208286D02*
X0015000Y0208286D01*
X0015000Y0208585D02*
X0010000Y0208585D01*
X0010000Y0208883D02*
X0015000Y0208883D01*
X0014976Y0209182D02*
X0010024Y0209182D01*
X0010126Y0209480D02*
X0014874Y0209480D01*
X0014614Y0209779D02*
X0010386Y0209779D01*
M02*
