G75*
%MOIN*%
%OFA0B0*%
%FSLAX25Y25*%
%IPPOS*%
%LPD*%
%AMOC8*
5,1,8,0,0,1.08239X$1,22.5*
%
%ADD10C,0.00800*%
%ADD11C,0.00000*%
D10*
X0005000Y0005000D02*
X0005000Y0215000D01*
X0385000Y0215000D01*
X0395000Y0205000D01*
X0395000Y0165000D01*
X0405000Y0155000D01*
X0405000Y0020000D01*
X0395000Y0010000D01*
X0395000Y0005000D01*
X0005000Y0005000D01*
D11*
X0053701Y0015000D02*
X0053703Y0015158D01*
X0053709Y0015316D01*
X0053719Y0015474D01*
X0053733Y0015632D01*
X0053751Y0015789D01*
X0053772Y0015946D01*
X0053798Y0016102D01*
X0053828Y0016258D01*
X0053861Y0016413D01*
X0053899Y0016566D01*
X0053940Y0016719D01*
X0053985Y0016871D01*
X0054034Y0017022D01*
X0054087Y0017171D01*
X0054143Y0017319D01*
X0054203Y0017465D01*
X0054267Y0017610D01*
X0054335Y0017753D01*
X0054406Y0017895D01*
X0054480Y0018035D01*
X0054558Y0018172D01*
X0054640Y0018308D01*
X0054724Y0018442D01*
X0054813Y0018573D01*
X0054904Y0018702D01*
X0054999Y0018829D01*
X0055096Y0018954D01*
X0055197Y0019076D01*
X0055301Y0019195D01*
X0055408Y0019312D01*
X0055518Y0019426D01*
X0055631Y0019537D01*
X0055746Y0019646D01*
X0055864Y0019751D01*
X0055985Y0019853D01*
X0056108Y0019953D01*
X0056234Y0020049D01*
X0056362Y0020142D01*
X0056492Y0020232D01*
X0056625Y0020318D01*
X0056760Y0020402D01*
X0056896Y0020481D01*
X0057035Y0020558D01*
X0057176Y0020630D01*
X0057318Y0020700D01*
X0057462Y0020765D01*
X0057608Y0020827D01*
X0057755Y0020885D01*
X0057904Y0020940D01*
X0058054Y0020991D01*
X0058205Y0021038D01*
X0058357Y0021081D01*
X0058510Y0021120D01*
X0058665Y0021156D01*
X0058820Y0021187D01*
X0058976Y0021215D01*
X0059132Y0021239D01*
X0059289Y0021259D01*
X0059447Y0021275D01*
X0059604Y0021287D01*
X0059763Y0021295D01*
X0059921Y0021299D01*
X0060079Y0021299D01*
X0060237Y0021295D01*
X0060396Y0021287D01*
X0060553Y0021275D01*
X0060711Y0021259D01*
X0060868Y0021239D01*
X0061024Y0021215D01*
X0061180Y0021187D01*
X0061335Y0021156D01*
X0061490Y0021120D01*
X0061643Y0021081D01*
X0061795Y0021038D01*
X0061946Y0020991D01*
X0062096Y0020940D01*
X0062245Y0020885D01*
X0062392Y0020827D01*
X0062538Y0020765D01*
X0062682Y0020700D01*
X0062824Y0020630D01*
X0062965Y0020558D01*
X0063104Y0020481D01*
X0063240Y0020402D01*
X0063375Y0020318D01*
X0063508Y0020232D01*
X0063638Y0020142D01*
X0063766Y0020049D01*
X0063892Y0019953D01*
X0064015Y0019853D01*
X0064136Y0019751D01*
X0064254Y0019646D01*
X0064369Y0019537D01*
X0064482Y0019426D01*
X0064592Y0019312D01*
X0064699Y0019195D01*
X0064803Y0019076D01*
X0064904Y0018954D01*
X0065001Y0018829D01*
X0065096Y0018702D01*
X0065187Y0018573D01*
X0065276Y0018442D01*
X0065360Y0018308D01*
X0065442Y0018172D01*
X0065520Y0018035D01*
X0065594Y0017895D01*
X0065665Y0017753D01*
X0065733Y0017610D01*
X0065797Y0017465D01*
X0065857Y0017319D01*
X0065913Y0017171D01*
X0065966Y0017022D01*
X0066015Y0016871D01*
X0066060Y0016719D01*
X0066101Y0016566D01*
X0066139Y0016413D01*
X0066172Y0016258D01*
X0066202Y0016102D01*
X0066228Y0015946D01*
X0066249Y0015789D01*
X0066267Y0015632D01*
X0066281Y0015474D01*
X0066291Y0015316D01*
X0066297Y0015158D01*
X0066299Y0015000D01*
X0066297Y0014842D01*
X0066291Y0014684D01*
X0066281Y0014526D01*
X0066267Y0014368D01*
X0066249Y0014211D01*
X0066228Y0014054D01*
X0066202Y0013898D01*
X0066172Y0013742D01*
X0066139Y0013587D01*
X0066101Y0013434D01*
X0066060Y0013281D01*
X0066015Y0013129D01*
X0065966Y0012978D01*
X0065913Y0012829D01*
X0065857Y0012681D01*
X0065797Y0012535D01*
X0065733Y0012390D01*
X0065665Y0012247D01*
X0065594Y0012105D01*
X0065520Y0011965D01*
X0065442Y0011828D01*
X0065360Y0011692D01*
X0065276Y0011558D01*
X0065187Y0011427D01*
X0065096Y0011298D01*
X0065001Y0011171D01*
X0064904Y0011046D01*
X0064803Y0010924D01*
X0064699Y0010805D01*
X0064592Y0010688D01*
X0064482Y0010574D01*
X0064369Y0010463D01*
X0064254Y0010354D01*
X0064136Y0010249D01*
X0064015Y0010147D01*
X0063892Y0010047D01*
X0063766Y0009951D01*
X0063638Y0009858D01*
X0063508Y0009768D01*
X0063375Y0009682D01*
X0063240Y0009598D01*
X0063104Y0009519D01*
X0062965Y0009442D01*
X0062824Y0009370D01*
X0062682Y0009300D01*
X0062538Y0009235D01*
X0062392Y0009173D01*
X0062245Y0009115D01*
X0062096Y0009060D01*
X0061946Y0009009D01*
X0061795Y0008962D01*
X0061643Y0008919D01*
X0061490Y0008880D01*
X0061335Y0008844D01*
X0061180Y0008813D01*
X0061024Y0008785D01*
X0060868Y0008761D01*
X0060711Y0008741D01*
X0060553Y0008725D01*
X0060396Y0008713D01*
X0060237Y0008705D01*
X0060079Y0008701D01*
X0059921Y0008701D01*
X0059763Y0008705D01*
X0059604Y0008713D01*
X0059447Y0008725D01*
X0059289Y0008741D01*
X0059132Y0008761D01*
X0058976Y0008785D01*
X0058820Y0008813D01*
X0058665Y0008844D01*
X0058510Y0008880D01*
X0058357Y0008919D01*
X0058205Y0008962D01*
X0058054Y0009009D01*
X0057904Y0009060D01*
X0057755Y0009115D01*
X0057608Y0009173D01*
X0057462Y0009235D01*
X0057318Y0009300D01*
X0057176Y0009370D01*
X0057035Y0009442D01*
X0056896Y0009519D01*
X0056760Y0009598D01*
X0056625Y0009682D01*
X0056492Y0009768D01*
X0056362Y0009858D01*
X0056234Y0009951D01*
X0056108Y0010047D01*
X0055985Y0010147D01*
X0055864Y0010249D01*
X0055746Y0010354D01*
X0055631Y0010463D01*
X0055518Y0010574D01*
X0055408Y0010688D01*
X0055301Y0010805D01*
X0055197Y0010924D01*
X0055096Y0011046D01*
X0054999Y0011171D01*
X0054904Y0011298D01*
X0054813Y0011427D01*
X0054724Y0011558D01*
X0054640Y0011692D01*
X0054558Y0011828D01*
X0054480Y0011965D01*
X0054406Y0012105D01*
X0054335Y0012247D01*
X0054267Y0012390D01*
X0054203Y0012535D01*
X0054143Y0012681D01*
X0054087Y0012829D01*
X0054034Y0012978D01*
X0053985Y0013129D01*
X0053940Y0013281D01*
X0053899Y0013434D01*
X0053861Y0013587D01*
X0053828Y0013742D01*
X0053798Y0013898D01*
X0053772Y0014054D01*
X0053751Y0014211D01*
X0053733Y0014368D01*
X0053719Y0014526D01*
X0053709Y0014684D01*
X0053703Y0014842D01*
X0053701Y0015000D01*
X0378701Y0015000D02*
X0378703Y0015158D01*
X0378709Y0015316D01*
X0378719Y0015474D01*
X0378733Y0015632D01*
X0378751Y0015789D01*
X0378772Y0015946D01*
X0378798Y0016102D01*
X0378828Y0016258D01*
X0378861Y0016413D01*
X0378899Y0016566D01*
X0378940Y0016719D01*
X0378985Y0016871D01*
X0379034Y0017022D01*
X0379087Y0017171D01*
X0379143Y0017319D01*
X0379203Y0017465D01*
X0379267Y0017610D01*
X0379335Y0017753D01*
X0379406Y0017895D01*
X0379480Y0018035D01*
X0379558Y0018172D01*
X0379640Y0018308D01*
X0379724Y0018442D01*
X0379813Y0018573D01*
X0379904Y0018702D01*
X0379999Y0018829D01*
X0380096Y0018954D01*
X0380197Y0019076D01*
X0380301Y0019195D01*
X0380408Y0019312D01*
X0380518Y0019426D01*
X0380631Y0019537D01*
X0380746Y0019646D01*
X0380864Y0019751D01*
X0380985Y0019853D01*
X0381108Y0019953D01*
X0381234Y0020049D01*
X0381362Y0020142D01*
X0381492Y0020232D01*
X0381625Y0020318D01*
X0381760Y0020402D01*
X0381896Y0020481D01*
X0382035Y0020558D01*
X0382176Y0020630D01*
X0382318Y0020700D01*
X0382462Y0020765D01*
X0382608Y0020827D01*
X0382755Y0020885D01*
X0382904Y0020940D01*
X0383054Y0020991D01*
X0383205Y0021038D01*
X0383357Y0021081D01*
X0383510Y0021120D01*
X0383665Y0021156D01*
X0383820Y0021187D01*
X0383976Y0021215D01*
X0384132Y0021239D01*
X0384289Y0021259D01*
X0384447Y0021275D01*
X0384604Y0021287D01*
X0384763Y0021295D01*
X0384921Y0021299D01*
X0385079Y0021299D01*
X0385237Y0021295D01*
X0385396Y0021287D01*
X0385553Y0021275D01*
X0385711Y0021259D01*
X0385868Y0021239D01*
X0386024Y0021215D01*
X0386180Y0021187D01*
X0386335Y0021156D01*
X0386490Y0021120D01*
X0386643Y0021081D01*
X0386795Y0021038D01*
X0386946Y0020991D01*
X0387096Y0020940D01*
X0387245Y0020885D01*
X0387392Y0020827D01*
X0387538Y0020765D01*
X0387682Y0020700D01*
X0387824Y0020630D01*
X0387965Y0020558D01*
X0388104Y0020481D01*
X0388240Y0020402D01*
X0388375Y0020318D01*
X0388508Y0020232D01*
X0388638Y0020142D01*
X0388766Y0020049D01*
X0388892Y0019953D01*
X0389015Y0019853D01*
X0389136Y0019751D01*
X0389254Y0019646D01*
X0389369Y0019537D01*
X0389482Y0019426D01*
X0389592Y0019312D01*
X0389699Y0019195D01*
X0389803Y0019076D01*
X0389904Y0018954D01*
X0390001Y0018829D01*
X0390096Y0018702D01*
X0390187Y0018573D01*
X0390276Y0018442D01*
X0390360Y0018308D01*
X0390442Y0018172D01*
X0390520Y0018035D01*
X0390594Y0017895D01*
X0390665Y0017753D01*
X0390733Y0017610D01*
X0390797Y0017465D01*
X0390857Y0017319D01*
X0390913Y0017171D01*
X0390966Y0017022D01*
X0391015Y0016871D01*
X0391060Y0016719D01*
X0391101Y0016566D01*
X0391139Y0016413D01*
X0391172Y0016258D01*
X0391202Y0016102D01*
X0391228Y0015946D01*
X0391249Y0015789D01*
X0391267Y0015632D01*
X0391281Y0015474D01*
X0391291Y0015316D01*
X0391297Y0015158D01*
X0391299Y0015000D01*
X0391297Y0014842D01*
X0391291Y0014684D01*
X0391281Y0014526D01*
X0391267Y0014368D01*
X0391249Y0014211D01*
X0391228Y0014054D01*
X0391202Y0013898D01*
X0391172Y0013742D01*
X0391139Y0013587D01*
X0391101Y0013434D01*
X0391060Y0013281D01*
X0391015Y0013129D01*
X0390966Y0012978D01*
X0390913Y0012829D01*
X0390857Y0012681D01*
X0390797Y0012535D01*
X0390733Y0012390D01*
X0390665Y0012247D01*
X0390594Y0012105D01*
X0390520Y0011965D01*
X0390442Y0011828D01*
X0390360Y0011692D01*
X0390276Y0011558D01*
X0390187Y0011427D01*
X0390096Y0011298D01*
X0390001Y0011171D01*
X0389904Y0011046D01*
X0389803Y0010924D01*
X0389699Y0010805D01*
X0389592Y0010688D01*
X0389482Y0010574D01*
X0389369Y0010463D01*
X0389254Y0010354D01*
X0389136Y0010249D01*
X0389015Y0010147D01*
X0388892Y0010047D01*
X0388766Y0009951D01*
X0388638Y0009858D01*
X0388508Y0009768D01*
X0388375Y0009682D01*
X0388240Y0009598D01*
X0388104Y0009519D01*
X0387965Y0009442D01*
X0387824Y0009370D01*
X0387682Y0009300D01*
X0387538Y0009235D01*
X0387392Y0009173D01*
X0387245Y0009115D01*
X0387096Y0009060D01*
X0386946Y0009009D01*
X0386795Y0008962D01*
X0386643Y0008919D01*
X0386490Y0008880D01*
X0386335Y0008844D01*
X0386180Y0008813D01*
X0386024Y0008785D01*
X0385868Y0008761D01*
X0385711Y0008741D01*
X0385553Y0008725D01*
X0385396Y0008713D01*
X0385237Y0008705D01*
X0385079Y0008701D01*
X0384921Y0008701D01*
X0384763Y0008705D01*
X0384604Y0008713D01*
X0384447Y0008725D01*
X0384289Y0008741D01*
X0384132Y0008761D01*
X0383976Y0008785D01*
X0383820Y0008813D01*
X0383665Y0008844D01*
X0383510Y0008880D01*
X0383357Y0008919D01*
X0383205Y0008962D01*
X0383054Y0009009D01*
X0382904Y0009060D01*
X0382755Y0009115D01*
X0382608Y0009173D01*
X0382462Y0009235D01*
X0382318Y0009300D01*
X0382176Y0009370D01*
X0382035Y0009442D01*
X0381896Y0009519D01*
X0381760Y0009598D01*
X0381625Y0009682D01*
X0381492Y0009768D01*
X0381362Y0009858D01*
X0381234Y0009951D01*
X0381108Y0010047D01*
X0380985Y0010147D01*
X0380864Y0010249D01*
X0380746Y0010354D01*
X0380631Y0010463D01*
X0380518Y0010574D01*
X0380408Y0010688D01*
X0380301Y0010805D01*
X0380197Y0010924D01*
X0380096Y0011046D01*
X0379999Y0011171D01*
X0379904Y0011298D01*
X0379813Y0011427D01*
X0379724Y0011558D01*
X0379640Y0011692D01*
X0379558Y0011828D01*
X0379480Y0011965D01*
X0379406Y0012105D01*
X0379335Y0012247D01*
X0379267Y0012390D01*
X0379203Y0012535D01*
X0379143Y0012681D01*
X0379087Y0012829D01*
X0379034Y0012978D01*
X0378985Y0013129D01*
X0378940Y0013281D01*
X0378899Y0013434D01*
X0378861Y0013587D01*
X0378828Y0013742D01*
X0378798Y0013898D01*
X0378772Y0014054D01*
X0378751Y0014211D01*
X0378733Y0014368D01*
X0378719Y0014526D01*
X0378709Y0014684D01*
X0378703Y0014842D01*
X0378701Y0015000D01*
X0353701Y0205000D02*
X0353703Y0205158D01*
X0353709Y0205316D01*
X0353719Y0205474D01*
X0353733Y0205632D01*
X0353751Y0205789D01*
X0353772Y0205946D01*
X0353798Y0206102D01*
X0353828Y0206258D01*
X0353861Y0206413D01*
X0353899Y0206566D01*
X0353940Y0206719D01*
X0353985Y0206871D01*
X0354034Y0207022D01*
X0354087Y0207171D01*
X0354143Y0207319D01*
X0354203Y0207465D01*
X0354267Y0207610D01*
X0354335Y0207753D01*
X0354406Y0207895D01*
X0354480Y0208035D01*
X0354558Y0208172D01*
X0354640Y0208308D01*
X0354724Y0208442D01*
X0354813Y0208573D01*
X0354904Y0208702D01*
X0354999Y0208829D01*
X0355096Y0208954D01*
X0355197Y0209076D01*
X0355301Y0209195D01*
X0355408Y0209312D01*
X0355518Y0209426D01*
X0355631Y0209537D01*
X0355746Y0209646D01*
X0355864Y0209751D01*
X0355985Y0209853D01*
X0356108Y0209953D01*
X0356234Y0210049D01*
X0356362Y0210142D01*
X0356492Y0210232D01*
X0356625Y0210318D01*
X0356760Y0210402D01*
X0356896Y0210481D01*
X0357035Y0210558D01*
X0357176Y0210630D01*
X0357318Y0210700D01*
X0357462Y0210765D01*
X0357608Y0210827D01*
X0357755Y0210885D01*
X0357904Y0210940D01*
X0358054Y0210991D01*
X0358205Y0211038D01*
X0358357Y0211081D01*
X0358510Y0211120D01*
X0358665Y0211156D01*
X0358820Y0211187D01*
X0358976Y0211215D01*
X0359132Y0211239D01*
X0359289Y0211259D01*
X0359447Y0211275D01*
X0359604Y0211287D01*
X0359763Y0211295D01*
X0359921Y0211299D01*
X0360079Y0211299D01*
X0360237Y0211295D01*
X0360396Y0211287D01*
X0360553Y0211275D01*
X0360711Y0211259D01*
X0360868Y0211239D01*
X0361024Y0211215D01*
X0361180Y0211187D01*
X0361335Y0211156D01*
X0361490Y0211120D01*
X0361643Y0211081D01*
X0361795Y0211038D01*
X0361946Y0210991D01*
X0362096Y0210940D01*
X0362245Y0210885D01*
X0362392Y0210827D01*
X0362538Y0210765D01*
X0362682Y0210700D01*
X0362824Y0210630D01*
X0362965Y0210558D01*
X0363104Y0210481D01*
X0363240Y0210402D01*
X0363375Y0210318D01*
X0363508Y0210232D01*
X0363638Y0210142D01*
X0363766Y0210049D01*
X0363892Y0209953D01*
X0364015Y0209853D01*
X0364136Y0209751D01*
X0364254Y0209646D01*
X0364369Y0209537D01*
X0364482Y0209426D01*
X0364592Y0209312D01*
X0364699Y0209195D01*
X0364803Y0209076D01*
X0364904Y0208954D01*
X0365001Y0208829D01*
X0365096Y0208702D01*
X0365187Y0208573D01*
X0365276Y0208442D01*
X0365360Y0208308D01*
X0365442Y0208172D01*
X0365520Y0208035D01*
X0365594Y0207895D01*
X0365665Y0207753D01*
X0365733Y0207610D01*
X0365797Y0207465D01*
X0365857Y0207319D01*
X0365913Y0207171D01*
X0365966Y0207022D01*
X0366015Y0206871D01*
X0366060Y0206719D01*
X0366101Y0206566D01*
X0366139Y0206413D01*
X0366172Y0206258D01*
X0366202Y0206102D01*
X0366228Y0205946D01*
X0366249Y0205789D01*
X0366267Y0205632D01*
X0366281Y0205474D01*
X0366291Y0205316D01*
X0366297Y0205158D01*
X0366299Y0205000D01*
X0366297Y0204842D01*
X0366291Y0204684D01*
X0366281Y0204526D01*
X0366267Y0204368D01*
X0366249Y0204211D01*
X0366228Y0204054D01*
X0366202Y0203898D01*
X0366172Y0203742D01*
X0366139Y0203587D01*
X0366101Y0203434D01*
X0366060Y0203281D01*
X0366015Y0203129D01*
X0365966Y0202978D01*
X0365913Y0202829D01*
X0365857Y0202681D01*
X0365797Y0202535D01*
X0365733Y0202390D01*
X0365665Y0202247D01*
X0365594Y0202105D01*
X0365520Y0201965D01*
X0365442Y0201828D01*
X0365360Y0201692D01*
X0365276Y0201558D01*
X0365187Y0201427D01*
X0365096Y0201298D01*
X0365001Y0201171D01*
X0364904Y0201046D01*
X0364803Y0200924D01*
X0364699Y0200805D01*
X0364592Y0200688D01*
X0364482Y0200574D01*
X0364369Y0200463D01*
X0364254Y0200354D01*
X0364136Y0200249D01*
X0364015Y0200147D01*
X0363892Y0200047D01*
X0363766Y0199951D01*
X0363638Y0199858D01*
X0363508Y0199768D01*
X0363375Y0199682D01*
X0363240Y0199598D01*
X0363104Y0199519D01*
X0362965Y0199442D01*
X0362824Y0199370D01*
X0362682Y0199300D01*
X0362538Y0199235D01*
X0362392Y0199173D01*
X0362245Y0199115D01*
X0362096Y0199060D01*
X0361946Y0199009D01*
X0361795Y0198962D01*
X0361643Y0198919D01*
X0361490Y0198880D01*
X0361335Y0198844D01*
X0361180Y0198813D01*
X0361024Y0198785D01*
X0360868Y0198761D01*
X0360711Y0198741D01*
X0360553Y0198725D01*
X0360396Y0198713D01*
X0360237Y0198705D01*
X0360079Y0198701D01*
X0359921Y0198701D01*
X0359763Y0198705D01*
X0359604Y0198713D01*
X0359447Y0198725D01*
X0359289Y0198741D01*
X0359132Y0198761D01*
X0358976Y0198785D01*
X0358820Y0198813D01*
X0358665Y0198844D01*
X0358510Y0198880D01*
X0358357Y0198919D01*
X0358205Y0198962D01*
X0358054Y0199009D01*
X0357904Y0199060D01*
X0357755Y0199115D01*
X0357608Y0199173D01*
X0357462Y0199235D01*
X0357318Y0199300D01*
X0357176Y0199370D01*
X0357035Y0199442D01*
X0356896Y0199519D01*
X0356760Y0199598D01*
X0356625Y0199682D01*
X0356492Y0199768D01*
X0356362Y0199858D01*
X0356234Y0199951D01*
X0356108Y0200047D01*
X0355985Y0200147D01*
X0355864Y0200249D01*
X0355746Y0200354D01*
X0355631Y0200463D01*
X0355518Y0200574D01*
X0355408Y0200688D01*
X0355301Y0200805D01*
X0355197Y0200924D01*
X0355096Y0201046D01*
X0354999Y0201171D01*
X0354904Y0201298D01*
X0354813Y0201427D01*
X0354724Y0201558D01*
X0354640Y0201692D01*
X0354558Y0201828D01*
X0354480Y0201965D01*
X0354406Y0202105D01*
X0354335Y0202247D01*
X0354267Y0202390D01*
X0354203Y0202535D01*
X0354143Y0202681D01*
X0354087Y0202829D01*
X0354034Y0202978D01*
X0353985Y0203129D01*
X0353940Y0203281D01*
X0353899Y0203434D01*
X0353861Y0203587D01*
X0353828Y0203742D01*
X0353798Y0203898D01*
X0353772Y0204054D01*
X0353751Y0204211D01*
X0353733Y0204368D01*
X0353719Y0204526D01*
X0353709Y0204684D01*
X0353703Y0204842D01*
X0353701Y0205000D01*
X0058701Y0205000D02*
X0058703Y0205158D01*
X0058709Y0205316D01*
X0058719Y0205474D01*
X0058733Y0205632D01*
X0058751Y0205789D01*
X0058772Y0205946D01*
X0058798Y0206102D01*
X0058828Y0206258D01*
X0058861Y0206413D01*
X0058899Y0206566D01*
X0058940Y0206719D01*
X0058985Y0206871D01*
X0059034Y0207022D01*
X0059087Y0207171D01*
X0059143Y0207319D01*
X0059203Y0207465D01*
X0059267Y0207610D01*
X0059335Y0207753D01*
X0059406Y0207895D01*
X0059480Y0208035D01*
X0059558Y0208172D01*
X0059640Y0208308D01*
X0059724Y0208442D01*
X0059813Y0208573D01*
X0059904Y0208702D01*
X0059999Y0208829D01*
X0060096Y0208954D01*
X0060197Y0209076D01*
X0060301Y0209195D01*
X0060408Y0209312D01*
X0060518Y0209426D01*
X0060631Y0209537D01*
X0060746Y0209646D01*
X0060864Y0209751D01*
X0060985Y0209853D01*
X0061108Y0209953D01*
X0061234Y0210049D01*
X0061362Y0210142D01*
X0061492Y0210232D01*
X0061625Y0210318D01*
X0061760Y0210402D01*
X0061896Y0210481D01*
X0062035Y0210558D01*
X0062176Y0210630D01*
X0062318Y0210700D01*
X0062462Y0210765D01*
X0062608Y0210827D01*
X0062755Y0210885D01*
X0062904Y0210940D01*
X0063054Y0210991D01*
X0063205Y0211038D01*
X0063357Y0211081D01*
X0063510Y0211120D01*
X0063665Y0211156D01*
X0063820Y0211187D01*
X0063976Y0211215D01*
X0064132Y0211239D01*
X0064289Y0211259D01*
X0064447Y0211275D01*
X0064604Y0211287D01*
X0064763Y0211295D01*
X0064921Y0211299D01*
X0065079Y0211299D01*
X0065237Y0211295D01*
X0065396Y0211287D01*
X0065553Y0211275D01*
X0065711Y0211259D01*
X0065868Y0211239D01*
X0066024Y0211215D01*
X0066180Y0211187D01*
X0066335Y0211156D01*
X0066490Y0211120D01*
X0066643Y0211081D01*
X0066795Y0211038D01*
X0066946Y0210991D01*
X0067096Y0210940D01*
X0067245Y0210885D01*
X0067392Y0210827D01*
X0067538Y0210765D01*
X0067682Y0210700D01*
X0067824Y0210630D01*
X0067965Y0210558D01*
X0068104Y0210481D01*
X0068240Y0210402D01*
X0068375Y0210318D01*
X0068508Y0210232D01*
X0068638Y0210142D01*
X0068766Y0210049D01*
X0068892Y0209953D01*
X0069015Y0209853D01*
X0069136Y0209751D01*
X0069254Y0209646D01*
X0069369Y0209537D01*
X0069482Y0209426D01*
X0069592Y0209312D01*
X0069699Y0209195D01*
X0069803Y0209076D01*
X0069904Y0208954D01*
X0070001Y0208829D01*
X0070096Y0208702D01*
X0070187Y0208573D01*
X0070276Y0208442D01*
X0070360Y0208308D01*
X0070442Y0208172D01*
X0070520Y0208035D01*
X0070594Y0207895D01*
X0070665Y0207753D01*
X0070733Y0207610D01*
X0070797Y0207465D01*
X0070857Y0207319D01*
X0070913Y0207171D01*
X0070966Y0207022D01*
X0071015Y0206871D01*
X0071060Y0206719D01*
X0071101Y0206566D01*
X0071139Y0206413D01*
X0071172Y0206258D01*
X0071202Y0206102D01*
X0071228Y0205946D01*
X0071249Y0205789D01*
X0071267Y0205632D01*
X0071281Y0205474D01*
X0071291Y0205316D01*
X0071297Y0205158D01*
X0071299Y0205000D01*
X0071297Y0204842D01*
X0071291Y0204684D01*
X0071281Y0204526D01*
X0071267Y0204368D01*
X0071249Y0204211D01*
X0071228Y0204054D01*
X0071202Y0203898D01*
X0071172Y0203742D01*
X0071139Y0203587D01*
X0071101Y0203434D01*
X0071060Y0203281D01*
X0071015Y0203129D01*
X0070966Y0202978D01*
X0070913Y0202829D01*
X0070857Y0202681D01*
X0070797Y0202535D01*
X0070733Y0202390D01*
X0070665Y0202247D01*
X0070594Y0202105D01*
X0070520Y0201965D01*
X0070442Y0201828D01*
X0070360Y0201692D01*
X0070276Y0201558D01*
X0070187Y0201427D01*
X0070096Y0201298D01*
X0070001Y0201171D01*
X0069904Y0201046D01*
X0069803Y0200924D01*
X0069699Y0200805D01*
X0069592Y0200688D01*
X0069482Y0200574D01*
X0069369Y0200463D01*
X0069254Y0200354D01*
X0069136Y0200249D01*
X0069015Y0200147D01*
X0068892Y0200047D01*
X0068766Y0199951D01*
X0068638Y0199858D01*
X0068508Y0199768D01*
X0068375Y0199682D01*
X0068240Y0199598D01*
X0068104Y0199519D01*
X0067965Y0199442D01*
X0067824Y0199370D01*
X0067682Y0199300D01*
X0067538Y0199235D01*
X0067392Y0199173D01*
X0067245Y0199115D01*
X0067096Y0199060D01*
X0066946Y0199009D01*
X0066795Y0198962D01*
X0066643Y0198919D01*
X0066490Y0198880D01*
X0066335Y0198844D01*
X0066180Y0198813D01*
X0066024Y0198785D01*
X0065868Y0198761D01*
X0065711Y0198741D01*
X0065553Y0198725D01*
X0065396Y0198713D01*
X0065237Y0198705D01*
X0065079Y0198701D01*
X0064921Y0198701D01*
X0064763Y0198705D01*
X0064604Y0198713D01*
X0064447Y0198725D01*
X0064289Y0198741D01*
X0064132Y0198761D01*
X0063976Y0198785D01*
X0063820Y0198813D01*
X0063665Y0198844D01*
X0063510Y0198880D01*
X0063357Y0198919D01*
X0063205Y0198962D01*
X0063054Y0199009D01*
X0062904Y0199060D01*
X0062755Y0199115D01*
X0062608Y0199173D01*
X0062462Y0199235D01*
X0062318Y0199300D01*
X0062176Y0199370D01*
X0062035Y0199442D01*
X0061896Y0199519D01*
X0061760Y0199598D01*
X0061625Y0199682D01*
X0061492Y0199768D01*
X0061362Y0199858D01*
X0061234Y0199951D01*
X0061108Y0200047D01*
X0060985Y0200147D01*
X0060864Y0200249D01*
X0060746Y0200354D01*
X0060631Y0200463D01*
X0060518Y0200574D01*
X0060408Y0200688D01*
X0060301Y0200805D01*
X0060197Y0200924D01*
X0060096Y0201046D01*
X0059999Y0201171D01*
X0059904Y0201298D01*
X0059813Y0201427D01*
X0059724Y0201558D01*
X0059640Y0201692D01*
X0059558Y0201828D01*
X0059480Y0201965D01*
X0059406Y0202105D01*
X0059335Y0202247D01*
X0059267Y0202390D01*
X0059203Y0202535D01*
X0059143Y0202681D01*
X0059087Y0202829D01*
X0059034Y0202978D01*
X0058985Y0203129D01*
X0058940Y0203281D01*
X0058899Y0203434D01*
X0058861Y0203587D01*
X0058828Y0203742D01*
X0058798Y0203898D01*
X0058772Y0204054D01*
X0058751Y0204211D01*
X0058733Y0204368D01*
X0058719Y0204526D01*
X0058709Y0204684D01*
X0058703Y0204842D01*
X0058701Y0205000D01*
M02*
