G75*
%MOIN*%
%OFA0B0*%
%FSLAX25Y25*%
%IPPOS*%
%LPD*%
%AMOC8*
5,1,8,0,0,1.08239X$1,22.5*
%
%ADD10C,0.00500*%
%ADD11C,0.03981*%
%ADD12R,0.05800X0.03300*%
%ADD13C,0.04737*%
D10*
X0015000Y0005000D02*
X0395000Y0005000D01*
X0395242Y0005003D01*
X0395483Y0005012D01*
X0395724Y0005026D01*
X0395965Y0005047D01*
X0396205Y0005073D01*
X0396445Y0005105D01*
X0396684Y0005143D01*
X0396921Y0005186D01*
X0397158Y0005236D01*
X0397393Y0005291D01*
X0397627Y0005351D01*
X0397859Y0005418D01*
X0398090Y0005489D01*
X0398319Y0005567D01*
X0398546Y0005650D01*
X0398771Y0005738D01*
X0398994Y0005832D01*
X0399214Y0005931D01*
X0399432Y0006036D01*
X0399647Y0006145D01*
X0399860Y0006260D01*
X0400070Y0006380D01*
X0400276Y0006505D01*
X0400480Y0006635D01*
X0400681Y0006770D01*
X0400878Y0006910D01*
X0401072Y0007054D01*
X0401262Y0007203D01*
X0401448Y0007357D01*
X0401631Y0007515D01*
X0401810Y0007677D01*
X0401985Y0007844D01*
X0402156Y0008015D01*
X0402323Y0008190D01*
X0402485Y0008369D01*
X0402643Y0008552D01*
X0402797Y0008738D01*
X0402946Y0008928D01*
X0403090Y0009122D01*
X0403230Y0009319D01*
X0403365Y0009520D01*
X0403495Y0009724D01*
X0403620Y0009930D01*
X0403740Y0010140D01*
X0403855Y0010353D01*
X0403964Y0010568D01*
X0404069Y0010786D01*
X0404168Y0011006D01*
X0404262Y0011229D01*
X0404350Y0011454D01*
X0404433Y0011681D01*
X0404511Y0011910D01*
X0404582Y0012141D01*
X0404649Y0012373D01*
X0404709Y0012607D01*
X0404764Y0012842D01*
X0404814Y0013079D01*
X0404857Y0013316D01*
X0404895Y0013555D01*
X0404927Y0013795D01*
X0404953Y0014035D01*
X0404974Y0014276D01*
X0404988Y0014517D01*
X0404997Y0014758D01*
X0405000Y0015000D01*
X0405000Y0295000D01*
X0404997Y0295242D01*
X0404988Y0295483D01*
X0404974Y0295724D01*
X0404953Y0295965D01*
X0404927Y0296205D01*
X0404895Y0296445D01*
X0404857Y0296684D01*
X0404814Y0296921D01*
X0404764Y0297158D01*
X0404709Y0297393D01*
X0404649Y0297627D01*
X0404582Y0297859D01*
X0404511Y0298090D01*
X0404433Y0298319D01*
X0404350Y0298546D01*
X0404262Y0298771D01*
X0404168Y0298994D01*
X0404069Y0299214D01*
X0403964Y0299432D01*
X0403855Y0299647D01*
X0403740Y0299860D01*
X0403620Y0300070D01*
X0403495Y0300276D01*
X0403365Y0300480D01*
X0403230Y0300681D01*
X0403090Y0300878D01*
X0402946Y0301072D01*
X0402797Y0301262D01*
X0402643Y0301448D01*
X0402485Y0301631D01*
X0402323Y0301810D01*
X0402156Y0301985D01*
X0401985Y0302156D01*
X0401810Y0302323D01*
X0401631Y0302485D01*
X0401448Y0302643D01*
X0401262Y0302797D01*
X0401072Y0302946D01*
X0400878Y0303090D01*
X0400681Y0303230D01*
X0400480Y0303365D01*
X0400276Y0303495D01*
X0400070Y0303620D01*
X0399860Y0303740D01*
X0399647Y0303855D01*
X0399432Y0303964D01*
X0399214Y0304069D01*
X0398994Y0304168D01*
X0398771Y0304262D01*
X0398546Y0304350D01*
X0398319Y0304433D01*
X0398090Y0304511D01*
X0397859Y0304582D01*
X0397627Y0304649D01*
X0397393Y0304709D01*
X0397158Y0304764D01*
X0396921Y0304814D01*
X0396684Y0304857D01*
X0396445Y0304895D01*
X0396205Y0304927D01*
X0395965Y0304953D01*
X0395724Y0304974D01*
X0395483Y0304988D01*
X0395242Y0304997D01*
X0395000Y0305000D01*
X0015000Y0305000D01*
X0014758Y0304997D01*
X0014517Y0304988D01*
X0014276Y0304974D01*
X0014035Y0304953D01*
X0013795Y0304927D01*
X0013555Y0304895D01*
X0013316Y0304857D01*
X0013079Y0304814D01*
X0012842Y0304764D01*
X0012607Y0304709D01*
X0012373Y0304649D01*
X0012141Y0304582D01*
X0011910Y0304511D01*
X0011681Y0304433D01*
X0011454Y0304350D01*
X0011229Y0304262D01*
X0011006Y0304168D01*
X0010786Y0304069D01*
X0010568Y0303964D01*
X0010353Y0303855D01*
X0010140Y0303740D01*
X0009930Y0303620D01*
X0009724Y0303495D01*
X0009520Y0303365D01*
X0009319Y0303230D01*
X0009122Y0303090D01*
X0008928Y0302946D01*
X0008738Y0302797D01*
X0008552Y0302643D01*
X0008369Y0302485D01*
X0008190Y0302323D01*
X0008015Y0302156D01*
X0007844Y0301985D01*
X0007677Y0301810D01*
X0007515Y0301631D01*
X0007357Y0301448D01*
X0007203Y0301262D01*
X0007054Y0301072D01*
X0006910Y0300878D01*
X0006770Y0300681D01*
X0006635Y0300480D01*
X0006505Y0300276D01*
X0006380Y0300070D01*
X0006260Y0299860D01*
X0006145Y0299647D01*
X0006036Y0299432D01*
X0005931Y0299214D01*
X0005832Y0298994D01*
X0005738Y0298771D01*
X0005650Y0298546D01*
X0005567Y0298319D01*
X0005489Y0298090D01*
X0005418Y0297859D01*
X0005351Y0297627D01*
X0005291Y0297393D01*
X0005236Y0297158D01*
X0005186Y0296921D01*
X0005143Y0296684D01*
X0005105Y0296445D01*
X0005073Y0296205D01*
X0005047Y0295965D01*
X0005026Y0295724D01*
X0005012Y0295483D01*
X0005003Y0295242D01*
X0005000Y0295000D01*
X0005000Y0015000D01*
X0005003Y0014758D01*
X0005012Y0014517D01*
X0005026Y0014276D01*
X0005047Y0014035D01*
X0005073Y0013795D01*
X0005105Y0013555D01*
X0005143Y0013316D01*
X0005186Y0013079D01*
X0005236Y0012842D01*
X0005291Y0012607D01*
X0005351Y0012373D01*
X0005418Y0012141D01*
X0005489Y0011910D01*
X0005567Y0011681D01*
X0005650Y0011454D01*
X0005738Y0011229D01*
X0005832Y0011006D01*
X0005931Y0010786D01*
X0006036Y0010568D01*
X0006145Y0010353D01*
X0006260Y0010140D01*
X0006380Y0009930D01*
X0006505Y0009724D01*
X0006635Y0009520D01*
X0006770Y0009319D01*
X0006910Y0009122D01*
X0007054Y0008928D01*
X0007203Y0008738D01*
X0007357Y0008552D01*
X0007515Y0008369D01*
X0007677Y0008190D01*
X0007844Y0008015D01*
X0008015Y0007844D01*
X0008190Y0007677D01*
X0008369Y0007515D01*
X0008552Y0007357D01*
X0008738Y0007203D01*
X0008928Y0007054D01*
X0009122Y0006910D01*
X0009319Y0006770D01*
X0009520Y0006635D01*
X0009724Y0006505D01*
X0009930Y0006380D01*
X0010140Y0006260D01*
X0010353Y0006145D01*
X0010568Y0006036D01*
X0010786Y0005931D01*
X0011006Y0005832D01*
X0011229Y0005738D01*
X0011454Y0005650D01*
X0011681Y0005567D01*
X0011910Y0005489D01*
X0012141Y0005418D01*
X0012373Y0005351D01*
X0012607Y0005291D01*
X0012842Y0005236D01*
X0013079Y0005186D01*
X0013316Y0005143D01*
X0013555Y0005105D01*
X0013795Y0005073D01*
X0014035Y0005047D01*
X0014276Y0005026D01*
X0014517Y0005012D01*
X0014758Y0005003D01*
X0015000Y0005000D01*
D11*
X0055000Y0015000D03*
X0105000Y0015000D03*
X0155000Y0015000D03*
X0205000Y0015000D03*
X0255000Y0015000D03*
X0305000Y0015000D03*
X0355000Y0015000D03*
X0330000Y0155000D03*
X0280000Y0155000D03*
X0230000Y0155000D03*
X0180000Y0155000D03*
X0130000Y0155000D03*
X0080000Y0155000D03*
X0055000Y0295000D03*
X0105000Y0295000D03*
X0155000Y0295000D03*
X0205000Y0295000D03*
X0255000Y0295000D03*
X0305000Y0295000D03*
X0355000Y0295000D03*
D12*
X0377500Y0280000D03*
X0377500Y0270000D03*
X0377500Y0260000D03*
X0377500Y0250000D03*
X0377500Y0240000D03*
X0377500Y0230000D03*
X0377500Y0220000D03*
X0377500Y0210000D03*
X0377500Y0200000D03*
X0377500Y0190000D03*
X0377500Y0180000D03*
X0377500Y0170000D03*
X0377500Y0160000D03*
X0377500Y0150000D03*
X0377500Y0140000D03*
X0377500Y0130000D03*
X0377500Y0120000D03*
X0377500Y0110000D03*
X0377500Y0100000D03*
X0377500Y0090000D03*
X0377500Y0080000D03*
X0377500Y0070000D03*
X0377500Y0060000D03*
X0377500Y0050000D03*
X0377500Y0040000D03*
X0377500Y0030000D03*
X0032500Y0030000D03*
X0032500Y0040000D03*
X0032500Y0050000D03*
X0032500Y0060000D03*
X0032500Y0070000D03*
X0032500Y0080000D03*
X0032500Y0090000D03*
X0032500Y0100000D03*
X0032500Y0110000D03*
X0032500Y0120000D03*
X0032500Y0130000D03*
X0032500Y0140000D03*
X0032500Y0150000D03*
X0032500Y0160000D03*
X0032500Y0170000D03*
X0032500Y0180000D03*
X0032500Y0190000D03*
X0032500Y0200000D03*
X0032500Y0210000D03*
X0032500Y0220000D03*
X0032500Y0230000D03*
X0032500Y0240000D03*
X0032500Y0250000D03*
X0032500Y0260000D03*
X0032500Y0270000D03*
X0032500Y0280000D03*
D13*
X0097500Y0232500D03*
X0105000Y0232500D03*
X0105000Y0225000D03*
X0097500Y0225000D03*
X0097500Y0217500D03*
X0105000Y0217500D03*
X0112500Y0217500D03*
X0112500Y0225000D03*
X0112500Y0232500D03*
X0112500Y0092500D03*
X0105000Y0092500D03*
X0097500Y0092500D03*
X0097500Y0085000D03*
X0105000Y0085000D03*
X0105000Y0077500D03*
X0097500Y0077500D03*
X0112500Y0077500D03*
X0112500Y0085000D03*
X0297500Y0085000D03*
X0297500Y0077500D03*
X0305000Y0077500D03*
X0312500Y0077500D03*
X0312500Y0085000D03*
X0305000Y0085000D03*
X0305000Y0092500D03*
X0312500Y0092500D03*
X0297500Y0092500D03*
X0297500Y0217500D03*
X0297500Y0225000D03*
X0297500Y0232500D03*
X0305000Y0232500D03*
X0312500Y0232500D03*
X0312500Y0225000D03*
X0305000Y0225000D03*
X0305000Y0217500D03*
X0312500Y0217500D03*
M02*
