%
M48
M72
T01C0.01181
%
T01
X55000Y15000
X105000Y15000
X155000Y15000
X205000Y15000
X255000Y15000
X305000Y15000
X355000Y15000
X312500Y77500
X305000Y77500
X305000Y85000
X312500Y85000
X312500Y92500
X305000Y92500
X297500Y92500
X297500Y85000
X297500Y77500
X280000Y155000
X230000Y155000
X180000Y155000
X130000Y155000
X80000Y155000
X97500Y92500
X105000Y92500
X112500Y92500
X112500Y85000
X112500Y77500
X105000Y77500
X97500Y77500
X97500Y85000
X105000Y85000
X105000Y217500
X97500Y217500
X97500Y225000
X105000Y225000
X105000Y232500
X97500Y232500
X112500Y232500
X112500Y225000
X112500Y217500
X105000Y295000
X55000Y295000
X155000Y295000
X205000Y295000
X255000Y295000
X305000Y295000
X355000Y295000
X312500Y232500
X305000Y232500
X305000Y225000
X312500Y225000
X312500Y217500
X305000Y217500
X297500Y217500
X297500Y225000
X297500Y232500
X330000Y155000
M30
