  0
SECTION
  2
HEADER
  9
$ACADVER
  1
AC1009
  9
$FILLMODE
 70
1
  9
$EXTMIN
 10
-1.0160
 20
-1.0160
 30
0.0000
  9
$EXTMAX
 10
101.6635
 20
76.2635
 30
0.0000
  0
ENDSEC
  0
SECTION
  2
TABLES
  0
TABLE
  2
LTYPE
 70
1
  0
LTYPE
  2
CONTINUOUS
 70
64
  3
Solid line
 72
65
 73
0
 40
0
  0
ENDTAB
  0
TABLE
  2
LAYER
 70
255
  0
LAYER
  2
17
 70
64
 62
82
  6
CONTINUOUS
  0
LAYER
  2
18
 70
64
 62
82
  6
CONTINUOUS
  0
LAYER
  2
19
 70
64
 62
53
  6
CONTINUOUS
  0
LAYER
  2
20
 70
64
 62
7
  6
CONTINUOUS
  0
LAYER
  2
23
 70
64
 62
7
  6
CONTINUOUS
  0
LAYER
  2
24
 70
64
 62
7
  6
CONTINUOUS
  0
LAYER
  2
25
 70
64
 62
253
  6
CONTINUOUS
  0
LAYER
  2
26
 70
64
 62
253
  6
CONTINUOUS
  0
LAYER
  2
27
 70
64
 62
253
  6
CONTINUOUS
  0
LAYER
  2
28
 70
64
 62
253
  6
CONTINUOUS
  0
LAYER
  2
29
 70
64
 62
253
  6
CONTINUOUS
  0
LAYER
  2
30
 70
64
 62
253
  6
CONTINUOUS
  0
LAYER
  2
31
 70
64
 62
253
  6
CONTINUOUS
  0
LAYER
  2
32
 70
64
 62
253
  6
CONTINUOUS
  0
LAYER
  2
33
 70
64
 62
53
  6
CONTINUOUS
  0
LAYER
  2
34
 70
64
 62
53
  6
CONTINUOUS
  0
LAYER
  2
35
 70
64
 62
253
  6
CONTINUOUS
  0
LAYER
  2
36
 70
64
 62
253
  6
CONTINUOUS
  0
LAYER
  2
37
 70
64
 62
253
  6
CONTINUOUS
  0
LAYER
  2
38
 70
64
 62
253
  6
CONTINUOUS
  0
LAYER
  2
39
 70
64
 62
22
  6
CONTINUOUS
  0
LAYER
  2
40
 70
64
 62
175
  6
CONTINUOUS
  0
LAYER
  2
41
 70
64
 62
22
  6
CONTINUOUS
  0
LAYER
  2
42
 70
64
 62
175
  6
CONTINUOUS
  0
LAYER
  2
43
 70
64
 62
82
  6
CONTINUOUS
  0
LAYER
  2
44
 70
64
 62
253
  6
CONTINUOUS
  0
LAYER
  2
45
 70
64
 62
253
  6
CONTINUOUS
  0
LAYER
  2
46
 70
64
 62
140
  6
CONTINUOUS
  0
LAYER
  2
47
 70
64
 62
253
  6
CONTINUOUS
  0
LAYER
  2
48
 70
64
 62
253
  6
CONTINUOUS
  0
LAYER
  2
49
 70
64
 62
253
  6
CONTINUOUS
  0
LAYER
  2
51
 70
64
 62
253
  6
CONTINUOUS
  0
LAYER
  2
52
 70
64
 62
253
  6
CONTINUOUS
  0
LAYER
  2
101
 70
64
 62
1
  6
CONTINUOUS
  0
LAYER
  2
102
 70
64
 62
253
  6
CONTINUOUS
  0
LAYER
  2
103
 70
64
 62
253
  6
CONTINUOUS
  0
LAYER
  2
104
 70
64
 62
32
  6
CONTINUOUS
  0
LAYER
  2
105
 70
64
 62
253
  6
CONTINUOUS
  0
LAYER
  2
106
 70
64
 62
253
  6
CONTINUOUS
  0
LAYER
  2
107
 70
64
 62
253
  6
CONTINUOUS
  0
LAYER
  2
108
 70
64
 62
3
  6
CONTINUOUS
  0
LAYER
  2
109
 70
64
 62
4
  6
CONTINUOUS
  0
LAYER
  2
110
 70
64
 62
253
  6
CONTINUOUS
  0
LAYER
  2
111
 70
64
 62
253
  6
CONTINUOUS
  0
LAYER
  2
112
 70
64
 62
253
  6
CONTINUOUS
  0
LAYER
  2
113
 70
64
 62
22
  6
CONTINUOUS
  0
LAYER
  2
116
 70
64
 62
5
  6
CONTINUOUS
  0
LAYER
  2
121
 70
64
 62
253
  6
CONTINUOUS
  0
LAYER
  2
122
 70
64
 62
253
  6
CONTINUOUS
  0
LAYER
  2
123
 70
64
 62
253
  6
CONTINUOUS
  0
LAYER
  2
124
 70
64
 62
253
  6
CONTINUOUS
  0
LAYER
  2
125
 70
64
 62
253
  6
CONTINUOUS
  0
LAYER
  2
126
 70
64
 62
253
  6
CONTINUOUS
  0
LAYER
  2
127
 70
64
 62
253
  6
CONTINUOUS
  0
LAYER
  2
128
 70
64
 62
253
  6
CONTINUOUS
  0
LAYER
  2
129
 70
64
 62
253
  6
CONTINUOUS
  0
LAYER
  2
131
 70
64
 62
253
  6
CONTINUOUS
  0
LAYER
  2
132
 70
64
 62
253
  6
CONTINUOUS
  0
LAYER
  2
144
 70
64
 62
253
  6
CONTINUOUS
  0
LAYER
  2
150
 70
64
 62
253
  6
CONTINUOUS
  0
LAYER
  2
151
 70
64
 62
253
  6
CONTINUOUS
  0
LAYER
  2
152
 70
64
 62
253
  6
CONTINUOUS
  0
LAYER
  2
153
 70
64
 62
253
  6
CONTINUOUS
  0
LAYER
  2
154
 70
64
 62
253
  6
CONTINUOUS
  0
LAYER
  2
155
 70
64
 62
253
  6
CONTINUOUS
  0
LAYER
  2
199
 70
64
 62
253
  6
CONTINUOUS
  0
LAYER
  2
200
 70
64
 62
175
  6
CONTINUOUS
  0
LAYER
  2
201
 70
64
 62
82
  6
CONTINUOUS
  0
LAYER
  2
202
 70
64
 62
140
  6
CONTINUOUS
  0
LAYER
  2
203
 70
64
 62
22
  6
CONTINUOUS
  0
LAYER
  2
204
 70
64
 62
213
  6
CONTINUOUS
  0
LAYER
  2
205
 70
64
 62
53
  6
CONTINUOUS
  0
LAYER
  2
206
 70
64
 62
253
  6
CONTINUOUS
  0
LAYER
  2
207
 70
64
 62
250
  6
CONTINUOUS
  0
LAYER
  2
208
 70
64
 62
5
  6
CONTINUOUS
  0
LAYER
  2
209
 70
64
 62
253
  6
CONTINUOUS
  0
LAYER
  2
210
 70
64
 62
253
  6
CONTINUOUS
  0
LAYER
  2
211
 70
64
 62
253
  6
CONTINUOUS
  0
LAYER
  2
212
 70
64
 62
253
  6
CONTINUOUS
  0
LAYER
  2
213
 70
64
 62
253
  6
CONTINUOUS
  0
LAYER
  2
214
 70
64
 62
253
  6
CONTINUOUS
  0
LAYER
  2
215
 70
64
 62
253
  6
CONTINUOUS
  0
LAYER
  2
216
 70
64
 62
253
  6
CONTINUOUS
  0
LAYER
  2
248
 70
64
 62
253
  6
CONTINUOUS
  0
LAYER
  2
249
 70
64
 62
253
  6
CONTINUOUS
  0
LAYER
  2
254
 70
64
 62
253
  6
CONTINUOUS
  0
ENDTAB
  0
ENDSEC
  0
SECTION
  2
BLOCKS
  0
BLOCK
  8
0
  2
RECT
 70
64
 10
0.0000
 20
0.0000
 30
0.0000
  3
RECT
  0
SOLID
  8
0
 10
-0.5000
 20
-0.5000
 30
0.0000
 11
0.5000
 21
-0.5000
 31
0.0000
 12
-0.5000
 22
0.5000
 32
0.0000
 13
0.5000
 23
0.5000
 33
0.0000
  0
ENDBLK
  8
0
  0
BLOCK
  8
0
  2
PIE
 70
64
 10
0.0000
 20
0.0000
 30
0.0000
  3
PIE
  0
POLYLINE
  8
0
 66
1
 10
0.0000
 20
0.0000
 30
0.0000
 40
0.5000
 41
0.5000
 70
0
  0
VERTEX
  8
0
 10
0.0000
 20
-0.2500
 30
0.0000
 42
1.0000
  0
VERTEX
  8
0
 10
0.0000
 20
0.2500
 30
0.0000
 42
1.0000
  0
VERTEX
  8
0
 10
0.0000
 20
-0.2500
 30
0.0000
  0
SEQEND
  8
0
  0
ENDBLK
  8
0
  0
BLOCK
  8
0
  2
OCTAGONP
 70
64
 10
0.0000
 20
0.0000
 30
0.0000
  3
OCTAGONP
  0
POLYLINE
  8
0
 66
1
 10
0.0000
 20
0.0000
 30
0.0000
 40
0.5000
 41
0.5000
 70
0
  0
VERTEX
  8
0
 10
-0.2500
 20
-0.1036
 30
0.0000
  0
VERTEX
  8
0
 10
-0.2500
 20
0.1036
 30
0.0000
  0
VERTEX
  8
0
 10
-0.1036
 20
0.2500
 30
0.0000
  0
VERTEX
  8
0
 10
0.1036
 20
0.2500
 30
0.0000
  0
VERTEX
  8
0
 10
0.2500
 20
0.1036
 30
0.0000
  0
VERTEX
  8
0
 10
0.2500
 20
-0.1036
 30
0.0000
  0
VERTEX
  8
0
 10
0.1036
 20
-0.2500
 30
0.0000
  0
VERTEX
  8
0
 10
-0.1036
 20
-0.2500
 30
0.0000
  0
VERTEX
  8
0
 10
-0.2500
 20
-0.1036
 30
0.0000
  0
VERTEX
  8
0
 10
-0.2500
 20
0.1036
 30
0.0000
  0
SEQEND
  8
0
  0
ENDBLK
  8
0
  0
BLOCK
  8
0
  2
SQUAREP
 70
64
 10
0.0000
 20
0.0000
 30
0.0000
  3
SQUAREP
  0
SOLID
  8
0
 10
-0.5000
 20
-0.5000
 30
0.0000
 11
0.5000
 21
-0.5000
 31
0.0000
 12
-0.5000
 22
0.5000
 32
0.0000
 13
0.5000
 23
0.5000
 33
0.0000
  0
ENDBLK
  8
0
  0
BLOCK
  8
0
  2
ROUNDP
 70
64
 10
0.0000
 20
0.0000
 30
0.0000
  3
ROUNDP
  0
POLYLINE
  8
0
 66
1
 10
0.0000
 20
0.0000
 30
0.0000
 40
0.5000
 41
0.5000
 70
0
  0
VERTEX
  8
0
 10
0.0000
 20
-0.2500
 30
0.0000
 42
1.0000
  0
VERTEX
  8
0
 10
0.0000
 20
0.2500
 30
0.0000
 42
1.0000
  0
VERTEX
  8
0
 10
0.0000
 20
-0.2500
 30
0.0000
  0
SEQEND
  8
0
  0
ENDBLK
  8
0
  0
BLOCK
  8
0
  2
ANNULUSP
 70
64
 10
0.0000
 20
0.0000
 30
0.0000
  3
ANNULUSP
  0
POLYLINE
  8
0
 66
1
 10
0.0000
 20
0.0000
 30
0.0000
 40
0.5000
 41
0.5000
 70
0
  0
VERTEX
  8
0
 10
0.0000
 20
-0.2500
 30
0.0000
 42
1.0000
  0
VERTEX
  8
0
 10
0.0000
 20
0.2500
 30
0.0000
 42
1.0000
  0
VERTEX
  8
0
 10
0.0000
 20
-0.2500
 30
0.0000
  0
SEQEND
  8
0
  0
ENDBLK
  8
0
  0
BLOCK
  8
0
  2
THERMALP
 70
64
 10
0.0000
 20
0.0000
 30
0.0000
  3
THERMALP
  0
POLYLINE
  8
0
 66
1
 10
0.0000
 20
0.0000
 30
0.0000
 40
0.1000
 41
0.1000
 70
0
  0
VERTEX
  8
0
 10
-0.2379
 20
0.4500
 30
0.0000
  0
VERTEX
  8
0
 10
0.2379
 20
0.4500
 30
0.0000
  0
SEQEND
  8
0
  0
POLYLINE
  8
0
 66
1
 10
0.0000
 20
0.0000
 30
0.0000
 40
0.0500
 41
0.0500
 70
0
  0
VERTEX
  8
0
 10
0.2379
 20
0.4250
 30
0.0000
 42
1.0000
  0
VERTEX
  8
0
 10
0.2379
 20
0.4750
 30
0.0000
  0
SEQEND
  8
0
  0
POLYLINE
  8
0
 66
1
 10
0.0000
 20
0.0000
 30
0.0000
 40
0.0500
 41
0.0500
 70
0
  0
VERTEX
  8
0
 10
-0.2379
 20
0.4750
 30
0.0000
 42
1.0000
  0
VERTEX
  8
0
 10
-0.2379
 20
0.4250
 30
0.0000
  0
SEQEND
  8
0
  0
POLYLINE
  8
0
 66
1
 10
0.0000
 20
0.0000
 30
0.0000
 40
0.1000
 41
0.1000
 70
0
  0
VERTEX
  8
0
 10
0.4500
 20
0.2379
 30
0.0000
  0
VERTEX
  8
0
 10
0.4500
 20
-0.2379
 30
0.0000
  0
SEQEND
  8
0
  0
POLYLINE
  8
0
 66
1
 10
0.0000
 20
0.0000
 30
0.0000
 40
0.0500
 41
0.0500
 70
0
  0
VERTEX
  8
0
 10
0.4250
 20
-0.2379
 30
0.0000
 42
1.0000
  0
VERTEX
  8
0
 10
0.4750
 20
-0.2379
 30
0.0000
  0
SEQEND
  8
0
  0
POLYLINE
  8
0
 66
1
 10
0.0000
 20
0.0000
 30
0.0000
 40
0.0500
 41
0.0500
 70
0
  0
VERTEX
  8
0
 10
0.4750
 20
0.2379
 30
0.0000
 42
1.0000
  0
VERTEX
  8
0
 10
0.4250
 20
0.2379
 30
0.0000
  0
SEQEND
  8
0
  0
POLYLINE
  8
0
 66
1
 10
0.0000
 20
0.0000
 30
0.0000
 40
0.1000
 41
0.1000
 70
0
  0
VERTEX
  8
0
 10
0.2379
 20
-0.4500
 30
0.0000
  0
VERTEX
  8
0
 10
-0.2379
 20
-0.4500
 30
0.0000
  0
SEQEND
  8
0
  0
POLYLINE
  8
0
 66
1
 10
0.0000
 20
0.0000
 30
0.0000
 40
0.0500
 41
0.0500
 70
0
  0
VERTEX
  8
0
 10
-0.2379
 20
-0.4250
 30
0.0000
 42
1.0000
  0
VERTEX
  8
0
 10
-0.2379
 20
-0.4750
 30
0.0000
  0
SEQEND
  8
0
  0
POLYLINE
  8
0
 66
1
 10
0.0000
 20
0.0000
 30
0.0000
 40
0.0500
 41
0.0500
 70
0
  0
VERTEX
  8
0
 10
0.2379
 20
-0.4750
 30
0.0000
 42
1.0000
  0
VERTEX
  8
0
 10
0.2379
 20
-0.4250
 30
0.0000
  0
SEQEND
  8
0
  0
POLYLINE
  8
0
 66
1
 10
0.0000
 20
0.0000
 30
0.0000
 40
0.1000
 41
0.1000
 70
0
  0
VERTEX
  8
0
 10
-0.4500
 20
-0.2379
 30
0.0000
  0
VERTEX
  8
0
 10
-0.4500
 20
0.2379
 30
0.0000
  0
SEQEND
  8
0
  0
POLYLINE
  8
0
 66
1
 10
0.0000
 20
0.0000
 30
0.0000
 40
0.0500
 41
0.0500
 70
0
  0
VERTEX
  8
0
 10
-0.4250
 20
0.2379
 30
0.0000
 42
1.0000
  0
VERTEX
  8
0
 10
-0.4750
 20
0.2379
 30
0.0000
  0
SEQEND
  8
0
  0
POLYLINE
  8
0
 66
1
 10
0.0000
 20
0.0000
 30
0.0000
 40
0.0500
 41
0.0500
 70
0
  0
VERTEX
  8
0
 10
-0.4750
 20
-0.2379
 30
0.0000
 42
1.0000
  0
VERTEX
  8
0
 10
-0.4250
 20
-0.2379
 30
0.0000
  0
SEQEND
  8
0
  0
ENDBLK
  8
0
  0
BLOCK
  8
0
  2
OCTAGONV
 70
64
 10
0.0000
 20
0.0000
 30
0.0000
  3
OCTAGONV
  0
POLYLINE
  8
0
 66
1
 10
0.0000
 20
0.0000
 30
0.0000
 40
0.5000
 41
0.5000
 70
0
  0
VERTEX
  8
0
 10
-0.2500
 20
-0.1036
 30
0.0000
  0
VERTEX
  8
0
 10
-0.2500
 20
0.1036
 30
0.0000
  0
VERTEX
  8
0
 10
-0.1036
 20
0.2500
 30
0.0000
  0
VERTEX
  8
0
 10
0.1036
 20
0.2500
 30
0.0000
  0
VERTEX
  8
0
 10
0.2500
 20
0.1036
 30
0.0000
  0
VERTEX
  8
0
 10
0.2500
 20
-0.1036
 30
0.0000
  0
VERTEX
  8
0
 10
0.1036
 20
-0.2500
 30
0.0000
  0
VERTEX
  8
0
 10
-0.1036
 20
-0.2500
 30
0.0000
  0
VERTEX
  8
0
 10
-0.2500
 20
-0.1036
 30
0.0000
  0
VERTEX
  8
0
 10
-0.2500
 20
0.1036
 30
0.0000
  0
SEQEND
  8
0
  0
ENDBLK
  8
0
  0
BLOCK
  8
0
  2
SQUAREV
 70
64
 10
0.0000
 20
0.0000
 30
0.0000
  3
SQUAREV
  0
SOLID
  8
0
 10
-0.5000
 20
-0.5000
 30
0.0000
 11
0.5000
 21
-0.5000
 31
0.0000
 12
-0.5000
 22
0.5000
 32
0.0000
 13
0.5000
 23
0.5000
 33
0.0000
  0
ENDBLK
  8
0
  0
BLOCK
  8
0
  2
ROUNDV
 70
64
 10
0.0000
 20
0.0000
 30
0.0000
  3
ROUNDV
  0
POLYLINE
  8
0
 66
1
 10
0.0000
 20
0.0000
 30
0.0000
 40
0.5000
 41
0.5000
 70
0
  0
VERTEX
  8
0
 10
0.0000
 20
-0.2500
 30
0.0000
 42
1.0000
  0
VERTEX
  8
0
 10
0.0000
 20
0.2500
 30
0.0000
 42
1.0000
  0
VERTEX
  8
0
 10
0.0000
 20
-0.2500
 30
0.0000
  0
SEQEND
  8
0
  0
ENDBLK
  8
0
  0
BLOCK
  8
0
  2
ANNULUSV
 70
64
 10
0.0000
 20
0.0000
 30
0.0000
  3
ANNULUSV
  0
POLYLINE
  8
0
 66
1
 10
0.0000
 20
0.0000
 30
0.0000
 40
0.5000
 41
0.5000
 70
0
  0
VERTEX
  8
0
 10
0.0000
 20
-0.2500
 30
0.0000
 42
1.0000
  0
VERTEX
  8
0
 10
0.0000
 20
0.2500
 30
0.0000
 42
1.0000
  0
VERTEX
  8
0
 10
0.0000
 20
-0.2500
 30
0.0000
  0
SEQEND
  8
0
  0
ENDBLK
  8
0
  0
BLOCK
  8
0
  2
THERMALV
 70
64
 10
0.0000
 20
0.0000
 30
0.0000
  3
THERMALV
  0
POLYLINE
  8
0
 66
1
 10
0.0000
 20
0.0000
 30
0.0000
 40
0.1000
 41
0.1000
 70
0
  0
VERTEX
  8
0
 10
-0.2379
 20
0.4500
 30
0.0000
  0
VERTEX
  8
0
 10
0.2379
 20
0.4500
 30
0.0000
  0
SEQEND
  8
0
  0
POLYLINE
  8
0
 66
1
 10
0.0000
 20
0.0000
 30
0.0000
 40
0.0500
 41
0.0500
 70
0
  0
VERTEX
  8
0
 10
0.2379
 20
0.4250
 30
0.0000
 42
1.0000
  0
VERTEX
  8
0
 10
0.2379
 20
0.4750
 30
0.0000
  0
SEQEND
  8
0
  0
POLYLINE
  8
0
 66
1
 10
0.0000
 20
0.0000
 30
0.0000
 40
0.0500
 41
0.0500
 70
0
  0
VERTEX
  8
0
 10
-0.2379
 20
0.4750
 30
0.0000
 42
1.0000
  0
VERTEX
  8
0
 10
-0.2379
 20
0.4250
 30
0.0000
  0
SEQEND
  8
0
  0
POLYLINE
  8
0
 66
1
 10
0.0000
 20
0.0000
 30
0.0000
 40
0.1000
 41
0.1000
 70
0
  0
VERTEX
  8
0
 10
0.4500
 20
0.2379
 30
0.0000
  0
VERTEX
  8
0
 10
0.4500
 20
-0.2379
 30
0.0000
  0
SEQEND
  8
0
  0
POLYLINE
  8
0
 66
1
 10
0.0000
 20
0.0000
 30
0.0000
 40
0.0500
 41
0.0500
 70
0
  0
VERTEX
  8
0
 10
0.4250
 20
-0.2379
 30
0.0000
 42
1.0000
  0
VERTEX
  8
0
 10
0.4750
 20
-0.2379
 30
0.0000
  0
SEQEND
  8
0
  0
POLYLINE
  8
0
 66
1
 10
0.0000
 20
0.0000
 30
0.0000
 40
0.0500
 41
0.0500
 70
0
  0
VERTEX
  8
0
 10
0.4750
 20
0.2379
 30
0.0000
 42
1.0000
  0
VERTEX
  8
0
 10
0.4250
 20
0.2379
 30
0.0000
  0
SEQEND
  8
0
  0
POLYLINE
  8
0
 66
1
 10
0.0000
 20
0.0000
 30
0.0000
 40
0.1000
 41
0.1000
 70
0
  0
VERTEX
  8
0
 10
0.2379
 20
-0.4500
 30
0.0000
  0
VERTEX
  8
0
 10
-0.2379
 20
-0.4500
 30
0.0000
  0
SEQEND
  8
0
  0
POLYLINE
  8
0
 66
1
 10
0.0000
 20
0.0000
 30
0.0000
 40
0.0500
 41
0.0500
 70
0
  0
VERTEX
  8
0
 10
-0.2379
 20
-0.4250
 30
0.0000
 42
1.0000
  0
VERTEX
  8
0
 10
-0.2379
 20
-0.4750
 30
0.0000
  0
SEQEND
  8
0
  0
POLYLINE
  8
0
 66
1
 10
0.0000
 20
0.0000
 30
0.0000
 40
0.0500
 41
0.0500
 70
0
  0
VERTEX
  8
0
 10
0.2379
 20
-0.4750
 30
0.0000
 42
1.0000
  0
VERTEX
  8
0
 10
0.2379
 20
-0.4250
 30
0.0000
  0
SEQEND
  8
0
  0
POLYLINE
  8
0
 66
1
 10
0.0000
 20
0.0000
 30
0.0000
 40
0.1000
 41
0.1000
 70
0
  0
VERTEX
  8
0
 10
-0.4500
 20
-0.2379
 30
0.0000
  0
VERTEX
  8
0
 10
-0.4500
 20
0.2379
 30
0.0000
  0
SEQEND
  8
0
  0
POLYLINE
  8
0
 66
1
 10
0.0000
 20
0.0000
 30
0.0000
 40
0.0500
 41
0.0500
 70
0
  0
VERTEX
  8
0
 10
-0.4250
 20
0.2379
 30
0.0000
 42
1.0000
  0
VERTEX
  8
0
 10
-0.4750
 20
0.2379
 30
0.0000
  0
SEQEND
  8
0
  0
POLYLINE
  8
0
 66
1
 10
0.0000
 20
0.0000
 30
0.0000
 40
0.0500
 41
0.0500
 70
0
  0
VERTEX
  8
0
 10
-0.4750
 20
-0.2379
 30
0.0000
 42
1.0000
  0
VERTEX
  8
0
 10
-0.4250
 20
-0.2379
 30
0.0000
  0
SEQEND
  8
0
  0
ENDBLK
  8
0
  0
BLOCK
  8
0
  2
LONGP100
 70
64
 10
0.0000
 20
0.0000
 30
0.0000
  3
LONGP100
  0
POLYLINE
  8
0
 66
1
 10
0.0000
 20
0.0000
 30
0.0000
 40
1.0000
 41
1.0000
 70
0
  0
VERTEX
  8
0
 10
-0.5000
 20
0.0000
 30
0.0000
  0
VERTEX
  8
0
 10
0.5000
 20
0.0000
 30
0.0000
  0
SEQEND
  8
0
  0
POLYLINE
  8
0
 66
1
 10
0.0000
 20
0.0000
 30
0.0000
 40
0.5000
 41
0.5000
 70
0
  0
VERTEX
  8
0
 10
0.5000
 20
-0.2500
 30
0.0000
 42
1.0000
  0
VERTEX
  8
0
 10
0.5000
 20
0.2500
 30
0.0000
  0
SEQEND
  8
0
  0
POLYLINE
  8
0
 66
1
 10
0.0000
 20
0.0000
 30
0.0000
 40
0.5000
 41
0.5000
 70
0
  0
VERTEX
  8
0
 10
-0.5000
 20
0.2500
 30
0.0000
 42
1.0000
  0
VERTEX
  8
0
 10
-0.5000
 20
-0.2500
 30
0.0000
  0
SEQEND
  8
0
  0
ENDBLK
  8
0
  0
ENDSEC
  0
SECTION
  2
ENTITIES
  0
POINT
  8
23
 10
0.0000
 20
0.0000
 30
0.0000
  0
POLYLINE
  8
20
 66
1
 10
0.0000
 20
0.0000
 30
0.0000
 40
0.1270
 41
0.1270
 70
0
  0
VERTEX
  8
20
 10
0.0000
 20
2.5400
 30
0.0000
 42
0.4142
  0
VERTEX
  8
20
 10
2.5400
 20
0.0000
 30
0.0000
  0
SEQEND
  8
0
  0
POLYLINE
  8
20
 66
1
 10
0.0000
 20
0.0000
 30
0.0000
 40
0.0635
 41
0.0635
 70
0
  0
VERTEX
  8
20
 10
0.0318
 20
2.5400
 30
0.0000
 42
1.0000
  0
VERTEX
  8
20
 10
-0.0318
 20
2.5400
 30
0.0000
  0
SEQEND
  8
0
  0
POLYLINE
  8
20
 66
1
 10
0.0000
 20
0.0000
 30
0.0000
 40
0.0635
 41
0.0635
 70
0
  0
VERTEX
  8
20
 10
2.5400
 20
-0.0318
 30
0.0000
 42
1.0000
  0
VERTEX
  8
20
 10
2.5400
 20
0.0318
 30
0.0000
  0
SEQEND
  8
0
  0
POLYLINE
  8
20
 66
1
 10
0.0000
 20
0.0000
 30
0.0000
 40
0.1270
 41
0.1270
 70
0
  0
VERTEX
  8
20
 10
2.5400
 20
0.0000
 30
0.0000
  0
VERTEX
  8
20
 10
99.0600
 20
0.0000
 30
0.0000
  0
SEQEND
  8
0
  0
POLYLINE
  8
20
 66
1
 10
0.0000
 20
0.0000
 30
0.0000
 40
0.0635
 41
0.0635
 70
0
  0
VERTEX
  8
20
 10
99.0600
 20
-0.0318
 30
0.0000
 42
1.0000
  0
VERTEX
  8
20
 10
99.0600
 20
0.0318
 30
0.0000
  0
SEQEND
  8
0
  0
POLYLINE
  8
20
 66
1
 10
0.0000
 20
0.0000
 30
0.0000
 40
0.0635
 41
0.0635
 70
0
  0
VERTEX
  8
20
 10
2.5400
 20
0.0318
 30
0.0000
 42
1.0000
  0
VERTEX
  8
20
 10
2.5400
 20
-0.0318
 30
0.0000
  0
SEQEND
  8
0
  0
POLYLINE
  8
20
 66
1
 10
0.0000
 20
0.0000
 30
0.0000
 40
0.1270
 41
0.1270
 70
0
  0
VERTEX
  8
20
 10
99.0600
 20
0.0000
 30
0.0000
 42
0.4142
  0
VERTEX
  8
20
 10
101.6000
 20
2.5400
 30
0.0000
  0
SEQEND
  8
0
  0
POLYLINE
  8
20
 66
1
 10
0.0000
 20
0.0000
 30
0.0000
 40
0.0635
 41
0.0635
 70
0
  0
VERTEX
  8
20
 10
99.0600
 20
0.0318
 30
0.0000
 42
1.0000
  0
VERTEX
  8
20
 10
99.0600
 20
-0.0318
 30
0.0000
  0
SEQEND
  8
0
  0
POLYLINE
  8
20
 66
1
 10
0.0000
 20
0.0000
 30
0.0000
 40
0.0635
 41
0.0635
 70
0
  0
VERTEX
  8
20
 10
101.6318
 20
2.5400
 30
0.0000
 42
1.0000
  0
VERTEX
  8
20
 10
101.5683
 20
2.5400
 30
0.0000
  0
SEQEND
  8
0
  0
POLYLINE
  8
20
 66
1
 10
0.0000
 20
0.0000
 30
0.0000
 40
0.1270
 41
0.1270
 70
0
  0
VERTEX
  8
20
 10
101.6000
 20
2.5400
 30
0.0000
  0
VERTEX
  8
20
 10
101.6000
 20
73.6600
 30
0.0000
  0
SEQEND
  8
0
  0
POLYLINE
  8
20
 66
1
 10
0.0000
 20
0.0000
 30
0.0000
 40
0.0635
 41
0.0635
 70
0
  0
VERTEX
  8
20
 10
101.6318
 20
73.6600
 30
0.0000
 42
1.0000
  0
VERTEX
  8
20
 10
101.5683
 20
73.6600
 30
0.0000
  0
SEQEND
  8
0
  0
POLYLINE
  8
20
 66
1
 10
0.0000
 20
0.0000
 30
0.0000
 40
0.0635
 41
0.0635
 70
0
  0
VERTEX
  8
20
 10
101.5683
 20
2.5400
 30
0.0000
 42
1.0000
  0
VERTEX
  8
20
 10
101.6318
 20
2.5400
 30
0.0000
  0
SEQEND
  8
0
  0
POLYLINE
  8
20
 66
1
 10
0.0000
 20
0.0000
 30
0.0000
 40
0.1270
 41
0.1270
 70
0
  0
VERTEX
  8
20
 10
101.6000
 20
73.6600
 30
0.0000
 42
0.4142
  0
VERTEX
  8
20
 10
99.0600
 20
76.2000
 30
0.0000
  0
SEQEND
  8
0
  0
POLYLINE
  8
20
 66
1
 10
0.0000
 20
0.0000
 30
0.0000
 40
0.0635
 41
0.0635
 70
0
  0
VERTEX
  8
20
 10
101.5683
 20
73.6600
 30
0.0000
 42
1.0000
  0
VERTEX
  8
20
 10
101.6318
 20
73.6600
 30
0.0000
  0
SEQEND
  8
0
  0
POLYLINE
  8
20
 66
1
 10
0.0000
 20
0.0000
 30
0.0000
 40
0.0635
 41
0.0635
 70
0
  0
VERTEX
  8
20
 10
99.0600
 20
76.2318
 30
0.0000
 42
1.0000
  0
VERTEX
  8
20
 10
99.0600
 20
76.1683
 30
0.0000
  0
SEQEND
  8
0
  0
POLYLINE
  8
20
 66
1
 10
0.0000
 20
0.0000
 30
0.0000
 40
0.1270
 41
0.1270
 70
0
  0
VERTEX
  8
20
 10
2.5400
 20
76.2000
 30
0.0000
 42
0.4142
  0
VERTEX
  8
20
 10
0.0000
 20
73.6600
 30
0.0000
  0
SEQEND
  8
0
  0
POLYLINE
  8
20
 66
1
 10
0.0000
 20
0.0000
 30
0.0000
 40
0.0635
 41
0.0635
 70
0
  0
VERTEX
  8
20
 10
2.5400
 20
76.1683
 30
0.0000
 42
1.0000
  0
VERTEX
  8
20
 10
2.5400
 20
76.2318
 30
0.0000
  0
SEQEND
  8
0
  0
POLYLINE
  8
20
 66
1
 10
0.0000
 20
0.0000
 30
0.0000
 40
0.0635
 41
0.0635
 70
0
  0
VERTEX
  8
20
 10
-0.0318
 20
73.6600
 30
0.0000
 42
1.0000
  0
VERTEX
  8
20
 10
0.0318
 20
73.6600
 30
0.0000
  0
SEQEND
  8
0
  0
POLYLINE
  8
20
 66
1
 10
0.0000
 20
0.0000
 30
0.0000
 40
0.1270
 41
0.1270
 70
0
  0
VERTEX
  8
20
 10
0.0000
 20
73.6600
 30
0.0000
  0
VERTEX
  8
20
 10
0.0000
 20
2.5400
 30
0.0000
  0
SEQEND
  8
0
  0
POLYLINE
  8
20
 66
1
 10
0.0000
 20
0.0000
 30
0.0000
 40
0.0635
 41
0.0635
 70
0
  0
VERTEX
  8
20
 10
-0.0318
 20
2.5400
 30
0.0000
 42
1.0000
  0
VERTEX
  8
20
 10
0.0318
 20
2.5400
 30
0.0000
  0
SEQEND
  8
0
  0
POLYLINE
  8
20
 66
1
 10
0.0000
 20
0.0000
 30
0.0000
 40
0.0635
 41
0.0635
 70
0
  0
VERTEX
  8
20
 10
0.0318
 20
73.6600
 30
0.0000
 42
1.0000
  0
VERTEX
  8
20
 10
-0.0318
 20
73.6600
 30
0.0000
  0
SEQEND
  8
0
  0
POLYLINE
  8
20
 66
1
 10
0.0000
 20
0.0000
 30
0.0000
 40
0.1270
 41
0.1270
 70
0
  0
VERTEX
  8
20
 10
2.5400
 20
76.2000
 30
0.0000
  0
VERTEX
  8
20
 10
99.0600
 20
76.2000
 30
0.0000
  0
SEQEND
  8
0
  0
POLYLINE
  8
20
 66
1
 10
0.0000
 20
0.0000
 30
0.0000
 40
0.0635
 41
0.0635
 70
0
  0
VERTEX
  8
20
 10
99.0600
 20
76.1683
 30
0.0000
 42
1.0000
  0
VERTEX
  8
20
 10
99.0600
 20
76.2318
 30
0.0000
  0
SEQEND
  8
0
  0
POLYLINE
  8
20
 66
1
 10
0.0000
 20
0.0000
 30
0.0000
 40
0.0635
 41
0.0635
 70
0
  0
VERTEX
  8
20
 10
2.5400
 20
76.2318
 30
0.0000
 42
1.0000
  0
VERTEX
  8
20
 10
2.5400
 20
76.1683
 30
0.0000
  0
SEQEND
  8
0
  0
INSERT
  8
51
  2
RECT
 10
3.8100
 20
59.6900
 30
0.0000
 41
0.5080
 42
0.5080
 43
1.0000
 50
90.0000
  0
INSERT
  8
51
  2
RECT
 10
3.8100
 20
57.1500
 30
0.0000
 41
0.5080
 42
0.5080
 43
1.0000
 50
90.0000
  0
INSERT
  8
51
  2
RECT
 10
3.8100
 20
54.6100
 30
0.0000
 41
0.5080
 42
0.5080
 43
1.0000
 50
90.0000
  0
INSERT
  8
51
  2
RECT
 10
3.8100
 20
52.0700
 30
0.0000
 41
0.5080
 42
0.5080
 43
1.0000
 50
90.0000
  0
INSERT
  8
51
  2
RECT
 10
3.8100
 20
49.5300
 30
0.0000
 41
0.5080
 42
0.5080
 43
1.0000
 50
90.0000
  0
INSERT
  8
51
  2
RECT
 10
3.8100
 20
62.2300
 30
0.0000
 41
0.5080
 42
0.5080
 43
1.0000
 50
90.0000
  0
INSERT
  8
51
  2
RECT
 10
3.8100
 20
44.4500
 30
0.0000
 41
0.5080
 42
0.5080
 43
1.0000
 50
90.0000
  0
INSERT
  8
51
  2
RECT
 10
3.8100
 20
41.9100
 30
0.0000
 41
0.5080
 42
0.5080
 43
1.0000
 50
90.0000
  0
INSERT
  8
51
  2
RECT
 10
3.8100
 20
39.3700
 30
0.0000
 41
0.5080
 42
0.5080
 43
1.0000
 50
90.0000
  0
INSERT
  8
51
  2
RECT
 10
3.8100
 20
36.8300
 30
0.0000
 41
0.5080
 42
0.5080
 43
1.0000
 50
90.0000
  0
INSERT
  8
51
  2
RECT
 10
3.8100
 20
34.2900
 30
0.0000
 41
0.5080
 42
0.5080
 43
1.0000
 50
90.0000
  0
INSERT
  8
51
  2
RECT
 10
3.8100
 20
46.9900
 30
0.0000
 41
0.5080
 42
0.5080
 43
1.0000
 50
90.0000
  0
INSERT
  8
51
  2
RECT
 10
3.8100
 20
21.5900
 30
0.0000
 41
0.5080
 42
0.5080
 43
1.0000
 50
270.0000
  0
INSERT
  8
51
  2
RECT
 10
3.8100
 20
24.1300
 30
0.0000
 41
0.5080
 42
0.5080
 43
1.0000
 50
270.0000
  0
INSERT
  8
51
  2
RECT
 10
3.8100
 20
26.6700
 30
0.0000
 41
0.5080
 42
0.5080
 43
1.0000
 50
270.0000
  0
INSERT
  8
51
  2
RECT
 10
3.8100
 20
29.2100
 30
0.0000
 41
0.5080
 42
0.5080
 43
1.0000
 50
270.0000
  0
INSERT
  8
51
  2
RECT
 10
3.8100
 20
31.7500
 30
0.0000
 41
0.5080
 42
0.5080
 43
1.0000
 50
270.0000
  0
INSERT
  8
51
  2
RECT
 10
3.8100
 20
19.0500
 30
0.0000
 41
0.5080
 42
0.5080
 43
1.0000
 50
270.0000
  0
INSERT
  8
51
  2
RECT
 10
3.8100
 20
13.9700
 30
0.0000
 41
0.5080
 42
0.5080
 43
1.0000
 50
90.0000
  0
INSERT
  8
51
  2
RECT
 10
3.8100
 20
11.4300
 30
0.0000
 41
0.5080
 42
0.5080
 43
1.0000
 50
90.0000
  0
INSERT
  8
51
  2
RECT
 10
3.8100
 20
8.8900
 30
0.0000
 41
0.5080
 42
0.5080
 43
1.0000
 50
90.0000
  0
INSERT
  8
51
  2
RECT
 10
3.8100
 20
6.3500
 30
0.0000
 41
0.5080
 42
0.5080
 43
1.0000
 50
90.0000
  0
INSERT
  8
51
  2
RECT
 10
3.8100
 20
16.5100
 30
0.0000
 41
0.5080
 42
0.5080
 43
1.0000
 50
90.0000
  0
INSERT
  8
51
  2
RECT
 10
3.8100
 20
69.8500
 30
0.0000
 41
0.5080
 42
0.5080
 43
1.0000
 50
90.0000
  0
INSERT
  8
51
  2
RECT
 10
3.8100
 20
67.3100
 30
0.0000
 41
0.5080
 42
0.5080
 43
1.0000
 50
90.0000
  0
INSERT
  8
51
  2
RECT
 10
3.8100
 20
64.7700
 30
0.0000
 41
0.5080
 42
0.5080
 43
1.0000
 50
90.0000
  0
INSERT
  8
51
  2
RECT
 10
97.7900
 20
16.5100
 30
0.0000
 41
0.5080
 42
0.5080
 43
1.0000
 50
270.0000
  0
INSERT
  8
51
  2
RECT
 10
97.7900
 20
19.0500
 30
0.0000
 41
0.5080
 42
0.5080
 43
1.0000
 50
270.0000
  0
INSERT
  8
51
  2
RECT
 10
97.7900
 20
21.5900
 30
0.0000
 41
0.5080
 42
0.5080
 43
1.0000
 50
270.0000
  0
INSERT
  8
51
  2
RECT
 10
97.7900
 20
24.1300
 30
0.0000
 41
0.5080
 42
0.5080
 43
1.0000
 50
270.0000
  0
INSERT
  8
51
  2
RECT
 10
97.7900
 20
26.6700
 30
0.0000
 41
0.5080
 42
0.5080
 43
1.0000
 50
270.0000
  0
INSERT
  8
51
  2
RECT
 10
97.7900
 20
13.9700
 30
0.0000
 41
0.5080
 42
0.5080
 43
1.0000
 50
270.0000
  0
INSERT
  8
51
  2
RECT
 10
97.7900
 20
31.7500
 30
0.0000
 41
0.5080
 42
0.5080
 43
1.0000
 50
270.0000
  0
INSERT
  8
51
  2
RECT
 10
97.7900
 20
34.2900
 30
0.0000
 41
0.5080
 42
0.5080
 43
1.0000
 50
270.0000
  0
INSERT
  8
51
  2
RECT
 10
97.7900
 20
36.8300
 30
0.0000
 41
0.5080
 42
0.5080
 43
1.0000
 50
270.0000
  0
INSERT
  8
51
  2
RECT
 10
97.7900
 20
39.3700
 30
0.0000
 41
0.5080
 42
0.5080
 43
1.0000
 50
270.0000
  0
INSERT
  8
51
  2
RECT
 10
97.7900
 20
41.9100
 30
0.0000
 41
0.5080
 42
0.5080
 43
1.0000
 50
270.0000
  0
INSERT
  8
51
  2
RECT
 10
97.7900
 20
29.2100
 30
0.0000
 41
0.5080
 42
0.5080
 43
1.0000
 50
270.0000
  0
INSERT
  8
51
  2
RECT
 10
97.7900
 20
54.6100
 30
0.0000
 41
0.5080
 42
0.5080
 43
1.0000
 50
90.0000
  0
INSERT
  8
51
  2
RECT
 10
97.7900
 20
52.0700
 30
0.0000
 41
0.5080
 42
0.5080
 43
1.0000
 50
90.0000
  0
INSERT
  8
51
  2
RECT
 10
97.7900
 20
49.5300
 30
0.0000
 41
0.5080
 42
0.5080
 43
1.0000
 50
90.0000
  0
INSERT
  8
51
  2
RECT
 10
97.7900
 20
46.9900
 30
0.0000
 41
0.5080
 42
0.5080
 43
1.0000
 50
90.0000
  0
INSERT
  8
51
  2
RECT
 10
97.7900
 20
44.4500
 30
0.0000
 41
0.5080
 42
0.5080
 43
1.0000
 50
90.0000
  0
INSERT
  8
51
  2
RECT
 10
97.7900
 20
57.1500
 30
0.0000
 41
0.5080
 42
0.5080
 43
1.0000
 50
90.0000
  0
INSERT
  8
51
  2
RECT
 10
97.7900
 20
62.2300
 30
0.0000
 41
0.5080
 42
0.5080
 43
1.0000
 50
270.0000
  0
INSERT
  8
51
  2
RECT
 10
97.7900
 20
64.7700
 30
0.0000
 41
0.5080
 42
0.5080
 43
1.0000
 50
270.0000
  0
INSERT
  8
51
  2
RECT
 10
97.7900
 20
67.3100
 30
0.0000
 41
0.5080
 42
0.5080
 43
1.0000
 50
270.0000
  0
INSERT
  8
51
  2
RECT
 10
97.7900
 20
69.8500
 30
0.0000
 41
0.5080
 42
0.5080
 43
1.0000
 50
270.0000
  0
INSERT
  8
51
  2
RECT
 10
97.7900
 20
59.6900
 30
0.0000
 41
0.5080
 42
0.5080
 43
1.0000
 50
270.0000
  0
INSERT
  8
51
  2
RECT
 10
97.7900
 20
6.3500
 30
0.0000
 41
0.5080
 42
0.5080
 43
1.0000
 50
270.0000
  0
INSERT
  8
51
  2
RECT
 10
97.7900
 20
8.8900
 30
0.0000
 41
0.5080
 42
0.5080
 43
1.0000
 50
270.0000
  0
INSERT
  8
51
  2
RECT
 10
97.7900
 20
11.4300
 30
0.0000
 41
0.5080
 42
0.5080
 43
1.0000
 50
270.0000
  0
INSERT
  8
17
  2
ROUNDP
 10
12.7000
 20
73.6600
 30
0.0000
 41
0.8080
 42
0.8080
 43
1.0000
 50
0.0000
  0
INSERT
  8
17
  2
ROUNDP
 10
12.7000
 20
73.6600
 30
0.0000
 41
0.8080
 42
0.8080
 43
1.0000
 50
0.0000
  0
INSERT
  8
29
  2
ROUNDP
 10
12.7000
 20
73.6600
 30
0.0000
 41
1.0112
 42
1.0112
 43
1.0000
 50
0.0000
  0
INSERT
  8
30
  2
ROUNDP
 10
12.7000
 20
73.6600
 30
0.0000
 41
1.0112
 42
1.0112
 43
1.0000
 50
0.0000
  0
CIRCLE
  8
44
 10
12.7000
 20
73.6600
 30
0.0000
 40
0.1500
  0
INSERT
  8
17
  2
ROUNDP
 10
38.1000
 20
73.6600
 30
0.0000
 41
0.8080
 42
0.8080
 43
1.0000
 50
0.0000
  0
INSERT
  8
17
  2
ROUNDP
 10
38.1000
 20
73.6600
 30
0.0000
 41
0.8080
 42
0.8080
 43
1.0000
 50
0.0000
  0
INSERT
  8
29
  2
ROUNDP
 10
38.1000
 20
73.6600
 30
0.0000
 41
1.0112
 42
1.0112
 43
1.0000
 50
0.0000
  0
INSERT
  8
30
  2
ROUNDP
 10
38.1000
 20
73.6600
 30
0.0000
 41
1.0112
 42
1.0112
 43
1.0000
 50
0.0000
  0
CIRCLE
  8
44
 10
38.1000
 20
73.6600
 30
0.0000
 40
0.1500
  0
INSERT
  8
17
  2
ROUNDP
 10
63.5000
 20
73.6600
 30
0.0000
 41
0.8080
 42
0.8080
 43
1.0000
 50
0.0000
  0
INSERT
  8
17
  2
ROUNDP
 10
63.5000
 20
73.6600
 30
0.0000
 41
0.8080
 42
0.8080
 43
1.0000
 50
0.0000
  0
INSERT
  8
29
  2
ROUNDP
 10
63.5000
 20
73.6600
 30
0.0000
 41
1.0112
 42
1.0112
 43
1.0000
 50
0.0000
  0
INSERT
  8
30
  2
ROUNDP
 10
63.5000
 20
73.6600
 30
0.0000
 41
1.0112
 42
1.0112
 43
1.0000
 50
0.0000
  0
CIRCLE
  8
44
 10
63.5000
 20
73.6600
 30
0.0000
 40
0.1500
  0
INSERT
  8
17
  2
ROUNDP
 10
19.0500
 20
38.1000
 30
0.0000
 41
0.8080
 42
0.8080
 43
1.0000
 50
0.0000
  0
INSERT
  8
17
  2
ROUNDP
 10
19.0500
 20
38.1000
 30
0.0000
 41
0.8080
 42
0.8080
 43
1.0000
 50
0.0000
  0
INSERT
  8
29
  2
ROUNDP
 10
19.0500
 20
38.1000
 30
0.0000
 41
1.0112
 42
1.0112
 43
1.0000
 50
0.0000
  0
INSERT
  8
30
  2
ROUNDP
 10
19.0500
 20
38.1000
 30
0.0000
 41
1.0112
 42
1.0112
 43
1.0000
 50
0.0000
  0
CIRCLE
  8
44
 10
19.0500
 20
38.1000
 30
0.0000
 40
0.1500
  0
INSERT
  8
17
  2
ROUNDP
 10
44.4500
 20
38.1000
 30
0.0000
 41
0.8080
 42
0.8080
 43
1.0000
 50
0.0000
  0
INSERT
  8
17
  2
ROUNDP
 10
44.4500
 20
38.1000
 30
0.0000
 41
0.8080
 42
0.8080
 43
1.0000
 50
0.0000
  0
INSERT
  8
29
  2
ROUNDP
 10
44.4500
 20
38.1000
 30
0.0000
 41
1.0112
 42
1.0112
 43
1.0000
 50
0.0000
  0
INSERT
  8
30
  2
ROUNDP
 10
44.4500
 20
38.1000
 30
0.0000
 41
1.0112
 42
1.0112
 43
1.0000
 50
0.0000
  0
CIRCLE
  8
44
 10
44.4500
 20
38.1000
 30
0.0000
 40
0.1500
  0
INSERT
  8
17
  2
ROUNDP
 10
69.8500
 20
38.1000
 30
0.0000
 41
0.8080
 42
0.8080
 43
1.0000
 50
0.0000
  0
INSERT
  8
17
  2
ROUNDP
 10
69.8500
 20
38.1000
 30
0.0000
 41
0.8080
 42
0.8080
 43
1.0000
 50
0.0000
  0
INSERT
  8
29
  2
ROUNDP
 10
69.8500
 20
38.1000
 30
0.0000
 41
1.0112
 42
1.0112
 43
1.0000
 50
0.0000
  0
INSERT
  8
30
  2
ROUNDP
 10
69.8500
 20
38.1000
 30
0.0000
 41
1.0112
 42
1.0112
 43
1.0000
 50
0.0000
  0
CIRCLE
  8
44
 10
69.8500
 20
38.1000
 30
0.0000
 40
0.1500
  0
INSERT
  8
17
  2
ROUNDP
 10
88.9000
 20
73.6600
 30
0.0000
 41
0.8080
 42
0.8080
 43
1.0000
 50
0.0000
  0
INSERT
  8
17
  2
ROUNDP
 10
88.9000
 20
73.6600
 30
0.0000
 41
0.8080
 42
0.8080
 43
1.0000
 50
0.0000
  0
INSERT
  8
29
  2
ROUNDP
 10
88.9000
 20
73.6600
 30
0.0000
 41
1.0112
 42
1.0112
 43
1.0000
 50
0.0000
  0
INSERT
  8
30
  2
ROUNDP
 10
88.9000
 20
73.6600
 30
0.0000
 41
1.0112
 42
1.0112
 43
1.0000
 50
0.0000
  0
CIRCLE
  8
44
 10
88.9000
 20
73.6600
 30
0.0000
 40
0.1500
  0
INSERT
  8
17
  2
ROUNDP
 10
25.4000
 20
2.5400
 30
0.0000
 41
0.8080
 42
0.8080
 43
1.0000
 50
0.0000
  0
INSERT
  8
17
  2
ROUNDP
 10
25.4000
 20
2.5400
 30
0.0000
 41
0.8080
 42
0.8080
 43
1.0000
 50
0.0000
  0
INSERT
  8
29
  2
ROUNDP
 10
25.4000
 20
2.5400
 30
0.0000
 41
1.0112
 42
1.0112
 43
1.0000
 50
0.0000
  0
INSERT
  8
30
  2
ROUNDP
 10
25.4000
 20
2.5400
 30
0.0000
 41
1.0112
 42
1.0112
 43
1.0000
 50
0.0000
  0
CIRCLE
  8
44
 10
25.4000
 20
2.5400
 30
0.0000
 40
0.1500
  0
INSERT
  8
17
  2
ROUNDP
 10
50.8000
 20
2.5400
 30
0.0000
 41
0.8080
 42
0.8080
 43
1.0000
 50
0.0000
  0
INSERT
  8
17
  2
ROUNDP
 10
50.8000
 20
2.5400
 30
0.0000
 41
0.8080
 42
0.8080
 43
1.0000
 50
0.0000
  0
INSERT
  8
29
  2
ROUNDP
 10
50.8000
 20
2.5400
 30
0.0000
 41
1.0112
 42
1.0112
 43
1.0000
 50
0.0000
  0
INSERT
  8
30
  2
ROUNDP
 10
50.8000
 20
2.5400
 30
0.0000
 41
1.0112
 42
1.0112
 43
1.0000
 50
0.0000
  0
CIRCLE
  8
44
 10
50.8000
 20
2.5400
 30
0.0000
 40
0.1500
  0
INSERT
  8
17
  2
ROUNDP
 10
76.2000
 20
2.5400
 30
0.0000
 41
0.8080
 42
0.8080
 43
1.0000
 50
0.0000
  0
INSERT
  8
17
  2
ROUNDP
 10
76.2000
 20
2.5400
 30
0.0000
 41
0.8080
 42
0.8080
 43
1.0000
 50
0.0000
  0
INSERT
  8
29
  2
ROUNDP
 10
76.2000
 20
2.5400
 30
0.0000
 41
1.0112
 42
1.0112
 43
1.0000
 50
0.0000
  0
INSERT
  8
30
  2
ROUNDP
 10
76.2000
 20
2.5400
 30
0.0000
 41
1.0112
 42
1.0112
 43
1.0000
 50
0.0000
  0
CIRCLE
  8
44
 10
76.2000
 20
2.5400
 30
0.0000
 40
0.1500
  0
INSERT
  8
17
  2
ROUNDP
 10
25.4000
 20
73.6600
 30
0.0000
 41
0.8080
 42
0.8080
 43
1.0000
 50
0.0000
  0
INSERT
  8
17
  2
ROUNDP
 10
25.4000
 20
73.6600
 30
0.0000
 41
0.8080
 42
0.8080
 43
1.0000
 50
0.0000
  0
INSERT
  8
29
  2
ROUNDP
 10
25.4000
 20
73.6600
 30
0.0000
 41
1.0112
 42
1.0112
 43
1.0000
 50
0.0000
  0
INSERT
  8
30
  2
ROUNDP
 10
25.4000
 20
73.6600
 30
0.0000
 41
1.0112
 42
1.0112
 43
1.0000
 50
0.0000
  0
CIRCLE
  8
44
 10
25.4000
 20
73.6600
 30
0.0000
 40
0.1500
  0
INSERT
  8
17
  2
ROUNDP
 10
50.8000
 20
73.6600
 30
0.0000
 41
0.8080
 42
0.8080
 43
1.0000
 50
0.0000
  0
INSERT
  8
17
  2
ROUNDP
 10
50.8000
 20
73.6600
 30
0.0000
 41
0.8080
 42
0.8080
 43
1.0000
 50
0.0000
  0
INSERT
  8
29
  2
ROUNDP
 10
50.8000
 20
73.6600
 30
0.0000
 41
1.0112
 42
1.0112
 43
1.0000
 50
0.0000
  0
INSERT
  8
30
  2
ROUNDP
 10
50.8000
 20
73.6600
 30
0.0000
 41
1.0112
 42
1.0112
 43
1.0000
 50
0.0000
  0
CIRCLE
  8
44
 10
50.8000
 20
73.6600
 30
0.0000
 40
0.1500
  0
INSERT
  8
17
  2
ROUNDP
 10
76.2000
 20
73.6600
 30
0.0000
 41
0.8080
 42
0.8080
 43
1.0000
 50
0.0000
  0
INSERT
  8
17
  2
ROUNDP
 10
76.2000
 20
73.6600
 30
0.0000
 41
0.8080
 42
0.8080
 43
1.0000
 50
0.0000
  0
INSERT
  8
29
  2
ROUNDP
 10
76.2000
 20
73.6600
 30
0.0000
 41
1.0112
 42
1.0112
 43
1.0000
 50
0.0000
  0
INSERT
  8
30
  2
ROUNDP
 10
76.2000
 20
73.6600
 30
0.0000
 41
1.0112
 42
1.0112
 43
1.0000
 50
0.0000
  0
CIRCLE
  8
44
 10
76.2000
 20
73.6600
 30
0.0000
 40
0.1500
  0
INSERT
  8
17
  2
ROUNDP
 10
82.5500
 20
38.1000
 30
0.0000
 41
0.8080
 42
0.8080
 43
1.0000
 50
0.0000
  0
INSERT
  8
17
  2
ROUNDP
 10
82.5500
 20
38.1000
 30
0.0000
 41
0.8080
 42
0.8080
 43
1.0000
 50
0.0000
  0
INSERT
  8
29
  2
ROUNDP
 10
82.5500
 20
38.1000
 30
0.0000
 41
1.0112
 42
1.0112
 43
1.0000
 50
0.0000
  0
INSERT
  8
30
  2
ROUNDP
 10
82.5500
 20
38.1000
 30
0.0000
 41
1.0112
 42
1.0112
 43
1.0000
 50
0.0000
  0
CIRCLE
  8
44
 10
82.5500
 20
38.1000
 30
0.0000
 40
0.1500
  0
INSERT
  8
17
  2
ROUNDP
 10
57.1500
 20
38.1000
 30
0.0000
 41
0.8080
 42
0.8080
 43
1.0000
 50
0.0000
  0
INSERT
  8
17
  2
ROUNDP
 10
57.1500
 20
38.1000
 30
0.0000
 41
0.8080
 42
0.8080
 43
1.0000
 50
0.0000
  0
INSERT
  8
29
  2
ROUNDP
 10
57.1500
 20
38.1000
 30
0.0000
 41
1.0112
 42
1.0112
 43
1.0000
 50
0.0000
  0
INSERT
  8
30
  2
ROUNDP
 10
57.1500
 20
38.1000
 30
0.0000
 41
1.0112
 42
1.0112
 43
1.0000
 50
0.0000
  0
CIRCLE
  8
44
 10
57.1500
 20
38.1000
 30
0.0000
 40
0.1500
  0
INSERT
  8
17
  2
ROUNDP
 10
31.7500
 20
38.1000
 30
0.0000
 41
0.8080
 42
0.8080
 43
1.0000
 50
0.0000
  0
INSERT
  8
17
  2
ROUNDP
 10
31.7500
 20
38.1000
 30
0.0000
 41
0.8080
 42
0.8080
 43
1.0000
 50
0.0000
  0
INSERT
  8
29
  2
ROUNDP
 10
31.7500
 20
38.1000
 30
0.0000
 41
1.0112
 42
1.0112
 43
1.0000
 50
0.0000
  0
INSERT
  8
30
  2
ROUNDP
 10
31.7500
 20
38.1000
 30
0.0000
 41
1.0112
 42
1.0112
 43
1.0000
 50
0.0000
  0
CIRCLE
  8
44
 10
31.7500
 20
38.1000
 30
0.0000
 40
0.1500
  0
INSERT
  8
17
  2
ROUNDP
 10
12.7000
 20
2.5400
 30
0.0000
 41
0.8080
 42
0.8080
 43
1.0000
 50
0.0000
  0
INSERT
  8
17
  2
ROUNDP
 10
12.7000
 20
2.5400
 30
0.0000
 41
0.8080
 42
0.8080
 43
1.0000
 50
0.0000
  0
INSERT
  8
29
  2
ROUNDP
 10
12.7000
 20
2.5400
 30
0.0000
 41
1.0112
 42
1.0112
 43
1.0000
 50
0.0000
  0
INSERT
  8
30
  2
ROUNDP
 10
12.7000
 20
2.5400
 30
0.0000
 41
1.0112
 42
1.0112
 43
1.0000
 50
0.0000
  0
CIRCLE
  8
44
 10
12.7000
 20
2.5400
 30
0.0000
 40
0.1500
  0
INSERT
  8
17
  2
ROUNDP
 10
38.1000
 20
2.5400
 30
0.0000
 41
0.8080
 42
0.8080
 43
1.0000
 50
0.0000
  0
INSERT
  8
17
  2
ROUNDP
 10
38.1000
 20
2.5400
 30
0.0000
 41
0.8080
 42
0.8080
 43
1.0000
 50
0.0000
  0
INSERT
  8
29
  2
ROUNDP
 10
38.1000
 20
2.5400
 30
0.0000
 41
1.0112
 42
1.0112
 43
1.0000
 50
0.0000
  0
INSERT
  8
30
  2
ROUNDP
 10
38.1000
 20
2.5400
 30
0.0000
 41
1.0112
 42
1.0112
 43
1.0000
 50
0.0000
  0
CIRCLE
  8
44
 10
38.1000
 20
2.5400
 30
0.0000
 40
0.1500
  0
INSERT
  8
17
  2
ROUNDP
 10
63.5000
 20
2.5400
 30
0.0000
 41
0.8080
 42
0.8080
 43
1.0000
 50
0.0000
  0
INSERT
  8
17
  2
ROUNDP
 10
63.5000
 20
2.5400
 30
0.0000
 41
0.8080
 42
0.8080
 43
1.0000
 50
0.0000
  0
INSERT
  8
29
  2
ROUNDP
 10
63.5000
 20
2.5400
 30
0.0000
 41
1.0112
 42
1.0112
 43
1.0000
 50
0.0000
  0
INSERT
  8
30
  2
ROUNDP
 10
63.5000
 20
2.5400
 30
0.0000
 41
1.0112
 42
1.0112
 43
1.0000
 50
0.0000
  0
CIRCLE
  8
44
 10
63.5000
 20
2.5400
 30
0.0000
 40
0.1500
  0
INSERT
  8
17
  2
ROUNDP
 10
88.9000
 20
2.5400
 30
0.0000
 41
0.8080
 42
0.8080
 43
1.0000
 50
0.0000
  0
INSERT
  8
17
  2
ROUNDP
 10
88.9000
 20
2.5400
 30
0.0000
 41
0.8080
 42
0.8080
 43
1.0000
 50
0.0000
  0
INSERT
  8
29
  2
ROUNDP
 10
88.9000
 20
2.5400
 30
0.0000
 41
1.0112
 42
1.0112
 43
1.0000
 50
0.0000
  0
INSERT
  8
30
  2
ROUNDP
 10
88.9000
 20
2.5400
 30
0.0000
 41
1.0112
 42
1.0112
 43
1.0000
 50
0.0000
  0
CIRCLE
  8
44
 10
88.9000
 20
2.5400
 30
0.0000
 40
0.1500
  0
INSERT
  8
17
  2
ROUNDP
 10
23.4950
 20
57.7850
 30
0.0000
 41
1.0000
 42
1.0000
 43
1.0000
 50
0.0000
  0
INSERT
  8
17
  2
ROUNDP
 10
23.4950
 20
57.7850
 30
0.0000
 41
1.0000
 42
1.0000
 43
1.0000
 50
0.0000
  0
INSERT
  8
29
  2
ROUNDP
 10
23.4950
 20
57.7850
 30
0.0000
 41
1.2032
 42
1.2032
 43
1.0000
 50
0.0000
  0
INSERT
  8
30
  2
ROUNDP
 10
23.4950
 20
57.7850
 30
0.0000
 41
1.2032
 42
1.2032
 43
1.0000
 50
0.0000
  0
CIRCLE
  8
44
 10
23.4950
 20
57.7850
 30
0.0000
 40
0.1500
  0
INSERT
  8
17
  2
ROUNDP
 10
25.4000
 20
57.7850
 30
0.0000
 41
1.0000
 42
1.0000
 43
1.0000
 50
0.0000
  0
INSERT
  8
17
  2
ROUNDP
 10
25.4000
 20
57.7850
 30
0.0000
 41
1.0000
 42
1.0000
 43
1.0000
 50
0.0000
  0
INSERT
  8
29
  2
ROUNDP
 10
25.4000
 20
57.7850
 30
0.0000
 41
1.2032
 42
1.2032
 43
1.0000
 50
0.0000
  0
INSERT
  8
30
  2
ROUNDP
 10
25.4000
 20
57.7850
 30
0.0000
 41
1.2032
 42
1.2032
 43
1.0000
 50
0.0000
  0
CIRCLE
  8
44
 10
25.4000
 20
57.7850
 30
0.0000
 40
0.1500
  0
INSERT
  8
17
  2
ROUNDP
 10
27.3050
 20
57.7850
 30
0.0000
 41
1.0000
 42
1.0000
 43
1.0000
 50
0.0000
  0
INSERT
  8
17
  2
ROUNDP
 10
27.3050
 20
57.7850
 30
0.0000
 41
1.0000
 42
1.0000
 43
1.0000
 50
0.0000
  0
INSERT
  8
29
  2
ROUNDP
 10
27.3050
 20
57.7850
 30
0.0000
 41
1.2032
 42
1.2032
 43
1.0000
 50
0.0000
  0
INSERT
  8
30
  2
ROUNDP
 10
27.3050
 20
57.7850
 30
0.0000
 41
1.2032
 42
1.2032
 43
1.0000
 50
0.0000
  0
CIRCLE
  8
44
 10
27.3050
 20
57.7850
 30
0.0000
 40
0.1500
  0
INSERT
  8
17
  2
ROUNDP
 10
23.4950
 20
55.8800
 30
0.0000
 41
1.0000
 42
1.0000
 43
1.0000
 50
0.0000
  0
INSERT
  8
17
  2
ROUNDP
 10
23.4950
 20
55.8800
 30
0.0000
 41
1.0000
 42
1.0000
 43
1.0000
 50
0.0000
  0
INSERT
  8
29
  2
ROUNDP
 10
23.4950
 20
55.8800
 30
0.0000
 41
1.2032
 42
1.2032
 43
1.0000
 50
0.0000
  0
INSERT
  8
30
  2
ROUNDP
 10
23.4950
 20
55.8800
 30
0.0000
 41
1.2032
 42
1.2032
 43
1.0000
 50
0.0000
  0
CIRCLE
  8
44
 10
23.4950
 20
55.8800
 30
0.0000
 40
0.1500
  0
INSERT
  8
17
  2
ROUNDP
 10
25.4000
 20
55.8800
 30
0.0000
 41
1.0000
 42
1.0000
 43
1.0000
 50
0.0000
  0
INSERT
  8
17
  2
ROUNDP
 10
25.4000
 20
55.8800
 30
0.0000
 41
1.0000
 42
1.0000
 43
1.0000
 50
0.0000
  0
INSERT
  8
29
  2
ROUNDP
 10
25.4000
 20
55.8800
 30
0.0000
 41
1.2032
 42
1.2032
 43
1.0000
 50
0.0000
  0
INSERT
  8
30
  2
ROUNDP
 10
25.4000
 20
55.8800
 30
0.0000
 41
1.2032
 42
1.2032
 43
1.0000
 50
0.0000
  0
CIRCLE
  8
44
 10
25.4000
 20
55.8800
 30
0.0000
 40
0.1500
  0
INSERT
  8
17
  2
ROUNDP
 10
27.3050
 20
55.8800
 30
0.0000
 41
1.0000
 42
1.0000
 43
1.0000
 50
0.0000
  0
INSERT
  8
17
  2
ROUNDP
 10
27.3050
 20
55.8800
 30
0.0000
 41
1.0000
 42
1.0000
 43
1.0000
 50
0.0000
  0
INSERT
  8
29
  2
ROUNDP
 10
27.3050
 20
55.8800
 30
0.0000
 41
1.2032
 42
1.2032
 43
1.0000
 50
0.0000
  0
INSERT
  8
30
  2
ROUNDP
 10
27.3050
 20
55.8800
 30
0.0000
 41
1.2032
 42
1.2032
 43
1.0000
 50
0.0000
  0
CIRCLE
  8
44
 10
27.3050
 20
55.8800
 30
0.0000
 40
0.1500
  0
INSERT
  8
17
  2
ROUNDP
 10
23.4950
 20
53.9750
 30
0.0000
 41
1.0000
 42
1.0000
 43
1.0000
 50
0.0000
  0
INSERT
  8
17
  2
ROUNDP
 10
23.4950
 20
53.9750
 30
0.0000
 41
1.0000
 42
1.0000
 43
1.0000
 50
0.0000
  0
INSERT
  8
29
  2
ROUNDP
 10
23.4950
 20
53.9750
 30
0.0000
 41
1.2032
 42
1.2032
 43
1.0000
 50
0.0000
  0
INSERT
  8
30
  2
ROUNDP
 10
23.4950
 20
53.9750
 30
0.0000
 41
1.2032
 42
1.2032
 43
1.0000
 50
0.0000
  0
CIRCLE
  8
44
 10
23.4950
 20
53.9750
 30
0.0000
 40
0.1500
  0
INSERT
  8
17
  2
ROUNDP
 10
25.4000
 20
53.9750
 30
0.0000
 41
1.0000
 42
1.0000
 43
1.0000
 50
0.0000
  0
INSERT
  8
17
  2
ROUNDP
 10
25.4000
 20
53.9750
 30
0.0000
 41
1.0000
 42
1.0000
 43
1.0000
 50
0.0000
  0
INSERT
  8
29
  2
ROUNDP
 10
25.4000
 20
53.9750
 30
0.0000
 41
1.2032
 42
1.2032
 43
1.0000
 50
0.0000
  0
INSERT
  8
30
  2
ROUNDP
 10
25.4000
 20
53.9750
 30
0.0000
 41
1.2032
 42
1.2032
 43
1.0000
 50
0.0000
  0
CIRCLE
  8
44
 10
25.4000
 20
53.9750
 30
0.0000
 40
0.1500
  0
INSERT
  8
17
  2
ROUNDP
 10
27.3050
 20
53.9750
 30
0.0000
 41
1.0000
 42
1.0000
 43
1.0000
 50
0.0000
  0
INSERT
  8
17
  2
ROUNDP
 10
27.3050
 20
53.9750
 30
0.0000
 41
1.0000
 42
1.0000
 43
1.0000
 50
0.0000
  0
INSERT
  8
29
  2
ROUNDP
 10
27.3050
 20
53.9750
 30
0.0000
 41
1.2032
 42
1.2032
 43
1.0000
 50
0.0000
  0
INSERT
  8
30
  2
ROUNDP
 10
27.3050
 20
53.9750
 30
0.0000
 41
1.2032
 42
1.2032
 43
1.0000
 50
0.0000
  0
CIRCLE
  8
44
 10
27.3050
 20
53.9750
 30
0.0000
 40
0.1500
  0
INSERT
  8
17
  2
ROUNDP
 10
76.2000
 20
57.7850
 30
0.0000
 41
1.0000
 42
1.0000
 43
1.0000
 50
0.0000
  0
INSERT
  8
17
  2
ROUNDP
 10
76.2000
 20
57.7850
 30
0.0000
 41
1.0000
 42
1.0000
 43
1.0000
 50
0.0000
  0
INSERT
  8
29
  2
ROUNDP
 10
76.2000
 20
57.7850
 30
0.0000
 41
1.2032
 42
1.2032
 43
1.0000
 50
0.0000
  0
INSERT
  8
30
  2
ROUNDP
 10
76.2000
 20
57.7850
 30
0.0000
 41
1.2032
 42
1.2032
 43
1.0000
 50
0.0000
  0
CIRCLE
  8
44
 10
76.2000
 20
57.7850
 30
0.0000
 40
0.1500
  0
INSERT
  8
17
  2
ROUNDP
 10
74.2950
 20
57.7850
 30
0.0000
 41
1.0000
 42
1.0000
 43
1.0000
 50
0.0000
  0
INSERT
  8
17
  2
ROUNDP
 10
74.2950
 20
57.7850
 30
0.0000
 41
1.0000
 42
1.0000
 43
1.0000
 50
0.0000
  0
INSERT
  8
29
  2
ROUNDP
 10
74.2950
 20
57.7850
 30
0.0000
 41
1.2032
 42
1.2032
 43
1.0000
 50
0.0000
  0
INSERT
  8
30
  2
ROUNDP
 10
74.2950
 20
57.7850
 30
0.0000
 41
1.2032
 42
1.2032
 43
1.0000
 50
0.0000
  0
CIRCLE
  8
44
 10
74.2950
 20
57.7850
 30
0.0000
 40
0.1500
  0
INSERT
  8
17
  2
ROUNDP
 10
78.1050
 20
57.7850
 30
0.0000
 41
1.0000
 42
1.0000
 43
1.0000
 50
0.0000
  0
INSERT
  8
17
  2
ROUNDP
 10
78.1050
 20
57.7850
 30
0.0000
 41
1.0000
 42
1.0000
 43
1.0000
 50
0.0000
  0
INSERT
  8
29
  2
ROUNDP
 10
78.1050
 20
57.7850
 30
0.0000
 41
1.2032
 42
1.2032
 43
1.0000
 50
0.0000
  0
INSERT
  8
30
  2
ROUNDP
 10
78.1050
 20
57.7850
 30
0.0000
 41
1.2032
 42
1.2032
 43
1.0000
 50
0.0000
  0
CIRCLE
  8
44
 10
78.1050
 20
57.7850
 30
0.0000
 40
0.1500
  0
INSERT
  8
17
  2
ROUNDP
 10
74.2950
 20
55.8800
 30
0.0000
 41
1.0000
 42
1.0000
 43
1.0000
 50
0.0000
  0
INSERT
  8
17
  2
ROUNDP
 10
74.2950
 20
55.8800
 30
0.0000
 41
1.0000
 42
1.0000
 43
1.0000
 50
0.0000
  0
INSERT
  8
29
  2
ROUNDP
 10
74.2950
 20
55.8800
 30
0.0000
 41
1.2032
 42
1.2032
 43
1.0000
 50
0.0000
  0
INSERT
  8
30
  2
ROUNDP
 10
74.2950
 20
55.8800
 30
0.0000
 41
1.2032
 42
1.2032
 43
1.0000
 50
0.0000
  0
CIRCLE
  8
44
 10
74.2950
 20
55.8800
 30
0.0000
 40
0.1500
  0
INSERT
  8
17
  2
ROUNDP
 10
76.2000
 20
55.8800
 30
0.0000
 41
1.0000
 42
1.0000
 43
1.0000
 50
0.0000
  0
INSERT
  8
17
  2
ROUNDP
 10
76.2000
 20
55.8800
 30
0.0000
 41
1.0000
 42
1.0000
 43
1.0000
 50
0.0000
  0
INSERT
  8
29
  2
ROUNDP
 10
76.2000
 20
55.8800
 30
0.0000
 41
1.2032
 42
1.2032
 43
1.0000
 50
0.0000
  0
INSERT
  8
30
  2
ROUNDP
 10
76.2000
 20
55.8800
 30
0.0000
 41
1.2032
 42
1.2032
 43
1.0000
 50
0.0000
  0
CIRCLE
  8
44
 10
76.2000
 20
55.8800
 30
0.0000
 40
0.1500
  0
INSERT
  8
17
  2
ROUNDP
 10
78.1050
 20
55.8800
 30
0.0000
 41
1.0000
 42
1.0000
 43
1.0000
 50
0.0000
  0
INSERT
  8
17
  2
ROUNDP
 10
78.1050
 20
55.8800
 30
0.0000
 41
1.0000
 42
1.0000
 43
1.0000
 50
0.0000
  0
INSERT
  8
29
  2
ROUNDP
 10
78.1050
 20
55.8800
 30
0.0000
 41
1.2032
 42
1.2032
 43
1.0000
 50
0.0000
  0
INSERT
  8
30
  2
ROUNDP
 10
78.1050
 20
55.8800
 30
0.0000
 41
1.2032
 42
1.2032
 43
1.0000
 50
0.0000
  0
CIRCLE
  8
44
 10
78.1050
 20
55.8800
 30
0.0000
 40
0.1500
  0
INSERT
  8
17
  2
ROUNDP
 10
74.2950
 20
53.9750
 30
0.0000
 41
1.0000
 42
1.0000
 43
1.0000
 50
0.0000
  0
INSERT
  8
17
  2
ROUNDP
 10
74.2950
 20
53.9750
 30
0.0000
 41
1.0000
 42
1.0000
 43
1.0000
 50
0.0000
  0
INSERT
  8
29
  2
ROUNDP
 10
74.2950
 20
53.9750
 30
0.0000
 41
1.2032
 42
1.2032
 43
1.0000
 50
0.0000
  0
INSERT
  8
30
  2
ROUNDP
 10
74.2950
 20
53.9750
 30
0.0000
 41
1.2032
 42
1.2032
 43
1.0000
 50
0.0000
  0
CIRCLE
  8
44
 10
74.2950
 20
53.9750
 30
0.0000
 40
0.1500
  0
INSERT
  8
17
  2
ROUNDP
 10
76.2000
 20
53.9750
 30
0.0000
 41
1.0000
 42
1.0000
 43
1.0000
 50
0.0000
  0
INSERT
  8
17
  2
ROUNDP
 10
76.2000
 20
53.9750
 30
0.0000
 41
1.0000
 42
1.0000
 43
1.0000
 50
0.0000
  0
INSERT
  8
29
  2
ROUNDP
 10
76.2000
 20
53.9750
 30
0.0000
 41
1.2032
 42
1.2032
 43
1.0000
 50
0.0000
  0
INSERT
  8
30
  2
ROUNDP
 10
76.2000
 20
53.9750
 30
0.0000
 41
1.2032
 42
1.2032
 43
1.0000
 50
0.0000
  0
CIRCLE
  8
44
 10
76.2000
 20
53.9750
 30
0.0000
 40
0.1500
  0
INSERT
  8
17
  2
ROUNDP
 10
78.1050
 20
53.9750
 30
0.0000
 41
1.0000
 42
1.0000
 43
1.0000
 50
0.0000
  0
INSERT
  8
17
  2
ROUNDP
 10
78.1050
 20
53.9750
 30
0.0000
 41
1.0000
 42
1.0000
 43
1.0000
 50
0.0000
  0
INSERT
  8
29
  2
ROUNDP
 10
78.1050
 20
53.9750
 30
0.0000
 41
1.2032
 42
1.2032
 43
1.0000
 50
0.0000
  0
INSERT
  8
30
  2
ROUNDP
 10
78.1050
 20
53.9750
 30
0.0000
 41
1.2032
 42
1.2032
 43
1.0000
 50
0.0000
  0
CIRCLE
  8
44
 10
78.1050
 20
53.9750
 30
0.0000
 40
0.1500
  0
INSERT
  8
17
  2
ROUNDP
 10
74.2950
 20
22.2250
 30
0.0000
 41
1.0000
 42
1.0000
 43
1.0000
 50
0.0000
  0
INSERT
  8
17
  2
ROUNDP
 10
74.2950
 20
22.2250
 30
0.0000
 41
1.0000
 42
1.0000
 43
1.0000
 50
0.0000
  0
INSERT
  8
29
  2
ROUNDP
 10
74.2950
 20
22.2250
 30
0.0000
 41
1.2032
 42
1.2032
 43
1.0000
 50
0.0000
  0
INSERT
  8
30
  2
ROUNDP
 10
74.2950
 20
22.2250
 30
0.0000
 41
1.2032
 42
1.2032
 43
1.0000
 50
0.0000
  0
CIRCLE
  8
44
 10
74.2950
 20
22.2250
 30
0.0000
 40
0.1500
  0
INSERT
  8
17
  2
ROUNDP
 10
76.2000
 20
22.2250
 30
0.0000
 41
1.0000
 42
1.0000
 43
1.0000
 50
0.0000
  0
INSERT
  8
17
  2
ROUNDP
 10
76.2000
 20
22.2250
 30
0.0000
 41
1.0000
 42
1.0000
 43
1.0000
 50
0.0000
  0
INSERT
  8
29
  2
ROUNDP
 10
76.2000
 20
22.2250
 30
0.0000
 41
1.2032
 42
1.2032
 43
1.0000
 50
0.0000
  0
INSERT
  8
30
  2
ROUNDP
 10
76.2000
 20
22.2250
 30
0.0000
 41
1.2032
 42
1.2032
 43
1.0000
 50
0.0000
  0
CIRCLE
  8
44
 10
76.2000
 20
22.2250
 30
0.0000
 40
0.1500
  0
INSERT
  8
17
  2
ROUNDP
 10
78.1050
 20
22.2250
 30
0.0000
 41
1.0000
 42
1.0000
 43
1.0000
 50
0.0000
  0
INSERT
  8
17
  2
ROUNDP
 10
78.1050
 20
22.2250
 30
0.0000
 41
1.0000
 42
1.0000
 43
1.0000
 50
0.0000
  0
INSERT
  8
29
  2
ROUNDP
 10
78.1050
 20
22.2250
 30
0.0000
 41
1.2032
 42
1.2032
 43
1.0000
 50
0.0000
  0
INSERT
  8
30
  2
ROUNDP
 10
78.1050
 20
22.2250
 30
0.0000
 41
1.2032
 42
1.2032
 43
1.0000
 50
0.0000
  0
CIRCLE
  8
44
 10
78.1050
 20
22.2250
 30
0.0000
 40
0.1500
  0
INSERT
  8
17
  2
ROUNDP
 10
74.2950
 20
20.3200
 30
0.0000
 41
1.0000
 42
1.0000
 43
1.0000
 50
0.0000
  0
INSERT
  8
17
  2
ROUNDP
 10
74.2950
 20
20.3200
 30
0.0000
 41
1.0000
 42
1.0000
 43
1.0000
 50
0.0000
  0
INSERT
  8
29
  2
ROUNDP
 10
74.2950
 20
20.3200
 30
0.0000
 41
1.2032
 42
1.2032
 43
1.0000
 50
0.0000
  0
INSERT
  8
30
  2
ROUNDP
 10
74.2950
 20
20.3200
 30
0.0000
 41
1.2032
 42
1.2032
 43
1.0000
 50
0.0000
  0
CIRCLE
  8
44
 10
74.2950
 20
20.3200
 30
0.0000
 40
0.1500
  0
INSERT
  8
17
  2
ROUNDP
 10
76.2000
 20
20.3200
 30
0.0000
 41
1.0000
 42
1.0000
 43
1.0000
 50
0.0000
  0
INSERT
  8
17
  2
ROUNDP
 10
76.2000
 20
20.3200
 30
0.0000
 41
1.0000
 42
1.0000
 43
1.0000
 50
0.0000
  0
INSERT
  8
29
  2
ROUNDP
 10
76.2000
 20
20.3200
 30
0.0000
 41
1.2032
 42
1.2032
 43
1.0000
 50
0.0000
  0
INSERT
  8
30
  2
ROUNDP
 10
76.2000
 20
20.3200
 30
0.0000
 41
1.2032
 42
1.2032
 43
1.0000
 50
0.0000
  0
CIRCLE
  8
44
 10
76.2000
 20
20.3200
 30
0.0000
 40
0.1500
  0
INSERT
  8
17
  2
ROUNDP
 10
78.1050
 20
20.3200
 30
0.0000
 41
1.0000
 42
1.0000
 43
1.0000
 50
0.0000
  0
INSERT
  8
17
  2
ROUNDP
 10
78.1050
 20
20.3200
 30
0.0000
 41
1.0000
 42
1.0000
 43
1.0000
 50
0.0000
  0
INSERT
  8
29
  2
ROUNDP
 10
78.1050
 20
20.3200
 30
0.0000
 41
1.2032
 42
1.2032
 43
1.0000
 50
0.0000
  0
INSERT
  8
30
  2
ROUNDP
 10
78.1050
 20
20.3200
 30
0.0000
 41
1.2032
 42
1.2032
 43
1.0000
 50
0.0000
  0
CIRCLE
  8
44
 10
78.1050
 20
20.3200
 30
0.0000
 40
0.1500
  0
INSERT
  8
17
  2
ROUNDP
 10
74.2950
 20
18.4150
 30
0.0000
 41
1.0000
 42
1.0000
 43
1.0000
 50
0.0000
  0
INSERT
  8
17
  2
ROUNDP
 10
74.2950
 20
18.4150
 30
0.0000
 41
1.0000
 42
1.0000
 43
1.0000
 50
0.0000
  0
INSERT
  8
29
  2
ROUNDP
 10
74.2950
 20
18.4150
 30
0.0000
 41
1.2032
 42
1.2032
 43
1.0000
 50
0.0000
  0
INSERT
  8
30
  2
ROUNDP
 10
74.2950
 20
18.4150
 30
0.0000
 41
1.2032
 42
1.2032
 43
1.0000
 50
0.0000
  0
CIRCLE
  8
44
 10
74.2950
 20
18.4150
 30
0.0000
 40
0.1500
  0
INSERT
  8
17
  2
ROUNDP
 10
76.2000
 20
18.4150
 30
0.0000
 41
1.0000
 42
1.0000
 43
1.0000
 50
0.0000
  0
INSERT
  8
17
  2
ROUNDP
 10
76.2000
 20
18.4150
 30
0.0000
 41
1.0000
 42
1.0000
 43
1.0000
 50
0.0000
  0
INSERT
  8
29
  2
ROUNDP
 10
76.2000
 20
18.4150
 30
0.0000
 41
1.2032
 42
1.2032
 43
1.0000
 50
0.0000
  0
INSERT
  8
30
  2
ROUNDP
 10
76.2000
 20
18.4150
 30
0.0000
 41
1.2032
 42
1.2032
 43
1.0000
 50
0.0000
  0
CIRCLE
  8
44
 10
76.2000
 20
18.4150
 30
0.0000
 40
0.1500
  0
INSERT
  8
17
  2
ROUNDP
 10
78.1050
 20
18.4150
 30
0.0000
 41
1.0000
 42
1.0000
 43
1.0000
 50
0.0000
  0
INSERT
  8
17
  2
ROUNDP
 10
78.1050
 20
18.4150
 30
0.0000
 41
1.0000
 42
1.0000
 43
1.0000
 50
0.0000
  0
INSERT
  8
29
  2
ROUNDP
 10
78.1050
 20
18.4150
 30
0.0000
 41
1.2032
 42
1.2032
 43
1.0000
 50
0.0000
  0
INSERT
  8
30
  2
ROUNDP
 10
78.1050
 20
18.4150
 30
0.0000
 41
1.2032
 42
1.2032
 43
1.0000
 50
0.0000
  0
CIRCLE
  8
44
 10
78.1050
 20
18.4150
 30
0.0000
 40
0.1500
  0
INSERT
  8
17
  2
ROUNDP
 10
23.4950
 20
22.2250
 30
0.0000
 41
1.0000
 42
1.0000
 43
1.0000
 50
0.0000
  0
INSERT
  8
17
  2
ROUNDP
 10
23.4950
 20
22.2250
 30
0.0000
 41
1.0000
 42
1.0000
 43
1.0000
 50
0.0000
  0
INSERT
  8
29
  2
ROUNDP
 10
23.4950
 20
22.2250
 30
0.0000
 41
1.2032
 42
1.2032
 43
1.0000
 50
0.0000
  0
INSERT
  8
30
  2
ROUNDP
 10
23.4950
 20
22.2250
 30
0.0000
 41
1.2032
 42
1.2032
 43
1.0000
 50
0.0000
  0
CIRCLE
  8
44
 10
23.4950
 20
22.2250
 30
0.0000
 40
0.1500
  0
INSERT
  8
17
  2
ROUNDP
 10
25.4000
 20
22.2250
 30
0.0000
 41
1.0000
 42
1.0000
 43
1.0000
 50
0.0000
  0
INSERT
  8
17
  2
ROUNDP
 10
25.4000
 20
22.2250
 30
0.0000
 41
1.0000
 42
1.0000
 43
1.0000
 50
0.0000
  0
INSERT
  8
29
  2
ROUNDP
 10
25.4000
 20
22.2250
 30
0.0000
 41
1.2032
 42
1.2032
 43
1.0000
 50
0.0000
  0
INSERT
  8
30
  2
ROUNDP
 10
25.4000
 20
22.2250
 30
0.0000
 41
1.2032
 42
1.2032
 43
1.0000
 50
0.0000
  0
CIRCLE
  8
44
 10
25.4000
 20
22.2250
 30
0.0000
 40
0.1500
  0
INSERT
  8
17
  2
ROUNDP
 10
27.3050
 20
22.2250
 30
0.0000
 41
1.0000
 42
1.0000
 43
1.0000
 50
0.0000
  0
INSERT
  8
17
  2
ROUNDP
 10
27.3050
 20
22.2250
 30
0.0000
 41
1.0000
 42
1.0000
 43
1.0000
 50
0.0000
  0
INSERT
  8
29
  2
ROUNDP
 10
27.3050
 20
22.2250
 30
0.0000
 41
1.2032
 42
1.2032
 43
1.0000
 50
0.0000
  0
INSERT
  8
30
  2
ROUNDP
 10
27.3050
 20
22.2250
 30
0.0000
 41
1.2032
 42
1.2032
 43
1.0000
 50
0.0000
  0
CIRCLE
  8
44
 10
27.3050
 20
22.2250
 30
0.0000
 40
0.1500
  0
INSERT
  8
17
  2
ROUNDP
 10
23.4950
 20
20.3200
 30
0.0000
 41
1.0000
 42
1.0000
 43
1.0000
 50
0.0000
  0
INSERT
  8
17
  2
ROUNDP
 10
23.4950
 20
20.3200
 30
0.0000
 41
1.0000
 42
1.0000
 43
1.0000
 50
0.0000
  0
INSERT
  8
29
  2
ROUNDP
 10
23.4950
 20
20.3200
 30
0.0000
 41
1.2032
 42
1.2032
 43
1.0000
 50
0.0000
  0
INSERT
  8
30
  2
ROUNDP
 10
23.4950
 20
20.3200
 30
0.0000
 41
1.2032
 42
1.2032
 43
1.0000
 50
0.0000
  0
CIRCLE
  8
44
 10
23.4950
 20
20.3200
 30
0.0000
 40
0.1500
  0
INSERT
  8
17
  2
ROUNDP
 10
25.4000
 20
20.3200
 30
0.0000
 41
1.0000
 42
1.0000
 43
1.0000
 50
0.0000
  0
INSERT
  8
17
  2
ROUNDP
 10
25.4000
 20
20.3200
 30
0.0000
 41
1.0000
 42
1.0000
 43
1.0000
 50
0.0000
  0
INSERT
  8
29
  2
ROUNDP
 10
25.4000
 20
20.3200
 30
0.0000
 41
1.2032
 42
1.2032
 43
1.0000
 50
0.0000
  0
INSERT
  8
30
  2
ROUNDP
 10
25.4000
 20
20.3200
 30
0.0000
 41
1.2032
 42
1.2032
 43
1.0000
 50
0.0000
  0
CIRCLE
  8
44
 10
25.4000
 20
20.3200
 30
0.0000
 40
0.1500
  0
INSERT
  8
17
  2
ROUNDP
 10
27.3050
 20
20.3200
 30
0.0000
 41
1.0000
 42
1.0000
 43
1.0000
 50
0.0000
  0
INSERT
  8
17
  2
ROUNDP
 10
27.3050
 20
20.3200
 30
0.0000
 41
1.0000
 42
1.0000
 43
1.0000
 50
0.0000
  0
INSERT
  8
29
  2
ROUNDP
 10
27.3050
 20
20.3200
 30
0.0000
 41
1.2032
 42
1.2032
 43
1.0000
 50
0.0000
  0
INSERT
  8
30
  2
ROUNDP
 10
27.3050
 20
20.3200
 30
0.0000
 41
1.2032
 42
1.2032
 43
1.0000
 50
0.0000
  0
CIRCLE
  8
44
 10
27.3050
 20
20.3200
 30
0.0000
 40
0.1500
  0
INSERT
  8
17
  2
ROUNDP
 10
23.4950
 20
18.4150
 30
0.0000
 41
1.0000
 42
1.0000
 43
1.0000
 50
0.0000
  0
INSERT
  8
17
  2
ROUNDP
 10
23.4950
 20
18.4150
 30
0.0000
 41
1.0000
 42
1.0000
 43
1.0000
 50
0.0000
  0
INSERT
  8
29
  2
ROUNDP
 10
23.4950
 20
18.4150
 30
0.0000
 41
1.2032
 42
1.2032
 43
1.0000
 50
0.0000
  0
INSERT
  8
30
  2
ROUNDP
 10
23.4950
 20
18.4150
 30
0.0000
 41
1.2032
 42
1.2032
 43
1.0000
 50
0.0000
  0
CIRCLE
  8
44
 10
23.4950
 20
18.4150
 30
0.0000
 40
0.1500
  0
INSERT
  8
17
  2
ROUNDP
 10
25.4000
 20
18.4150
 30
0.0000
 41
1.0000
 42
1.0000
 43
1.0000
 50
0.0000
  0
INSERT
  8
17
  2
ROUNDP
 10
25.4000
 20
18.4150
 30
0.0000
 41
1.0000
 42
1.0000
 43
1.0000
 50
0.0000
  0
INSERT
  8
29
  2
ROUNDP
 10
25.4000
 20
18.4150
 30
0.0000
 41
1.2032
 42
1.2032
 43
1.0000
 50
0.0000
  0
INSERT
  8
30
  2
ROUNDP
 10
25.4000
 20
18.4150
 30
0.0000
 41
1.2032
 42
1.2032
 43
1.0000
 50
0.0000
  0
CIRCLE
  8
44
 10
25.4000
 20
18.4150
 30
0.0000
 40
0.1500
  0
INSERT
  8
17
  2
ROUNDP
 10
27.3050
 20
18.4150
 30
0.0000
 41
1.0000
 42
1.0000
 43
1.0000
 50
0.0000
  0
INSERT
  8
17
  2
ROUNDP
 10
27.3050
 20
18.4150
 30
0.0000
 41
1.0000
 42
1.0000
 43
1.0000
 50
0.0000
  0
INSERT
  8
29
  2
ROUNDP
 10
27.3050
 20
18.4150
 30
0.0000
 41
1.2032
 42
1.2032
 43
1.0000
 50
0.0000
  0
INSERT
  8
30
  2
ROUNDP
 10
27.3050
 20
18.4150
 30
0.0000
 41
1.2032
 42
1.2032
 43
1.0000
 50
0.0000
  0
CIRCLE
  8
44
 10
27.3050
 20
18.4150
 30
0.0000
 40
0.1500
  0
INSERT
  8
29
  2
RECT
 10
6.9850
 20
69.8500
 30
0.0000
 41
1.4732
 42
0.8382
 43
1.0000
 50
180.0000
  0
INSERT
  8
31
  2
RECT
 10
6.9850
 20
69.8500
 30
0.0000
 41
1.2700
 42
0.6350
 43
1.0000
 50
180.0000
  0
INSERT
  8
30
  2
RECT
 10
6.9850
 20
69.8500
 30
0.0000
 41
1.4732
 42
0.8382
 43
1.0000
 50
180.0000
  0
INSERT
  8
32
  2
RECT
 10
6.9850
 20
69.8500
 30
0.0000
 41
1.2700
 42
0.6350
 43
1.0000
 50
180.0000
  0
INSERT
  8
17
  2
LONGP100
 10
3.8100
 20
69.8500
 30
0.0000
 41
1.5240
 42
1.5240
 43
1.0000
 50
180.0000
  0
INSERT
  8
17
  2
LONGP100
 10
3.8100
 20
69.8500
 30
0.0000
 41
1.5240
 42
1.5240
 43
1.0000
 50
180.0000
  0
INSERT
  8
29
  2
LONGP100
 10
3.8100
 20
69.8500
 30
0.0000
 41
1.7272
 42
1.7272
 43
1.0000
 50
180.0000
  0
INSERT
  8
30
  2
LONGP100
 10
3.8100
 20
69.8500
 30
0.0000
 41
1.7272
 42
1.7272
 43
1.0000
 50
180.0000
  0
CIRCLE
  8
44
 10
3.8100
 20
69.8500
 30
0.0000
 40
0.5080
  0
INSERT
  8
29
  2
RECT
 10
6.9850
 20
67.3100
 30
0.0000
 41
1.4732
 42
0.8382
 43
1.0000
 50
180.0000
  0
INSERT
  8
31
  2
RECT
 10
6.9850
 20
67.3100
 30
0.0000
 41
1.2700
 42
0.6350
 43
1.0000
 50
180.0000
  0
INSERT
  8
30
  2
RECT
 10
6.9850
 20
67.3100
 30
0.0000
 41
1.4732
 42
0.8382
 43
1.0000
 50
180.0000
  0
INSERT
  8
32
  2
RECT
 10
6.9850
 20
67.3100
 30
0.0000
 41
1.2700
 42
0.6350
 43
1.0000
 50
180.0000
  0
INSERT
  8
17
  2
LONGP100
 10
3.8100
 20
67.3100
 30
0.0000
 41
1.5240
 42
1.5240
 43
1.0000
 50
180.0000
  0
INSERT
  8
17
  2
LONGP100
 10
3.8100
 20
67.3100
 30
0.0000
 41
1.5240
 42
1.5240
 43
1.0000
 50
180.0000
  0
INSERT
  8
29
  2
LONGP100
 10
3.8100
 20
67.3100
 30
0.0000
 41
1.7272
 42
1.7272
 43
1.0000
 50
180.0000
  0
INSERT
  8
30
  2
LONGP100
 10
3.8100
 20
67.3100
 30
0.0000
 41
1.7272
 42
1.7272
 43
1.0000
 50
180.0000
  0
CIRCLE
  8
44
 10
3.8100
 20
67.3100
 30
0.0000
 40
0.5080
  0
INSERT
  8
29
  2
RECT
 10
6.9850
 20
64.7700
 30
0.0000
 41
1.4732
 42
0.8382
 43
1.0000
 50
180.0000
  0
INSERT
  8
31
  2
RECT
 10
6.9850
 20
64.7700
 30
0.0000
 41
1.2700
 42
0.6350
 43
1.0000
 50
180.0000
  0
INSERT
  8
30
  2
RECT
 10
6.9850
 20
64.7700
 30
0.0000
 41
1.4732
 42
0.8382
 43
1.0000
 50
180.0000
  0
INSERT
  8
32
  2
RECT
 10
6.9850
 20
64.7700
 30
0.0000
 41
1.2700
 42
0.6350
 43
1.0000
 50
180.0000
  0
INSERT
  8
17
  2
LONGP100
 10
3.8100
 20
64.7700
 30
0.0000
 41
1.5240
 42
1.5240
 43
1.0000
 50
180.0000
  0
INSERT
  8
17
  2
LONGP100
 10
3.8100
 20
64.7700
 30
0.0000
 41
1.5240
 42
1.5240
 43
1.0000
 50
180.0000
  0
INSERT
  8
29
  2
LONGP100
 10
3.8100
 20
64.7700
 30
0.0000
 41
1.7272
 42
1.7272
 43
1.0000
 50
180.0000
  0
INSERT
  8
30
  2
LONGP100
 10
3.8100
 20
64.7700
 30
0.0000
 41
1.7272
 42
1.7272
 43
1.0000
 50
180.0000
  0
CIRCLE
  8
44
 10
3.8100
 20
64.7700
 30
0.0000
 40
0.5080
  0
INSERT
  8
29
  2
RECT
 10
6.9850
 20
62.2300
 30
0.0000
 41
1.4732
 42
0.8382
 43
1.0000
 50
180.0000
  0
INSERT
  8
31
  2
RECT
 10
6.9850
 20
62.2300
 30
0.0000
 41
1.2700
 42
0.6350
 43
1.0000
 50
180.0000
  0
INSERT
  8
30
  2
RECT
 10
6.9850
 20
62.2300
 30
0.0000
 41
1.4732
 42
0.8382
 43
1.0000
 50
180.0000
  0
INSERT
  8
32
  2
RECT
 10
6.9850
 20
62.2300
 30
0.0000
 41
1.2700
 42
0.6350
 43
1.0000
 50
180.0000
  0
INSERT
  8
17
  2
LONGP100
 10
3.8100
 20
62.2300
 30
0.0000
 41
1.5240
 42
1.5240
 43
1.0000
 50
180.0000
  0
INSERT
  8
17
  2
LONGP100
 10
3.8100
 20
62.2300
 30
0.0000
 41
1.5240
 42
1.5240
 43
1.0000
 50
180.0000
  0
INSERT
  8
29
  2
LONGP100
 10
3.8100
 20
62.2300
 30
0.0000
 41
1.7272
 42
1.7272
 43
1.0000
 50
180.0000
  0
INSERT
  8
30
  2
LONGP100
 10
3.8100
 20
62.2300
 30
0.0000
 41
1.7272
 42
1.7272
 43
1.0000
 50
180.0000
  0
CIRCLE
  8
44
 10
3.8100
 20
62.2300
 30
0.0000
 40
0.5080
  0
INSERT
  8
29
  2
RECT
 10
6.9850
 20
59.6900
 30
0.0000
 41
1.4732
 42
0.8382
 43
1.0000
 50
180.0000
  0
INSERT
  8
31
  2
RECT
 10
6.9850
 20
59.6900
 30
0.0000
 41
1.2700
 42
0.6350
 43
1.0000
 50
180.0000
  0
INSERT
  8
30
  2
RECT
 10
6.9850
 20
59.6900
 30
0.0000
 41
1.4732
 42
0.8382
 43
1.0000
 50
180.0000
  0
INSERT
  8
32
  2
RECT
 10
6.9850
 20
59.6900
 30
0.0000
 41
1.2700
 42
0.6350
 43
1.0000
 50
180.0000
  0
INSERT
  8
17
  2
LONGP100
 10
3.8100
 20
59.6900
 30
0.0000
 41
1.5240
 42
1.5240
 43
1.0000
 50
180.0000
  0
INSERT
  8
17
  2
LONGP100
 10
3.8100
 20
59.6900
 30
0.0000
 41
1.5240
 42
1.5240
 43
1.0000
 50
180.0000
  0
INSERT
  8
29
  2
LONGP100
 10
3.8100
 20
59.6900
 30
0.0000
 41
1.7272
 42
1.7272
 43
1.0000
 50
180.0000
  0
INSERT
  8
30
  2
LONGP100
 10
3.8100
 20
59.6900
 30
0.0000
 41
1.7272
 42
1.7272
 43
1.0000
 50
180.0000
  0
CIRCLE
  8
44
 10
3.8100
 20
59.6900
 30
0.0000
 40
0.5080
  0
INSERT
  8
29
  2
RECT
 10
6.9850
 20
57.1500
 30
0.0000
 41
1.4732
 42
0.8382
 43
1.0000
 50
180.0000
  0
INSERT
  8
31
  2
RECT
 10
6.9850
 20
57.1500
 30
0.0000
 41
1.2700
 42
0.6350
 43
1.0000
 50
180.0000
  0
INSERT
  8
30
  2
RECT
 10
6.9850
 20
57.1500
 30
0.0000
 41
1.4732
 42
0.8382
 43
1.0000
 50
180.0000
  0
INSERT
  8
32
  2
RECT
 10
6.9850
 20
57.1500
 30
0.0000
 41
1.2700
 42
0.6350
 43
1.0000
 50
180.0000
  0
INSERT
  8
17
  2
LONGP100
 10
3.8100
 20
57.1500
 30
0.0000
 41
1.5240
 42
1.5240
 43
1.0000
 50
180.0000
  0
INSERT
  8
17
  2
LONGP100
 10
3.8100
 20
57.1500
 30
0.0000
 41
1.5240
 42
1.5240
 43
1.0000
 50
180.0000
  0
INSERT
  8
29
  2
LONGP100
 10
3.8100
 20
57.1500
 30
0.0000
 41
1.7272
 42
1.7272
 43
1.0000
 50
180.0000
  0
INSERT
  8
30
  2
LONGP100
 10
3.8100
 20
57.1500
 30
0.0000
 41
1.7272
 42
1.7272
 43
1.0000
 50
180.0000
  0
CIRCLE
  8
44
 10
3.8100
 20
57.1500
 30
0.0000
 40
0.5080
  0
INSERT
  8
29
  2
RECT
 10
6.9850
 20
54.6100
 30
0.0000
 41
1.4732
 42
0.8382
 43
1.0000
 50
180.0000
  0
INSERT
  8
31
  2
RECT
 10
6.9850
 20
54.6100
 30
0.0000
 41
1.2700
 42
0.6350
 43
1.0000
 50
180.0000
  0
INSERT
  8
30
  2
RECT
 10
6.9850
 20
54.6100
 30
0.0000
 41
1.4732
 42
0.8382
 43
1.0000
 50
180.0000
  0
INSERT
  8
32
  2
RECT
 10
6.9850
 20
54.6100
 30
0.0000
 41
1.2700
 42
0.6350
 43
1.0000
 50
180.0000
  0
INSERT
  8
17
  2
LONGP100
 10
3.8100
 20
54.6100
 30
0.0000
 41
1.5240
 42
1.5240
 43
1.0000
 50
180.0000
  0
INSERT
  8
17
  2
LONGP100
 10
3.8100
 20
54.6100
 30
0.0000
 41
1.5240
 42
1.5240
 43
1.0000
 50
180.0000
  0
INSERT
  8
29
  2
LONGP100
 10
3.8100
 20
54.6100
 30
0.0000
 41
1.7272
 42
1.7272
 43
1.0000
 50
180.0000
  0
INSERT
  8
30
  2
LONGP100
 10
3.8100
 20
54.6100
 30
0.0000
 41
1.7272
 42
1.7272
 43
1.0000
 50
180.0000
  0
CIRCLE
  8
44
 10
3.8100
 20
54.6100
 30
0.0000
 40
0.5080
  0
INSERT
  8
29
  2
RECT
 10
6.9850
 20
52.0700
 30
0.0000
 41
1.4732
 42
0.8382
 43
1.0000
 50
180.0000
  0
INSERT
  8
31
  2
RECT
 10
6.9850
 20
52.0700
 30
0.0000
 41
1.2700
 42
0.6350
 43
1.0000
 50
180.0000
  0
INSERT
  8
30
  2
RECT
 10
6.9850
 20
52.0700
 30
0.0000
 41
1.4732
 42
0.8382
 43
1.0000
 50
180.0000
  0
INSERT
  8
32
  2
RECT
 10
6.9850
 20
52.0700
 30
0.0000
 41
1.2700
 42
0.6350
 43
1.0000
 50
180.0000
  0
INSERT
  8
17
  2
LONGP100
 10
3.8100
 20
52.0700
 30
0.0000
 41
1.5240
 42
1.5240
 43
1.0000
 50
180.0000
  0
INSERT
  8
17
  2
LONGP100
 10
3.8100
 20
52.0700
 30
0.0000
 41
1.5240
 42
1.5240
 43
1.0000
 50
180.0000
  0
INSERT
  8
29
  2
LONGP100
 10
3.8100
 20
52.0700
 30
0.0000
 41
1.7272
 42
1.7272
 43
1.0000
 50
180.0000
  0
INSERT
  8
30
  2
LONGP100
 10
3.8100
 20
52.0700
 30
0.0000
 41
1.7272
 42
1.7272
 43
1.0000
 50
180.0000
  0
CIRCLE
  8
44
 10
3.8100
 20
52.0700
 30
0.0000
 40
0.5080
  0
INSERT
  8
29
  2
RECT
 10
6.9850
 20
49.5300
 30
0.0000
 41
1.4732
 42
0.8382
 43
1.0000
 50
180.0000
  0
INSERT
  8
31
  2
RECT
 10
6.9850
 20
49.5300
 30
0.0000
 41
1.2700
 42
0.6350
 43
1.0000
 50
180.0000
  0
INSERT
  8
30
  2
RECT
 10
6.9850
 20
49.5300
 30
0.0000
 41
1.4732
 42
0.8382
 43
1.0000
 50
180.0000
  0
INSERT
  8
32
  2
RECT
 10
6.9850
 20
49.5300
 30
0.0000
 41
1.2700
 42
0.6350
 43
1.0000
 50
180.0000
  0
INSERT
  8
17
  2
LONGP100
 10
3.8100
 20
49.5300
 30
0.0000
 41
1.5240
 42
1.5240
 43
1.0000
 50
180.0000
  0
INSERT
  8
17
  2
LONGP100
 10
3.8100
 20
49.5300
 30
0.0000
 41
1.5240
 42
1.5240
 43
1.0000
 50
180.0000
  0
INSERT
  8
29
  2
LONGP100
 10
3.8100
 20
49.5300
 30
0.0000
 41
1.7272
 42
1.7272
 43
1.0000
 50
180.0000
  0
INSERT
  8
30
  2
LONGP100
 10
3.8100
 20
49.5300
 30
0.0000
 41
1.7272
 42
1.7272
 43
1.0000
 50
180.0000
  0
CIRCLE
  8
44
 10
3.8100
 20
49.5300
 30
0.0000
 40
0.5080
  0
INSERT
  8
29
  2
RECT
 10
6.9850
 20
46.9900
 30
0.0000
 41
1.4732
 42
0.8382
 43
1.0000
 50
180.0000
  0
INSERT
  8
31
  2
RECT
 10
6.9850
 20
46.9900
 30
0.0000
 41
1.2700
 42
0.6350
 43
1.0000
 50
180.0000
  0
INSERT
  8
30
  2
RECT
 10
6.9850
 20
46.9900
 30
0.0000
 41
1.4732
 42
0.8382
 43
1.0000
 50
180.0000
  0
INSERT
  8
32
  2
RECT
 10
6.9850
 20
46.9900
 30
0.0000
 41
1.2700
 42
0.6350
 43
1.0000
 50
180.0000
  0
INSERT
  8
17
  2
LONGP100
 10
3.8100
 20
46.9900
 30
0.0000
 41
1.5240
 42
1.5240
 43
1.0000
 50
180.0000
  0
INSERT
  8
17
  2
LONGP100
 10
3.8100
 20
46.9900
 30
0.0000
 41
1.5240
 42
1.5240
 43
1.0000
 50
180.0000
  0
INSERT
  8
29
  2
LONGP100
 10
3.8100
 20
46.9900
 30
0.0000
 41
1.7272
 42
1.7272
 43
1.0000
 50
180.0000
  0
INSERT
  8
30
  2
LONGP100
 10
3.8100
 20
46.9900
 30
0.0000
 41
1.7272
 42
1.7272
 43
1.0000
 50
180.0000
  0
CIRCLE
  8
44
 10
3.8100
 20
46.9900
 30
0.0000
 40
0.5080
  0
INSERT
  8
29
  2
RECT
 10
6.9850
 20
44.4500
 30
0.0000
 41
1.4732
 42
0.8382
 43
1.0000
 50
180.0000
  0
INSERT
  8
31
  2
RECT
 10
6.9850
 20
44.4500
 30
0.0000
 41
1.2700
 42
0.6350
 43
1.0000
 50
180.0000
  0
INSERT
  8
30
  2
RECT
 10
6.9850
 20
44.4500
 30
0.0000
 41
1.4732
 42
0.8382
 43
1.0000
 50
180.0000
  0
INSERT
  8
32
  2
RECT
 10
6.9850
 20
44.4500
 30
0.0000
 41
1.2700
 42
0.6350
 43
1.0000
 50
180.0000
  0
INSERT
  8
17
  2
LONGP100
 10
3.8100
 20
44.4500
 30
0.0000
 41
1.5240
 42
1.5240
 43
1.0000
 50
180.0000
  0
INSERT
  8
17
  2
LONGP100
 10
3.8100
 20
44.4500
 30
0.0000
 41
1.5240
 42
1.5240
 43
1.0000
 50
180.0000
  0
INSERT
  8
29
  2
LONGP100
 10
3.8100
 20
44.4500
 30
0.0000
 41
1.7272
 42
1.7272
 43
1.0000
 50
180.0000
  0
INSERT
  8
30
  2
LONGP100
 10
3.8100
 20
44.4500
 30
0.0000
 41
1.7272
 42
1.7272
 43
1.0000
 50
180.0000
  0
CIRCLE
  8
44
 10
3.8100
 20
44.4500
 30
0.0000
 40
0.5080
  0
INSERT
  8
29
  2
RECT
 10
6.9850
 20
41.9100
 30
0.0000
 41
1.4732
 42
0.8382
 43
1.0000
 50
180.0000
  0
INSERT
  8
31
  2
RECT
 10
6.9850
 20
41.9100
 30
0.0000
 41
1.2700
 42
0.6350
 43
1.0000
 50
180.0000
  0
INSERT
  8
30
  2
RECT
 10
6.9850
 20
41.9100
 30
0.0000
 41
1.4732
 42
0.8382
 43
1.0000
 50
180.0000
  0
INSERT
  8
32
  2
RECT
 10
6.9850
 20
41.9100
 30
0.0000
 41
1.2700
 42
0.6350
 43
1.0000
 50
180.0000
  0
INSERT
  8
17
  2
LONGP100
 10
3.8100
 20
41.9100
 30
0.0000
 41
1.5240
 42
1.5240
 43
1.0000
 50
180.0000
  0
INSERT
  8
17
  2
LONGP100
 10
3.8100
 20
41.9100
 30
0.0000
 41
1.5240
 42
1.5240
 43
1.0000
 50
180.0000
  0
INSERT
  8
29
  2
LONGP100
 10
3.8100
 20
41.9100
 30
0.0000
 41
1.7272
 42
1.7272
 43
1.0000
 50
180.0000
  0
INSERT
  8
30
  2
LONGP100
 10
3.8100
 20
41.9100
 30
0.0000
 41
1.7272
 42
1.7272
 43
1.0000
 50
180.0000
  0
CIRCLE
  8
44
 10
3.8100
 20
41.9100
 30
0.0000
 40
0.5080
  0
INSERT
  8
29
  2
RECT
 10
6.9850
 20
39.3700
 30
0.0000
 41
1.4732
 42
0.8382
 43
1.0000
 50
180.0000
  0
INSERT
  8
31
  2
RECT
 10
6.9850
 20
39.3700
 30
0.0000
 41
1.2700
 42
0.6350
 43
1.0000
 50
180.0000
  0
INSERT
  8
30
  2
RECT
 10
6.9850
 20
39.3700
 30
0.0000
 41
1.4732
 42
0.8382
 43
1.0000
 50
180.0000
  0
INSERT
  8
32
  2
RECT
 10
6.9850
 20
39.3700
 30
0.0000
 41
1.2700
 42
0.6350
 43
1.0000
 50
180.0000
  0
INSERT
  8
17
  2
LONGP100
 10
3.8100
 20
39.3700
 30
0.0000
 41
1.5240
 42
1.5240
 43
1.0000
 50
180.0000
  0
INSERT
  8
17
  2
LONGP100
 10
3.8100
 20
39.3700
 30
0.0000
 41
1.5240
 42
1.5240
 43
1.0000
 50
180.0000
  0
INSERT
  8
29
  2
LONGP100
 10
3.8100
 20
39.3700
 30
0.0000
 41
1.7272
 42
1.7272
 43
1.0000
 50
180.0000
  0
INSERT
  8
30
  2
LONGP100
 10
3.8100
 20
39.3700
 30
0.0000
 41
1.7272
 42
1.7272
 43
1.0000
 50
180.0000
  0
CIRCLE
  8
44
 10
3.8100
 20
39.3700
 30
0.0000
 40
0.5080
  0
INSERT
  8
29
  2
RECT
 10
6.9850
 20
36.8300
 30
0.0000
 41
1.4732
 42
0.8382
 43
1.0000
 50
180.0000
  0
INSERT
  8
31
  2
RECT
 10
6.9850
 20
36.8300
 30
0.0000
 41
1.2700
 42
0.6350
 43
1.0000
 50
180.0000
  0
INSERT
  8
30
  2
RECT
 10
6.9850
 20
36.8300
 30
0.0000
 41
1.4732
 42
0.8382
 43
1.0000
 50
180.0000
  0
INSERT
  8
32
  2
RECT
 10
6.9850
 20
36.8300
 30
0.0000
 41
1.2700
 42
0.6350
 43
1.0000
 50
180.0000
  0
INSERT
  8
17
  2
LONGP100
 10
3.8100
 20
36.8300
 30
0.0000
 41
1.5240
 42
1.5240
 43
1.0000
 50
180.0000
  0
INSERT
  8
17
  2
LONGP100
 10
3.8100
 20
36.8300
 30
0.0000
 41
1.5240
 42
1.5240
 43
1.0000
 50
180.0000
  0
INSERT
  8
29
  2
LONGP100
 10
3.8100
 20
36.8300
 30
0.0000
 41
1.7272
 42
1.7272
 43
1.0000
 50
180.0000
  0
INSERT
  8
30
  2
LONGP100
 10
3.8100
 20
36.8300
 30
0.0000
 41
1.7272
 42
1.7272
 43
1.0000
 50
180.0000
  0
CIRCLE
  8
44
 10
3.8100
 20
36.8300
 30
0.0000
 40
0.5080
  0
INSERT
  8
29
  2
RECT
 10
6.9850
 20
34.2900
 30
0.0000
 41
1.4732
 42
0.8382
 43
1.0000
 50
180.0000
  0
INSERT
  8
31
  2
RECT
 10
6.9850
 20
34.2900
 30
0.0000
 41
1.2700
 42
0.6350
 43
1.0000
 50
180.0000
  0
INSERT
  8
30
  2
RECT
 10
6.9850
 20
34.2900
 30
0.0000
 41
1.4732
 42
0.8382
 43
1.0000
 50
180.0000
  0
INSERT
  8
32
  2
RECT
 10
6.9850
 20
34.2900
 30
0.0000
 41
1.2700
 42
0.6350
 43
1.0000
 50
180.0000
  0
INSERT
  8
17
  2
LONGP100
 10
3.8100
 20
34.2900
 30
0.0000
 41
1.5240
 42
1.5240
 43
1.0000
 50
180.0000
  0
INSERT
  8
17
  2
LONGP100
 10
3.8100
 20
34.2900
 30
0.0000
 41
1.5240
 42
1.5240
 43
1.0000
 50
180.0000
  0
INSERT
  8
29
  2
LONGP100
 10
3.8100
 20
34.2900
 30
0.0000
 41
1.7272
 42
1.7272
 43
1.0000
 50
180.0000
  0
INSERT
  8
30
  2
LONGP100
 10
3.8100
 20
34.2900
 30
0.0000
 41
1.7272
 42
1.7272
 43
1.0000
 50
180.0000
  0
CIRCLE
  8
44
 10
3.8100
 20
34.2900
 30
0.0000
 40
0.5080
  0
INSERT
  8
29
  2
RECT
 10
6.9850
 20
31.7500
 30
0.0000
 41
1.4732
 42
0.8382
 43
1.0000
 50
180.0000
  0
INSERT
  8
31
  2
RECT
 10
6.9850
 20
31.7500
 30
0.0000
 41
1.2700
 42
0.6350
 43
1.0000
 50
180.0000
  0
INSERT
  8
30
  2
RECT
 10
6.9850
 20
31.7500
 30
0.0000
 41
1.4732
 42
0.8382
 43
1.0000
 50
180.0000
  0
INSERT
  8
32
  2
RECT
 10
6.9850
 20
31.7500
 30
0.0000
 41
1.2700
 42
0.6350
 43
1.0000
 50
180.0000
  0
INSERT
  8
17
  2
LONGP100
 10
3.8100
 20
31.7500
 30
0.0000
 41
1.5240
 42
1.5240
 43
1.0000
 50
0.0000
  0
INSERT
  8
17
  2
LONGP100
 10
3.8100
 20
31.7500
 30
0.0000
 41
1.5240
 42
1.5240
 43
1.0000
 50
0.0000
  0
INSERT
  8
29
  2
LONGP100
 10
3.8100
 20
31.7500
 30
0.0000
 41
1.7272
 42
1.7272
 43
1.0000
 50
0.0000
  0
INSERT
  8
30
  2
LONGP100
 10
3.8100
 20
31.7500
 30
0.0000
 41
1.7272
 42
1.7272
 43
1.0000
 50
0.0000
  0
CIRCLE
  8
44
 10
3.8100
 20
31.7500
 30
0.0000
 40
0.5080
  0
INSERT
  8
29
  2
RECT
 10
6.9850
 20
29.2100
 30
0.0000
 41
1.4732
 42
0.8382
 43
1.0000
 50
180.0000
  0
INSERT
  8
31
  2
RECT
 10
6.9850
 20
29.2100
 30
0.0000
 41
1.2700
 42
0.6350
 43
1.0000
 50
180.0000
  0
INSERT
  8
30
  2
RECT
 10
6.9850
 20
29.2100
 30
0.0000
 41
1.4732
 42
0.8382
 43
1.0000
 50
180.0000
  0
INSERT
  8
32
  2
RECT
 10
6.9850
 20
29.2100
 30
0.0000
 41
1.2700
 42
0.6350
 43
1.0000
 50
180.0000
  0
INSERT
  8
17
  2
LONGP100
 10
3.8100
 20
29.2100
 30
0.0000
 41
1.5240
 42
1.5240
 43
1.0000
 50
0.0000
  0
INSERT
  8
17
  2
LONGP100
 10
3.8100
 20
29.2100
 30
0.0000
 41
1.5240
 42
1.5240
 43
1.0000
 50
0.0000
  0
INSERT
  8
29
  2
LONGP100
 10
3.8100
 20
29.2100
 30
0.0000
 41
1.7272
 42
1.7272
 43
1.0000
 50
0.0000
  0
INSERT
  8
30
  2
LONGP100
 10
3.8100
 20
29.2100
 30
0.0000
 41
1.7272
 42
1.7272
 43
1.0000
 50
0.0000
  0
CIRCLE
  8
44
 10
3.8100
 20
29.2100
 30
0.0000
 40
0.5080
  0
INSERT
  8
29
  2
RECT
 10
6.9850
 20
26.6700
 30
0.0000
 41
1.4732
 42
0.8382
 43
1.0000
 50
180.0000
  0
INSERT
  8
31
  2
RECT
 10
6.9850
 20
26.6700
 30
0.0000
 41
1.2700
 42
0.6350
 43
1.0000
 50
180.0000
  0
INSERT
  8
30
  2
RECT
 10
6.9850
 20
26.6700
 30
0.0000
 41
1.4732
 42
0.8382
 43
1.0000
 50
180.0000
  0
INSERT
  8
32
  2
RECT
 10
6.9850
 20
26.6700
 30
0.0000
 41
1.2700
 42
0.6350
 43
1.0000
 50
180.0000
  0
INSERT
  8
17
  2
LONGP100
 10
3.8100
 20
26.6700
 30
0.0000
 41
1.5240
 42
1.5240
 43
1.0000
 50
0.0000
  0
INSERT
  8
17
  2
LONGP100
 10
3.8100
 20
26.6700
 30
0.0000
 41
1.5240
 42
1.5240
 43
1.0000
 50
0.0000
  0
INSERT
  8
29
  2
LONGP100
 10
3.8100
 20
26.6700
 30
0.0000
 41
1.7272
 42
1.7272
 43
1.0000
 50
0.0000
  0
INSERT
  8
30
  2
LONGP100
 10
3.8100
 20
26.6700
 30
0.0000
 41
1.7272
 42
1.7272
 43
1.0000
 50
0.0000
  0
CIRCLE
  8
44
 10
3.8100
 20
26.6700
 30
0.0000
 40
0.5080
  0
INSERT
  8
29
  2
RECT
 10
6.9850
 20
24.1300
 30
0.0000
 41
1.4732
 42
0.8382
 43
1.0000
 50
180.0000
  0
INSERT
  8
31
  2
RECT
 10
6.9850
 20
24.1300
 30
0.0000
 41
1.2700
 42
0.6350
 43
1.0000
 50
180.0000
  0
INSERT
  8
30
  2
RECT
 10
6.9850
 20
24.1300
 30
0.0000
 41
1.4732
 42
0.8382
 43
1.0000
 50
180.0000
  0
INSERT
  8
32
  2
RECT
 10
6.9850
 20
24.1300
 30
0.0000
 41
1.2700
 42
0.6350
 43
1.0000
 50
180.0000
  0
INSERT
  8
17
  2
LONGP100
 10
3.8100
 20
24.1300
 30
0.0000
 41
1.5240
 42
1.5240
 43
1.0000
 50
0.0000
  0
INSERT
  8
17
  2
LONGP100
 10
3.8100
 20
24.1300
 30
0.0000
 41
1.5240
 42
1.5240
 43
1.0000
 50
0.0000
  0
INSERT
  8
29
  2
LONGP100
 10
3.8100
 20
24.1300
 30
0.0000
 41
1.7272
 42
1.7272
 43
1.0000
 50
0.0000
  0
INSERT
  8
30
  2
LONGP100
 10
3.8100
 20
24.1300
 30
0.0000
 41
1.7272
 42
1.7272
 43
1.0000
 50
0.0000
  0
CIRCLE
  8
44
 10
3.8100
 20
24.1300
 30
0.0000
 40
0.5080
  0
INSERT
  8
29
  2
RECT
 10
6.9850
 20
21.5900
 30
0.0000
 41
1.4732
 42
0.8382
 43
1.0000
 50
180.0000
  0
INSERT
  8
31
  2
RECT
 10
6.9850
 20
21.5900
 30
0.0000
 41
1.2700
 42
0.6350
 43
1.0000
 50
180.0000
  0
INSERT
  8
30
  2
RECT
 10
6.9850
 20
21.5900
 30
0.0000
 41
1.4732
 42
0.8382
 43
1.0000
 50
180.0000
  0
INSERT
  8
32
  2
RECT
 10
6.9850
 20
21.5900
 30
0.0000
 41
1.2700
 42
0.6350
 43
1.0000
 50
180.0000
  0
INSERT
  8
17
  2
LONGP100
 10
3.8100
 20
21.5900
 30
0.0000
 41
1.5240
 42
1.5240
 43
1.0000
 50
0.0000
  0
INSERT
  8
17
  2
LONGP100
 10
3.8100
 20
21.5900
 30
0.0000
 41
1.5240
 42
1.5240
 43
1.0000
 50
0.0000
  0
INSERT
  8
29
  2
LONGP100
 10
3.8100
 20
21.5900
 30
0.0000
 41
1.7272
 42
1.7272
 43
1.0000
 50
0.0000
  0
INSERT
  8
30
  2
LONGP100
 10
3.8100
 20
21.5900
 30
0.0000
 41
1.7272
 42
1.7272
 43
1.0000
 50
0.0000
  0
CIRCLE
  8
44
 10
3.8100
 20
21.5900
 30
0.0000
 40
0.5080
  0
INSERT
  8
29
  2
RECT
 10
6.9850
 20
19.0500
 30
0.0000
 41
1.4732
 42
0.8382
 43
1.0000
 50
180.0000
  0
INSERT
  8
31
  2
RECT
 10
6.9850
 20
19.0500
 30
0.0000
 41
1.2700
 42
0.6350
 43
1.0000
 50
180.0000
  0
INSERT
  8
30
  2
RECT
 10
6.9850
 20
19.0500
 30
0.0000
 41
1.4732
 42
0.8382
 43
1.0000
 50
180.0000
  0
INSERT
  8
32
  2
RECT
 10
6.9850
 20
19.0500
 30
0.0000
 41
1.2700
 42
0.6350
 43
1.0000
 50
180.0000
  0
INSERT
  8
17
  2
LONGP100
 10
3.8100
 20
19.0500
 30
0.0000
 41
1.5240
 42
1.5240
 43
1.0000
 50
0.0000
  0
INSERT
  8
17
  2
LONGP100
 10
3.8100
 20
19.0500
 30
0.0000
 41
1.5240
 42
1.5240
 43
1.0000
 50
0.0000
  0
INSERT
  8
29
  2
LONGP100
 10
3.8100
 20
19.0500
 30
0.0000
 41
1.7272
 42
1.7272
 43
1.0000
 50
0.0000
  0
INSERT
  8
30
  2
LONGP100
 10
3.8100
 20
19.0500
 30
0.0000
 41
1.7272
 42
1.7272
 43
1.0000
 50
0.0000
  0
CIRCLE
  8
44
 10
3.8100
 20
19.0500
 30
0.0000
 40
0.5080
  0
INSERT
  8
29
  2
RECT
 10
6.9850
 20
16.5100
 30
0.0000
 41
1.4732
 42
0.8382
 43
1.0000
 50
180.0000
  0
INSERT
  8
31
  2
RECT
 10
6.9850
 20
16.5100
 30
0.0000
 41
1.2700
 42
0.6350
 43
1.0000
 50
180.0000
  0
INSERT
  8
30
  2
RECT
 10
6.9850
 20
16.5100
 30
0.0000
 41
1.4732
 42
0.8382
 43
1.0000
 50
180.0000
  0
INSERT
  8
32
  2
RECT
 10
6.9850
 20
16.5100
 30
0.0000
 41
1.2700
 42
0.6350
 43
1.0000
 50
180.0000
  0
INSERT
  8
17
  2
LONGP100
 10
3.8100
 20
16.5100
 30
0.0000
 41
1.5240
 42
1.5240
 43
1.0000
 50
180.0000
  0
INSERT
  8
17
  2
LONGP100
 10
3.8100
 20
16.5100
 30
0.0000
 41
1.5240
 42
1.5240
 43
1.0000
 50
180.0000
  0
INSERT
  8
29
  2
LONGP100
 10
3.8100
 20
16.5100
 30
0.0000
 41
1.7272
 42
1.7272
 43
1.0000
 50
180.0000
  0
INSERT
  8
30
  2
LONGP100
 10
3.8100
 20
16.5100
 30
0.0000
 41
1.7272
 42
1.7272
 43
1.0000
 50
180.0000
  0
CIRCLE
  8
44
 10
3.8100
 20
16.5100
 30
0.0000
 40
0.5080
  0
INSERT
  8
29
  2
RECT
 10
6.9850
 20
13.9700
 30
0.0000
 41
1.4732
 42
0.8382
 43
1.0000
 50
180.0000
  0
INSERT
  8
31
  2
RECT
 10
6.9850
 20
13.9700
 30
0.0000
 41
1.2700
 42
0.6350
 43
1.0000
 50
180.0000
  0
INSERT
  8
30
  2
RECT
 10
6.9850
 20
13.9700
 30
0.0000
 41
1.4732
 42
0.8382
 43
1.0000
 50
180.0000
  0
INSERT
  8
32
  2
RECT
 10
6.9850
 20
13.9700
 30
0.0000
 41
1.2700
 42
0.6350
 43
1.0000
 50
180.0000
  0
INSERT
  8
17
  2
LONGP100
 10
3.8100
 20
13.9700
 30
0.0000
 41
1.5240
 42
1.5240
 43
1.0000
 50
180.0000
  0
INSERT
  8
17
  2
LONGP100
 10
3.8100
 20
13.9700
 30
0.0000
 41
1.5240
 42
1.5240
 43
1.0000
 50
180.0000
  0
INSERT
  8
29
  2
LONGP100
 10
3.8100
 20
13.9700
 30
0.0000
 41
1.7272
 42
1.7272
 43
1.0000
 50
180.0000
  0
INSERT
  8
30
  2
LONGP100
 10
3.8100
 20
13.9700
 30
0.0000
 41
1.7272
 42
1.7272
 43
1.0000
 50
180.0000
  0
CIRCLE
  8
44
 10
3.8100
 20
13.9700
 30
0.0000
 40
0.5080
  0
INSERT
  8
29
  2
RECT
 10
6.9850
 20
11.4300
 30
0.0000
 41
1.4732
 42
0.8382
 43
1.0000
 50
180.0000
  0
INSERT
  8
31
  2
RECT
 10
6.9850
 20
11.4300
 30
0.0000
 41
1.2700
 42
0.6350
 43
1.0000
 50
180.0000
  0
INSERT
  8
30
  2
RECT
 10
6.9850
 20
11.4300
 30
0.0000
 41
1.4732
 42
0.8382
 43
1.0000
 50
180.0000
  0
INSERT
  8
32
  2
RECT
 10
6.9850
 20
11.4300
 30
0.0000
 41
1.2700
 42
0.6350
 43
1.0000
 50
180.0000
  0
INSERT
  8
17
  2
LONGP100
 10
3.8100
 20
11.4300
 30
0.0000
 41
1.5240
 42
1.5240
 43
1.0000
 50
180.0000
  0
INSERT
  8
17
  2
LONGP100
 10
3.8100
 20
11.4300
 30
0.0000
 41
1.5240
 42
1.5240
 43
1.0000
 50
180.0000
  0
INSERT
  8
29
  2
LONGP100
 10
3.8100
 20
11.4300
 30
0.0000
 41
1.7272
 42
1.7272
 43
1.0000
 50
180.0000
  0
INSERT
  8
30
  2
LONGP100
 10
3.8100
 20
11.4300
 30
0.0000
 41
1.7272
 42
1.7272
 43
1.0000
 50
180.0000
  0
CIRCLE
  8
44
 10
3.8100
 20
11.4300
 30
0.0000
 40
0.5080
  0
INSERT
  8
29
  2
RECT
 10
6.9850
 20
8.8900
 30
0.0000
 41
1.4732
 42
0.8382
 43
1.0000
 50
180.0000
  0
INSERT
  8
31
  2
RECT
 10
6.9850
 20
8.8900
 30
0.0000
 41
1.2700
 42
0.6350
 43
1.0000
 50
180.0000
  0
INSERT
  8
30
  2
RECT
 10
6.9850
 20
8.8900
 30
0.0000
 41
1.4732
 42
0.8382
 43
1.0000
 50
180.0000
  0
INSERT
  8
32
  2
RECT
 10
6.9850
 20
8.8900
 30
0.0000
 41
1.2700
 42
0.6350
 43
1.0000
 50
180.0000
  0
INSERT
  8
17
  2
LONGP100
 10
3.8100
 20
8.8900
 30
0.0000
 41
1.5240
 42
1.5240
 43
1.0000
 50
180.0000
  0
INSERT
  8
17
  2
LONGP100
 10
3.8100
 20
8.8900
 30
0.0000
 41
1.5240
 42
1.5240
 43
1.0000
 50
180.0000
  0
INSERT
  8
29
  2
LONGP100
 10
3.8100
 20
8.8900
 30
0.0000
 41
1.7272
 42
1.7272
 43
1.0000
 50
180.0000
  0
INSERT
  8
30
  2
LONGP100
 10
3.8100
 20
8.8900
 30
0.0000
 41
1.7272
 42
1.7272
 43
1.0000
 50
180.0000
  0
CIRCLE
  8
44
 10
3.8100
 20
8.8900
 30
0.0000
 40
0.5080
  0
INSERT
  8
29
  2
RECT
 10
6.9850
 20
6.3500
 30
0.0000
 41
1.4732
 42
0.8382
 43
1.0000
 50
180.0000
  0
INSERT
  8
31
  2
RECT
 10
6.9850
 20
6.3500
 30
0.0000
 41
1.2700
 42
0.6350
 43
1.0000
 50
180.0000
  0
INSERT
  8
30
  2
RECT
 10
6.9850
 20
6.3500
 30
0.0000
 41
1.4732
 42
0.8382
 43
1.0000
 50
180.0000
  0
INSERT
  8
32
  2
RECT
 10
6.9850
 20
6.3500
 30
0.0000
 41
1.2700
 42
0.6350
 43
1.0000
 50
180.0000
  0
INSERT
  8
17
  2
LONGP100
 10
3.8100
 20
6.3500
 30
0.0000
 41
1.5240
 42
1.5240
 43
1.0000
 50
180.0000
  0
INSERT
  8
17
  2
LONGP100
 10
3.8100
 20
6.3500
 30
0.0000
 41
1.5240
 42
1.5240
 43
1.0000
 50
180.0000
  0
INSERT
  8
29
  2
LONGP100
 10
3.8100
 20
6.3500
 30
0.0000
 41
1.7272
 42
1.7272
 43
1.0000
 50
180.0000
  0
INSERT
  8
30
  2
LONGP100
 10
3.8100
 20
6.3500
 30
0.0000
 41
1.7272
 42
1.7272
 43
1.0000
 50
180.0000
  0
CIRCLE
  8
44
 10
3.8100
 20
6.3500
 30
0.0000
 40
0.5080
  0
INSERT
  8
29
  2
RECT
 10
94.6150
 20
69.8500
 30
0.0000
 41
1.4732
 42
0.8382
 43
1.0000
 50
0.0000
  0
INSERT
  8
31
  2
RECT
 10
94.6150
 20
69.8500
 30
0.0000
 41
1.2700
 42
0.6350
 43
1.0000
 50
0.0000
  0
INSERT
  8
30
  2
RECT
 10
94.6150
 20
69.8500
 30
0.0000
 41
1.4732
 42
0.8382
 43
1.0000
 50
0.0000
  0
INSERT
  8
32
  2
RECT
 10
94.6150
 20
69.8500
 30
0.0000
 41
1.2700
 42
0.6350
 43
1.0000
 50
0.0000
  0
INSERT
  8
17
  2
LONGP100
 10
97.7900
 20
69.8500
 30
0.0000
 41
1.5240
 42
1.5240
 43
1.0000
 50
0.0000
  0
INSERT
  8
17
  2
LONGP100
 10
97.7900
 20
69.8500
 30
0.0000
 41
1.5240
 42
1.5240
 43
1.0000
 50
0.0000
  0
INSERT
  8
29
  2
LONGP100
 10
97.7900
 20
69.8500
 30
0.0000
 41
1.7272
 42
1.7272
 43
1.0000
 50
0.0000
  0
INSERT
  8
30
  2
LONGP100
 10
97.7900
 20
69.8500
 30
0.0000
 41
1.7272
 42
1.7272
 43
1.0000
 50
0.0000
  0
CIRCLE
  8
44
 10
97.7900
 20
69.8500
 30
0.0000
 40
0.5080
  0
INSERT
  8
29
  2
RECT
 10
94.6150
 20
67.3100
 30
0.0000
 41
1.4732
 42
0.8382
 43
1.0000
 50
0.0000
  0
INSERT
  8
31
  2
RECT
 10
94.6150
 20
67.3100
 30
0.0000
 41
1.2700
 42
0.6350
 43
1.0000
 50
0.0000
  0
INSERT
  8
30
  2
RECT
 10
94.6150
 20
67.3100
 30
0.0000
 41
1.4732
 42
0.8382
 43
1.0000
 50
0.0000
  0
INSERT
  8
32
  2
RECT
 10
94.6150
 20
67.3100
 30
0.0000
 41
1.2700
 42
0.6350
 43
1.0000
 50
0.0000
  0
INSERT
  8
17
  2
LONGP100
 10
97.7900
 20
67.3100
 30
0.0000
 41
1.5240
 42
1.5240
 43
1.0000
 50
0.0000
  0
INSERT
  8
17
  2
LONGP100
 10
97.7900
 20
67.3100
 30
0.0000
 41
1.5240
 42
1.5240
 43
1.0000
 50
0.0000
  0
INSERT
  8
29
  2
LONGP100
 10
97.7900
 20
67.3100
 30
0.0000
 41
1.7272
 42
1.7272
 43
1.0000
 50
0.0000
  0
INSERT
  8
30
  2
LONGP100
 10
97.7900
 20
67.3100
 30
0.0000
 41
1.7272
 42
1.7272
 43
1.0000
 50
0.0000
  0
CIRCLE
  8
44
 10
97.7900
 20
67.3100
 30
0.0000
 40
0.5080
  0
INSERT
  8
29
  2
RECT
 10
94.6150
 20
64.7700
 30
0.0000
 41
1.4732
 42
0.8382
 43
1.0000
 50
0.0000
  0
INSERT
  8
31
  2
RECT
 10
94.6150
 20
64.7700
 30
0.0000
 41
1.2700
 42
0.6350
 43
1.0000
 50
0.0000
  0
INSERT
  8
30
  2
RECT
 10
94.6150
 20
64.7700
 30
0.0000
 41
1.4732
 42
0.8382
 43
1.0000
 50
0.0000
  0
INSERT
  8
32
  2
RECT
 10
94.6150
 20
64.7700
 30
0.0000
 41
1.2700
 42
0.6350
 43
1.0000
 50
0.0000
  0
INSERT
  8
17
  2
LONGP100
 10
97.7900
 20
64.7700
 30
0.0000
 41
1.5240
 42
1.5240
 43
1.0000
 50
0.0000
  0
INSERT
  8
17
  2
LONGP100
 10
97.7900
 20
64.7700
 30
0.0000
 41
1.5240
 42
1.5240
 43
1.0000
 50
0.0000
  0
INSERT
  8
29
  2
LONGP100
 10
97.7900
 20
64.7700
 30
0.0000
 41
1.7272
 42
1.7272
 43
1.0000
 50
0.0000
  0
INSERT
  8
30
  2
LONGP100
 10
97.7900
 20
64.7700
 30
0.0000
 41
1.7272
 42
1.7272
 43
1.0000
 50
0.0000
  0
CIRCLE
  8
44
 10
97.7900
 20
64.7700
 30
0.0000
 40
0.5080
  0
INSERT
  8
29
  2
RECT
 10
94.6150
 20
62.2300
 30
0.0000
 41
1.4732
 42
0.8382
 43
1.0000
 50
0.0000
  0
INSERT
  8
31
  2
RECT
 10
94.6150
 20
62.2300
 30
0.0000
 41
1.2700
 42
0.6350
 43
1.0000
 50
0.0000
  0
INSERT
  8
30
  2
RECT
 10
94.6150
 20
62.2300
 30
0.0000
 41
1.4732
 42
0.8382
 43
1.0000
 50
0.0000
  0
INSERT
  8
32
  2
RECT
 10
94.6150
 20
62.2300
 30
0.0000
 41
1.2700
 42
0.6350
 43
1.0000
 50
0.0000
  0
INSERT
  8
17
  2
LONGP100
 10
97.7900
 20
62.2300
 30
0.0000
 41
1.5240
 42
1.5240
 43
1.0000
 50
0.0000
  0
INSERT
  8
17
  2
LONGP100
 10
97.7900
 20
62.2300
 30
0.0000
 41
1.5240
 42
1.5240
 43
1.0000
 50
0.0000
  0
INSERT
  8
29
  2
LONGP100
 10
97.7900
 20
62.2300
 30
0.0000
 41
1.7272
 42
1.7272
 43
1.0000
 50
0.0000
  0
INSERT
  8
30
  2
LONGP100
 10
97.7900
 20
62.2300
 30
0.0000
 41
1.7272
 42
1.7272
 43
1.0000
 50
0.0000
  0
CIRCLE
  8
44
 10
97.7900
 20
62.2300
 30
0.0000
 40
0.5080
  0
INSERT
  8
29
  2
RECT
 10
94.6150
 20
59.6900
 30
0.0000
 41
1.4732
 42
0.8382
 43
1.0000
 50
0.0000
  0
INSERT
  8
31
  2
RECT
 10
94.6150
 20
59.6900
 30
0.0000
 41
1.2700
 42
0.6350
 43
1.0000
 50
0.0000
  0
INSERT
  8
30
  2
RECT
 10
94.6150
 20
59.6900
 30
0.0000
 41
1.4732
 42
0.8382
 43
1.0000
 50
0.0000
  0
INSERT
  8
32
  2
RECT
 10
94.6150
 20
59.6900
 30
0.0000
 41
1.2700
 42
0.6350
 43
1.0000
 50
0.0000
  0
INSERT
  8
17
  2
LONGP100
 10
97.7900
 20
59.6900
 30
0.0000
 41
1.5240
 42
1.5240
 43
1.0000
 50
0.0000
  0
INSERT
  8
17
  2
LONGP100
 10
97.7900
 20
59.6900
 30
0.0000
 41
1.5240
 42
1.5240
 43
1.0000
 50
0.0000
  0
INSERT
  8
29
  2
LONGP100
 10
97.7900
 20
59.6900
 30
0.0000
 41
1.7272
 42
1.7272
 43
1.0000
 50
0.0000
  0
INSERT
  8
30
  2
LONGP100
 10
97.7900
 20
59.6900
 30
0.0000
 41
1.7272
 42
1.7272
 43
1.0000
 50
0.0000
  0
CIRCLE
  8
44
 10
97.7900
 20
59.6900
 30
0.0000
 40
0.5080
  0
INSERT
  8
29
  2
RECT
 10
94.6150
 20
57.1500
 30
0.0000
 41
1.4732
 42
0.8382
 43
1.0000
 50
0.0000
  0
INSERT
  8
31
  2
RECT
 10
94.6150
 20
57.1500
 30
0.0000
 41
1.2700
 42
0.6350
 43
1.0000
 50
0.0000
  0
INSERT
  8
30
  2
RECT
 10
94.6150
 20
57.1500
 30
0.0000
 41
1.4732
 42
0.8382
 43
1.0000
 50
0.0000
  0
INSERT
  8
32
  2
RECT
 10
94.6150
 20
57.1500
 30
0.0000
 41
1.2700
 42
0.6350
 43
1.0000
 50
0.0000
  0
INSERT
  8
17
  2
LONGP100
 10
97.7900
 20
57.1500
 30
0.0000
 41
1.5240
 42
1.5240
 43
1.0000
 50
180.0000
  0
INSERT
  8
17
  2
LONGP100
 10
97.7900
 20
57.1500
 30
0.0000
 41
1.5240
 42
1.5240
 43
1.0000
 50
180.0000
  0
INSERT
  8
29
  2
LONGP100
 10
97.7900
 20
57.1500
 30
0.0000
 41
1.7272
 42
1.7272
 43
1.0000
 50
180.0000
  0
INSERT
  8
30
  2
LONGP100
 10
97.7900
 20
57.1500
 30
0.0000
 41
1.7272
 42
1.7272
 43
1.0000
 50
180.0000
  0
CIRCLE
  8
44
 10
97.7900
 20
57.1500
 30
0.0000
 40
0.5080
  0
INSERT
  8
29
  2
RECT
 10
94.6150
 20
54.6100
 30
0.0000
 41
1.4732
 42
0.8382
 43
1.0000
 50
0.0000
  0
INSERT
  8
31
  2
RECT
 10
94.6150
 20
54.6100
 30
0.0000
 41
1.2700
 42
0.6350
 43
1.0000
 50
0.0000
  0
INSERT
  8
30
  2
RECT
 10
94.6150
 20
54.6100
 30
0.0000
 41
1.4732
 42
0.8382
 43
1.0000
 50
0.0000
  0
INSERT
  8
32
  2
RECT
 10
94.6150
 20
54.6100
 30
0.0000
 41
1.2700
 42
0.6350
 43
1.0000
 50
0.0000
  0
INSERT
  8
17
  2
LONGP100
 10
97.7900
 20
54.6100
 30
0.0000
 41
1.5240
 42
1.5240
 43
1.0000
 50
180.0000
  0
INSERT
  8
17
  2
LONGP100
 10
97.7900
 20
54.6100
 30
0.0000
 41
1.5240
 42
1.5240
 43
1.0000
 50
180.0000
  0
INSERT
  8
29
  2
LONGP100
 10
97.7900
 20
54.6100
 30
0.0000
 41
1.7272
 42
1.7272
 43
1.0000
 50
180.0000
  0
INSERT
  8
30
  2
LONGP100
 10
97.7900
 20
54.6100
 30
0.0000
 41
1.7272
 42
1.7272
 43
1.0000
 50
180.0000
  0
CIRCLE
  8
44
 10
97.7900
 20
54.6100
 30
0.0000
 40
0.5080
  0
INSERT
  8
29
  2
RECT
 10
94.6150
 20
52.0700
 30
0.0000
 41
1.4732
 42
0.8382
 43
1.0000
 50
0.0000
  0
INSERT
  8
31
  2
RECT
 10
94.6150
 20
52.0700
 30
0.0000
 41
1.2700
 42
0.6350
 43
1.0000
 50
0.0000
  0
INSERT
  8
30
  2
RECT
 10
94.6150
 20
52.0700
 30
0.0000
 41
1.4732
 42
0.8382
 43
1.0000
 50
0.0000
  0
INSERT
  8
32
  2
RECT
 10
94.6150
 20
52.0700
 30
0.0000
 41
1.2700
 42
0.6350
 43
1.0000
 50
0.0000
  0
INSERT
  8
17
  2
LONGP100
 10
97.7900
 20
52.0700
 30
0.0000
 41
1.5240
 42
1.5240
 43
1.0000
 50
180.0000
  0
INSERT
  8
17
  2
LONGP100
 10
97.7900
 20
52.0700
 30
0.0000
 41
1.5240
 42
1.5240
 43
1.0000
 50
180.0000
  0
INSERT
  8
29
  2
LONGP100
 10
97.7900
 20
52.0700
 30
0.0000
 41
1.7272
 42
1.7272
 43
1.0000
 50
180.0000
  0
INSERT
  8
30
  2
LONGP100
 10
97.7900
 20
52.0700
 30
0.0000
 41
1.7272
 42
1.7272
 43
1.0000
 50
180.0000
  0
CIRCLE
  8
44
 10
97.7900
 20
52.0700
 30
0.0000
 40
0.5080
  0
INSERT
  8
29
  2
RECT
 10
94.6150
 20
49.5300
 30
0.0000
 41
1.4732
 42
0.8382
 43
1.0000
 50
0.0000
  0
INSERT
  8
31
  2
RECT
 10
94.6150
 20
49.5300
 30
0.0000
 41
1.2700
 42
0.6350
 43
1.0000
 50
0.0000
  0
INSERT
  8
30
  2
RECT
 10
94.6150
 20
49.5300
 30
0.0000
 41
1.4732
 42
0.8382
 43
1.0000
 50
0.0000
  0
INSERT
  8
32
  2
RECT
 10
94.6150
 20
49.5300
 30
0.0000
 41
1.2700
 42
0.6350
 43
1.0000
 50
0.0000
  0
INSERT
  8
17
  2
LONGP100
 10
97.7900
 20
49.5300
 30
0.0000
 41
1.5240
 42
1.5240
 43
1.0000
 50
180.0000
  0
INSERT
  8
17
  2
LONGP100
 10
97.7900
 20
49.5300
 30
0.0000
 41
1.5240
 42
1.5240
 43
1.0000
 50
180.0000
  0
INSERT
  8
29
  2
LONGP100
 10
97.7900
 20
49.5300
 30
0.0000
 41
1.7272
 42
1.7272
 43
1.0000
 50
180.0000
  0
INSERT
  8
30
  2
LONGP100
 10
97.7900
 20
49.5300
 30
0.0000
 41
1.7272
 42
1.7272
 43
1.0000
 50
180.0000
  0
CIRCLE
  8
44
 10
97.7900
 20
49.5300
 30
0.0000
 40
0.5080
  0
INSERT
  8
29
  2
RECT
 10
94.6150
 20
46.9900
 30
0.0000
 41
1.4732
 42
0.8382
 43
1.0000
 50
0.0000
  0
INSERT
  8
31
  2
RECT
 10
94.6150
 20
46.9900
 30
0.0000
 41
1.2700
 42
0.6350
 43
1.0000
 50
0.0000
  0
INSERT
  8
30
  2
RECT
 10
94.6150
 20
46.9900
 30
0.0000
 41
1.4732
 42
0.8382
 43
1.0000
 50
0.0000
  0
INSERT
  8
32
  2
RECT
 10
94.6150
 20
46.9900
 30
0.0000
 41
1.2700
 42
0.6350
 43
1.0000
 50
0.0000
  0
INSERT
  8
17
  2
LONGP100
 10
97.7900
 20
46.9900
 30
0.0000
 41
1.5240
 42
1.5240
 43
1.0000
 50
180.0000
  0
INSERT
  8
17
  2
LONGP100
 10
97.7900
 20
46.9900
 30
0.0000
 41
1.5240
 42
1.5240
 43
1.0000
 50
180.0000
  0
INSERT
  8
29
  2
LONGP100
 10
97.7900
 20
46.9900
 30
0.0000
 41
1.7272
 42
1.7272
 43
1.0000
 50
180.0000
  0
INSERT
  8
30
  2
LONGP100
 10
97.7900
 20
46.9900
 30
0.0000
 41
1.7272
 42
1.7272
 43
1.0000
 50
180.0000
  0
CIRCLE
  8
44
 10
97.7900
 20
46.9900
 30
0.0000
 40
0.5080
  0
INSERT
  8
29
  2
RECT
 10
94.6150
 20
44.4500
 30
0.0000
 41
1.4732
 42
0.8382
 43
1.0000
 50
0.0000
  0
INSERT
  8
31
  2
RECT
 10
94.6150
 20
44.4500
 30
0.0000
 41
1.2700
 42
0.6350
 43
1.0000
 50
0.0000
  0
INSERT
  8
30
  2
RECT
 10
94.6150
 20
44.4500
 30
0.0000
 41
1.4732
 42
0.8382
 43
1.0000
 50
0.0000
  0
INSERT
  8
32
  2
RECT
 10
94.6150
 20
44.4500
 30
0.0000
 41
1.2700
 42
0.6350
 43
1.0000
 50
0.0000
  0
INSERT
  8
17
  2
LONGP100
 10
97.7900
 20
44.4500
 30
0.0000
 41
1.5240
 42
1.5240
 43
1.0000
 50
180.0000
  0
INSERT
  8
17
  2
LONGP100
 10
97.7900
 20
44.4500
 30
0.0000
 41
1.5240
 42
1.5240
 43
1.0000
 50
180.0000
  0
INSERT
  8
29
  2
LONGP100
 10
97.7900
 20
44.4500
 30
0.0000
 41
1.7272
 42
1.7272
 43
1.0000
 50
180.0000
  0
INSERT
  8
30
  2
LONGP100
 10
97.7900
 20
44.4500
 30
0.0000
 41
1.7272
 42
1.7272
 43
1.0000
 50
180.0000
  0
CIRCLE
  8
44
 10
97.7900
 20
44.4500
 30
0.0000
 40
0.5080
  0
INSERT
  8
29
  2
RECT
 10
94.6150
 20
41.9100
 30
0.0000
 41
1.4732
 42
0.8382
 43
1.0000
 50
0.0000
  0
INSERT
  8
31
  2
RECT
 10
94.6150
 20
41.9100
 30
0.0000
 41
1.2700
 42
0.6350
 43
1.0000
 50
0.0000
  0
INSERT
  8
30
  2
RECT
 10
94.6150
 20
41.9100
 30
0.0000
 41
1.4732
 42
0.8382
 43
1.0000
 50
0.0000
  0
INSERT
  8
32
  2
RECT
 10
94.6150
 20
41.9100
 30
0.0000
 41
1.2700
 42
0.6350
 43
1.0000
 50
0.0000
  0
INSERT
  8
17
  2
LONGP100
 10
97.7900
 20
41.9100
 30
0.0000
 41
1.5240
 42
1.5240
 43
1.0000
 50
0.0000
  0
INSERT
  8
17
  2
LONGP100
 10
97.7900
 20
41.9100
 30
0.0000
 41
1.5240
 42
1.5240
 43
1.0000
 50
0.0000
  0
INSERT
  8
29
  2
LONGP100
 10
97.7900
 20
41.9100
 30
0.0000
 41
1.7272
 42
1.7272
 43
1.0000
 50
0.0000
  0
INSERT
  8
30
  2
LONGP100
 10
97.7900
 20
41.9100
 30
0.0000
 41
1.7272
 42
1.7272
 43
1.0000
 50
0.0000
  0
CIRCLE
  8
44
 10
97.7900
 20
41.9100
 30
0.0000
 40
0.5080
  0
INSERT
  8
29
  2
RECT
 10
94.6150
 20
39.3700
 30
0.0000
 41
1.4732
 42
0.8382
 43
1.0000
 50
0.0000
  0
INSERT
  8
31
  2
RECT
 10
94.6150
 20
39.3700
 30
0.0000
 41
1.2700
 42
0.6350
 43
1.0000
 50
0.0000
  0
INSERT
  8
30
  2
RECT
 10
94.6150
 20
39.3700
 30
0.0000
 41
1.4732
 42
0.8382
 43
1.0000
 50
0.0000
  0
INSERT
  8
32
  2
RECT
 10
94.6150
 20
39.3700
 30
0.0000
 41
1.2700
 42
0.6350
 43
1.0000
 50
0.0000
  0
INSERT
  8
17
  2
LONGP100
 10
97.7900
 20
39.3700
 30
0.0000
 41
1.5240
 42
1.5240
 43
1.0000
 50
0.0000
  0
INSERT
  8
17
  2
LONGP100
 10
97.7900
 20
39.3700
 30
0.0000
 41
1.5240
 42
1.5240
 43
1.0000
 50
0.0000
  0
INSERT
  8
29
  2
LONGP100
 10
97.7900
 20
39.3700
 30
0.0000
 41
1.7272
 42
1.7272
 43
1.0000
 50
0.0000
  0
INSERT
  8
30
  2
LONGP100
 10
97.7900
 20
39.3700
 30
0.0000
 41
1.7272
 42
1.7272
 43
1.0000
 50
0.0000
  0
CIRCLE
  8
44
 10
97.7900
 20
39.3700
 30
0.0000
 40
0.5080
  0
INSERT
  8
29
  2
RECT
 10
94.6150
 20
36.8300
 30
0.0000
 41
1.4732
 42
0.8382
 43
1.0000
 50
0.0000
  0
INSERT
  8
31
  2
RECT
 10
94.6150
 20
36.8300
 30
0.0000
 41
1.2700
 42
0.6350
 43
1.0000
 50
0.0000
  0
INSERT
  8
30
  2
RECT
 10
94.6150
 20
36.8300
 30
0.0000
 41
1.4732
 42
0.8382
 43
1.0000
 50
0.0000
  0
INSERT
  8
32
  2
RECT
 10
94.6150
 20
36.8300
 30
0.0000
 41
1.2700
 42
0.6350
 43
1.0000
 50
0.0000
  0
INSERT
  8
17
  2
LONGP100
 10
97.7900
 20
36.8300
 30
0.0000
 41
1.5240
 42
1.5240
 43
1.0000
 50
0.0000
  0
INSERT
  8
17
  2
LONGP100
 10
97.7900
 20
36.8300
 30
0.0000
 41
1.5240
 42
1.5240
 43
1.0000
 50
0.0000
  0
INSERT
  8
29
  2
LONGP100
 10
97.7900
 20
36.8300
 30
0.0000
 41
1.7272
 42
1.7272
 43
1.0000
 50
0.0000
  0
INSERT
  8
30
  2
LONGP100
 10
97.7900
 20
36.8300
 30
0.0000
 41
1.7272
 42
1.7272
 43
1.0000
 50
0.0000
  0
CIRCLE
  8
44
 10
97.7900
 20
36.8300
 30
0.0000
 40
0.5080
  0
INSERT
  8
29
  2
RECT
 10
94.6150
 20
34.2900
 30
0.0000
 41
1.4732
 42
0.8382
 43
1.0000
 50
0.0000
  0
INSERT
  8
31
  2
RECT
 10
94.6150
 20
34.2900
 30
0.0000
 41
1.2700
 42
0.6350
 43
1.0000
 50
0.0000
  0
INSERT
  8
30
  2
RECT
 10
94.6150
 20
34.2900
 30
0.0000
 41
1.4732
 42
0.8382
 43
1.0000
 50
0.0000
  0
INSERT
  8
32
  2
RECT
 10
94.6150
 20
34.2900
 30
0.0000
 41
1.2700
 42
0.6350
 43
1.0000
 50
0.0000
  0
INSERT
  8
17
  2
LONGP100
 10
97.7900
 20
34.2900
 30
0.0000
 41
1.5240
 42
1.5240
 43
1.0000
 50
0.0000
  0
INSERT
  8
17
  2
LONGP100
 10
97.7900
 20
34.2900
 30
0.0000
 41
1.5240
 42
1.5240
 43
1.0000
 50
0.0000
  0
INSERT
  8
29
  2
LONGP100
 10
97.7900
 20
34.2900
 30
0.0000
 41
1.7272
 42
1.7272
 43
1.0000
 50
0.0000
  0
INSERT
  8
30
  2
LONGP100
 10
97.7900
 20
34.2900
 30
0.0000
 41
1.7272
 42
1.7272
 43
1.0000
 50
0.0000
  0
CIRCLE
  8
44
 10
97.7900
 20
34.2900
 30
0.0000
 40
0.5080
  0
INSERT
  8
29
  2
RECT
 10
94.6150
 20
31.7500
 30
0.0000
 41
1.4732
 42
0.8382
 43
1.0000
 50
0.0000
  0
INSERT
  8
31
  2
RECT
 10
94.6150
 20
31.7500
 30
0.0000
 41
1.2700
 42
0.6350
 43
1.0000
 50
0.0000
  0
INSERT
  8
30
  2
RECT
 10
94.6150
 20
31.7500
 30
0.0000
 41
1.4732
 42
0.8382
 43
1.0000
 50
0.0000
  0
INSERT
  8
32
  2
RECT
 10
94.6150
 20
31.7500
 30
0.0000
 41
1.2700
 42
0.6350
 43
1.0000
 50
0.0000
  0
INSERT
  8
17
  2
LONGP100
 10
97.7900
 20
31.7500
 30
0.0000
 41
1.5240
 42
1.5240
 43
1.0000
 50
0.0000
  0
INSERT
  8
17
  2
LONGP100
 10
97.7900
 20
31.7500
 30
0.0000
 41
1.5240
 42
1.5240
 43
1.0000
 50
0.0000
  0
INSERT
  8
29
  2
LONGP100
 10
97.7900
 20
31.7500
 30
0.0000
 41
1.7272
 42
1.7272
 43
1.0000
 50
0.0000
  0
INSERT
  8
30
  2
LONGP100
 10
97.7900
 20
31.7500
 30
0.0000
 41
1.7272
 42
1.7272
 43
1.0000
 50
0.0000
  0
CIRCLE
  8
44
 10
97.7900
 20
31.7500
 30
0.0000
 40
0.5080
  0
INSERT
  8
29
  2
RECT
 10
94.6150
 20
29.2100
 30
0.0000
 41
1.4732
 42
0.8382
 43
1.0000
 50
0.0000
  0
INSERT
  8
31
  2
RECT
 10
94.6150
 20
29.2100
 30
0.0000
 41
1.2700
 42
0.6350
 43
1.0000
 50
0.0000
  0
INSERT
  8
30
  2
RECT
 10
94.6150
 20
29.2100
 30
0.0000
 41
1.4732
 42
0.8382
 43
1.0000
 50
0.0000
  0
INSERT
  8
32
  2
RECT
 10
94.6150
 20
29.2100
 30
0.0000
 41
1.2700
 42
0.6350
 43
1.0000
 50
0.0000
  0
INSERT
  8
17
  2
LONGP100
 10
97.7900
 20
29.2100
 30
0.0000
 41
1.5240
 42
1.5240
 43
1.0000
 50
0.0000
  0
INSERT
  8
17
  2
LONGP100
 10
97.7900
 20
29.2100
 30
0.0000
 41
1.5240
 42
1.5240
 43
1.0000
 50
0.0000
  0
INSERT
  8
29
  2
LONGP100
 10
97.7900
 20
29.2100
 30
0.0000
 41
1.7272
 42
1.7272
 43
1.0000
 50
0.0000
  0
INSERT
  8
30
  2
LONGP100
 10
97.7900
 20
29.2100
 30
0.0000
 41
1.7272
 42
1.7272
 43
1.0000
 50
0.0000
  0
CIRCLE
  8
44
 10
97.7900
 20
29.2100
 30
0.0000
 40
0.5080
  0
INSERT
  8
29
  2
RECT
 10
94.6150
 20
26.6700
 30
0.0000
 41
1.4732
 42
0.8382
 43
1.0000
 50
0.0000
  0
INSERT
  8
31
  2
RECT
 10
94.6150
 20
26.6700
 30
0.0000
 41
1.2700
 42
0.6350
 43
1.0000
 50
0.0000
  0
INSERT
  8
30
  2
RECT
 10
94.6150
 20
26.6700
 30
0.0000
 41
1.4732
 42
0.8382
 43
1.0000
 50
0.0000
  0
INSERT
  8
32
  2
RECT
 10
94.6150
 20
26.6700
 30
0.0000
 41
1.2700
 42
0.6350
 43
1.0000
 50
0.0000
  0
INSERT
  8
17
  2
LONGP100
 10
97.7900
 20
26.6700
 30
0.0000
 41
1.5240
 42
1.5240
 43
1.0000
 50
0.0000
  0
INSERT
  8
17
  2
LONGP100
 10
97.7900
 20
26.6700
 30
0.0000
 41
1.5240
 42
1.5240
 43
1.0000
 50
0.0000
  0
INSERT
  8
29
  2
LONGP100
 10
97.7900
 20
26.6700
 30
0.0000
 41
1.7272
 42
1.7272
 43
1.0000
 50
0.0000
  0
INSERT
  8
30
  2
LONGP100
 10
97.7900
 20
26.6700
 30
0.0000
 41
1.7272
 42
1.7272
 43
1.0000
 50
0.0000
  0
CIRCLE
  8
44
 10
97.7900
 20
26.6700
 30
0.0000
 40
0.5080
  0
INSERT
  8
29
  2
RECT
 10
94.6150
 20
24.1300
 30
0.0000
 41
1.4732
 42
0.8382
 43
1.0000
 50
0.0000
  0
INSERT
  8
31
  2
RECT
 10
94.6150
 20
24.1300
 30
0.0000
 41
1.2700
 42
0.6350
 43
1.0000
 50
0.0000
  0
INSERT
  8
30
  2
RECT
 10
94.6150
 20
24.1300
 30
0.0000
 41
1.4732
 42
0.8382
 43
1.0000
 50
0.0000
  0
INSERT
  8
32
  2
RECT
 10
94.6150
 20
24.1300
 30
0.0000
 41
1.2700
 42
0.6350
 43
1.0000
 50
0.0000
  0
INSERT
  8
17
  2
LONGP100
 10
97.7900
 20
24.1300
 30
0.0000
 41
1.5240
 42
1.5240
 43
1.0000
 50
0.0000
  0
INSERT
  8
17
  2
LONGP100
 10
97.7900
 20
24.1300
 30
0.0000
 41
1.5240
 42
1.5240
 43
1.0000
 50
0.0000
  0
INSERT
  8
29
  2
LONGP100
 10
97.7900
 20
24.1300
 30
0.0000
 41
1.7272
 42
1.7272
 43
1.0000
 50
0.0000
  0
INSERT
  8
30
  2
LONGP100
 10
97.7900
 20
24.1300
 30
0.0000
 41
1.7272
 42
1.7272
 43
1.0000
 50
0.0000
  0
CIRCLE
  8
44
 10
97.7900
 20
24.1300
 30
0.0000
 40
0.5080
  0
INSERT
  8
29
  2
RECT
 10
94.6150
 20
21.5900
 30
0.0000
 41
1.4732
 42
0.8382
 43
1.0000
 50
0.0000
  0
INSERT
  8
31
  2
RECT
 10
94.6150
 20
21.5900
 30
0.0000
 41
1.2700
 42
0.6350
 43
1.0000
 50
0.0000
  0
INSERT
  8
30
  2
RECT
 10
94.6150
 20
21.5900
 30
0.0000
 41
1.4732
 42
0.8382
 43
1.0000
 50
0.0000
  0
INSERT
  8
32
  2
RECT
 10
94.6150
 20
21.5900
 30
0.0000
 41
1.2700
 42
0.6350
 43
1.0000
 50
0.0000
  0
INSERT
  8
17
  2
LONGP100
 10
97.7900
 20
21.5900
 30
0.0000
 41
1.5240
 42
1.5240
 43
1.0000
 50
0.0000
  0
INSERT
  8
17
  2
LONGP100
 10
97.7900
 20
21.5900
 30
0.0000
 41
1.5240
 42
1.5240
 43
1.0000
 50
0.0000
  0
INSERT
  8
29
  2
LONGP100
 10
97.7900
 20
21.5900
 30
0.0000
 41
1.7272
 42
1.7272
 43
1.0000
 50
0.0000
  0
INSERT
  8
30
  2
LONGP100
 10
97.7900
 20
21.5900
 30
0.0000
 41
1.7272
 42
1.7272
 43
1.0000
 50
0.0000
  0
CIRCLE
  8
44
 10
97.7900
 20
21.5900
 30
0.0000
 40
0.5080
  0
INSERT
  8
29
  2
RECT
 10
94.6150
 20
19.0500
 30
0.0000
 41
1.4732
 42
0.8382
 43
1.0000
 50
0.0000
  0
INSERT
  8
31
  2
RECT
 10
94.6150
 20
19.0500
 30
0.0000
 41
1.2700
 42
0.6350
 43
1.0000
 50
0.0000
  0
INSERT
  8
30
  2
RECT
 10
94.6150
 20
19.0500
 30
0.0000
 41
1.4732
 42
0.8382
 43
1.0000
 50
0.0000
  0
INSERT
  8
32
  2
RECT
 10
94.6150
 20
19.0500
 30
0.0000
 41
1.2700
 42
0.6350
 43
1.0000
 50
0.0000
  0
INSERT
  8
17
  2
LONGP100
 10
97.7900
 20
19.0500
 30
0.0000
 41
1.5240
 42
1.5240
 43
1.0000
 50
0.0000
  0
INSERT
  8
17
  2
LONGP100
 10
97.7900
 20
19.0500
 30
0.0000
 41
1.5240
 42
1.5240
 43
1.0000
 50
0.0000
  0
INSERT
  8
29
  2
LONGP100
 10
97.7900
 20
19.0500
 30
0.0000
 41
1.7272
 42
1.7272
 43
1.0000
 50
0.0000
  0
INSERT
  8
30
  2
LONGP100
 10
97.7900
 20
19.0500
 30
0.0000
 41
1.7272
 42
1.7272
 43
1.0000
 50
0.0000
  0
CIRCLE
  8
44
 10
97.7900
 20
19.0500
 30
0.0000
 40
0.5080
  0
INSERT
  8
29
  2
RECT
 10
94.6150
 20
16.5100
 30
0.0000
 41
1.4732
 42
0.8382
 43
1.0000
 50
0.0000
  0
INSERT
  8
31
  2
RECT
 10
94.6150
 20
16.5100
 30
0.0000
 41
1.2700
 42
0.6350
 43
1.0000
 50
0.0000
  0
INSERT
  8
30
  2
RECT
 10
94.6150
 20
16.5100
 30
0.0000
 41
1.4732
 42
0.8382
 43
1.0000
 50
0.0000
  0
INSERT
  8
32
  2
RECT
 10
94.6150
 20
16.5100
 30
0.0000
 41
1.2700
 42
0.6350
 43
1.0000
 50
0.0000
  0
INSERT
  8
17
  2
LONGP100
 10
97.7900
 20
16.5100
 30
0.0000
 41
1.5240
 42
1.5240
 43
1.0000
 50
0.0000
  0
INSERT
  8
17
  2
LONGP100
 10
97.7900
 20
16.5100
 30
0.0000
 41
1.5240
 42
1.5240
 43
1.0000
 50
0.0000
  0
INSERT
  8
29
  2
LONGP100
 10
97.7900
 20
16.5100
 30
0.0000
 41
1.7272
 42
1.7272
 43
1.0000
 50
0.0000
  0
INSERT
  8
30
  2
LONGP100
 10
97.7900
 20
16.5100
 30
0.0000
 41
1.7272
 42
1.7272
 43
1.0000
 50
0.0000
  0
CIRCLE
  8
44
 10
97.7900
 20
16.5100
 30
0.0000
 40
0.5080
  0
INSERT
  8
29
  2
RECT
 10
94.6150
 20
13.9700
 30
0.0000
 41
1.4732
 42
0.8382
 43
1.0000
 50
0.0000
  0
INSERT
  8
31
  2
RECT
 10
94.6150
 20
13.9700
 30
0.0000
 41
1.2700
 42
0.6350
 43
1.0000
 50
0.0000
  0
INSERT
  8
30
  2
RECT
 10
94.6150
 20
13.9700
 30
0.0000
 41
1.4732
 42
0.8382
 43
1.0000
 50
0.0000
  0
INSERT
  8
32
  2
RECT
 10
94.6150
 20
13.9700
 30
0.0000
 41
1.2700
 42
0.6350
 43
1.0000
 50
0.0000
  0
INSERT
  8
17
  2
LONGP100
 10
97.7900
 20
13.9700
 30
0.0000
 41
1.5240
 42
1.5240
 43
1.0000
 50
0.0000
  0
INSERT
  8
17
  2
LONGP100
 10
97.7900
 20
13.9700
 30
0.0000
 41
1.5240
 42
1.5240
 43
1.0000
 50
0.0000
  0
INSERT
  8
29
  2
LONGP100
 10
97.7900
 20
13.9700
 30
0.0000
 41
1.7272
 42
1.7272
 43
1.0000
 50
0.0000
  0
INSERT
  8
30
  2
LONGP100
 10
97.7900
 20
13.9700
 30
0.0000
 41
1.7272
 42
1.7272
 43
1.0000
 50
0.0000
  0
CIRCLE
  8
44
 10
97.7900
 20
13.9700
 30
0.0000
 40
0.5080
  0
INSERT
  8
29
  2
RECT
 10
94.6150
 20
11.4300
 30
0.0000
 41
1.4732
 42
0.8382
 43
1.0000
 50
0.0000
  0
INSERT
  8
31
  2
RECT
 10
94.6150
 20
11.4300
 30
0.0000
 41
1.2700
 42
0.6350
 43
1.0000
 50
0.0000
  0
INSERT
  8
30
  2
RECT
 10
94.6150
 20
11.4300
 30
0.0000
 41
1.4732
 42
0.8382
 43
1.0000
 50
0.0000
  0
INSERT
  8
32
  2
RECT
 10
94.6150
 20
11.4300
 30
0.0000
 41
1.2700
 42
0.6350
 43
1.0000
 50
0.0000
  0
INSERT
  8
17
  2
LONGP100
 10
97.7900
 20
11.4300
 30
0.0000
 41
1.5240
 42
1.5240
 43
1.0000
 50
0.0000
  0
INSERT
  8
17
  2
LONGP100
 10
97.7900
 20
11.4300
 30
0.0000
 41
1.5240
 42
1.5240
 43
1.0000
 50
0.0000
  0
INSERT
  8
29
  2
LONGP100
 10
97.7900
 20
11.4300
 30
0.0000
 41
1.7272
 42
1.7272
 43
1.0000
 50
0.0000
  0
INSERT
  8
30
  2
LONGP100
 10
97.7900
 20
11.4300
 30
0.0000
 41
1.7272
 42
1.7272
 43
1.0000
 50
0.0000
  0
CIRCLE
  8
44
 10
97.7900
 20
11.4300
 30
0.0000
 40
0.5080
  0
INSERT
  8
29
  2
RECT
 10
94.6150
 20
8.8900
 30
0.0000
 41
1.4732
 42
0.8382
 43
1.0000
 50
0.0000
  0
INSERT
  8
31
  2
RECT
 10
94.6150
 20
8.8900
 30
0.0000
 41
1.2700
 42
0.6350
 43
1.0000
 50
0.0000
  0
INSERT
  8
30
  2
RECT
 10
94.6150
 20
8.8900
 30
0.0000
 41
1.4732
 42
0.8382
 43
1.0000
 50
0.0000
  0
INSERT
  8
32
  2
RECT
 10
94.6150
 20
8.8900
 30
0.0000
 41
1.2700
 42
0.6350
 43
1.0000
 50
0.0000
  0
INSERT
  8
17
  2
LONGP100
 10
97.7900
 20
8.8900
 30
0.0000
 41
1.5240
 42
1.5240
 43
1.0000
 50
0.0000
  0
INSERT
  8
17
  2
LONGP100
 10
97.7900
 20
8.8900
 30
0.0000
 41
1.5240
 42
1.5240
 43
1.0000
 50
0.0000
  0
INSERT
  8
29
  2
LONGP100
 10
97.7900
 20
8.8900
 30
0.0000
 41
1.7272
 42
1.7272
 43
1.0000
 50
0.0000
  0
INSERT
  8
30
  2
LONGP100
 10
97.7900
 20
8.8900
 30
0.0000
 41
1.7272
 42
1.7272
 43
1.0000
 50
0.0000
  0
CIRCLE
  8
44
 10
97.7900
 20
8.8900
 30
0.0000
 40
0.5080
  0
INSERT
  8
29
  2
RECT
 10
94.6150
 20
6.3500
 30
0.0000
 41
1.4732
 42
0.8382
 43
1.0000
 50
0.0000
  0
INSERT
  8
31
  2
RECT
 10
94.6150
 20
6.3500
 30
0.0000
 41
1.2700
 42
0.6350
 43
1.0000
 50
0.0000
  0
INSERT
  8
30
  2
RECT
 10
94.6150
 20
6.3500
 30
0.0000
 41
1.4732
 42
0.8382
 43
1.0000
 50
0.0000
  0
INSERT
  8
32
  2
RECT
 10
94.6150
 20
6.3500
 30
0.0000
 41
1.2700
 42
0.6350
 43
1.0000
 50
0.0000
  0
INSERT
  8
17
  2
LONGP100
 10
97.7900
 20
6.3500
 30
0.0000
 41
1.5240
 42
1.5240
 43
1.0000
 50
0.0000
  0
INSERT
  8
17
  2
LONGP100
 10
97.7900
 20
6.3500
 30
0.0000
 41
1.5240
 42
1.5240
 43
1.0000
 50
0.0000
  0
INSERT
  8
29
  2
LONGP100
 10
97.7900
 20
6.3500
 30
0.0000
 41
1.7272
 42
1.7272
 43
1.0000
 50
0.0000
  0
INSERT
  8
30
  2
LONGP100
 10
97.7900
 20
6.3500
 30
0.0000
 41
1.7272
 42
1.7272
 43
1.0000
 50
0.0000
  0
CIRCLE
  8
44
 10
97.7900
 20
6.3500
 30
0.0000
 40
0.5080
  0
ENDSEC
  0
EOF
